<?xml version="1.0" encoding="utf-8"?>
<svg xmlns="http://www.w3.org/2000/svg" xmlns:xlink="http://www.w3.org/1999/xlink" width="672" height="480" viewBox="0 0 2688 1920">
<defs>
  <clipPath id="clip300">
    <rect x="0" y="0" width="2688" height="1920"/>
  </clipPath>
</defs>
<path clip-path="url(#clip300)" d="M0 1920 L2688 1920 L2688 -4.26326e-14 L0 -4.26326e-14  Z" fill="#ffffff" fill-rule="evenodd" fill-opacity="1"/>
<defs>
  <clipPath id="clip301">
    <rect x="189" y="127" width="2453" height="1607"/>
  </clipPath>
</defs>
<path clip-path="url(#clip300)" d="M189.154 1734.12 L2640.76 1734.12 L2640.76 127.792 L189.154 127.792  Z" fill="#ffffff" fill-rule="evenodd" fill-opacity="1"/>
<polyline clip-path="url(#clip301)" style="stroke:#000000; stroke-linecap:round; stroke-linejoin:round; stroke-width:2; stroke-opacity:0.1; fill:none" points="258.539,1734.12 258.539,127.792 "/>
<polyline clip-path="url(#clip301)" style="stroke:#000000; stroke-linecap:round; stroke-linejoin:round; stroke-width:2; stroke-opacity:0.1; fill:none" points="836.747,1734.12 836.747,127.792 "/>
<polyline clip-path="url(#clip301)" style="stroke:#000000; stroke-linecap:round; stroke-linejoin:round; stroke-width:2; stroke-opacity:0.1; fill:none" points="1414.95,1734.12 1414.95,127.792 "/>
<polyline clip-path="url(#clip301)" style="stroke:#000000; stroke-linecap:round; stroke-linejoin:round; stroke-width:2; stroke-opacity:0.1; fill:none" points="1993.16,1734.12 1993.16,127.792 "/>
<polyline clip-path="url(#clip301)" style="stroke:#000000; stroke-linecap:round; stroke-linejoin:round; stroke-width:2; stroke-opacity:0.1; fill:none" points="2571.37,1734.12 2571.37,127.792 "/>
<polyline clip-path="url(#clip301)" style="stroke:#000000; stroke-linecap:round; stroke-linejoin:round; stroke-width:2; stroke-opacity:0.1; fill:none" points="189.154,1692 2640.76,1692 "/>
<polyline clip-path="url(#clip301)" style="stroke:#000000; stroke-linecap:round; stroke-linejoin:round; stroke-width:2; stroke-opacity:0.1; fill:none" points="189.154,1312.32 2640.76,1312.32 "/>
<polyline clip-path="url(#clip301)" style="stroke:#000000; stroke-linecap:round; stroke-linejoin:round; stroke-width:2; stroke-opacity:0.1; fill:none" points="189.154,932.629 2640.76,932.629 "/>
<polyline clip-path="url(#clip301)" style="stroke:#000000; stroke-linecap:round; stroke-linejoin:round; stroke-width:2; stroke-opacity:0.1; fill:none" points="189.154,552.942 2640.76,552.942 "/>
<polyline clip-path="url(#clip301)" style="stroke:#000000; stroke-linecap:round; stroke-linejoin:round; stroke-width:2; stroke-opacity:0.1; fill:none" points="189.154,173.254 2640.76,173.254 "/>
<polyline clip-path="url(#clip300)" style="stroke:#000000; stroke-linecap:round; stroke-linejoin:round; stroke-width:4; stroke-opacity:1; fill:none" points="189.154,1734.12 2640.76,1734.12 "/>
<polyline clip-path="url(#clip300)" style="stroke:#000000; stroke-linecap:round; stroke-linejoin:round; stroke-width:4; stroke-opacity:1; fill:none" points="258.539,1734.12 258.539,1715.22 "/>
<polyline clip-path="url(#clip300)" style="stroke:#000000; stroke-linecap:round; stroke-linejoin:round; stroke-width:4; stroke-opacity:1; fill:none" points="836.747,1734.12 836.747,1715.22 "/>
<polyline clip-path="url(#clip300)" style="stroke:#000000; stroke-linecap:round; stroke-linejoin:round; stroke-width:4; stroke-opacity:1; fill:none" points="1414.95,1734.12 1414.95,1715.22 "/>
<polyline clip-path="url(#clip300)" style="stroke:#000000; stroke-linecap:round; stroke-linejoin:round; stroke-width:4; stroke-opacity:1; fill:none" points="1993.16,1734.12 1993.16,1715.22 "/>
<polyline clip-path="url(#clip300)" style="stroke:#000000; stroke-linecap:round; stroke-linejoin:round; stroke-width:4; stroke-opacity:1; fill:none" points="2571.37,1734.12 2571.37,1715.22 "/>
<path clip-path="url(#clip300)" d="M258.539 1767.34 Q254.928 1767.34 253.099 1770.9 Q251.294 1774.45 251.294 1781.58 Q251.294 1788.68 253.099 1792.25 Q254.928 1795.79 258.539 1795.79 Q262.173 1795.79 263.979 1792.25 Q265.807 1788.68 265.807 1781.58 Q265.807 1774.45 263.979 1770.9 Q262.173 1767.34 258.539 1767.34 M258.539 1763.64 Q264.349 1763.64 267.405 1768.24 Q270.483 1772.83 270.483 1781.58 Q270.483 1790.3 267.405 1794.91 Q264.349 1799.49 258.539 1799.49 Q252.729 1799.49 249.65 1794.91 Q246.595 1790.3 246.595 1781.58 Q246.595 1772.83 249.65 1768.24 Q252.729 1763.64 258.539 1763.64 Z" fill="#000000" fill-rule="nonzero" fill-opacity="1" /><path clip-path="url(#clip300)" d="M827.025 1764.26 L845.381 1764.26 L845.381 1768.2 L831.307 1768.2 L831.307 1776.67 Q832.326 1776.32 833.344 1776.16 Q834.363 1775.97 835.381 1775.97 Q841.168 1775.97 844.548 1779.15 Q847.927 1782.32 847.927 1787.73 Q847.927 1793.31 844.455 1796.41 Q840.983 1799.49 834.664 1799.49 Q832.488 1799.49 830.219 1799.12 Q827.974 1798.75 825.566 1798.01 L825.566 1793.31 Q827.65 1794.45 829.872 1795 Q832.094 1795.56 834.571 1795.56 Q838.576 1795.56 840.914 1793.45 Q843.252 1791.34 843.252 1787.73 Q843.252 1784.12 840.914 1782.02 Q838.576 1779.91 834.571 1779.91 Q832.696 1779.91 830.821 1780.33 Q828.969 1780.74 827.025 1781.62 L827.025 1764.26 Z" fill="#000000" fill-rule="nonzero" fill-opacity="1" /><path clip-path="url(#clip300)" d="M1389.64 1794.89 L1397.28 1794.89 L1397.28 1768.52 L1388.97 1770.19 L1388.97 1765.93 L1397.24 1764.26 L1401.91 1764.26 L1401.91 1794.89 L1409.55 1794.89 L1409.55 1798.82 L1389.64 1798.82 L1389.64 1794.89 Z" fill="#000000" fill-rule="nonzero" fill-opacity="1" /><path clip-path="url(#clip300)" d="M1428.99 1767.34 Q1425.38 1767.34 1423.55 1770.9 Q1421.75 1774.45 1421.75 1781.58 Q1421.75 1788.68 1423.55 1792.25 Q1425.38 1795.79 1428.99 1795.79 Q1432.63 1795.79 1434.43 1792.25 Q1436.26 1788.68 1436.26 1781.58 Q1436.26 1774.45 1434.43 1770.9 Q1432.63 1767.34 1428.99 1767.34 M1428.99 1763.64 Q1434.8 1763.64 1437.86 1768.24 Q1440.94 1772.83 1440.94 1781.58 Q1440.94 1790.3 1437.86 1794.91 Q1434.8 1799.49 1428.99 1799.49 Q1423.18 1799.49 1420.11 1794.91 Q1417.05 1790.3 1417.05 1781.58 Q1417.05 1772.83 1420.11 1768.24 Q1423.18 1763.64 1428.99 1763.64 Z" fill="#000000" fill-rule="nonzero" fill-opacity="1" /><path clip-path="url(#clip300)" d="M1968.35 1794.89 L1975.99 1794.89 L1975.99 1768.52 L1967.68 1770.19 L1967.68 1765.93 L1975.94 1764.26 L1980.62 1764.26 L1980.62 1794.89 L1988.26 1794.89 L1988.26 1798.82 L1968.35 1798.82 L1968.35 1794.89 Z" fill="#000000" fill-rule="nonzero" fill-opacity="1" /><path clip-path="url(#clip300)" d="M1997.75 1764.26 L2016.1 1764.26 L2016.1 1768.2 L2002.03 1768.2 L2002.03 1776.67 Q2003.05 1776.32 2004.07 1776.16 Q2005.08 1775.97 2006.1 1775.97 Q2011.89 1775.97 2015.27 1779.15 Q2018.65 1782.32 2018.65 1787.73 Q2018.65 1793.31 2015.18 1796.41 Q2011.7 1799.49 2005.39 1799.49 Q2003.21 1799.49 2000.94 1799.12 Q1998.7 1798.75 1996.29 1798.01 L1996.29 1793.31 Q1998.37 1794.45 2000.59 1795 Q2002.82 1795.56 2005.29 1795.56 Q2009.3 1795.56 2011.64 1793.45 Q2013.97 1791.34 2013.97 1787.73 Q2013.97 1784.12 2011.64 1782.02 Q2009.3 1779.91 2005.29 1779.91 Q2003.42 1779.91 2001.54 1780.33 Q1999.69 1780.74 1997.75 1781.62 L1997.75 1764.26 Z" fill="#000000" fill-rule="nonzero" fill-opacity="1" /><path clip-path="url(#clip300)" d="M2550.14 1794.89 L2566.46 1794.89 L2566.46 1798.82 L2544.52 1798.82 L2544.52 1794.89 Q2547.18 1792.13 2551.76 1787.5 Q2556.37 1782.85 2557.55 1781.51 Q2559.8 1778.98 2560.68 1777.25 Q2561.58 1775.49 2561.58 1773.8 Q2561.58 1771.04 2559.63 1769.31 Q2557.71 1767.57 2554.61 1767.57 Q2552.41 1767.57 2549.96 1768.34 Q2547.53 1769.1 2544.75 1770.65 L2544.75 1765.93 Q2547.57 1764.79 2550.03 1764.21 Q2552.48 1763.64 2554.52 1763.64 Q2559.89 1763.64 2563.08 1766.32 Q2566.28 1769.01 2566.28 1773.5 Q2566.28 1775.63 2565.47 1777.55 Q2564.68 1779.45 2562.57 1782.04 Q2562 1782.71 2558.89 1785.93 Q2555.79 1789.12 2550.14 1794.89 Z" fill="#000000" fill-rule="nonzero" fill-opacity="1" /><path clip-path="url(#clip300)" d="M2586.28 1767.34 Q2582.67 1767.34 2580.84 1770.9 Q2579.03 1774.45 2579.03 1781.58 Q2579.03 1788.68 2580.84 1792.25 Q2582.67 1795.79 2586.28 1795.79 Q2589.91 1795.79 2591.72 1792.25 Q2593.55 1788.68 2593.55 1781.58 Q2593.55 1774.45 2591.72 1770.9 Q2589.91 1767.34 2586.28 1767.34 M2586.28 1763.64 Q2592.09 1763.64 2595.14 1768.24 Q2598.22 1772.83 2598.22 1781.58 Q2598.22 1790.3 2595.14 1794.91 Q2592.09 1799.49 2586.28 1799.49 Q2580.47 1799.49 2577.39 1794.91 Q2574.33 1790.3 2574.33 1781.58 Q2574.33 1772.83 2577.39 1768.24 Q2580.47 1763.64 2586.28 1763.64 Z" fill="#000000" fill-rule="nonzero" fill-opacity="1" /><path clip-path="url(#clip300)" d="M1354.11 1837.53 L1354.11 1847.65 L1366.18 1847.65 L1366.18 1852.2 L1354.11 1852.2 L1354.11 1871.56 Q1354.11 1875.92 1355.29 1877.16 Q1356.5 1878.4 1360.16 1878.4 L1366.18 1878.4 L1366.18 1883.3 L1360.16 1883.3 Q1353.38 1883.3 1350.8 1880.79 Q1348.23 1878.24 1348.23 1871.56 L1348.23 1852.2 L1343.93 1852.2 L1343.93 1847.65 L1348.23 1847.65 L1348.23 1837.53 L1354.11 1837.53 Z" fill="#000000" fill-rule="nonzero" fill-opacity="1" /><path clip-path="url(#clip300)" d="M1373.88 1847.65 L1379.74 1847.65 L1379.74 1883.3 L1373.88 1883.3 L1373.88 1847.65 M1373.88 1833.78 L1379.74 1833.78 L1379.74 1841.19 L1373.88 1841.19 L1373.88 1833.78 Z" fill="#000000" fill-rule="nonzero" fill-opacity="1" /><path clip-path="url(#clip300)" d="M1419.75 1854.5 Q1421.94 1850.55 1425 1848.67 Q1428.05 1846.79 1432.19 1846.79 Q1437.76 1846.79 1440.78 1850.71 Q1443.81 1854.59 1443.81 1861.78 L1443.81 1883.3 L1437.92 1883.3 L1437.92 1861.98 Q1437.92 1856.85 1436.11 1854.37 Q1434.29 1851.89 1430.57 1851.89 Q1426.02 1851.89 1423.37 1854.91 Q1420.73 1857.93 1420.73 1863.15 L1420.73 1883.3 L1414.84 1883.3 L1414.84 1861.98 Q1414.84 1856.82 1413.03 1854.37 Q1411.22 1851.89 1407.43 1851.89 Q1402.94 1851.89 1400.3 1854.94 Q1397.66 1857.97 1397.66 1863.15 L1397.66 1883.3 L1391.77 1883.3 L1391.77 1847.65 L1397.66 1847.65 L1397.66 1853.19 Q1399.66 1849.91 1402.46 1848.35 Q1405.26 1846.79 1409.11 1846.79 Q1413 1846.79 1415.7 1848.77 Q1418.44 1850.74 1419.75 1854.5 Z" fill="#000000" fill-rule="nonzero" fill-opacity="1" /><path clip-path="url(#clip300)" d="M1485.98 1864.01 L1485.98 1866.88 L1459.05 1866.88 Q1459.44 1872.92 1462.68 1876.11 Q1465.96 1879.26 1471.78 1879.26 Q1475.16 1879.26 1478.31 1878.43 Q1481.49 1877.6 1484.61 1875.95 L1484.61 1881.49 Q1481.46 1882.82 1478.15 1883.52 Q1474.84 1884.22 1471.43 1884.22 Q1462.9 1884.22 1457.91 1879.26 Q1452.94 1874.29 1452.94 1865.83 Q1452.94 1857.07 1457.65 1851.95 Q1462.4 1846.79 1470.42 1846.79 Q1477.61 1846.79 1481.78 1851.44 Q1485.98 1856.06 1485.98 1864.01 M1480.12 1862.29 Q1480.06 1857.49 1477.42 1854.62 Q1474.81 1851.76 1470.48 1851.76 Q1465.58 1851.76 1462.62 1854.53 Q1459.69 1857.3 1459.24 1862.33 L1480.12 1862.29 Z" fill="#000000" fill-rule="nonzero" fill-opacity="1" /><polyline clip-path="url(#clip300)" style="stroke:#000000; stroke-linecap:round; stroke-linejoin:round; stroke-width:4; stroke-opacity:1; fill:none" points="189.154,1734.12 189.154,127.792 "/>
<polyline clip-path="url(#clip300)" style="stroke:#000000; stroke-linecap:round; stroke-linejoin:round; stroke-width:4; stroke-opacity:1; fill:none" points="189.154,1692 208.052,1692 "/>
<polyline clip-path="url(#clip300)" style="stroke:#000000; stroke-linecap:round; stroke-linejoin:round; stroke-width:4; stroke-opacity:1; fill:none" points="189.154,1312.32 208.052,1312.32 "/>
<polyline clip-path="url(#clip300)" style="stroke:#000000; stroke-linecap:round; stroke-linejoin:round; stroke-width:4; stroke-opacity:1; fill:none" points="189.154,932.629 208.052,932.629 "/>
<polyline clip-path="url(#clip300)" style="stroke:#000000; stroke-linecap:round; stroke-linejoin:round; stroke-width:4; stroke-opacity:1; fill:none" points="189.154,552.942 208.052,552.942 "/>
<polyline clip-path="url(#clip300)" style="stroke:#000000; stroke-linecap:round; stroke-linejoin:round; stroke-width:4; stroke-opacity:1; fill:none" points="189.154,173.254 208.052,173.254 "/>
<path clip-path="url(#clip300)" d="M61.4965 1677.8 Q57.8854 1677.8 56.0567 1681.37 Q54.2512 1684.91 54.2512 1692.04 Q54.2512 1699.15 56.0567 1702.71 Q57.8854 1706.25 61.4965 1706.25 Q65.1307 1706.25 66.9363 1702.71 Q68.765 1699.15 68.765 1692.04 Q68.765 1684.91 66.9363 1681.37 Q65.1307 1677.8 61.4965 1677.8 M61.4965 1674.1 Q67.3067 1674.1 70.3622 1678.71 Q73.4409 1683.29 73.4409 1692.04 Q73.4409 1700.77 70.3622 1705.37 Q67.3067 1709.96 61.4965 1709.96 Q55.6864 1709.96 52.6077 1705.37 Q49.5521 1700.77 49.5521 1692.04 Q49.5521 1683.29 52.6077 1678.71 Q55.6864 1674.1 61.4965 1674.1 Z" fill="#000000" fill-rule="nonzero" fill-opacity="1" /><path clip-path="url(#clip300)" d="M81.6584 1703.4 L86.5427 1703.4 L86.5427 1709.28 L81.6584 1709.28 L81.6584 1703.4 Z" fill="#000000" fill-rule="nonzero" fill-opacity="1" /><path clip-path="url(#clip300)" d="M106.728 1677.8 Q103.117 1677.8 101.288 1681.37 Q99.4824 1684.91 99.4824 1692.04 Q99.4824 1699.15 101.288 1702.71 Q103.117 1706.25 106.728 1706.25 Q110.362 1706.25 112.168 1702.71 Q113.996 1699.15 113.996 1692.04 Q113.996 1684.91 112.168 1681.37 Q110.362 1677.8 106.728 1677.8 M106.728 1674.1 Q112.538 1674.1 115.593 1678.71 Q118.672 1683.29 118.672 1692.04 Q118.672 1700.77 115.593 1705.37 Q112.538 1709.96 106.728 1709.96 Q100.918 1709.96 97.8389 1705.37 Q94.7834 1700.77 94.7834 1692.04 Q94.7834 1683.29 97.8389 1678.71 Q100.918 1674.1 106.728 1674.1 Z" fill="#000000" fill-rule="nonzero" fill-opacity="1" /><path clip-path="url(#clip300)" d="M136.89 1677.8 Q133.279 1677.8 131.45 1681.37 Q129.644 1684.91 129.644 1692.04 Q129.644 1699.15 131.45 1702.71 Q133.279 1706.25 136.89 1706.25 Q140.524 1706.25 142.329 1702.71 Q144.158 1699.15 144.158 1692.04 Q144.158 1684.91 142.329 1681.37 Q140.524 1677.8 136.89 1677.8 M136.89 1674.1 Q142.7 1674.1 145.755 1678.71 Q148.834 1683.29 148.834 1692.04 Q148.834 1700.77 145.755 1705.37 Q142.7 1709.96 136.89 1709.96 Q131.079 1709.96 128.001 1705.37 Q124.945 1700.77 124.945 1692.04 Q124.945 1683.29 128.001 1678.71 Q131.079 1674.1 136.89 1674.1 Z" fill="#000000" fill-rule="nonzero" fill-opacity="1" /><path clip-path="url(#clip300)" d="M62.4919 1298.12 Q58.8808 1298.12 57.0521 1301.68 Q55.2465 1305.22 55.2465 1312.35 Q55.2465 1319.46 57.0521 1323.02 Q58.8808 1326.56 62.4919 1326.56 Q66.1261 1326.56 67.9317 1323.02 Q69.7604 1319.46 69.7604 1312.35 Q69.7604 1305.22 67.9317 1301.68 Q66.1261 1298.12 62.4919 1298.12 M62.4919 1294.41 Q68.302 1294.41 71.3576 1299.02 Q74.4363 1303.6 74.4363 1312.35 Q74.4363 1321.08 71.3576 1325.68 Q68.302 1330.27 62.4919 1330.27 Q56.6817 1330.27 53.603 1325.68 Q50.5475 1321.08 50.5475 1312.35 Q50.5475 1303.6 53.603 1299.02 Q56.6817 1294.41 62.4919 1294.41 Z" fill="#000000" fill-rule="nonzero" fill-opacity="1" /><path clip-path="url(#clip300)" d="M82.6538 1323.72 L87.538 1323.72 L87.538 1329.6 L82.6538 1329.6 L82.6538 1323.72 Z" fill="#000000" fill-rule="nonzero" fill-opacity="1" /><path clip-path="url(#clip300)" d="M101.751 1325.66 L118.07 1325.66 L118.07 1329.6 L96.126 1329.6 L96.126 1325.66 Q98.788 1322.91 103.371 1318.28 Q107.978 1313.62 109.158 1312.28 Q111.404 1309.76 112.283 1308.02 Q113.186 1306.26 113.186 1304.57 Q113.186 1301.82 111.242 1300.08 Q109.32 1298.35 106.218 1298.35 Q104.019 1298.35 101.566 1299.11 Q99.1352 1299.87 96.3574 1301.43 L96.3574 1296.7 Q99.1815 1295.57 101.635 1294.99 Q104.089 1294.41 106.126 1294.41 Q111.496 1294.41 114.691 1297.1 Q117.885 1299.78 117.885 1304.27 Q117.885 1306.4 117.075 1308.32 Q116.288 1310.22 114.181 1312.81 Q113.603 1313.49 110.501 1316.7 Q107.399 1319.9 101.751 1325.66 Z" fill="#000000" fill-rule="nonzero" fill-opacity="1" /><path clip-path="url(#clip300)" d="M127.931 1295.04 L146.288 1295.04 L146.288 1298.97 L132.214 1298.97 L132.214 1307.44 Q133.232 1307.1 134.251 1306.93 Q135.269 1306.75 136.288 1306.75 Q142.075 1306.75 145.454 1309.92 Q148.834 1313.09 148.834 1318.51 Q148.834 1324.09 145.362 1327.19 Q141.89 1330.27 135.57 1330.27 Q133.394 1330.27 131.126 1329.9 Q128.88 1329.53 126.473 1328.79 L126.473 1324.09 Q128.556 1325.22 130.779 1325.78 Q133.001 1326.33 135.478 1326.33 Q139.482 1326.33 141.82 1324.23 Q144.158 1322.12 144.158 1318.51 Q144.158 1314.9 141.82 1312.79 Q139.482 1310.68 135.478 1310.68 Q133.603 1310.68 131.728 1311.1 Q129.876 1311.52 127.931 1312.4 L127.931 1295.04 Z" fill="#000000" fill-rule="nonzero" fill-opacity="1" /><path clip-path="url(#clip300)" d="M61.4965 918.428 Q57.8854 918.428 56.0567 921.993 Q54.2512 925.534 54.2512 932.664 Q54.2512 939.77 56.0567 943.335 Q57.8854 946.877 61.4965 946.877 Q65.1307 946.877 66.9363 943.335 Q68.765 939.77 68.765 932.664 Q68.765 925.534 66.9363 921.993 Q65.1307 918.428 61.4965 918.428 M61.4965 914.724 Q67.3067 914.724 70.3622 919.331 Q73.4409 923.914 73.4409 932.664 Q73.4409 941.391 70.3622 945.997 Q67.3067 950.58 61.4965 950.58 Q55.6864 950.58 52.6077 945.997 Q49.5521 941.391 49.5521 932.664 Q49.5521 923.914 52.6077 919.331 Q55.6864 914.724 61.4965 914.724 Z" fill="#000000" fill-rule="nonzero" fill-opacity="1" /><path clip-path="url(#clip300)" d="M81.6584 944.03 L86.5427 944.03 L86.5427 949.909 L81.6584 949.909 L81.6584 944.03 Z" fill="#000000" fill-rule="nonzero" fill-opacity="1" /><path clip-path="url(#clip300)" d="M96.7741 915.349 L115.13 915.349 L115.13 919.284 L101.056 919.284 L101.056 927.756 Q102.075 927.409 103.094 927.247 Q104.112 927.062 105.131 927.062 Q110.918 927.062 114.297 930.233 Q117.677 933.405 117.677 938.821 Q117.677 944.4 114.205 947.502 Q110.732 950.58 104.413 950.58 Q102.237 950.58 99.9685 950.21 Q97.7232 949.84 95.3158 949.099 L95.3158 944.4 Q97.3991 945.534 99.6213 946.09 Q101.844 946.645 104.32 946.645 Q108.325 946.645 110.663 944.539 Q113.001 942.432 113.001 938.821 Q113.001 935.21 110.663 933.104 Q108.325 930.997 104.32 930.997 Q102.445 930.997 100.57 931.414 Q98.7185 931.831 96.7741 932.71 L96.7741 915.349 Z" fill="#000000" fill-rule="nonzero" fill-opacity="1" /><path clip-path="url(#clip300)" d="M136.89 918.428 Q133.279 918.428 131.45 921.993 Q129.644 925.534 129.644 932.664 Q129.644 939.77 131.45 943.335 Q133.279 946.877 136.89 946.877 Q140.524 946.877 142.329 943.335 Q144.158 939.77 144.158 932.664 Q144.158 925.534 142.329 921.993 Q140.524 918.428 136.89 918.428 M136.89 914.724 Q142.7 914.724 145.755 919.331 Q148.834 923.914 148.834 932.664 Q148.834 941.391 145.755 945.997 Q142.7 950.58 136.89 950.58 Q131.079 950.58 128.001 945.997 Q124.945 941.391 124.945 932.664 Q124.945 923.914 128.001 919.331 Q131.079 914.724 136.89 914.724 Z" fill="#000000" fill-rule="nonzero" fill-opacity="1" /><path clip-path="url(#clip300)" d="M62.4919 538.74 Q58.8808 538.74 57.0521 542.305 Q55.2465 545.847 55.2465 552.976 Q55.2465 560.083 57.0521 563.648 Q58.8808 567.189 62.4919 567.189 Q66.1261 567.189 67.9317 563.648 Q69.7604 560.083 69.7604 552.976 Q69.7604 545.847 67.9317 542.305 Q66.1261 538.74 62.4919 538.74 M62.4919 535.037 Q68.302 535.037 71.3576 539.643 Q74.4363 544.226 74.4363 552.976 Q74.4363 561.703 71.3576 566.31 Q68.302 570.893 62.4919 570.893 Q56.6817 570.893 53.603 566.31 Q50.5475 561.703 50.5475 552.976 Q50.5475 544.226 53.603 539.643 Q56.6817 535.037 62.4919 535.037 Z" fill="#000000" fill-rule="nonzero" fill-opacity="1" /><path clip-path="url(#clip300)" d="M82.6538 564.342 L87.538 564.342 L87.538 570.222 L82.6538 570.222 L82.6538 564.342 Z" fill="#000000" fill-rule="nonzero" fill-opacity="1" /><path clip-path="url(#clip300)" d="M96.5426 535.662 L118.765 535.662 L118.765 537.652 L106.218 570.222 L101.334 570.222 L113.14 539.597 L96.5426 539.597 L96.5426 535.662 Z" fill="#000000" fill-rule="nonzero" fill-opacity="1" /><path clip-path="url(#clip300)" d="M127.931 535.662 L146.288 535.662 L146.288 539.597 L132.214 539.597 L132.214 548.069 Q133.232 547.722 134.251 547.56 Q135.269 547.375 136.288 547.375 Q142.075 547.375 145.454 550.546 Q148.834 553.717 148.834 559.134 Q148.834 564.712 145.362 567.814 Q141.89 570.893 135.57 570.893 Q133.394 570.893 131.126 570.523 Q128.88 570.152 126.473 569.411 L126.473 564.712 Q128.556 565.847 130.779 566.402 Q133.001 566.958 135.478 566.958 Q139.482 566.958 141.82 564.851 Q144.158 562.745 144.158 559.134 Q144.158 555.523 141.82 553.416 Q139.482 551.31 135.478 551.31 Q133.603 551.31 131.728 551.726 Q129.876 552.143 127.931 553.023 L127.931 535.662 Z" fill="#000000" fill-rule="nonzero" fill-opacity="1" /><path clip-path="url(#clip300)" d="M52.3067 186.599 L59.9456 186.599 L59.9456 160.233 L51.6354 161.9 L51.6354 157.641 L59.8993 155.974 L64.5752 155.974 L64.5752 186.599 L72.214 186.599 L72.214 190.534 L52.3067 190.534 L52.3067 186.599 Z" fill="#000000" fill-rule="nonzero" fill-opacity="1" /><path clip-path="url(#clip300)" d="M81.6584 184.655 L86.5427 184.655 L86.5427 190.534 L81.6584 190.534 L81.6584 184.655 Z" fill="#000000" fill-rule="nonzero" fill-opacity="1" /><path clip-path="url(#clip300)" d="M106.728 159.053 Q103.117 159.053 101.288 162.618 Q99.4824 166.159 99.4824 173.289 Q99.4824 180.395 101.288 183.96 Q103.117 187.502 106.728 187.502 Q110.362 187.502 112.168 183.96 Q113.996 180.395 113.996 173.289 Q113.996 166.159 112.168 162.618 Q110.362 159.053 106.728 159.053 M106.728 155.349 Q112.538 155.349 115.593 159.956 Q118.672 164.539 118.672 173.289 Q118.672 182.016 115.593 186.622 Q112.538 191.205 106.728 191.205 Q100.918 191.205 97.8389 186.622 Q94.7834 182.016 94.7834 173.289 Q94.7834 164.539 97.8389 159.956 Q100.918 155.349 106.728 155.349 Z" fill="#000000" fill-rule="nonzero" fill-opacity="1" /><path clip-path="url(#clip300)" d="M136.89 159.053 Q133.279 159.053 131.45 162.618 Q129.644 166.159 129.644 173.289 Q129.644 180.395 131.45 183.96 Q133.279 187.502 136.89 187.502 Q140.524 187.502 142.329 183.96 Q144.158 180.395 144.158 173.289 Q144.158 166.159 142.329 162.618 Q140.524 159.053 136.89 159.053 M136.89 155.349 Q142.7 155.349 145.755 159.956 Q148.834 164.539 148.834 173.289 Q148.834 182.016 145.755 186.622 Q142.7 191.205 136.89 191.205 Q131.079 191.205 128.001 186.622 Q124.945 182.016 124.945 173.289 Q124.945 164.539 128.001 159.956 Q131.079 155.349 136.89 155.349 Z" fill="#000000" fill-rule="nonzero" fill-opacity="1" /><path clip-path="url(#clip300)" d="M892.854 14.0809 L892.854 22.0612 Q888.196 19.8332 884.064 18.7395 Q879.932 17.6457 876.083 17.6457 Q869.399 17.6457 865.754 20.2383 Q862.148 22.8309 862.148 27.611 Q862.148 31.6214 864.538 33.6873 Q866.969 35.7128 873.693 36.9686 L878.635 37.9813 Q887.791 39.7232 892.125 44.1387 Q896.5 48.5136 896.5 55.8863 Q896.5 64.6767 890.586 69.2137 Q884.712 73.7508 873.329 73.7508 Q869.035 73.7508 864.174 72.7785 Q859.353 71.8063 854.168 69.9024 L854.168 61.4765 Q859.151 64.2716 863.931 65.6895 Q868.711 67.1073 873.329 67.1073 Q880.337 67.1073 884.145 64.3527 Q887.953 61.598 887.953 56.4939 Q887.953 52.0379 885.198 49.5264 Q882.484 47.0148 876.245 45.759 L871.263 44.7868 Q862.108 42.9639 858.016 39.075 Q853.925 35.1862 853.925 28.2591 Q853.925 20.2383 859.556 15.6203 Q865.227 11.0023 875.152 11.0023 Q879.405 11.0023 883.821 11.7719 Q888.236 12.5416 892.854 14.0809 Z" fill="#000000" fill-rule="nonzero" fill-opacity="1" /><path clip-path="url(#clip300)" d="M947.744 48.0275 L947.744 51.6733 L913.473 51.6733 Q913.959 59.3701 918.091 63.421 Q922.264 67.4314 929.677 67.4314 Q933.971 67.4314 937.981 66.3781 Q942.032 65.3249 946.002 63.2184 L946.002 70.267 Q941.992 71.9684 937.779 72.8596 Q933.566 73.7508 929.231 73.7508 Q918.375 73.7508 912.015 67.4314 Q905.696 61.1119 905.696 50.3365 Q905.696 39.1965 911.691 32.6746 Q917.727 26.1121 927.935 26.1121 Q937.09 26.1121 942.397 32.0264 Q947.744 37.9003 947.744 48.0275 M940.29 45.84 Q940.209 39.7232 936.847 36.0774 Q933.525 32.4315 928.016 32.4315 Q921.778 32.4315 918.01 35.9558 Q914.283 39.4801 913.716 45.8805 L940.29 45.84 Z" fill="#000000" fill-rule="nonzero" fill-opacity="1" /><path clip-path="url(#clip300)" d="M980.597 49.7694 Q971.563 49.7694 968.079 51.8354 Q964.596 53.9013 964.596 58.8839 Q964.596 62.8538 967.188 65.2034 Q969.821 67.5124 974.318 67.5124 Q980.516 67.5124 984.243 63.1374 Q988.01 58.7219 988.01 51.4303 L988.01 49.7694 L980.597 49.7694 M995.464 46.6907 L995.464 72.576 L988.01 72.576 L988.01 65.6895 Q985.458 69.8214 981.65 71.8063 Q977.842 73.7508 972.333 73.7508 Q965.365 73.7508 961.233 69.8619 Q957.142 65.9325 957.142 59.3701 Q957.142 51.7138 962.246 47.825 Q967.391 43.9361 977.559 43.9361 L988.01 43.9361 L988.01 43.2069 Q988.01 38.0623 984.607 35.2672 Q981.245 32.4315 975.128 32.4315 Q971.239 32.4315 967.553 33.3632 Q963.867 34.295 960.464 36.1584 L960.464 29.2718 Q964.555 27.692 968.404 26.9223 Q972.252 26.1121 975.898 26.1121 Q985.741 26.1121 990.602 31.2163 Q995.464 36.3204 995.464 46.6907 Z" fill="#000000" fill-rule="nonzero" fill-opacity="1" /><path clip-path="url(#clip300)" d="M1039.74 28.5427 L1039.74 35.5912 Q1036.58 33.9709 1033.18 33.1607 Q1029.77 32.3505 1026.13 32.3505 Q1020.58 32.3505 1017.78 34.0519 Q1015.03 35.7533 1015.03 39.156 Q1015.03 41.7486 1017.01 43.2475 Q1019 44.7058 1024.99 46.0426 L1027.55 46.6097 Q1035.49 48.3111 1038.81 51.4303 Q1042.17 54.509 1042.17 60.0587 Q1042.17 66.3781 1037.15 70.0644 Q1032.16 73.7508 1023.41 73.7508 Q1019.77 73.7508 1015.8 73.0216 Q1011.87 72.3329 1007.49 70.9151 L1007.49 63.2184 Q1011.63 65.3654 1015.64 66.4591 Q1019.65 67.5124 1023.58 67.5124 Q1028.84 67.5124 1031.68 65.73 Q1034.51 63.9071 1034.51 60.6258 Q1034.51 57.5877 1032.45 55.9673 Q1030.42 54.3469 1023.5 52.8481 L1020.9 52.2405 Q1013.98 50.7821 1010.9 47.7845 Q1007.82 44.7463 1007.82 39.4801 Q1007.82 33.0797 1012.36 29.5959 Q1016.89 26.1121 1025.24 26.1121 Q1029.37 26.1121 1033.02 26.7198 Q1036.66 27.3274 1039.74 28.5427 Z" fill="#000000" fill-rule="nonzero" fill-opacity="1" /><path clip-path="url(#clip300)" d="M1071.62 32.4315 Q1065.63 32.4315 1062.14 37.1306 Q1058.66 41.7891 1058.66 49.9314 Q1058.66 58.0738 1062.1 62.7728 Q1065.58 67.4314 1071.62 67.4314 Q1077.58 67.4314 1081.06 62.7323 Q1084.54 58.0333 1084.54 49.9314 Q1084.54 41.8701 1081.06 37.1711 Q1077.58 32.4315 1071.62 32.4315 M1071.62 26.1121 Q1081.34 26.1121 1086.89 32.4315 Q1092.44 38.7509 1092.44 49.9314 Q1092.44 61.0714 1086.89 67.4314 Q1081.34 73.7508 1071.62 73.7508 Q1061.86 73.7508 1056.31 67.4314 Q1050.8 61.0714 1050.8 49.9314 Q1050.8 38.7509 1056.31 32.4315 Q1061.86 26.1121 1071.62 26.1121 Z" fill="#000000" fill-rule="nonzero" fill-opacity="1" /><path clip-path="url(#clip300)" d="M1142.51 45.1919 L1142.51 72.576 L1135.06 72.576 L1135.06 45.4349 Q1135.06 38.994 1132.55 35.7938 Q1130.03 32.5936 1125.01 32.5936 Q1118.98 32.5936 1115.49 36.4419 Q1112.01 40.2903 1112.01 46.9338 L1112.01 72.576 L1104.51 72.576 L1104.51 27.2059 L1112.01 27.2059 L1112.01 34.2544 Q1114.68 30.163 1118.29 28.1376 Q1121.93 26.1121 1126.67 26.1121 Q1134.49 26.1121 1138.5 30.9732 Q1142.51 35.7938 1142.51 45.1919 Z" fill="#000000" fill-rule="nonzero" fill-opacity="1" /><path clip-path="url(#clip300)" d="M1178 49.7694 Q1168.96 49.7694 1165.48 51.8354 Q1162 53.9013 1162 58.8839 Q1162 62.8538 1164.59 65.2034 Q1167.22 67.5124 1171.72 67.5124 Q1177.92 67.5124 1181.64 63.1374 Q1185.41 58.7219 1185.41 51.4303 L1185.41 49.7694 L1178 49.7694 M1192.86 46.6907 L1192.86 72.576 L1185.41 72.576 L1185.41 65.6895 Q1182.86 69.8214 1179.05 71.8063 Q1175.24 73.7508 1169.73 73.7508 Q1162.77 73.7508 1158.63 69.8619 Q1154.54 65.9325 1154.54 59.3701 Q1154.54 51.7138 1159.65 47.825 Q1164.79 43.9361 1174.96 43.9361 L1185.41 43.9361 L1185.41 43.2069 Q1185.41 38.0623 1182.01 35.2672 Q1178.65 32.4315 1172.53 32.4315 Q1168.64 32.4315 1164.95 33.3632 Q1161.27 34.295 1157.86 36.1584 L1157.86 29.2718 Q1161.96 27.692 1165.8 26.9223 Q1169.65 26.1121 1173.3 26.1121 Q1183.14 26.1121 1188 31.2163 Q1192.86 36.3204 1192.86 46.6907 Z" fill="#000000" fill-rule="nonzero" fill-opacity="1" /><path clip-path="url(#clip300)" d="M1208.22 9.54393 L1215.67 9.54393 L1215.67 72.576 L1208.22 72.576 L1208.22 9.54393 Z" fill="#000000" fill-rule="nonzero" fill-opacity="1" /><path clip-path="url(#clip300)" d="M1257.64 27.2059 L1265.09 27.2059 L1265.09 73.3862 Q1265.09 82.0551 1261.77 85.944 Q1258.49 89.8329 1251.16 89.8329 L1248.32 89.8329 L1248.32 83.5134 L1250.31 83.5134 Q1254.56 83.5134 1256.1 81.5285 Q1257.64 79.5841 1257.64 73.3862 L1257.64 27.2059 M1257.64 9.54393 L1265.09 9.54393 L1265.09 18.9825 L1257.64 18.9825 L1257.64 9.54393 Z" fill="#000000" fill-rule="nonzero" fill-opacity="1" /><path clip-path="url(#clip300)" d="M1279.92 54.671 L1279.92 27.2059 L1287.37 27.2059 L1287.37 54.3874 Q1287.37 60.8284 1289.88 64.0691 Q1292.39 67.2693 1297.42 67.2693 Q1303.45 67.2693 1306.94 63.421 Q1310.46 59.5726 1310.46 52.9291 L1310.46 27.2059 L1317.92 27.2059 L1317.92 72.576 L1310.46 72.576 L1310.46 65.6084 Q1307.75 69.7404 1304.14 71.7658 Q1300.58 73.7508 1295.84 73.7508 Q1288.02 73.7508 1283.97 68.8897 Q1279.92 64.0286 1279.92 54.671 M1298.67 26.1121 L1298.67 26.1121 Z" fill="#000000" fill-rule="nonzero" fill-opacity="1" /><path clip-path="url(#clip300)" d="M1327.92 27.2059 L1335.82 27.2059 L1350 65.2844 L1364.18 27.2059 L1372.08 27.2059 L1355.06 72.576 L1344.94 72.576 L1327.92 27.2059 Z" fill="#000000" fill-rule="nonzero" fill-opacity="1" /><path clip-path="url(#clip300)" d="M1421.17 48.0275 L1421.17 51.6733 L1386.9 51.6733 Q1387.39 59.3701 1391.52 63.421 Q1395.69 67.4314 1403.11 67.4314 Q1407.4 67.4314 1411.41 66.3781 Q1415.46 65.3249 1419.43 63.2184 L1419.43 70.267 Q1415.42 71.9684 1411.21 72.8596 Q1406.99 73.7508 1402.66 73.7508 Q1391.8 73.7508 1385.44 67.4314 Q1379.12 61.1119 1379.12 50.3365 Q1379.12 39.1965 1385.12 32.6746 Q1391.16 26.1121 1401.36 26.1121 Q1410.52 26.1121 1415.83 32.0264 Q1421.17 37.9003 1421.17 48.0275 M1413.72 45.84 Q1413.64 39.7232 1410.28 36.0774 Q1406.95 32.4315 1401.45 32.4315 Q1395.21 32.4315 1391.44 35.9558 Q1387.71 39.4801 1387.15 45.8805 L1413.72 45.84 Z" fill="#000000" fill-rule="nonzero" fill-opacity="1" /><path clip-path="url(#clip300)" d="M1471.12 45.1919 L1471.12 72.576 L1463.67 72.576 L1463.67 45.4349 Q1463.67 38.994 1461.16 35.7938 Q1458.64 32.5936 1453.62 32.5936 Q1447.58 32.5936 1444.1 36.4419 Q1440.62 40.2903 1440.62 46.9338 L1440.62 72.576 L1433.12 72.576 L1433.12 27.2059 L1440.62 27.2059 L1440.62 34.2544 Q1443.29 30.163 1446.9 28.1376 Q1450.54 26.1121 1455.28 26.1121 Q1463.1 26.1121 1467.11 30.9732 Q1471.12 35.7938 1471.12 45.1919 Z" fill="#000000" fill-rule="nonzero" fill-opacity="1" /><path clip-path="url(#clip300)" d="M1485.99 27.2059 L1493.44 27.2059 L1493.44 72.576 L1485.99 72.576 L1485.99 27.2059 M1485.99 9.54393 L1493.44 9.54393 L1493.44 18.9825 L1485.99 18.9825 L1485.99 9.54393 Z" fill="#000000" fill-rule="nonzero" fill-opacity="1" /><path clip-path="url(#clip300)" d="M1509.04 9.54393 L1516.49 9.54393 L1516.49 72.576 L1509.04 72.576 L1509.04 9.54393 Z" fill="#000000" fill-rule="nonzero" fill-opacity="1" /><path clip-path="url(#clip300)" d="M1570.89 48.0275 L1570.89 51.6733 L1536.62 51.6733 Q1537.11 59.3701 1541.24 63.421 Q1545.41 67.4314 1552.83 67.4314 Q1557.12 67.4314 1561.13 66.3781 Q1565.18 65.3249 1569.15 63.2184 L1569.15 70.267 Q1565.14 71.9684 1560.93 72.8596 Q1556.72 73.7508 1552.38 73.7508 Q1541.53 73.7508 1535.17 67.4314 Q1528.85 61.1119 1528.85 50.3365 Q1528.85 39.1965 1534.84 32.6746 Q1540.88 26.1121 1551.09 26.1121 Q1560.24 26.1121 1565.55 32.0264 Q1570.89 37.9003 1570.89 48.0275 M1563.44 45.84 Q1563.36 39.7232 1560 36.0774 Q1556.68 32.4315 1551.17 32.4315 Q1544.93 32.4315 1541.16 35.9558 Q1537.43 39.4801 1536.87 45.8805 L1563.44 45.84 Z" fill="#000000" fill-rule="nonzero" fill-opacity="1" /><path clip-path="url(#clip300)" d="M1644.82 35.9153 Q1647.62 30.8922 1651.51 28.5022 Q1655.4 26.1121 1660.66 26.1121 Q1667.75 26.1121 1671.6 31.0947 Q1675.45 36.0368 1675.45 45.1919 L1675.45 72.576 L1667.95 72.576 L1667.95 45.4349 Q1667.95 38.913 1665.65 35.7533 Q1663.34 32.5936 1658.6 32.5936 Q1652.8 32.5936 1649.44 36.4419 Q1646.08 40.2903 1646.08 46.9338 L1646.08 72.576 L1638.59 72.576 L1638.59 45.4349 Q1638.59 38.8725 1636.28 35.7533 Q1633.97 32.5936 1629.15 32.5936 Q1623.43 32.5936 1620.07 36.4824 Q1616.71 40.3308 1616.71 46.9338 L1616.71 72.576 L1609.22 72.576 L1609.22 27.2059 L1616.71 27.2059 L1616.71 34.2544 Q1619.26 30.082 1622.83 28.0971 Q1626.39 26.1121 1631.29 26.1121 Q1636.24 26.1121 1639.68 28.6237 Q1643.16 31.1352 1644.82 35.9153 Z" fill="#000000" fill-rule="nonzero" fill-opacity="1" /><path clip-path="url(#clip300)" d="M1707.9 32.4315 Q1701.9 32.4315 1698.42 37.1306 Q1694.93 41.7891 1694.93 49.9314 Q1694.93 58.0738 1698.38 62.7728 Q1701.86 67.4314 1707.9 67.4314 Q1713.85 67.4314 1717.33 62.7323 Q1720.82 58.0333 1720.82 49.9314 Q1720.82 41.8701 1717.33 37.1711 Q1713.85 32.4315 1707.9 32.4315 M1707.9 26.1121 Q1717.62 26.1121 1723.17 32.4315 Q1728.72 38.7509 1728.72 49.9314 Q1728.72 61.0714 1723.17 67.4314 Q1717.62 73.7508 1707.9 73.7508 Q1698.13 73.7508 1692.58 67.4314 Q1687.07 61.0714 1687.07 49.9314 Q1687.07 38.7509 1692.58 32.4315 Q1698.13 26.1121 1707.9 26.1121 Z" fill="#000000" fill-rule="nonzero" fill-opacity="1" /><path clip-path="url(#clip300)" d="M1767.36 34.1734 Q1766.11 33.4443 1764.61 33.1202 Q1763.15 32.7556 1761.37 32.7556 Q1755.05 32.7556 1751.65 36.8875 Q1748.28 40.9789 1748.28 48.6757 L1748.28 72.576 L1740.79 72.576 L1740.79 27.2059 L1748.28 27.2059 L1748.28 34.2544 Q1750.63 30.1225 1754.4 28.1376 Q1758.17 26.1121 1763.56 26.1121 Q1764.33 26.1121 1765.26 26.2337 Q1766.19 26.3147 1767.32 26.5172 L1767.36 34.1734 Z" fill="#000000" fill-rule="nonzero" fill-opacity="1" /><path clip-path="url(#clip300)" d="M1782.55 14.324 L1782.55 27.2059 L1797.91 27.2059 L1797.91 32.9987 L1782.55 32.9987 L1782.55 57.6282 Q1782.55 63.1779 1784.05 64.7578 Q1785.59 66.3376 1790.25 66.3376 L1797.91 66.3376 L1797.91 72.576 L1790.25 72.576 Q1781.62 72.576 1778.34 69.3758 Q1775.06 66.1351 1775.06 57.6282 L1775.06 32.9987 L1769.59 32.9987 L1769.59 27.2059 L1775.06 27.2059 L1775.06 14.324 L1782.55 14.324 Z" fill="#000000" fill-rule="nonzero" fill-opacity="1" /><path clip-path="url(#clip300)" d="M1828.33 49.7694 Q1819.3 49.7694 1815.81 51.8354 Q1812.33 53.9013 1812.33 58.8839 Q1812.33 62.8538 1814.92 65.2034 Q1817.55 67.5124 1822.05 67.5124 Q1828.25 67.5124 1831.98 63.1374 Q1835.74 58.7219 1835.74 51.4303 L1835.74 49.7694 L1828.33 49.7694 M1843.2 46.6907 L1843.2 72.576 L1835.74 72.576 L1835.74 65.6895 Q1833.19 69.8214 1829.38 71.8063 Q1825.57 73.7508 1820.07 73.7508 Q1813.1 73.7508 1808.97 69.8619 Q1804.87 65.9325 1804.87 59.3701 Q1804.87 51.7138 1809.98 47.825 Q1815.12 43.9361 1825.29 43.9361 L1835.74 43.9361 L1835.74 43.2069 Q1835.74 38.0623 1832.34 35.2672 Q1828.98 32.4315 1822.86 32.4315 Q1818.97 32.4315 1815.29 33.3632 Q1811.6 34.295 1808.2 36.1584 L1808.2 29.2718 Q1812.29 27.692 1816.14 26.9223 Q1819.98 26.1121 1823.63 26.1121 Q1833.47 26.1121 1838.34 31.2163 Q1843.2 36.3204 1843.2 46.6907 Z" fill="#000000" fill-rule="nonzero" fill-opacity="1" /><path clip-path="url(#clip300)" d="M1858.55 9.54393 L1866 9.54393 L1866 72.576 L1858.55 72.576 L1858.55 9.54393 Z" fill="#000000" fill-rule="nonzero" fill-opacity="1" /><path clip-path="url(#clip300)" d="M1881.6 27.2059 L1889.05 27.2059 L1889.05 72.576 L1881.6 72.576 L1881.6 27.2059 M1881.6 9.54393 L1889.05 9.54393 L1889.05 18.9825 L1881.6 18.9825 L1881.6 9.54393 Z" fill="#000000" fill-rule="nonzero" fill-opacity="1" /><path clip-path="url(#clip300)" d="M1912.02 14.324 L1912.02 27.2059 L1927.37 27.2059 L1927.37 32.9987 L1912.02 32.9987 L1912.02 57.6282 Q1912.02 63.1779 1913.52 64.7578 Q1915.06 66.3376 1919.72 66.3376 L1927.37 66.3376 L1927.37 72.576 L1919.72 72.576 Q1911.09 72.576 1907.81 69.3758 Q1904.53 66.1351 1904.53 57.6282 L1904.53 32.9987 L1899.06 32.9987 L1899.06 27.2059 L1904.53 27.2059 L1904.53 14.324 L1912.02 14.324 Z" fill="#000000" fill-rule="nonzero" fill-opacity="1" /><path clip-path="url(#clip300)" d="M1956.05 76.7889 Q1952.89 84.8907 1949.9 87.3618 Q1946.9 89.8329 1941.88 89.8329 L1935.92 89.8329 L1935.92 83.5945 L1940.3 83.5945 Q1943.38 83.5945 1945.08 82.1361 Q1946.78 80.6778 1948.84 75.2496 L1950.18 71.8468 L1931.83 27.2059 L1939.73 27.2059 L1953.91 62.6918 L1968.09 27.2059 L1975.98 27.2059 L1956.05 76.7889 Z" fill="#000000" fill-rule="nonzero" fill-opacity="1" /><polyline clip-path="url(#clip301)" style="stroke:#009af9; stroke-linecap:round; stroke-linejoin:round; stroke-width:4; stroke-opacity:1; fill:none" points="258.539,173.254 281.667,267.391 304.796,366.092 327.924,466.988 351.052,567.629 374.181,665.715 397.309,759.275 420.437,846.75 443.566,927.062 466.694,999.577 489.822,1064.07 512.95,1120.67 536.079,1169.75 559.207,1211.78 582.335,1247.39 605.464,1277.27 628.592,1302.07 651.72,1322.45 674.849,1339.06 697.977,1352.51 721.105,1363.38 744.234,1372.24 767.362,1379.65 790.49,1386.13 813.619,1392.2 836.747,1398.35 859.875,1405.04 883.004,1412.63 906.132,1421.39 929.26,1431.48 952.389,1442.95 975.517,1455.73 998.645,1469.65 1021.77,1484.4 1044.9,1499.62 1068.03,1514.94 1091.16,1530.03 1114.29,1544.57 1137.42,1558.26 1160.54,1570.91 1183.67,1582.43 1206.8,1592.74 1229.93,1601.84 1253.06,1609.75 1276.19,1616.56 1299.31,1622.36 1322.44,1627.26 1345.57,1631.35 1368.7,1634.73 1391.83,1637.48 1414.95,1639.71 1438.08,1641.49 1461.21,1642.92 1484.34,1644.11 1507.47,1645.12 1530.6,1646.06 1553.72,1646.99 1576.85,1647.97 1599.98,1649.07 1623.11,1650.34 1646.24,1651.78 1669.37,1653.43 1692.49,1655.28 1715.62,1657.32 1738.75,1659.5 1761.88,1661.79 1785.01,1664.13 1808.14,1666.44 1831.26,1668.69 1854.39,1670.83 1877.52,1672.82 1900.65,1674.64 1923.78,1676.28 1946.91,1677.74 1970.03,1679.01 1993.16,1680.12 2016.29,1681.07 2039.42,1681.87 2062.55,1682.54 2085.68,1683.09 2108.8,1683.54 2131.93,1683.91 2155.06,1684.21 2178.19,1684.46 2201.32,1684.66 2224.45,1684.82 2247.57,1684.97 2270.7,1685.11 2293.83,1685.25 2316.96,1685.41 2340.09,1685.59 2363.22,1685.8 2386.34,1686.03 2409.47,1686.3 2432.6,1686.6 2455.73,1686.93 2478.86,1687.27 2501.99,1687.62 2525.11,1687.98 2548.24,1688.32 2571.37,1688.65 "/>
<polyline clip-path="url(#clip301)" style="stroke:#e26f46; stroke-linecap:round; stroke-linejoin:round; stroke-width:4; stroke-opacity:1; fill:none" points="258.539,932.629 281.667,889.371 304.796,850.795 327.924,816.944 351.052,787.762 374.181,763.099 397.309,742.726 420.437,726.345 443.566,713.611 466.694,704.158 489.822,697.606 512.95,693.578 536.079,691.72 559.207,691.702 582.335,693.219 605.464,696 628.592,699.806 651.72,704.43 674.849,709.691 697.977,715.441 721.105,721.556 744.234,727.939 767.362,734.516 790.49,741.237 813.619,748.072 836.747,755.01 859.875,762.058 883.004,769.251 906.132,776.631 929.26,784.241 952.389,792.126 975.517,800.331 998.645,808.904 1021.77,817.878 1044.9,827.268 1068.03,837.075 1091.16,847.291 1114.29,857.893 1137.42,868.846 1160.54,880.105 1183.67,891.619 1206.8,903.335 1229.93,915.204 1253.06,927.176 1276.19,939.203 1299.31,951.24 1322.44,963.249 1345.57,975.198 1368.7,987.058 1391.83,998.806 1414.95,1010.42 1438.08,1021.88 1461.21,1033.18 1484.34,1044.31 1507.47,1055.26 1530.6,1066.03 1553.72,1076.61 1576.85,1087.03 1599.98,1097.28 1623.11,1107.38 1646.24,1117.34 1669.37,1127.16 1692.49,1136.86 1715.62,1146.44 1738.75,1155.92 1761.88,1165.29 1785.01,1174.57 1808.14,1183.76 1831.26,1192.86 1854.39,1201.86 1877.52,1210.77 1900.65,1219.57 1923.78,1228.27 1946.91,1236.86 1970.03,1245.34 1993.16,1253.69 2016.29,1261.92 2039.42,1270.02 2062.55,1277.98 2085.68,1285.82 2108.8,1293.52 2131.93,1301.08 2155.06,1308.51 2178.19,1315.8 2201.32,1322.95 2224.45,1329.97 2247.57,1336.86 2270.7,1343.62 2293.83,1350.24 2316.96,1356.75 2340.09,1363.13 2363.22,1369.39 2386.34,1375.54 2409.47,1381.57 2432.6,1387.5 2455.73,1393.32 2478.86,1399.04 2501.99,1404.66 2525.11,1410.18 2548.24,1415.61 2571.37,1420.95 "/>
<path clip-path="url(#clip300)" d="M2129.55 336.856 L2559.04 336.856 L2559.04 181.336 L2129.55 181.336  Z" fill="#ffffff" fill-rule="evenodd" fill-opacity="1"/>
<polyline clip-path="url(#clip300)" style="stroke:#000000; stroke-linecap:round; stroke-linejoin:round; stroke-width:4; stroke-opacity:1; fill:none" points="2129.55,336.856 2559.04,336.856 2559.04,181.336 2129.55,181.336 2129.55,336.856 "/>
<polyline clip-path="url(#clip300)" style="stroke:#009af9; stroke-linecap:round; stroke-linejoin:round; stroke-width:4; stroke-opacity:1; fill:none" points="2156.79,233.176 2320.23,233.176 "/>
<path clip-path="url(#clip300)" d="M2352.79 224.531 L2357.05 224.531 L2357.05 250.919 Q2357.05 255.873 2355.15 258.095 Q2353.28 260.317 2349.09 260.317 L2347.47 260.317 L2347.47 256.706 L2348.6 256.706 Q2351.03 256.706 2351.91 255.572 Q2352.79 254.461 2352.79 250.919 L2352.79 224.531 M2352.79 214.438 L2357.05 214.438 L2357.05 219.831 L2352.79 219.831 L2352.79 214.438 Z" fill="#000000" fill-rule="nonzero" fill-opacity="1" /><path clip-path="url(#clip300)" d="M2365.52 240.225 L2365.52 224.531 L2369.78 224.531 L2369.78 240.063 Q2369.78 243.743 2371.22 245.595 Q2372.65 247.424 2375.52 247.424 Q2378.97 247.424 2380.96 245.225 Q2382.98 243.026 2382.98 239.229 L2382.98 224.531 L2387.24 224.531 L2387.24 250.456 L2382.98 250.456 L2382.98 246.475 Q2381.43 248.836 2379.37 249.993 Q2377.33 251.128 2374.62 251.128 Q2370.15 251.128 2367.84 248.35 Q2365.52 245.572 2365.52 240.225 M2376.24 223.906 L2376.24 223.906 Z" fill="#000000" fill-rule="nonzero" fill-opacity="1" /><path clip-path="url(#clip300)" d="M2392.95 224.531 L2397.47 224.531 L2405.57 246.29 L2413.67 224.531 L2418.19 224.531 L2408.46 250.456 L2402.68 250.456 L2392.95 224.531 Z" fill="#000000" fill-rule="nonzero" fill-opacity="1" /><path clip-path="url(#clip300)" d="M2446.24 236.429 L2446.24 238.512 L2426.66 238.512 Q2426.94 242.91 2429.3 245.225 Q2431.68 247.516 2435.92 247.516 Q2438.37 247.516 2440.66 246.915 Q2442.98 246.313 2445.25 245.109 L2445.25 249.137 Q2442.95 250.109 2440.55 250.618 Q2438.14 251.128 2435.66 251.128 Q2429.46 251.128 2425.82 247.516 Q2422.21 243.905 2422.21 237.748 Q2422.21 231.382 2425.64 227.655 Q2429.09 223.906 2434.92 223.906 Q2440.15 223.906 2443.19 227.285 Q2446.24 230.642 2446.24 236.429 M2441.98 235.179 Q2441.94 231.683 2440.01 229.6 Q2438.12 227.517 2434.97 227.517 Q2431.4 227.517 2429.25 229.53 Q2427.12 231.544 2426.8 235.202 L2441.98 235.179 Z" fill="#000000" fill-rule="nonzero" fill-opacity="1" /><path clip-path="url(#clip300)" d="M2474.78 234.808 L2474.78 250.456 L2470.52 250.456 L2470.52 234.947 Q2470.52 231.267 2469.09 229.438 Q2467.65 227.609 2464.78 227.609 Q2461.33 227.609 2459.34 229.808 Q2457.35 232.007 2457.35 235.804 L2457.35 250.456 L2453.07 250.456 L2453.07 224.531 L2457.35 224.531 L2457.35 228.558 Q2458.88 226.22 2460.94 225.063 Q2463.02 223.906 2465.73 223.906 Q2470.2 223.906 2472.49 226.683 Q2474.78 229.438 2474.78 234.808 Z" fill="#000000" fill-rule="nonzero" fill-opacity="1" /><path clip-path="url(#clip300)" d="M2483.28 224.531 L2487.54 224.531 L2487.54 250.456 L2483.28 250.456 L2483.28 224.531 M2483.28 214.438 L2487.54 214.438 L2487.54 219.831 L2483.28 219.831 L2483.28 214.438 Z" fill="#000000" fill-rule="nonzero" fill-opacity="1" /><path clip-path="url(#clip300)" d="M2496.45 214.438 L2500.71 214.438 L2500.71 250.456 L2496.45 250.456 L2496.45 214.438 Z" fill="#000000" fill-rule="nonzero" fill-opacity="1" /><path clip-path="url(#clip300)" d="M2531.8 236.429 L2531.8 238.512 L2512.21 238.512 Q2512.49 242.91 2514.85 245.225 Q2517.24 247.516 2521.47 247.516 Q2523.93 247.516 2526.22 246.915 Q2528.53 246.313 2530.8 245.109 L2530.8 249.137 Q2528.51 250.109 2526.1 250.618 Q2523.69 251.128 2521.22 251.128 Q2515.01 251.128 2511.38 247.516 Q2507.77 243.905 2507.77 237.748 Q2507.77 231.382 2511.19 227.655 Q2514.64 223.906 2520.48 223.906 Q2525.71 223.906 2528.74 227.285 Q2531.8 230.642 2531.8 236.429 M2527.54 235.179 Q2527.49 231.683 2525.57 229.6 Q2523.67 227.517 2520.52 227.517 Q2516.96 227.517 2514.81 229.53 Q2512.68 231.544 2512.35 235.202 L2527.54 235.179 Z" fill="#000000" fill-rule="nonzero" fill-opacity="1" /><polyline clip-path="url(#clip300)" style="stroke:#e26f46; stroke-linecap:round; stroke-linejoin:round; stroke-width:4; stroke-opacity:1; fill:none" points="2156.79,285.016 2320.23,285.016 "/>
<path clip-path="url(#clip300)" d="M2360.87 289.264 Q2355.71 289.264 2353.72 290.444 Q2351.73 291.625 2351.73 294.472 Q2351.73 296.741 2353.21 298.083 Q2354.71 299.403 2357.28 299.403 Q2360.82 299.403 2362.95 296.903 Q2365.11 294.38 2365.11 290.213 L2365.11 289.264 L2360.87 289.264 M2369.37 287.505 L2369.37 302.296 L2365.11 302.296 L2365.11 298.361 Q2363.65 300.722 2361.47 301.856 Q2359.3 302.968 2356.15 302.968 Q2352.17 302.968 2349.81 300.745 Q2347.47 298.5 2347.47 294.75 Q2347.47 290.375 2350.38 288.153 Q2353.32 285.931 2359.13 285.931 L2365.11 285.931 L2365.11 285.514 Q2365.11 282.574 2363.16 280.977 Q2361.24 279.357 2357.75 279.357 Q2355.52 279.357 2353.42 279.889 Q2351.31 280.421 2349.37 281.486 L2349.37 277.551 Q2351.7 276.648 2353.9 276.208 Q2356.1 275.746 2358.19 275.746 Q2363.81 275.746 2366.59 278.662 Q2369.37 281.579 2369.37 287.505 Z" fill="#000000" fill-rule="nonzero" fill-opacity="1" /><path clip-path="url(#clip300)" d="M2395.2 280.306 L2395.2 266.278 L2399.46 266.278 L2399.46 302.296 L2395.2 302.296 L2395.2 298.407 Q2393.86 300.722 2391.8 301.856 Q2389.76 302.968 2386.89 302.968 Q2382.19 302.968 2379.23 299.218 Q2376.29 295.468 2376.29 289.357 Q2376.29 283.245 2379.23 279.495 Q2382.19 275.746 2386.89 275.746 Q2389.76 275.746 2391.8 276.88 Q2393.86 277.991 2395.2 280.306 M2380.69 289.357 Q2380.69 294.056 2382.61 296.741 Q2384.55 299.403 2387.93 299.403 Q2391.31 299.403 2393.25 296.741 Q2395.2 294.056 2395.2 289.357 Q2395.2 284.657 2393.25 281.995 Q2391.31 279.31 2387.93 279.31 Q2384.55 279.31 2382.61 281.995 Q2380.69 284.657 2380.69 289.357 Z" fill="#000000" fill-rule="nonzero" fill-opacity="1" /><path clip-path="url(#clip300)" d="M2407.79 292.065 L2407.79 276.371 L2412.05 276.371 L2412.05 291.903 Q2412.05 295.583 2413.49 297.435 Q2414.92 299.264 2417.79 299.264 Q2421.24 299.264 2423.23 297.065 Q2425.25 294.866 2425.25 291.069 L2425.25 276.371 L2429.5 276.371 L2429.5 302.296 L2425.25 302.296 L2425.25 298.315 Q2423.69 300.676 2421.63 301.833 Q2419.6 302.968 2416.89 302.968 Q2412.42 302.968 2410.11 300.19 Q2407.79 297.412 2407.79 292.065 M2418.51 275.746 L2418.51 275.746 Z" fill="#000000" fill-rule="nonzero" fill-opacity="1" /><path clip-path="url(#clip300)" d="M2438.28 266.278 L2442.54 266.278 L2442.54 302.296 L2438.28 302.296 L2438.28 266.278 Z" fill="#000000" fill-rule="nonzero" fill-opacity="1" /><path clip-path="url(#clip300)" d="M2455.66 269.009 L2455.66 276.371 L2464.44 276.371 L2464.44 279.681 L2455.66 279.681 L2455.66 293.755 Q2455.66 296.926 2456.52 297.829 Q2457.4 298.731 2460.06 298.731 L2464.44 298.731 L2464.44 302.296 L2460.06 302.296 Q2455.13 302.296 2453.25 300.468 Q2451.38 298.616 2451.38 293.755 L2451.38 279.681 L2448.25 279.681 L2448.25 276.371 L2451.38 276.371 L2451.38 269.009 L2455.66 269.009 Z" fill="#000000" fill-rule="nonzero" fill-opacity="1" /></svg>
