<?xml version="1.0" encoding="utf-8"?>
<svg xmlns="http://www.w3.org/2000/svg" xmlns:xlink="http://www.w3.org/1999/xlink" width="672" height="480" viewBox="0 0 2688 1920">
<defs>
  <clipPath id="clip270">
    <rect x="0" y="0" width="2688" height="1920"/>
  </clipPath>
</defs>
<path clip-path="url(#clip270)" d="M0 1920 L2688 1920 L2688 -4.26326e-14 L0 -4.26326e-14  Z" fill="#ffffff" fill-rule="evenodd" fill-opacity="1"/>
<defs>
  <clipPath id="clip271">
    <rect x="225" y="127" width="2416" height="1607"/>
  </clipPath>
</defs>
<path clip-path="url(#clip270)" d="M225.816 1734.12 L2640.76 1734.12 L2640.76 127.792 L225.816 127.792  Z" fill="#ffffff" fill-rule="evenodd" fill-opacity="1"/>
<polyline clip-path="url(#clip271)" style="stroke:#000000; stroke-linecap:round; stroke-linejoin:round; stroke-width:2; stroke-opacity:0.1; fill:none" points="294.164,1734.12 294.164,127.792 "/>
<polyline clip-path="url(#clip271)" style="stroke:#000000; stroke-linecap:round; stroke-linejoin:round; stroke-width:2; stroke-opacity:0.1; fill:none" points="1053.58,1734.12 1053.58,127.792 "/>
<polyline clip-path="url(#clip271)" style="stroke:#000000; stroke-linecap:round; stroke-linejoin:round; stroke-width:2; stroke-opacity:0.1; fill:none" points="1812.99,1734.12 1812.99,127.792 "/>
<polyline clip-path="url(#clip271)" style="stroke:#000000; stroke-linecap:round; stroke-linejoin:round; stroke-width:2; stroke-opacity:0.1; fill:none" points="2572.41,1734.12 2572.41,127.792 "/>
<polyline clip-path="url(#clip271)" style="stroke:#000000; stroke-linecap:round; stroke-linejoin:round; stroke-width:2; stroke-opacity:0.1; fill:none" points="225.816,1688.65 2640.76,1688.65 "/>
<polyline clip-path="url(#clip271)" style="stroke:#000000; stroke-linecap:round; stroke-linejoin:round; stroke-width:2; stroke-opacity:0.1; fill:none" points="225.816,1385.57 2640.76,1385.57 "/>
<polyline clip-path="url(#clip271)" style="stroke:#000000; stroke-linecap:round; stroke-linejoin:round; stroke-width:2; stroke-opacity:0.1; fill:none" points="225.816,1082.49 2640.76,1082.49 "/>
<polyline clip-path="url(#clip271)" style="stroke:#000000; stroke-linecap:round; stroke-linejoin:round; stroke-width:2; stroke-opacity:0.1; fill:none" points="225.816,779.412 2640.76,779.412 "/>
<polyline clip-path="url(#clip271)" style="stroke:#000000; stroke-linecap:round; stroke-linejoin:round; stroke-width:2; stroke-opacity:0.1; fill:none" points="225.816,476.333 2640.76,476.333 "/>
<polyline clip-path="url(#clip271)" style="stroke:#000000; stroke-linecap:round; stroke-linejoin:round; stroke-width:2; stroke-opacity:0.1; fill:none" points="225.816,173.254 2640.76,173.254 "/>
<polyline clip-path="url(#clip270)" style="stroke:#000000; stroke-linecap:round; stroke-linejoin:round; stroke-width:4; stroke-opacity:1; fill:none" points="225.816,1734.12 2640.76,1734.12 "/>
<polyline clip-path="url(#clip270)" style="stroke:#000000; stroke-linecap:round; stroke-linejoin:round; stroke-width:4; stroke-opacity:1; fill:none" points="294.164,1734.12 294.164,1715.22 "/>
<polyline clip-path="url(#clip270)" style="stroke:#000000; stroke-linecap:round; stroke-linejoin:round; stroke-width:4; stroke-opacity:1; fill:none" points="1053.58,1734.12 1053.58,1715.22 "/>
<polyline clip-path="url(#clip270)" style="stroke:#000000; stroke-linecap:round; stroke-linejoin:round; stroke-width:4; stroke-opacity:1; fill:none" points="1812.99,1734.12 1812.99,1715.22 "/>
<polyline clip-path="url(#clip270)" style="stroke:#000000; stroke-linecap:round; stroke-linejoin:round; stroke-width:4; stroke-opacity:1; fill:none" points="2572.41,1734.12 2572.41,1715.22 "/>
<path clip-path="url(#clip270)" d="M294.164 1767.34 Q290.553 1767.34 288.724 1770.9 Q286.918 1774.45 286.918 1781.58 Q286.918 1788.68 288.724 1792.25 Q290.553 1795.79 294.164 1795.79 Q297.798 1795.79 299.604 1792.25 Q301.432 1788.68 301.432 1781.58 Q301.432 1774.45 299.604 1770.9 Q297.798 1767.34 294.164 1767.34 M294.164 1763.64 Q299.974 1763.64 303.03 1768.24 Q306.108 1772.83 306.108 1781.58 Q306.108 1790.3 303.03 1794.91 Q299.974 1799.49 294.164 1799.49 Q288.354 1799.49 285.275 1794.91 Q282.219 1790.3 282.219 1781.58 Q282.219 1772.83 285.275 1768.24 Q288.354 1763.64 294.164 1763.64 Z" fill="#000000" fill-rule="nonzero" fill-opacity="1" /><path clip-path="url(#clip270)" d="M1028.27 1794.89 L1035.91 1794.89 L1035.91 1768.52 L1027.6 1770.19 L1027.6 1765.93 L1035.86 1764.26 L1040.53 1764.26 L1040.53 1794.89 L1048.17 1794.89 L1048.17 1798.82 L1028.27 1798.82 L1028.27 1794.89 Z" fill="#000000" fill-rule="nonzero" fill-opacity="1" /><path clip-path="url(#clip270)" d="M1067.62 1767.34 Q1064.01 1767.34 1062.18 1770.9 Q1060.37 1774.45 1060.37 1781.58 Q1060.37 1788.68 1062.18 1792.25 Q1064.01 1795.79 1067.62 1795.79 Q1071.25 1795.79 1073.06 1792.25 Q1074.89 1788.68 1074.89 1781.58 Q1074.89 1774.45 1073.06 1770.9 Q1071.25 1767.34 1067.62 1767.34 M1067.62 1763.64 Q1073.43 1763.64 1076.48 1768.24 Q1079.56 1772.83 1079.56 1781.58 Q1079.56 1790.3 1076.48 1794.91 Q1073.43 1799.49 1067.62 1799.49 Q1061.81 1799.49 1058.73 1794.91 Q1055.67 1790.3 1055.67 1781.58 Q1055.67 1772.83 1058.73 1768.24 Q1061.81 1763.64 1067.62 1763.64 Z" fill="#000000" fill-rule="nonzero" fill-opacity="1" /><path clip-path="url(#clip270)" d="M1791.77 1794.89 L1808.09 1794.89 L1808.09 1798.82 L1786.14 1798.82 L1786.14 1794.89 Q1788.8 1792.13 1793.39 1787.5 Q1797.99 1782.85 1799.17 1781.51 Q1801.42 1778.98 1802.3 1777.25 Q1803.2 1775.49 1803.2 1773.8 Q1803.2 1771.04 1801.26 1769.31 Q1799.34 1767.57 1796.23 1767.57 Q1794.04 1767.57 1791.58 1768.34 Q1789.15 1769.1 1786.37 1770.65 L1786.37 1765.93 Q1789.2 1764.79 1791.65 1764.21 Q1794.1 1763.64 1796.14 1763.64 Q1801.51 1763.64 1804.71 1766.32 Q1807.9 1769.01 1807.9 1773.5 Q1807.9 1775.63 1807.09 1777.55 Q1806.3 1779.45 1804.2 1782.04 Q1803.62 1782.71 1800.52 1785.93 Q1797.42 1789.12 1791.77 1794.89 Z" fill="#000000" fill-rule="nonzero" fill-opacity="1" /><path clip-path="url(#clip270)" d="M1827.9 1767.34 Q1824.29 1767.34 1822.46 1770.9 Q1820.66 1774.45 1820.66 1781.58 Q1820.66 1788.68 1822.46 1792.25 Q1824.29 1795.79 1827.9 1795.79 Q1831.54 1795.79 1833.34 1792.25 Q1835.17 1788.68 1835.17 1781.58 Q1835.17 1774.45 1833.34 1770.9 Q1831.54 1767.34 1827.9 1767.34 M1827.9 1763.64 Q1833.71 1763.64 1836.77 1768.24 Q1839.85 1772.83 1839.85 1781.58 Q1839.85 1790.3 1836.77 1794.91 Q1833.71 1799.49 1827.9 1799.49 Q1822.09 1799.49 1819.01 1794.91 Q1815.96 1790.3 1815.96 1781.58 Q1815.96 1772.83 1819.01 1768.24 Q1822.09 1763.64 1827.9 1763.64 Z" fill="#000000" fill-rule="nonzero" fill-opacity="1" /><path clip-path="url(#clip270)" d="M2561.25 1780.19 Q2564.61 1780.9 2566.48 1783.17 Q2568.38 1785.44 2568.38 1788.77 Q2568.38 1793.89 2564.86 1796.69 Q2561.34 1799.49 2554.86 1799.49 Q2552.69 1799.49 2550.37 1799.05 Q2548.08 1798.64 2545.63 1797.78 L2545.63 1793.27 Q2547.57 1794.4 2549.89 1794.98 Q2552.2 1795.56 2554.72 1795.56 Q2559.12 1795.56 2561.41 1793.82 Q2563.73 1792.08 2563.73 1788.77 Q2563.73 1785.72 2561.58 1784.01 Q2559.45 1782.27 2555.63 1782.27 L2551.6 1782.27 L2551.6 1778.43 L2555.81 1778.43 Q2559.26 1778.43 2561.09 1777.06 Q2562.92 1775.67 2562.92 1773.08 Q2562.92 1770.42 2561.02 1769.01 Q2559.14 1767.57 2555.63 1767.57 Q2553.7 1767.57 2551.51 1767.99 Q2549.31 1768.4 2546.67 1769.28 L2546.67 1765.12 Q2549.33 1764.38 2551.64 1764.01 Q2553.98 1763.64 2556.04 1763.64 Q2561.37 1763.64 2564.47 1766.07 Q2567.57 1768.47 2567.57 1772.59 Q2567.57 1775.46 2565.93 1777.46 Q2564.28 1779.42 2561.25 1780.19 Z" fill="#000000" fill-rule="nonzero" fill-opacity="1" /><path clip-path="url(#clip270)" d="M2587.25 1767.34 Q2583.64 1767.34 2581.81 1770.9 Q2580 1774.45 2580 1781.58 Q2580 1788.68 2581.81 1792.25 Q2583.64 1795.79 2587.25 1795.79 Q2590.88 1795.79 2592.69 1792.25 Q2594.51 1788.68 2594.51 1781.58 Q2594.51 1774.45 2592.69 1770.9 Q2590.88 1767.34 2587.25 1767.34 M2587.25 1763.64 Q2593.06 1763.64 2596.11 1768.24 Q2599.19 1772.83 2599.19 1781.58 Q2599.19 1790.3 2596.11 1794.91 Q2593.06 1799.49 2587.25 1799.49 Q2581.44 1799.49 2578.36 1794.91 Q2575.3 1790.3 2575.3 1781.58 Q2575.3 1772.83 2578.36 1768.24 Q2581.44 1763.64 2587.25 1763.64 Z" fill="#000000" fill-rule="nonzero" fill-opacity="1" /><path clip-path="url(#clip270)" d="M1372.45 1837.53 L1372.45 1847.65 L1384.51 1847.65 L1384.51 1852.2 L1372.45 1852.2 L1372.45 1871.56 Q1372.45 1875.92 1373.62 1877.16 Q1374.83 1878.4 1378.49 1878.4 L1384.51 1878.4 L1384.51 1883.3 L1378.49 1883.3 Q1371.71 1883.3 1369.14 1880.79 Q1366.56 1878.24 1366.56 1871.56 L1366.56 1852.2 L1362.26 1852.2 L1362.26 1847.65 L1366.56 1847.65 L1366.56 1837.53 L1372.45 1837.53 Z" fill="#000000" fill-rule="nonzero" fill-opacity="1" /><path clip-path="url(#clip270)" d="M1392.21 1847.65 L1398.07 1847.65 L1398.07 1883.3 L1392.21 1883.3 L1392.21 1847.65 M1392.21 1833.78 L1398.07 1833.78 L1398.07 1841.19 L1392.21 1841.19 L1392.21 1833.78 Z" fill="#000000" fill-rule="nonzero" fill-opacity="1" /><path clip-path="url(#clip270)" d="M1438.08 1854.5 Q1440.27 1850.55 1443.33 1848.67 Q1446.38 1846.79 1450.52 1846.79 Q1456.09 1846.79 1459.12 1850.71 Q1462.14 1854.59 1462.14 1861.78 L1462.14 1883.3 L1456.25 1883.3 L1456.25 1861.98 Q1456.25 1856.85 1454.44 1854.37 Q1452.62 1851.89 1448.9 1851.89 Q1444.35 1851.89 1441.7 1854.91 Q1439.06 1857.93 1439.06 1863.15 L1439.06 1883.3 L1433.17 1883.3 L1433.17 1861.98 Q1433.17 1856.82 1431.36 1854.37 Q1429.55 1851.89 1425.76 1851.89 Q1421.27 1851.89 1418.63 1854.94 Q1415.99 1857.97 1415.99 1863.15 L1415.99 1883.3 L1410.1 1883.3 L1410.1 1847.65 L1415.99 1847.65 L1415.99 1853.19 Q1417.99 1849.91 1420.79 1848.35 Q1423.59 1846.79 1427.45 1846.79 Q1431.33 1846.79 1434.03 1848.77 Q1436.77 1850.74 1438.08 1854.5 Z" fill="#000000" fill-rule="nonzero" fill-opacity="1" /><path clip-path="url(#clip270)" d="M1504.31 1864.01 L1504.31 1866.88 L1477.38 1866.88 Q1477.77 1872.92 1481.01 1876.11 Q1484.29 1879.26 1490.12 1879.26 Q1493.49 1879.26 1496.64 1878.43 Q1499.82 1877.6 1502.94 1875.95 L1502.94 1881.49 Q1499.79 1882.82 1496.48 1883.52 Q1493.17 1884.22 1489.77 1884.22 Q1481.24 1884.22 1476.24 1879.26 Q1471.27 1874.29 1471.27 1865.83 Q1471.27 1857.07 1475.98 1851.95 Q1480.73 1846.79 1488.75 1846.79 Q1495.94 1846.79 1500.11 1851.44 Q1504.31 1856.06 1504.31 1864.01 M1498.46 1862.29 Q1498.39 1857.49 1495.75 1854.62 Q1493.14 1851.76 1488.81 1851.76 Q1483.91 1851.76 1480.95 1854.53 Q1478.02 1857.3 1477.58 1862.33 L1498.46 1862.29 Z" fill="#000000" fill-rule="nonzero" fill-opacity="1" /><polyline clip-path="url(#clip270)" style="stroke:#000000; stroke-linecap:round; stroke-linejoin:round; stroke-width:4; stroke-opacity:1; fill:none" points="225.816,1734.12 225.816,127.792 "/>
<polyline clip-path="url(#clip270)" style="stroke:#000000; stroke-linecap:round; stroke-linejoin:round; stroke-width:4; stroke-opacity:1; fill:none" points="225.816,1688.65 244.714,1688.65 "/>
<polyline clip-path="url(#clip270)" style="stroke:#000000; stroke-linecap:round; stroke-linejoin:round; stroke-width:4; stroke-opacity:1; fill:none" points="225.816,1385.57 244.714,1385.57 "/>
<polyline clip-path="url(#clip270)" style="stroke:#000000; stroke-linecap:round; stroke-linejoin:round; stroke-width:4; stroke-opacity:1; fill:none" points="225.816,1082.49 244.714,1082.49 "/>
<polyline clip-path="url(#clip270)" style="stroke:#000000; stroke-linecap:round; stroke-linejoin:round; stroke-width:4; stroke-opacity:1; fill:none" points="225.816,779.412 244.714,779.412 "/>
<polyline clip-path="url(#clip270)" style="stroke:#000000; stroke-linecap:round; stroke-linejoin:round; stroke-width:4; stroke-opacity:1; fill:none" points="225.816,476.333 244.714,476.333 "/>
<polyline clip-path="url(#clip270)" style="stroke:#000000; stroke-linecap:round; stroke-linejoin:round; stroke-width:4; stroke-opacity:1; fill:none" points="225.816,173.254 244.714,173.254 "/>
<path clip-path="url(#clip270)" d="M129.316 1674.45 Q125.705 1674.45 123.876 1678.01 Q122.071 1681.55 122.071 1688.68 Q122.071 1695.79 123.876 1699.35 Q125.705 1702.9 129.316 1702.9 Q132.95 1702.9 134.756 1699.35 Q136.585 1695.79 136.585 1688.68 Q136.585 1681.55 134.756 1678.01 Q132.95 1674.45 129.316 1674.45 M129.316 1670.74 Q135.126 1670.74 138.182 1675.35 Q141.261 1679.93 141.261 1688.68 Q141.261 1697.41 138.182 1702.02 Q135.126 1706.6 129.316 1706.6 Q123.506 1706.6 120.427 1702.02 Q117.372 1697.41 117.372 1688.68 Q117.372 1679.93 120.427 1675.35 Q123.506 1670.74 129.316 1670.74 Z" fill="#000000" fill-rule="nonzero" fill-opacity="1" /><path clip-path="url(#clip270)" d="M149.478 1700.05 L154.362 1700.05 L154.362 1705.93 L149.478 1705.93 L149.478 1700.05 Z" fill="#000000" fill-rule="nonzero" fill-opacity="1" /><path clip-path="url(#clip270)" d="M164.594 1671.37 L182.95 1671.37 L182.95 1675.3 L168.876 1675.3 L168.876 1683.78 Q169.895 1683.43 170.913 1683.27 Q171.932 1683.08 172.95 1683.08 Q178.737 1683.08 182.117 1686.25 Q185.496 1689.42 185.496 1694.84 Q185.496 1700.42 182.024 1703.52 Q178.552 1706.6 172.233 1706.6 Q170.057 1706.6 167.788 1706.23 Q165.543 1705.86 163.135 1705.12 L163.135 1700.42 Q165.219 1701.55 167.441 1702.11 Q169.663 1702.66 172.14 1702.66 Q176.145 1702.66 178.483 1700.56 Q180.821 1698.45 180.821 1694.84 Q180.821 1691.23 178.483 1689.12 Q176.145 1687.02 172.14 1687.02 Q170.265 1687.02 168.39 1687.43 Q166.538 1687.85 164.594 1688.73 L164.594 1671.37 Z" fill="#000000" fill-rule="nonzero" fill-opacity="1" /><path clip-path="url(#clip270)" d="M128.159 1371.37 Q124.548 1371.37 122.719 1374.93 Q120.913 1378.47 120.913 1385.6 Q120.913 1392.71 122.719 1396.28 Q124.548 1399.82 128.159 1399.82 Q131.793 1399.82 133.599 1396.28 Q135.427 1392.71 135.427 1385.6 Q135.427 1378.47 133.599 1374.93 Q131.793 1371.37 128.159 1371.37 M128.159 1367.66 Q133.969 1367.66 137.025 1372.27 Q140.103 1376.85 140.103 1385.6 Q140.103 1394.33 137.025 1398.94 Q133.969 1403.52 128.159 1403.52 Q122.349 1403.52 119.27 1398.94 Q116.214 1394.33 116.214 1385.6 Q116.214 1376.85 119.27 1372.27 Q122.349 1367.66 128.159 1367.66 Z" fill="#000000" fill-rule="nonzero" fill-opacity="1" /><path clip-path="url(#clip270)" d="M148.321 1396.97 L153.205 1396.97 L153.205 1402.85 L148.321 1402.85 L148.321 1396.97 Z" fill="#000000" fill-rule="nonzero" fill-opacity="1" /><path clip-path="url(#clip270)" d="M173.969 1383.71 Q170.821 1383.71 168.969 1385.86 Q167.14 1388.01 167.14 1391.76 Q167.14 1395.49 168.969 1397.66 Q170.821 1399.82 173.969 1399.82 Q177.117 1399.82 178.946 1397.66 Q180.797 1395.49 180.797 1391.76 Q180.797 1388.01 178.946 1385.86 Q177.117 1383.71 173.969 1383.71 M183.251 1369.05 L183.251 1373.31 Q181.492 1372.48 179.686 1372.04 Q177.904 1371.6 176.145 1371.6 Q171.515 1371.6 169.061 1374.72 Q166.631 1377.85 166.284 1384.17 Q167.649 1382.16 169.71 1381.09 Q171.77 1380 174.247 1380 Q179.455 1380 182.464 1383.17 Q185.496 1386.32 185.496 1391.76 Q185.496 1397.09 182.348 1400.3 Q179.2 1403.52 173.969 1403.52 Q167.973 1403.52 164.802 1398.94 Q161.631 1394.33 161.631 1385.6 Q161.631 1377.41 165.52 1372.55 Q169.409 1367.66 175.959 1367.66 Q177.719 1367.66 179.501 1368.01 Q181.307 1368.36 183.251 1369.05 Z" fill="#000000" fill-rule="nonzero" fill-opacity="1" /><path clip-path="url(#clip270)" d="M129.224 1068.29 Q125.613 1068.29 123.784 1071.85 Q121.978 1075.4 121.978 1082.53 Q121.978 1089.63 123.784 1093.2 Q125.613 1096.74 129.224 1096.74 Q132.858 1096.74 134.663 1093.2 Q136.492 1089.63 136.492 1082.53 Q136.492 1075.4 134.663 1071.85 Q132.858 1068.29 129.224 1068.29 M129.224 1064.59 Q135.034 1064.59 138.089 1069.19 Q141.168 1073.78 141.168 1082.53 Q141.168 1091.25 138.089 1095.86 Q135.034 1100.44 129.224 1100.44 Q123.413 1100.44 120.335 1095.86 Q117.279 1091.25 117.279 1082.53 Q117.279 1073.78 120.335 1069.19 Q123.413 1064.59 129.224 1064.59 Z" fill="#000000" fill-rule="nonzero" fill-opacity="1" /><path clip-path="url(#clip270)" d="M149.386 1093.89 L154.27 1093.89 L154.27 1099.77 L149.386 1099.77 L149.386 1093.89 Z" fill="#000000" fill-rule="nonzero" fill-opacity="1" /><path clip-path="url(#clip270)" d="M163.274 1065.21 L185.496 1065.21 L185.496 1067.2 L172.95 1099.77 L168.066 1099.77 L179.872 1069.15 L163.274 1069.15 L163.274 1065.21 Z" fill="#000000" fill-rule="nonzero" fill-opacity="1" /><path clip-path="url(#clip270)" d="M128.413 765.211 Q124.802 765.211 122.974 768.775 Q121.168 772.317 121.168 779.447 Q121.168 786.553 122.974 790.118 Q124.802 793.66 128.413 793.66 Q132.048 793.66 133.853 790.118 Q135.682 786.553 135.682 779.447 Q135.682 772.317 133.853 768.775 Q132.048 765.211 128.413 765.211 M128.413 761.507 Q134.224 761.507 137.279 766.113 Q140.358 770.697 140.358 779.447 Q140.358 788.174 137.279 792.78 Q134.224 797.363 128.413 797.363 Q122.603 797.363 119.525 792.78 Q116.469 788.174 116.469 779.447 Q116.469 770.697 119.525 766.113 Q122.603 761.507 128.413 761.507 Z" fill="#000000" fill-rule="nonzero" fill-opacity="1" /><path clip-path="url(#clip270)" d="M148.575 790.812 L153.46 790.812 L153.46 796.692 L148.575 796.692 L148.575 790.812 Z" fill="#000000" fill-rule="nonzero" fill-opacity="1" /><path clip-path="url(#clip270)" d="M173.645 780.28 Q170.311 780.28 168.39 782.062 Q166.492 783.845 166.492 786.97 Q166.492 790.095 168.39 791.877 Q170.311 793.66 173.645 793.66 Q176.978 793.66 178.899 791.877 Q180.821 790.072 180.821 786.97 Q180.821 783.845 178.899 782.062 Q177.001 780.28 173.645 780.28 M168.969 778.289 Q165.96 777.549 164.27 775.488 Q162.603 773.428 162.603 770.465 Q162.603 766.322 165.543 763.914 Q168.506 761.507 173.645 761.507 Q178.807 761.507 181.746 763.914 Q184.686 766.322 184.686 770.465 Q184.686 773.428 182.996 775.488 Q181.33 777.549 178.344 778.289 Q181.723 779.076 183.598 781.368 Q185.496 783.66 185.496 786.97 Q185.496 791.993 182.418 794.678 Q179.362 797.363 173.645 797.363 Q167.927 797.363 164.848 794.678 Q161.793 791.993 161.793 786.97 Q161.793 783.66 163.691 781.368 Q165.589 779.076 168.969 778.289 M167.256 770.905 Q167.256 773.59 168.922 775.095 Q170.612 776.6 173.645 776.6 Q176.654 776.6 178.344 775.095 Q180.057 773.59 180.057 770.905 Q180.057 768.22 178.344 766.715 Q176.654 765.211 173.645 765.211 Q170.612 765.211 168.922 766.715 Q167.256 768.22 167.256 770.905 Z" fill="#000000" fill-rule="nonzero" fill-opacity="1" /><path clip-path="url(#clip270)" d="M128.506 462.132 Q124.895 462.132 123.066 465.697 Q121.261 469.238 121.261 476.368 Q121.261 483.474 123.066 487.039 Q124.895 490.581 128.506 490.581 Q132.14 490.581 133.946 487.039 Q135.775 483.474 135.775 476.368 Q135.775 469.238 133.946 465.697 Q132.14 462.132 128.506 462.132 M128.506 458.428 Q134.316 458.428 137.372 463.035 Q140.45 467.618 140.45 476.368 Q140.45 485.095 137.372 489.701 Q134.316 494.284 128.506 494.284 Q122.696 494.284 119.617 489.701 Q116.562 485.095 116.562 476.368 Q116.562 467.618 119.617 463.035 Q122.696 458.428 128.506 458.428 Z" fill="#000000" fill-rule="nonzero" fill-opacity="1" /><path clip-path="url(#clip270)" d="M148.668 487.733 L153.552 487.733 L153.552 493.613 L148.668 493.613 L148.668 487.733 Z" fill="#000000" fill-rule="nonzero" fill-opacity="1" /><path clip-path="url(#clip270)" d="M163.876 492.895 L163.876 488.636 Q165.635 489.47 167.441 489.909 Q169.247 490.349 170.983 490.349 Q175.612 490.349 178.043 487.247 Q180.497 484.122 180.844 477.78 Q179.501 479.771 177.441 480.835 Q175.381 481.9 172.881 481.9 Q167.696 481.9 164.663 478.775 Q161.654 475.627 161.654 470.187 Q161.654 464.863 164.802 461.646 Q167.95 458.428 173.182 458.428 Q179.177 458.428 182.325 463.035 Q185.496 467.618 185.496 476.368 Q185.496 484.539 181.608 489.423 Q177.742 494.284 171.191 494.284 Q169.432 494.284 167.626 493.937 Q165.821 493.59 163.876 492.895 M173.182 478.243 Q176.33 478.243 178.159 476.09 Q180.01 473.937 180.01 470.187 Q180.01 466.46 178.159 464.308 Q176.33 462.132 173.182 462.132 Q170.034 462.132 168.182 464.308 Q166.353 466.46 166.353 470.187 Q166.353 473.937 168.182 476.09 Q170.034 478.243 173.182 478.243 Z" fill="#000000" fill-rule="nonzero" fill-opacity="1" /><path clip-path="url(#clip270)" d="M119.131 186.599 L126.77 186.599 L126.77 160.233 L118.46 161.9 L118.46 157.641 L126.724 155.974 L131.4 155.974 L131.4 186.599 L139.038 186.599 L139.038 190.534 L119.131 190.534 L119.131 186.599 Z" fill="#000000" fill-rule="nonzero" fill-opacity="1" /><path clip-path="url(#clip270)" d="M148.483 184.655 L153.367 184.655 L153.367 190.534 L148.483 190.534 L148.483 184.655 Z" fill="#000000" fill-rule="nonzero" fill-opacity="1" /><path clip-path="url(#clip270)" d="M173.552 159.053 Q169.941 159.053 168.112 162.618 Q166.307 166.159 166.307 173.289 Q166.307 180.395 168.112 183.96 Q169.941 187.502 173.552 187.502 Q177.186 187.502 178.992 183.96 Q180.821 180.395 180.821 173.289 Q180.821 166.159 178.992 162.618 Q177.186 159.053 173.552 159.053 M173.552 155.349 Q179.362 155.349 182.418 159.956 Q185.496 164.539 185.496 173.289 Q185.496 182.016 182.418 186.622 Q179.362 191.205 173.552 191.205 Q167.742 191.205 164.663 186.622 Q161.608 182.016 161.608 173.289 Q161.608 164.539 164.663 159.956 Q167.742 155.349 173.552 155.349 Z" fill="#000000" fill-rule="nonzero" fill-opacity="1" /><path clip-path="url(#clip270)" d="M43.719 1090.1 Q43.719 1097.19 45.3422 1099.93 Q46.9655 1102.67 50.8804 1102.67 Q53.9996 1102.67 55.8457 1100.63 Q57.6599 1098.56 57.6599 1095.03 Q57.6599 1090.16 54.2224 1087.23 Q50.7531 1084.27 45.0239 1084.27 L43.719 1084.27 L43.719 1090.1 M41.3 1078.42 L61.6384 1078.42 L61.6384 1084.27 L56.2276 1084.27 Q59.4741 1086.28 61.0337 1089.27 Q62.5615 1092.26 62.5615 1096.59 Q62.5615 1102.06 59.5059 1105.31 Q56.4186 1108.53 51.2623 1108.53 Q45.2467 1108.53 42.1912 1104.52 Q39.1357 1100.47 39.1357 1092.48 L39.1357 1084.27 L38.5628 1084.27 Q34.5205 1084.27 32.3244 1086.95 Q30.0964 1089.59 30.0964 1094.39 Q30.0964 1097.45 30.8284 1100.35 Q31.5605 1103.24 33.0246 1105.92 L27.6137 1105.92 Q26.3724 1102.7 25.7677 1099.68 Q25.1311 1096.65 25.1311 1093.79 Q25.1311 1086.05 29.1415 1082.24 Q33.1519 1078.42 41.3 1078.42 Z" fill="#000000" fill-rule="nonzero" fill-opacity="1" /><path clip-path="url(#clip270)" d="M43.8463 1040.76 Q37.3851 1040.76 33.7248 1043.44 Q30.0327 1046.08 30.0327 1050.73 Q30.0327 1055.37 33.7248 1058.05 Q37.3851 1060.69 43.8463 1060.69 Q50.3075 1060.69 53.9996 1058.05 Q57.6599 1055.37 57.6599 1050.73 Q57.6599 1046.08 53.9996 1043.44 Q50.3075 1040.76 43.8463 1040.76 M31.4013 1060.69 Q28.2185 1058.84 26.6907 1056.04 Q25.1311 1053.21 25.1311 1049.29 Q25.1311 1042.8 30.2873 1038.76 Q35.4436 1034.68 43.8463 1034.68 Q52.249 1034.68 57.4052 1038.76 Q62.5615 1042.8 62.5615 1049.29 Q62.5615 1053.21 61.0337 1056.04 Q59.4741 1058.84 56.2912 1060.69 L61.6384 1060.69 L61.6384 1066.58 L12.1132 1066.58 L12.1132 1060.69 L31.4013 1060.69 Z" fill="#000000" fill-rule="nonzero" fill-opacity="1" /><path clip-path="url(#clip270)" d="M47.5702 1025.58 L25.9905 1025.58 L25.9905 1019.72 L47.3474 1019.72 Q52.4082 1019.72 54.9545 1017.75 Q57.4689 1015.78 57.4689 1011.83 Q57.4689 1007.09 54.4452 1004.35 Q51.4215 1001.58 46.2016 1001.58 L25.9905 1001.58 L25.9905 995.726 L61.6384 995.726 L61.6384 1001.58 L56.1639 1001.58 Q59.4104 1003.71 61.0019 1006.55 Q62.5615 1009.35 62.5615 1013.07 Q62.5615 1019.22 58.742 1022.4 Q54.9226 1025.58 47.5702 1025.58 M25.1311 1010.84 L25.1311 1010.84 Z" fill="#000000" fill-rule="nonzero" fill-opacity="1" /><path clip-path="url(#clip270)" d="M40.1224 954.03 L61.6384 954.03 L61.6384 959.887 L40.3133 959.887 Q35.2526 959.887 32.7381 961.86 Q30.2237 963.833 30.2237 967.78 Q30.2237 972.523 33.2474 975.26 Q36.2711 977.997 41.491 977.997 L61.6384 977.997 L61.6384 983.885 L25.9905 983.885 L25.9905 977.997 L31.5287 977.997 Q28.314 975.896 26.7225 973.064 Q25.1311 970.199 25.1311 966.475 Q25.1311 960.332 28.9505 957.181 Q32.7381 954.03 40.1224 954.03 Z" fill="#000000" fill-rule="nonzero" fill-opacity="1" /><path clip-path="url(#clip270)" d="M31.4013 918.892 L12.1132 918.892 L12.1132 913.035 L61.6384 913.035 L61.6384 918.892 L56.2912 918.892 Q59.4741 920.738 61.0337 923.57 Q62.5615 926.371 62.5615 930.318 Q62.5615 936.779 57.4052 940.853 Q52.249 944.895 43.8463 944.895 Q35.4436 944.895 30.2873 940.853 Q25.1311 936.779 25.1311 930.318 Q25.1311 926.371 26.6907 923.57 Q28.2185 920.738 31.4013 918.892 M43.8463 938.848 Q50.3075 938.848 53.9996 936.206 Q57.6599 933.533 57.6599 928.886 Q57.6599 924.239 53.9996 921.565 Q50.3075 918.892 43.8463 918.892 Q37.3851 918.892 33.7248 921.565 Q30.0327 924.239 30.0327 928.886 Q30.0327 933.533 33.7248 936.206 Q37.3851 938.848 43.8463 938.848 Z" fill="#000000" fill-rule="nonzero" fill-opacity="1" /><path clip-path="url(#clip270)" d="M43.719 884.771 Q43.719 891.869 45.3422 894.606 Q46.9655 897.344 50.8804 897.344 Q53.9996 897.344 55.8457 895.307 Q57.6599 893.238 57.6599 889.705 Q57.6599 884.835 54.2224 881.907 Q50.7531 878.947 45.0239 878.947 L43.719 878.947 L43.719 884.771 M41.3 873.09 L61.6384 873.09 L61.6384 878.947 L56.2276 878.947 Q59.4741 880.952 61.0337 883.944 Q62.5615 886.936 62.5615 891.264 Q62.5615 896.739 59.5059 899.985 Q56.4186 903.2 51.2623 903.2 Q45.2467 903.2 42.1912 899.19 Q39.1357 895.147 39.1357 887.158 L39.1357 878.947 L38.5628 878.947 Q34.5205 878.947 32.3244 881.62 Q30.0964 884.262 30.0964 889.068 Q30.0964 892.124 30.8284 895.02 Q31.5605 897.917 33.0246 900.59 L27.6137 900.59 Q26.3724 897.375 25.7677 894.352 Q25.1311 891.328 25.1311 888.463 Q25.1311 880.729 29.1415 876.91 Q33.1519 873.09 41.3 873.09 Z" fill="#000000" fill-rule="nonzero" fill-opacity="1" /><path clip-path="url(#clip270)" d="M40.1224 831.395 L61.6384 831.395 L61.6384 837.251 L40.3133 837.251 Q35.2526 837.251 32.7381 839.225 Q30.2237 841.198 30.2237 845.145 Q30.2237 849.887 33.2474 852.625 Q36.2711 855.362 41.491 855.362 L61.6384 855.362 L61.6384 861.25 L25.9905 861.25 L25.9905 855.362 L31.5287 855.362 Q28.314 853.261 26.7225 850.428 Q25.1311 847.564 25.1311 843.84 Q25.1311 837.697 28.9505 834.546 Q32.7381 831.395 40.1224 831.395 Z" fill="#000000" fill-rule="nonzero" fill-opacity="1" /><path clip-path="url(#clip270)" d="M27.3591 794.06 L32.8336 794.06 Q31.465 796.543 30.7966 799.057 Q30.0964 801.54 30.0964 804.086 Q30.0964 809.783 33.7248 812.934 Q37.3214 816.085 43.8463 816.085 Q50.3711 816.085 53.9996 812.934 Q57.5962 809.783 57.5962 804.086 Q57.5962 801.54 56.9278 799.057 Q56.2276 796.543 54.859 794.06 L60.2698 794.06 Q61.4156 796.511 61.9886 799.153 Q62.5615 801.763 62.5615 804.723 Q62.5615 812.775 57.5007 817.518 Q52.44 822.26 43.8463 822.26 Q35.1253 822.26 30.1282 817.486 Q25.1311 812.68 25.1311 804.341 Q25.1311 801.635 25.704 799.057 Q26.2451 796.479 27.3591 794.06 Z" fill="#000000" fill-rule="nonzero" fill-opacity="1" /><path clip-path="url(#clip270)" d="M42.3504 753.383 L45.2149 753.383 L45.2149 780.31 Q51.2623 779.928 54.4452 776.682 Q57.5962 773.403 57.5962 767.579 Q57.5962 764.205 56.7687 761.054 Q55.9411 757.871 54.2861 754.752 L59.8242 754.752 Q61.161 757.903 61.8612 761.213 Q62.5615 764.523 62.5615 767.929 Q62.5615 776.459 57.5962 781.456 Q52.631 786.421 44.1646 786.421 Q35.4117 786.421 30.2873 781.711 Q25.1311 776.968 25.1311 768.947 Q25.1311 761.754 29.7781 757.585 Q34.3932 753.383 42.3504 753.383 M40.6316 759.24 Q35.8255 759.303 32.9609 761.945 Q30.0964 764.555 30.0964 768.884 Q30.0964 773.785 32.8654 776.745 Q35.6345 779.674 40.6634 780.119 L40.6316 759.24 Z" fill="#000000" fill-rule="nonzero" fill-opacity="1" /><path clip-path="url(#clip270)" d="M390.442 12.096 L398.624 12.096 L398.624 68.3631 Q398.624 79.3005 394.452 84.2426 Q390.32 89.1847 381.125 89.1847 L378.005 89.1847 L378.005 82.2982 L380.557 82.2982 Q385.986 82.2982 388.214 79.26 Q390.442 76.2218 390.442 68.3631 L390.442 12.096 Z" fill="#000000" fill-rule="nonzero" fill-opacity="1" /><path clip-path="url(#clip270)" d="M413.815 54.671 L413.815 27.2059 L421.269 27.2059 L421.269 54.3874 Q421.269 60.8284 423.781 64.0691 Q426.292 67.2693 431.315 67.2693 Q437.351 67.2693 440.835 63.421 Q444.359 59.5726 444.359 52.9291 L444.359 27.2059 L451.813 27.2059 L451.813 72.576 L444.359 72.576 L444.359 65.6084 Q441.645 69.7404 438.04 71.7658 Q434.475 73.7508 429.735 73.7508 Q421.917 73.7508 417.866 68.8897 Q413.815 64.0286 413.815 54.671 M432.571 26.1121 L432.571 26.1121 Z" fill="#000000" fill-rule="nonzero" fill-opacity="1" /><path clip-path="url(#clip270)" d="M461.819 27.2059 L469.718 27.2059 L483.896 65.2844 L498.074 27.2059 L505.973 27.2059 L488.96 72.576 L478.832 72.576 L461.819 27.2059 Z" fill="#000000" fill-rule="nonzero" fill-opacity="1" /><path clip-path="url(#clip270)" d="M555.07 48.0275 L555.07 51.6733 L520.8 51.6733 Q521.286 59.3701 525.418 63.421 Q529.59 67.4314 537.003 67.4314 Q541.297 67.4314 545.308 66.3781 Q549.359 65.3249 553.329 63.2184 L553.329 70.267 Q549.318 71.9684 545.105 72.8596 Q540.892 73.7508 536.558 73.7508 Q525.701 73.7508 519.341 67.4314 Q513.022 61.1119 513.022 50.3365 Q513.022 39.1965 519.017 32.6746 Q525.053 26.1121 535.261 26.1121 Q544.417 26.1121 549.723 32.0264 Q555.07 37.9003 555.07 48.0275 M547.617 45.84 Q547.536 39.7232 544.173 36.0774 Q540.852 32.4315 535.343 32.4315 Q529.104 32.4315 525.337 35.9558 Q521.61 39.4801 521.043 45.8805 L547.617 45.84 Z" fill="#000000" fill-rule="nonzero" fill-opacity="1" /><path clip-path="url(#clip270)" d="M605.018 45.1919 L605.018 72.576 L597.564 72.576 L597.564 45.4349 Q597.564 38.994 595.053 35.7938 Q592.541 32.5936 587.518 32.5936 Q581.482 32.5936 577.999 36.4419 Q574.515 40.2903 574.515 46.9338 L574.515 72.576 L567.021 72.576 L567.021 27.2059 L574.515 27.2059 L574.515 34.2544 Q577.188 30.163 580.794 28.1376 Q584.439 26.1121 589.179 26.1121 Q596.997 26.1121 601.008 30.9732 Q605.018 35.7938 605.018 45.1919 Z" fill="#000000" fill-rule="nonzero" fill-opacity="1" /><path clip-path="url(#clip270)" d="M619.885 27.2059 L627.339 27.2059 L627.339 72.576 L619.885 72.576 L619.885 27.2059 M619.885 9.54393 L627.339 9.54393 L627.339 18.9825 L619.885 18.9825 L619.885 9.54393 Z" fill="#000000" fill-rule="nonzero" fill-opacity="1" /><path clip-path="url(#clip270)" d="M642.935 9.54393 L650.388 9.54393 L650.388 72.576 L642.935 72.576 L642.935 9.54393 Z" fill="#000000" fill-rule="nonzero" fill-opacity="1" /><path clip-path="url(#clip270)" d="M704.792 48.0275 L704.792 51.6733 L670.521 51.6733 Q671.007 59.3701 675.139 63.421 Q679.312 67.4314 686.725 67.4314 Q691.019 67.4314 695.029 66.3781 Q699.08 65.3249 703.05 63.2184 L703.05 70.267 Q699.04 71.9684 694.827 72.8596 Q690.614 73.7508 686.279 73.7508 Q675.423 73.7508 669.063 67.4314 Q662.743 61.1119 662.743 50.3365 Q662.743 39.1965 668.739 32.6746 Q674.775 26.1121 684.983 26.1121 Q694.138 26.1121 699.445 32.0264 Q704.792 37.9003 704.792 48.0275 M697.338 45.84 Q697.257 39.7232 693.895 36.0774 Q690.573 32.4315 685.064 32.4315 Q678.826 32.4315 675.058 35.9558 Q671.331 39.4801 670.764 45.8805 L697.338 45.84 Z" fill="#000000" fill-rule="nonzero" fill-opacity="1" /><path clip-path="url(#clip270)" d="M713.258 46.9338 L746.638 46.9338 L746.638 52.7671 L713.258 52.7671 L713.258 46.9338 Z" fill="#000000" fill-rule="nonzero" fill-opacity="1" /><path clip-path="url(#clip270)" d="M779.126 49.7694 Q770.092 49.7694 766.609 51.8354 Q763.125 53.9013 763.125 58.8839 Q763.125 62.8538 765.717 65.2034 Q768.351 67.5124 772.847 67.5124 Q779.045 67.5124 782.772 63.1374 Q786.539 58.7219 786.539 51.4303 L786.539 49.7694 L779.126 49.7694 M793.993 46.6907 L793.993 72.576 L786.539 72.576 L786.539 65.6895 Q783.987 69.8214 780.179 71.8063 Q776.371 73.7508 770.862 73.7508 Q763.895 73.7508 759.763 69.8619 Q755.671 65.9325 755.671 59.3701 Q755.671 51.7138 760.775 47.825 Q765.92 43.9361 776.088 43.9361 L786.539 43.9361 L786.539 43.2069 Q786.539 38.0623 783.136 35.2672 Q779.774 32.4315 773.657 32.4315 Q769.768 32.4315 766.082 33.3632 Q762.396 34.295 758.993 36.1584 L758.993 29.2718 Q763.084 27.692 766.933 26.9223 Q770.781 26.1121 774.427 26.1121 Q784.271 26.1121 789.132 31.2163 Q793.993 36.3204 793.993 46.6907 Z" fill="#000000" fill-rule="nonzero" fill-opacity="1" /><path clip-path="url(#clip270)" d="M839.201 34.0924 L839.201 9.54393 L846.654 9.54393 L846.654 72.576 L839.201 72.576 L839.201 65.7705 Q836.851 69.8214 833.246 71.8063 Q829.681 73.7508 824.658 73.7508 Q816.435 73.7508 811.25 67.1883 Q806.105 60.6258 806.105 49.9314 Q806.105 39.2371 811.25 32.6746 Q816.435 26.1121 824.658 26.1121 Q829.681 26.1121 833.246 28.0971 Q836.851 30.0415 839.201 34.0924 M813.802 49.9314 Q813.802 58.1548 817.164 62.8538 Q820.567 67.5124 826.481 67.5124 Q832.395 67.5124 835.798 62.8538 Q839.201 58.1548 839.201 49.9314 Q839.201 41.7081 835.798 37.0496 Q832.395 32.3505 826.481 32.3505 Q820.567 32.3505 817.164 37.0496 Q813.802 41.7081 813.802 49.9314 Z" fill="#000000" fill-rule="nonzero" fill-opacity="1" /><path clip-path="url(#clip270)" d="M861.238 54.671 L861.238 27.2059 L868.691 27.2059 L868.691 54.3874 Q868.691 60.8284 871.203 64.0691 Q873.715 67.2693 878.738 67.2693 Q884.774 67.2693 888.257 63.421 Q891.782 59.5726 891.782 52.9291 L891.782 27.2059 L899.235 27.2059 L899.235 72.576 L891.782 72.576 L891.782 65.6084 Q889.067 69.7404 885.462 71.7658 Q881.897 73.7508 877.158 73.7508 Q869.34 73.7508 865.289 68.8897 Q861.238 64.0286 861.238 54.671 M879.993 26.1121 L879.993 26.1121 Z" fill="#000000" fill-rule="nonzero" fill-opacity="1" /><path clip-path="url(#clip270)" d="M914.588 9.54393 L922.042 9.54393 L922.042 72.576 L914.588 72.576 L914.588 9.54393 Z" fill="#000000" fill-rule="nonzero" fill-opacity="1" /><path clip-path="url(#clip270)" d="M945.01 14.324 L945.01 27.2059 L960.363 27.2059 L960.363 32.9987 L945.01 32.9987 L945.01 57.6282 Q945.01 63.1779 946.509 64.7578 Q948.049 66.3376 952.707 66.3376 L960.363 66.3376 L960.363 72.576 L952.707 72.576 Q944.079 72.576 940.798 69.3758 Q937.516 66.1351 937.516 57.6282 L937.516 32.9987 L932.048 32.9987 L932.048 27.2059 L937.516 27.2059 L937.516 14.324 L945.01 14.324 Z" fill="#000000" fill-rule="nonzero" fill-opacity="1" /><path clip-path="url(#clip270)" d="M1026.39 34.0924 L1026.39 9.54393 L1033.85 9.54393 L1033.85 72.576 L1026.39 72.576 L1026.39 65.7705 Q1024.04 69.8214 1020.44 71.8063 Q1016.87 73.7508 1011.85 73.7508 Q1003.63 73.7508 998.442 67.1883 Q993.297 60.6258 993.297 49.9314 Q993.297 39.2371 998.442 32.6746 Q1003.63 26.1121 1011.85 26.1121 Q1016.87 26.1121 1020.44 28.0971 Q1024.04 30.0415 1026.39 34.0924 M1000.99 49.9314 Q1000.99 58.1548 1004.36 62.8538 Q1007.76 67.5124 1013.67 67.5124 Q1019.59 67.5124 1022.99 62.8538 Q1026.39 58.1548 1026.39 49.9314 Q1026.39 41.7081 1022.99 37.0496 Q1019.59 32.3505 1013.67 32.3505 Q1007.76 32.3505 1004.36 37.0496 Q1000.99 41.7081 1000.99 49.9314 Z" fill="#000000" fill-rule="nonzero" fill-opacity="1" /><path clip-path="url(#clip270)" d="M1068.08 76.7889 Q1064.92 84.8907 1061.92 87.3618 Q1058.92 89.8329 1053.9 89.8329 L1047.94 89.8329 L1047.94 83.5945 L1052.32 83.5945 Q1055.4 83.5945 1057.1 82.1361 Q1058.8 80.6778 1060.87 75.2496 L1062.2 71.8468 L1043.85 27.2059 L1051.75 27.2059 L1065.93 62.6918 L1080.11 27.2059 L1088.01 27.2059 L1068.08 76.7889 Z" fill="#000000" fill-rule="nonzero" fill-opacity="1" /><path clip-path="url(#clip270)" d="M1136.01 45.1919 L1136.01 72.576 L1128.56 72.576 L1128.56 45.4349 Q1128.56 38.994 1126.05 35.7938 Q1123.53 32.5936 1118.51 32.5936 Q1112.47 32.5936 1108.99 36.4419 Q1105.51 40.2903 1105.51 46.9338 L1105.51 72.576 L1098.01 72.576 L1098.01 27.2059 L1105.51 27.2059 L1105.51 34.2544 Q1108.18 30.163 1111.79 28.1376 Q1115.43 26.1121 1120.17 26.1121 Q1127.99 26.1121 1132 30.9732 Q1136.01 35.7938 1136.01 45.1919 Z" fill="#000000" fill-rule="nonzero" fill-opacity="1" /><path clip-path="url(#clip270)" d="M1171.5 49.7694 Q1162.46 49.7694 1158.98 51.8354 Q1155.5 53.9013 1155.5 58.8839 Q1155.5 62.8538 1158.09 65.2034 Q1160.72 67.5124 1165.22 67.5124 Q1171.42 67.5124 1175.14 63.1374 Q1178.91 58.7219 1178.91 51.4303 L1178.91 49.7694 L1171.5 49.7694 M1186.36 46.6907 L1186.36 72.576 L1178.91 72.576 L1178.91 65.6895 Q1176.36 69.8214 1172.55 71.8063 Q1168.74 73.7508 1163.23 73.7508 Q1156.27 73.7508 1152.13 69.8619 Q1148.04 65.9325 1148.04 59.3701 Q1148.04 51.7138 1153.15 47.825 Q1158.29 43.9361 1168.46 43.9361 L1178.91 43.9361 L1178.91 43.2069 Q1178.91 38.0623 1175.51 35.2672 Q1172.14 32.4315 1166.03 32.4315 Q1162.14 32.4315 1158.45 33.3632 Q1154.77 34.295 1151.36 36.1584 L1151.36 29.2718 Q1155.45 27.692 1159.3 26.9223 Q1163.15 26.1121 1166.8 26.1121 Q1176.64 26.1121 1181.5 31.2163 Q1186.36 36.3204 1186.36 46.6907 Z" fill="#000000" fill-rule="nonzero" fill-opacity="1" /><path clip-path="url(#clip270)" d="M1237.04 35.9153 Q1239.84 30.8922 1243.72 28.5022 Q1247.61 26.1121 1252.88 26.1121 Q1259.97 26.1121 1263.82 31.0947 Q1267.66 36.0368 1267.66 45.1919 L1267.66 72.576 L1260.17 72.576 L1260.17 45.4349 Q1260.17 38.913 1257.86 35.7533 Q1255.55 32.5936 1250.81 32.5936 Q1245.02 32.5936 1241.66 36.4419 Q1238.3 40.2903 1238.3 46.9338 L1238.3 72.576 L1230.8 72.576 L1230.8 45.4349 Q1230.8 38.8725 1228.49 35.7533 Q1226.18 32.5936 1221.36 32.5936 Q1215.65 32.5936 1212.29 36.4824 Q1208.93 40.3308 1208.93 46.9338 L1208.93 72.576 L1201.43 72.576 L1201.43 27.2059 L1208.93 27.2059 L1208.93 34.2544 Q1211.48 30.082 1215.04 28.0971 Q1218.61 26.1121 1223.51 26.1121 Q1228.45 26.1121 1231.9 28.6237 Q1235.38 31.1352 1237.04 35.9153 Z" fill="#000000" fill-rule="nonzero" fill-opacity="1" /><path clip-path="url(#clip270)" d="M1282.53 27.2059 L1289.99 27.2059 L1289.99 72.576 L1282.53 72.576 L1282.53 27.2059 M1282.53 9.54393 L1289.99 9.54393 L1289.99 18.9825 L1282.53 18.9825 L1282.53 9.54393 Z" fill="#000000" fill-rule="nonzero" fill-opacity="1" /><path clip-path="url(#clip270)" d="M1338.23 28.9478 L1338.23 35.9153 Q1335.07 34.1734 1331.87 33.3227 Q1328.71 32.4315 1325.47 32.4315 Q1318.22 32.4315 1314.21 37.0496 Q1310.2 41.6271 1310.2 49.9314 Q1310.2 58.2358 1314.21 62.8538 Q1318.22 67.4314 1325.47 67.4314 Q1328.71 67.4314 1331.87 66.5807 Q1335.07 65.6895 1338.23 63.9476 L1338.23 70.8341 Q1335.11 72.2924 1331.75 73.0216 Q1328.43 73.7508 1324.66 73.7508 Q1314.41 73.7508 1308.38 67.3098 Q1302.34 60.8689 1302.34 49.9314 Q1302.34 38.832 1308.42 32.472 Q1314.53 26.1121 1325.15 26.1121 Q1328.59 26.1121 1331.87 26.8413 Q1335.15 27.5299 1338.23 28.9478 Z" fill="#000000" fill-rule="nonzero" fill-opacity="1" /><path clip-path="url(#clip270)" d="M1380.12 28.5427 L1380.12 35.5912 Q1376.96 33.9709 1373.56 33.1607 Q1370.15 32.3505 1366.51 32.3505 Q1360.96 32.3505 1358.16 34.0519 Q1355.41 35.7533 1355.41 39.156 Q1355.41 41.7486 1357.39 43.2475 Q1359.38 44.7058 1365.37 46.0426 L1367.92 46.6097 Q1375.86 48.3111 1379.19 51.4303 Q1382.55 54.509 1382.55 60.0587 Q1382.55 66.3781 1377.53 70.0644 Q1372.54 73.7508 1363.79 73.7508 Q1360.15 73.7508 1356.18 73.0216 Q1352.25 72.3329 1347.87 70.9151 L1347.87 63.2184 Q1352 65.3654 1356.02 66.4591 Q1360.03 67.5124 1363.95 67.5124 Q1369.22 67.5124 1372.06 65.73 Q1374.89 63.9071 1374.89 60.6258 Q1374.89 57.5877 1372.83 55.9673 Q1370.8 54.3469 1363.87 52.8481 L1361.28 52.2405 Q1354.35 50.7821 1351.28 47.7845 Q1348.2 44.7463 1348.2 39.4801 Q1348.2 33.0797 1352.73 29.5959 Q1357.27 26.1121 1365.62 26.1121 Q1369.75 26.1121 1373.39 26.7198 Q1377.04 27.3274 1380.12 28.5427 Z" fill="#000000" fill-rule="nonzero" fill-opacity="1" /><path clip-path="url(#clip270)" d="M1416.45 27.2059 L1423.91 27.2059 L1433.23 62.6108 L1442.5 27.2059 L1451.29 27.2059 L1460.61 62.6108 L1469.89 27.2059 L1477.34 27.2059 L1465.47 72.576 L1456.68 72.576 L1446.92 35.3887 L1437.11 72.576 L1428.32 72.576 L1416.45 27.2059 Z" fill="#000000" fill-rule="nonzero" fill-opacity="1" /><path clip-path="url(#clip270)" d="M1488.64 27.2059 L1496.1 27.2059 L1496.1 72.576 L1488.64 72.576 L1488.64 27.2059 M1488.64 9.54393 L1496.1 9.54393 L1496.1 18.9825 L1488.64 18.9825 L1488.64 9.54393 Z" fill="#000000" fill-rule="nonzero" fill-opacity="1" /><path clip-path="url(#clip270)" d="M1519.06 14.324 L1519.06 27.2059 L1534.42 27.2059 L1534.42 32.9987 L1519.06 32.9987 L1519.06 57.6282 Q1519.06 63.1779 1520.56 64.7578 Q1522.1 66.3376 1526.76 66.3376 L1534.42 66.3376 L1534.42 72.576 L1526.76 72.576 Q1518.13 72.576 1514.85 69.3758 Q1511.57 66.1351 1511.57 57.6282 L1511.57 32.9987 L1506.1 32.9987 L1506.1 27.2059 L1511.57 27.2059 L1511.57 14.324 L1519.06 14.324 Z" fill="#000000" fill-rule="nonzero" fill-opacity="1" /><path clip-path="url(#clip270)" d="M1581.93 45.1919 L1581.93 72.576 L1574.48 72.576 L1574.48 45.4349 Q1574.48 38.994 1571.97 35.7938 Q1569.46 32.5936 1564.43 32.5936 Q1558.4 32.5936 1554.91 36.4419 Q1551.43 40.2903 1551.43 46.9338 L1551.43 72.576 L1543.94 72.576 L1543.94 9.54393 L1551.43 9.54393 L1551.43 34.2544 Q1554.1 30.163 1557.71 28.1376 Q1561.36 26.1121 1566.1 26.1121 Q1573.91 26.1121 1577.92 30.9732 Q1581.93 35.7938 1581.93 45.1919 Z" fill="#000000" fill-rule="nonzero" fill-opacity="1" /><path clip-path="url(#clip270)" d="M1655.82 28.9478 L1655.82 35.9153 Q1652.66 34.1734 1649.46 33.3227 Q1646.3 32.4315 1643.06 32.4315 Q1635.81 32.4315 1631.8 37.0496 Q1627.79 41.6271 1627.79 49.9314 Q1627.79 58.2358 1631.8 62.8538 Q1635.81 67.4314 1643.06 67.4314 Q1646.3 67.4314 1649.46 66.5807 Q1652.66 65.6895 1655.82 63.9476 L1655.82 70.8341 Q1652.7 72.2924 1649.34 73.0216 Q1646.02 73.7508 1642.25 73.7508 Q1632 73.7508 1625.97 67.3098 Q1619.93 60.8689 1619.93 49.9314 Q1619.93 38.832 1626.01 32.472 Q1632.12 26.1121 1642.74 26.1121 Q1646.18 26.1121 1649.46 26.8413 Q1652.74 27.5299 1655.82 28.9478 Z" fill="#000000" fill-rule="nonzero" fill-opacity="1" /><path clip-path="url(#clip270)" d="M1686.37 32.4315 Q1680.37 32.4315 1676.89 37.1306 Q1673.4 41.7891 1673.4 49.9314 Q1673.4 58.0738 1676.85 62.7728 Q1680.33 67.4314 1686.37 67.4314 Q1692.32 67.4314 1695.81 62.7323 Q1699.29 58.0333 1699.29 49.9314 Q1699.29 41.8701 1695.81 37.1711 Q1692.32 32.4315 1686.37 32.4315 M1686.37 26.1121 Q1696.09 26.1121 1701.64 32.4315 Q1707.19 38.7509 1707.19 49.9314 Q1707.19 61.0714 1701.64 67.4314 Q1696.09 73.7508 1686.37 73.7508 Q1676.6 73.7508 1671.05 67.4314 Q1665.54 61.0714 1665.54 49.9314 Q1665.54 38.7509 1671.05 32.4315 Q1676.6 26.1121 1686.37 26.1121 Z" fill="#000000" fill-rule="nonzero" fill-opacity="1" /><path clip-path="url(#clip270)" d="M1757.26 45.1919 L1757.26 72.576 L1749.8 72.576 L1749.8 45.4349 Q1749.8 38.994 1747.29 35.7938 Q1744.78 32.5936 1739.76 32.5936 Q1733.72 32.5936 1730.24 36.4419 Q1726.75 40.2903 1726.75 46.9338 L1726.75 72.576 L1719.26 72.576 L1719.26 27.2059 L1726.75 27.2059 L1726.75 34.2544 Q1729.43 30.163 1733.03 28.1376 Q1736.68 26.1121 1741.42 26.1121 Q1749.24 26.1121 1753.25 30.9732 Q1757.26 35.7938 1757.26 45.1919 Z" fill="#000000" fill-rule="nonzero" fill-opacity="1" /><path clip-path="url(#clip270)" d="M1801.05 28.5427 L1801.05 35.5912 Q1797.89 33.9709 1794.49 33.1607 Q1791.08 32.3505 1787.44 32.3505 Q1781.89 32.3505 1779.09 34.0519 Q1776.34 35.7533 1776.34 39.156 Q1776.34 41.7486 1778.32 43.2475 Q1780.31 44.7058 1786.3 46.0426 L1788.85 46.6097 Q1796.79 48.3111 1800.12 51.4303 Q1803.48 54.509 1803.48 60.0587 Q1803.48 66.3781 1798.45 70.0644 Q1793.47 73.7508 1784.72 73.7508 Q1781.08 73.7508 1777.11 73.0216 Q1773.18 72.3329 1768.8 70.9151 L1768.8 63.2184 Q1772.93 65.3654 1776.94 66.4591 Q1780.96 67.5124 1784.88 67.5124 Q1790.15 67.5124 1792.99 65.73 Q1795.82 63.9071 1795.82 60.6258 Q1795.82 57.5877 1793.76 55.9673 Q1791.73 54.3469 1784.8 52.8481 L1782.21 52.2405 Q1775.28 50.7821 1772.21 47.7845 Q1769.13 44.7463 1769.13 39.4801 Q1769.13 33.0797 1773.66 29.5959 Q1778.2 26.1121 1786.55 26.1121 Q1790.68 26.1121 1794.32 26.7198 Q1797.97 27.3274 1801.05 28.5427 Z" fill="#000000" fill-rule="nonzero" fill-opacity="1" /><path clip-path="url(#clip270)" d="M1822.72 14.324 L1822.72 27.2059 L1838.07 27.2059 L1838.07 32.9987 L1822.72 32.9987 L1822.72 57.6282 Q1822.72 63.1779 1824.22 64.7578 Q1825.76 66.3376 1830.42 66.3376 L1838.07 66.3376 L1838.07 72.576 L1830.42 72.576 Q1821.79 72.576 1818.51 69.3758 Q1815.23 66.1351 1815.23 57.6282 L1815.23 32.9987 L1809.76 32.9987 L1809.76 27.2059 L1815.23 27.2059 L1815.23 14.324 L1822.72 14.324 Z" fill="#000000" fill-rule="nonzero" fill-opacity="1" /><path clip-path="url(#clip270)" d="M1868.5 49.7694 Q1859.46 49.7694 1855.98 51.8354 Q1852.49 53.9013 1852.49 58.8839 Q1852.49 62.8538 1855.09 65.2034 Q1857.72 67.5124 1862.22 67.5124 Q1868.41 67.5124 1872.14 63.1374 Q1875.91 58.7219 1875.91 51.4303 L1875.91 49.7694 L1868.5 49.7694 M1883.36 46.6907 L1883.36 72.576 L1875.91 72.576 L1875.91 65.6895 Q1873.36 69.8214 1869.55 71.8063 Q1865.74 73.7508 1860.23 73.7508 Q1853.26 73.7508 1849.13 69.8619 Q1845.04 65.9325 1845.04 59.3701 Q1845.04 51.7138 1850.14 47.825 Q1855.29 43.9361 1865.46 43.9361 L1875.91 43.9361 L1875.91 43.2069 Q1875.91 38.0623 1872.51 35.2672 Q1869.14 32.4315 1863.03 32.4315 Q1859.14 32.4315 1855.45 33.3632 Q1851.76 34.295 1848.36 36.1584 L1848.36 29.2718 Q1852.45 27.692 1856.3 26.9223 Q1860.15 26.1121 1863.8 26.1121 Q1873.64 26.1121 1878.5 31.2163 Q1883.36 36.3204 1883.36 46.6907 Z" fill="#000000" fill-rule="nonzero" fill-opacity="1" /><path clip-path="url(#clip270)" d="M1936.43 45.1919 L1936.43 72.576 L1928.98 72.576 L1928.98 45.4349 Q1928.98 38.994 1926.46 35.7938 Q1923.95 32.5936 1918.93 32.5936 Q1912.89 32.5936 1909.41 36.4419 Q1905.93 40.2903 1905.93 46.9338 L1905.93 72.576 L1898.43 72.576 L1898.43 27.2059 L1905.93 27.2059 L1905.93 34.2544 Q1908.6 30.163 1912.2 28.1376 Q1915.85 26.1121 1920.59 26.1121 Q1928.41 26.1121 1932.42 30.9732 Q1936.43 35.7938 1936.43 45.1919 Z" fill="#000000" fill-rule="nonzero" fill-opacity="1" /><path clip-path="url(#clip270)" d="M1958.67 14.324 L1958.67 27.2059 L1974.02 27.2059 L1974.02 32.9987 L1958.67 32.9987 L1958.67 57.6282 Q1958.67 63.1779 1960.17 64.7578 Q1961.71 66.3376 1966.36 66.3376 L1974.02 66.3376 L1974.02 72.576 L1966.36 72.576 Q1957.74 72.576 1954.46 69.3758 Q1951.17 66.1351 1951.17 57.6282 L1951.17 32.9987 L1945.71 32.9987 L1945.71 27.2059 L1951.17 27.2059 L1951.17 14.324 L1958.67 14.324 Z" fill="#000000" fill-rule="nonzero" fill-opacity="1" /><path clip-path="url(#clip270)" d="M2036.49 34.1734 Q2035.23 33.4443 2033.73 33.1202 Q2032.27 32.7556 2030.49 32.7556 Q2024.17 32.7556 2020.77 36.8875 Q2017.41 40.9789 2017.41 48.6757 L2017.41 72.576 L2009.91 72.576 L2009.91 27.2059 L2017.41 27.2059 L2017.41 34.2544 Q2019.76 30.1225 2023.52 28.1376 Q2027.29 26.1121 2032.68 26.1121 Q2033.45 26.1121 2034.38 26.2337 Q2035.31 26.3147 2036.45 26.5172 L2036.49 34.1734 Z" fill="#000000" fill-rule="nonzero" fill-opacity="1" /><path clip-path="url(#clip270)" d="M2081.29 48.0275 L2081.29 51.6733 L2047.02 51.6733 Q2047.5 59.3701 2051.64 63.421 Q2055.81 67.4314 2063.22 67.4314 Q2067.52 67.4314 2071.53 66.3781 Q2075.58 65.3249 2079.55 63.2184 L2079.55 70.267 Q2075.54 71.9684 2071.32 72.8596 Q2067.11 73.7508 2062.78 73.7508 Q2051.92 73.7508 2045.56 67.4314 Q2039.24 61.1119 2039.24 50.3365 Q2039.24 39.1965 2045.24 32.6746 Q2051.27 26.1121 2061.48 26.1121 Q2070.64 26.1121 2075.94 32.0264 Q2081.29 37.9003 2081.29 48.0275 M2073.84 45.84 Q2073.75 39.7232 2070.39 36.0774 Q2067.07 32.4315 2061.56 32.4315 Q2055.32 32.4315 2051.56 35.9558 Q2047.83 39.4801 2047.26 45.8805 L2073.84 45.84 Z" fill="#000000" fill-rule="nonzero" fill-opacity="1" /><path clip-path="url(#clip270)" d="M2126.17 28.9478 L2126.17 35.9153 Q2123.01 34.1734 2119.81 33.3227 Q2116.65 32.4315 2113.41 32.4315 Q2106.16 32.4315 2102.15 37.0496 Q2098.14 41.6271 2098.14 49.9314 Q2098.14 58.2358 2102.15 62.8538 Q2106.16 67.4314 2113.41 67.4314 Q2116.65 67.4314 2119.81 66.5807 Q2123.01 65.6895 2126.17 63.9476 L2126.17 70.8341 Q2123.05 72.2924 2119.69 73.0216 Q2116.37 73.7508 2112.6 73.7508 Q2102.35 73.7508 2096.32 67.3098 Q2090.28 60.8689 2090.28 49.9314 Q2090.28 38.832 2096.36 32.472 Q2102.48 26.1121 2113.09 26.1121 Q2116.53 26.1121 2119.81 26.8413 Q2123.09 27.5299 2126.17 28.9478 Z" fill="#000000" fill-rule="nonzero" fill-opacity="1" /><path clip-path="url(#clip270)" d="M2165.43 34.1734 Q2164.17 33.4443 2162.67 33.1202 Q2161.21 32.7556 2159.43 32.7556 Q2153.11 32.7556 2149.71 36.8875 Q2146.35 40.9789 2146.35 48.6757 L2146.35 72.576 L2138.85 72.576 L2138.85 27.2059 L2146.35 27.2059 L2146.35 34.2544 Q2148.7 30.1225 2152.46 28.1376 Q2156.23 26.1121 2161.62 26.1121 Q2162.39 26.1121 2163.32 26.2337 Q2164.25 26.3147 2165.39 26.5172 L2165.43 34.1734 Z" fill="#000000" fill-rule="nonzero" fill-opacity="1" /><path clip-path="url(#clip270)" d="M2172.47 54.671 L2172.47 27.2059 L2179.93 27.2059 L2179.93 54.3874 Q2179.93 60.8284 2182.44 64.0691 Q2184.95 67.2693 2189.97 67.2693 Q2196.01 67.2693 2199.49 63.421 Q2203.02 59.5726 2203.02 52.9291 L2203.02 27.2059 L2210.47 27.2059 L2210.47 72.576 L2203.02 72.576 L2203.02 65.6084 Q2200.3 69.7404 2196.7 71.7658 Q2193.13 73.7508 2188.39 73.7508 Q2180.58 73.7508 2176.53 68.8897 Q2172.47 64.0286 2172.47 54.671 M2191.23 26.1121 L2191.23 26.1121 Z" fill="#000000" fill-rule="nonzero" fill-opacity="1" /><path clip-path="url(#clip270)" d="M2225.83 27.2059 L2233.28 27.2059 L2233.28 72.576 L2225.83 72.576 L2225.83 27.2059 M2225.83 9.54393 L2233.28 9.54393 L2233.28 18.9825 L2225.83 18.9825 L2225.83 9.54393 Z" fill="#000000" fill-rule="nonzero" fill-opacity="1" /><path clip-path="url(#clip270)" d="M2256.25 14.324 L2256.25 27.2059 L2271.6 27.2059 L2271.6 32.9987 L2256.25 32.9987 L2256.25 57.6282 Q2256.25 63.1779 2257.75 64.7578 Q2259.29 66.3376 2263.94 66.3376 L2271.6 66.3376 L2271.6 72.576 L2263.94 72.576 Q2255.32 72.576 2252.03 69.3758 Q2248.75 66.1351 2248.75 57.6282 L2248.75 32.9987 L2243.28 32.9987 L2243.28 27.2059 L2248.75 27.2059 L2248.75 14.324 L2256.25 14.324 Z" fill="#000000" fill-rule="nonzero" fill-opacity="1" /><path clip-path="url(#clip270)" d="M2316.73 35.9153 Q2319.52 30.8922 2323.41 28.5022 Q2327.3 26.1121 2332.57 26.1121 Q2339.66 26.1121 2343.5 31.0947 Q2347.35 36.0368 2347.35 45.1919 L2347.35 72.576 L2339.86 72.576 L2339.86 45.4349 Q2339.86 38.913 2337.55 35.7533 Q2335.24 32.5936 2330.5 32.5936 Q2324.71 32.5936 2321.35 36.4419 Q2317.98 40.2903 2317.98 46.9338 L2317.98 72.576 L2310.49 72.576 L2310.49 45.4349 Q2310.49 38.8725 2308.18 35.7533 Q2305.87 32.5936 2301.05 32.5936 Q2295.34 32.5936 2291.98 36.4824 Q2288.61 40.3308 2288.61 46.9338 L2288.61 72.576 L2281.12 72.576 L2281.12 27.2059 L2288.61 27.2059 L2288.61 34.2544 Q2291.17 30.082 2294.73 28.0971 Q2298.3 26.1121 2303.2 26.1121 Q2308.14 26.1121 2311.58 28.6237 Q2315.07 31.1352 2316.73 35.9153 Z" fill="#000000" fill-rule="nonzero" fill-opacity="1" /><path clip-path="url(#clip270)" d="M2401.03 48.0275 L2401.03 51.6733 L2366.76 51.6733 Q2367.24 59.3701 2371.37 63.421 Q2375.55 67.4314 2382.96 67.4314 Q2387.25 67.4314 2391.26 66.3781 Q2395.32 65.3249 2399.29 63.2184 L2399.29 70.267 Q2395.27 71.9684 2391.06 72.8596 Q2386.85 73.7508 2382.51 73.7508 Q2371.66 73.7508 2365.3 67.4314 Q2358.98 61.1119 2358.98 50.3365 Q2358.98 39.1965 2364.97 32.6746 Q2371.01 26.1121 2381.22 26.1121 Q2390.37 26.1121 2395.68 32.0264 Q2401.03 37.9003 2401.03 48.0275 M2393.57 45.84 Q2393.49 39.7232 2390.13 36.0774 Q2386.81 32.4315 2381.3 32.4315 Q2375.06 32.4315 2371.29 35.9558 Q2367.57 39.4801 2367 45.8805 L2393.57 45.84 Z" fill="#000000" fill-rule="nonzero" fill-opacity="1" /><path clip-path="url(#clip270)" d="M2450.97 45.1919 L2450.97 72.576 L2443.52 72.576 L2443.52 45.4349 Q2443.52 38.994 2441.01 35.7938 Q2438.5 32.5936 2433.47 32.5936 Q2427.44 32.5936 2423.96 36.4419 Q2420.47 40.2903 2420.47 46.9338 L2420.47 72.576 L2412.98 72.576 L2412.98 27.2059 L2420.47 27.2059 L2420.47 34.2544 Q2423.14 30.163 2426.75 28.1376 Q2430.4 26.1121 2435.14 26.1121 Q2442.95 26.1121 2446.96 30.9732 Q2450.97 35.7938 2450.97 45.1919 Z" fill="#000000" fill-rule="nonzero" fill-opacity="1" /><path clip-path="url(#clip270)" d="M2473.21 14.324 L2473.21 27.2059 L2488.57 27.2059 L2488.57 32.9987 L2473.21 32.9987 L2473.21 57.6282 Q2473.21 63.1779 2474.71 64.7578 Q2476.25 66.3376 2480.91 66.3376 L2488.57 66.3376 L2488.57 72.576 L2480.91 72.576 Q2472.28 72.576 2469 69.3758 Q2465.72 66.1351 2465.72 57.6282 L2465.72 32.9987 L2460.25 32.9987 L2460.25 27.2059 L2465.72 27.2059 L2465.72 14.324 L2473.21 14.324 Z" fill="#000000" fill-rule="nonzero" fill-opacity="1" /><polyline clip-path="url(#clip271)" style="stroke:#009af9; stroke-linecap:round; stroke-linejoin:round; stroke-width:4; stroke-opacity:1; fill:none" points="294.164,173.254 332.135,566.017 370.105,856.983 408.076,1072.54 446.047,1232.22 484.018,1350.52 521.988,1438.16 559.959,1503.08 597.93,1551.18 635.901,1586.81 673.871,1613.2 711.842,1632.77 749.813,1647.25 787.784,1657.97 825.754,1665.93 863.725,1671.82 901.696,1676.17 939.666,1679.41 977.637,1681.82 1015.61,1683.58 1053.58,1684.88 1091.55,1685.86 1129.52,1686.6 1167.49,1687.13 1205.46,1687.52 1243.43,1687.8 1281.4,1688.02 1319.37,1688.19 1357.34,1688.32 1395.32,1688.4 1433.29,1688.46 1471.26,1688.5 1509.23,1688.54 1547.2,1688.57 1585.17,1688.6 1623.14,1688.61 1661.11,1688.62 1699.08,1688.62 1737.05,1688.62 1775.02,1688.63 1812.99,1688.64 1850.96,1688.64 1888.94,1688.65 1926.91,1688.65 1964.88,1688.65 2002.85,1688.65 2040.82,1688.65 2078.79,1688.64 2116.76,1688.64 2154.73,1688.64 2192.7,1688.65 2230.67,1688.65 2268.64,1688.65 2306.61,1688.65 2344.58,1688.65 2382.55,1688.65 2420.53,1688.65 2458.5,1688.65 2496.47,1688.64 2534.44,1688.64 2572.41,1688.64 "/>
<polyline clip-path="url(#clip271)" style="stroke:#e26f46; stroke-linecap:round; stroke-linejoin:round; stroke-width:4; stroke-opacity:1; fill:none" points="294.164,1688.65 332.135,1487.2 370.105,1328.63 408.076,1202.29 446.047,1100.24 484.018,1016.62 521.988,947.028 559.959,888.21 597.93,837.722 635.901,793.743 673.871,754.916 711.842,720.191 749.813,688.814 787.784,660.191 825.754,633.854 863.725,609.477 901.696,586.793 939.666,565.572 977.637,545.655 1015.61,526.92 1053.58,509.251 1091.55,492.546 1129.52,476.734 1167.49,461.759 1205.46,447.564 1243.43,434.095 1281.4,421.301 1319.37,409.147 1357.34,397.602 1395.32,386.633 1433.29,376.209 1471.26,366.298 1509.23,356.869 1547.2,347.903 1585.17,339.377 1623.14,331.27 1661.11,323.561 1699.08,316.23 1737.05,309.258 1775.02,302.623 1812.99,296.311 1850.96,290.306 1888.94,284.595 1926.91,279.164 1964.88,273.999 2002.85,269.086 2040.82,264.414 2078.79,259.97 2116.76,255.742 2154.73,251.718 2192.7,247.89 2230.67,244.248 2268.64,240.784 2306.61,237.489 2344.58,234.356 2382.55,231.377 2420.53,228.543 2458.5,225.849 2496.47,223.285 2534.44,220.847 2572.41,218.526 "/>
<path clip-path="url(#clip270)" d="M306.314 336.856 L732.136 336.856 L732.136 181.336 L306.314 181.336  Z" fill="#ffffff" fill-rule="evenodd" fill-opacity="1"/>
<polyline clip-path="url(#clip270)" style="stroke:#000000; stroke-linecap:round; stroke-linejoin:round; stroke-width:4; stroke-opacity:1; fill:none" points="306.314,336.856 732.136,336.856 732.136,181.336 306.314,181.336 306.314,336.856 "/>
<polyline clip-path="url(#clip270)" style="stroke:#009af9; stroke-linecap:round; stroke-linejoin:round; stroke-width:4; stroke-opacity:1; fill:none" points="333.147,233.176 494.143,233.176 "/>
<path clip-path="url(#clip270)" d="M526.3 224.531 L530.559 224.531 L530.559 250.919 Q530.559 255.873 528.661 258.095 Q526.786 260.317 522.596 260.317 L520.976 260.317 L520.976 256.706 L522.11 256.706 Q524.541 256.706 525.42 255.572 Q526.3 254.461 526.3 250.919 L526.3 224.531 M526.3 214.438 L530.559 214.438 L530.559 219.831 L526.3 219.831 L526.3 214.438 Z" fill="#000000" fill-rule="nonzero" fill-opacity="1" /><path clip-path="url(#clip270)" d="M539.031 240.225 L539.031 224.531 L543.29 224.531 L543.29 240.063 Q543.29 243.743 544.726 245.595 Q546.161 247.424 549.031 247.424 Q552.48 247.424 554.471 245.225 Q556.485 243.026 556.485 239.229 L556.485 224.531 L560.744 224.531 L560.744 250.456 L556.485 250.456 L556.485 246.475 Q554.934 248.836 552.874 249.993 Q550.837 251.128 548.128 251.128 Q543.661 251.128 541.346 248.35 Q539.031 245.572 539.031 240.225 M549.749 223.906 L549.749 223.906 Z" fill="#000000" fill-rule="nonzero" fill-opacity="1" /><path clip-path="url(#clip270)" d="M566.462 224.531 L570.975 224.531 L579.077 246.29 L587.179 224.531 L591.693 224.531 L581.971 250.456 L576.184 250.456 L566.462 224.531 Z" fill="#000000" fill-rule="nonzero" fill-opacity="1" /><path clip-path="url(#clip270)" d="M619.748 236.429 L619.748 238.512 L600.165 238.512 Q600.443 242.91 602.804 245.225 Q605.188 247.516 609.424 247.516 Q611.878 247.516 614.17 246.915 Q616.484 246.313 618.753 245.109 L618.753 249.137 Q616.461 250.109 614.054 250.618 Q611.647 251.128 609.17 251.128 Q602.966 251.128 599.332 247.516 Q595.721 243.905 595.721 237.748 Q595.721 231.382 599.147 227.655 Q602.596 223.906 608.429 223.906 Q613.66 223.906 616.693 227.285 Q619.748 230.642 619.748 236.429 M615.489 235.179 Q615.443 231.683 613.522 229.6 Q611.623 227.517 608.475 227.517 Q604.91 227.517 602.758 229.53 Q600.628 231.544 600.304 235.202 L615.489 235.179 Z" fill="#000000" fill-rule="nonzero" fill-opacity="1" /><path clip-path="url(#clip270)" d="M648.29 234.808 L648.29 250.456 L644.031 250.456 L644.031 234.947 Q644.031 231.267 642.595 229.438 Q641.16 227.609 638.29 227.609 Q634.841 227.609 632.85 229.808 Q630.859 232.007 630.859 235.804 L630.859 250.456 L626.577 250.456 L626.577 224.531 L630.859 224.531 L630.859 228.558 Q632.387 226.22 634.447 225.063 Q636.531 223.906 639.239 223.906 Q643.707 223.906 645.998 226.683 Q648.29 229.438 648.29 234.808 Z" fill="#000000" fill-rule="nonzero" fill-opacity="1" /><path clip-path="url(#clip270)" d="M656.785 224.531 L661.044 224.531 L661.044 250.456 L656.785 250.456 L656.785 224.531 M656.785 214.438 L661.044 214.438 L661.044 219.831 L656.785 219.831 L656.785 214.438 Z" fill="#000000" fill-rule="nonzero" fill-opacity="1" /><path clip-path="url(#clip270)" d="M669.956 214.438 L674.216 214.438 L674.216 250.456 L669.956 250.456 L669.956 214.438 Z" fill="#000000" fill-rule="nonzero" fill-opacity="1" /><path clip-path="url(#clip270)" d="M705.303 236.429 L705.303 238.512 L685.72 238.512 Q685.998 242.91 688.359 245.225 Q690.743 247.516 694.979 247.516 Q697.433 247.516 699.725 246.915 Q702.04 246.313 704.308 245.109 L704.308 249.137 Q702.016 250.109 699.609 250.618 Q697.202 251.128 694.725 251.128 Q688.521 251.128 684.887 247.516 Q681.276 243.905 681.276 237.748 Q681.276 231.382 684.702 227.655 Q688.151 223.906 693.984 223.906 Q699.216 223.906 702.248 227.285 Q705.303 230.642 705.303 236.429 M701.044 235.179 Q700.998 231.683 699.077 229.6 Q697.179 227.517 694.03 227.517 Q690.466 227.517 688.313 229.53 Q686.183 231.544 685.859 235.202 L701.044 235.179 Z" fill="#000000" fill-rule="nonzero" fill-opacity="1" /><polyline clip-path="url(#clip270)" style="stroke:#e26f46; stroke-linecap:round; stroke-linejoin:round; stroke-width:4; stroke-opacity:1; fill:none" points="333.147,285.016 494.143,285.016 "/>
<path clip-path="url(#clip270)" d="M534.378 289.264 Q529.216 289.264 527.226 290.444 Q525.235 291.625 525.235 294.472 Q525.235 296.741 526.716 298.083 Q528.221 299.403 530.791 299.403 Q534.332 299.403 536.462 296.903 Q538.615 294.38 538.615 290.213 L538.615 289.264 L534.378 289.264 M542.874 287.505 L542.874 302.296 L538.615 302.296 L538.615 298.361 Q537.156 300.722 534.98 301.856 Q532.804 302.968 529.656 302.968 Q525.675 302.968 523.314 300.745 Q520.976 298.5 520.976 294.75 Q520.976 290.375 523.892 288.153 Q526.832 285.931 532.642 285.931 L538.615 285.931 L538.615 285.514 Q538.615 282.574 536.67 280.977 Q534.749 279.357 531.253 279.357 Q529.031 279.357 526.925 279.889 Q524.818 280.421 522.874 281.486 L522.874 277.551 Q525.212 276.648 527.411 276.208 Q529.61 275.746 531.693 275.746 Q537.318 275.746 540.096 278.662 Q542.874 281.579 542.874 287.505 Z" fill="#000000" fill-rule="nonzero" fill-opacity="1" /><path clip-path="url(#clip270)" d="M568.707 280.306 L568.707 266.278 L572.966 266.278 L572.966 302.296 L568.707 302.296 L568.707 298.407 Q567.364 300.722 565.304 301.856 Q563.267 302.968 560.397 302.968 Q555.698 302.968 552.735 299.218 Q549.795 295.468 549.795 289.357 Q549.795 283.245 552.735 279.495 Q555.698 275.746 560.397 275.746 Q563.267 275.746 565.304 276.88 Q567.364 277.991 568.707 280.306 M554.193 289.357 Q554.193 294.056 556.114 296.741 Q558.059 299.403 561.438 299.403 Q564.818 299.403 566.763 296.741 Q568.707 294.056 568.707 289.357 Q568.707 284.657 566.763 281.995 Q564.818 279.31 561.438 279.31 Q558.059 279.31 556.114 281.995 Q554.193 284.657 554.193 289.357 Z" fill="#000000" fill-rule="nonzero" fill-opacity="1" /><path clip-path="url(#clip270)" d="M581.299 292.065 L581.299 276.371 L585.559 276.371 L585.559 291.903 Q585.559 295.583 586.994 297.435 Q588.429 299.264 591.299 299.264 Q594.748 299.264 596.739 297.065 Q598.753 294.866 598.753 291.069 L598.753 276.371 L603.012 276.371 L603.012 302.296 L598.753 302.296 L598.753 298.315 Q597.202 300.676 595.142 301.833 Q593.105 302.968 590.397 302.968 Q585.929 302.968 583.614 300.19 Q581.299 297.412 581.299 292.065 M592.017 275.746 L592.017 275.746 Z" fill="#000000" fill-rule="nonzero" fill-opacity="1" /><path clip-path="url(#clip270)" d="M611.785 266.278 L616.045 266.278 L616.045 302.296 L611.785 302.296 L611.785 266.278 Z" fill="#000000" fill-rule="nonzero" fill-opacity="1" /><path clip-path="url(#clip270)" d="M629.17 269.009 L629.17 276.371 L637.943 276.371 L637.943 279.681 L629.17 279.681 L629.17 293.755 Q629.17 296.926 630.026 297.829 Q630.906 298.731 633.568 298.731 L637.943 298.731 L637.943 302.296 L633.568 302.296 Q628.637 302.296 626.762 300.468 Q624.887 298.616 624.887 293.755 L624.887 279.681 L621.762 279.681 L621.762 276.371 L624.887 276.371 L624.887 269.009 L629.17 269.009 Z" fill="#000000" fill-rule="nonzero" fill-opacity="1" /></svg>
