<?xml version="1.0" encoding="utf-8"?>
<svg xmlns="http://www.w3.org/2000/svg" xmlns:xlink="http://www.w3.org/1999/xlink" width="672" height="480" viewBox="0 0 2688 1920">
<defs>
  <clipPath id="clip220">
    <rect x="0" y="0" width="2688" height="1920"/>
  </clipPath>
</defs>
<path clip-path="url(#clip220)" d="M0 1920 L2688 1920 L2688 -4.26326e-14 L0 -4.26326e-14  Z" fill="#ffffff" fill-rule="evenodd" fill-opacity="1"/>
<defs>
  <clipPath id="clip221">
    <rect x="115" y="127" width="2527" height="1607"/>
  </clipPath>
</defs>
<path clip-path="url(#clip220)" d="M115.057 1734.12 L2640.76 1734.12 L2640.76 127.792 L115.057 127.792  Z" fill="#ffffff" fill-rule="evenodd" fill-opacity="1"/>
<polyline clip-path="url(#clip221)" style="stroke:#000000; stroke-linecap:round; stroke-linejoin:round; stroke-width:2; stroke-opacity:0.1; fill:none" points="186.539,1734.12 186.539,127.792 "/>
<polyline clip-path="url(#clip221)" style="stroke:#000000; stroke-linecap:round; stroke-linejoin:round; stroke-width:2; stroke-opacity:0.1; fill:none" points="782.223,1734.12 782.223,127.792 "/>
<polyline clip-path="url(#clip221)" style="stroke:#000000; stroke-linecap:round; stroke-linejoin:round; stroke-width:2; stroke-opacity:0.1; fill:none" points="1377.91,1734.12 1377.91,127.792 "/>
<polyline clip-path="url(#clip221)" style="stroke:#000000; stroke-linecap:round; stroke-linejoin:round; stroke-width:2; stroke-opacity:0.1; fill:none" points="1973.59,1734.12 1973.59,127.792 "/>
<polyline clip-path="url(#clip221)" style="stroke:#000000; stroke-linecap:round; stroke-linejoin:round; stroke-width:2; stroke-opacity:0.1; fill:none" points="2569.27,1734.12 2569.27,127.792 "/>
<polyline clip-path="url(#clip221)" style="stroke:#000000; stroke-linecap:round; stroke-linejoin:round; stroke-width:2; stroke-opacity:0.1; fill:none" points="115.057,1688.65 2640.76,1688.65 "/>
<polyline clip-path="url(#clip221)" style="stroke:#000000; stroke-linecap:round; stroke-linejoin:round; stroke-width:2; stroke-opacity:0.1; fill:none" points="115.057,1370.19 2640.76,1370.19 "/>
<polyline clip-path="url(#clip221)" style="stroke:#000000; stroke-linecap:round; stroke-linejoin:round; stroke-width:2; stroke-opacity:0.1; fill:none" points="115.057,1051.72 2640.76,1051.72 "/>
<polyline clip-path="url(#clip221)" style="stroke:#000000; stroke-linecap:round; stroke-linejoin:round; stroke-width:2; stroke-opacity:0.1; fill:none" points="115.057,733.246 2640.76,733.246 "/>
<polyline clip-path="url(#clip221)" style="stroke:#000000; stroke-linecap:round; stroke-linejoin:round; stroke-width:2; stroke-opacity:0.1; fill:none" points="115.057,414.776 2640.76,414.776 "/>
<polyline clip-path="url(#clip220)" style="stroke:#000000; stroke-linecap:round; stroke-linejoin:round; stroke-width:4; stroke-opacity:1; fill:none" points="115.057,1734.12 2640.76,1734.12 "/>
<polyline clip-path="url(#clip220)" style="stroke:#000000; stroke-linecap:round; stroke-linejoin:round; stroke-width:4; stroke-opacity:1; fill:none" points="186.539,1734.12 186.539,1715.22 "/>
<polyline clip-path="url(#clip220)" style="stroke:#000000; stroke-linecap:round; stroke-linejoin:round; stroke-width:4; stroke-opacity:1; fill:none" points="782.223,1734.12 782.223,1715.22 "/>
<polyline clip-path="url(#clip220)" style="stroke:#000000; stroke-linecap:round; stroke-linejoin:round; stroke-width:4; stroke-opacity:1; fill:none" points="1377.91,1734.12 1377.91,1715.22 "/>
<polyline clip-path="url(#clip220)" style="stroke:#000000; stroke-linecap:round; stroke-linejoin:round; stroke-width:4; stroke-opacity:1; fill:none" points="1973.59,1734.12 1973.59,1715.22 "/>
<polyline clip-path="url(#clip220)" style="stroke:#000000; stroke-linecap:round; stroke-linejoin:round; stroke-width:4; stroke-opacity:1; fill:none" points="2569.27,1734.12 2569.27,1715.22 "/>
<path clip-path="url(#clip220)" d="M186.539 1767.34 Q182.928 1767.34 181.099 1770.9 Q179.294 1774.45 179.294 1781.58 Q179.294 1788.68 181.099 1792.25 Q182.928 1795.79 186.539 1795.79 Q190.173 1795.79 191.979 1792.25 Q193.808 1788.68 193.808 1781.58 Q193.808 1774.45 191.979 1770.9 Q190.173 1767.34 186.539 1767.34 M186.539 1763.64 Q192.349 1763.64 195.405 1768.24 Q198.484 1772.83 198.484 1781.58 Q198.484 1790.3 195.405 1794.91 Q192.349 1799.49 186.539 1799.49 Q180.729 1799.49 177.65 1794.91 Q174.595 1790.3 174.595 1781.58 Q174.595 1772.83 177.65 1768.24 Q180.729 1763.64 186.539 1763.64 Z" fill="#000000" fill-rule="nonzero" fill-opacity="1" /><path clip-path="url(#clip220)" d="M772.501 1764.26 L790.857 1764.26 L790.857 1768.2 L776.783 1768.2 L776.783 1776.67 Q777.802 1776.32 778.82 1776.16 Q779.839 1775.97 780.857 1775.97 Q786.644 1775.97 790.024 1779.15 Q793.403 1782.32 793.403 1787.73 Q793.403 1793.31 789.931 1796.41 Q786.459 1799.49 780.14 1799.49 Q777.964 1799.49 775.695 1799.12 Q773.45 1798.75 771.042 1798.01 L771.042 1793.31 Q773.126 1794.45 775.348 1795 Q777.57 1795.56 780.047 1795.56 Q784.052 1795.56 786.39 1793.45 Q788.727 1791.34 788.727 1787.73 Q788.727 1784.12 786.39 1782.02 Q784.052 1779.91 780.047 1779.91 Q778.172 1779.91 776.297 1780.33 Q774.445 1780.74 772.501 1781.62 L772.501 1764.26 Z" fill="#000000" fill-rule="nonzero" fill-opacity="1" /><path clip-path="url(#clip220)" d="M1352.59 1794.89 L1360.23 1794.89 L1360.23 1768.52 L1351.92 1770.19 L1351.92 1765.93 L1360.19 1764.26 L1364.86 1764.26 L1364.86 1794.89 L1372.5 1794.89 L1372.5 1798.82 L1352.59 1798.82 L1352.59 1794.89 Z" fill="#000000" fill-rule="nonzero" fill-opacity="1" /><path clip-path="url(#clip220)" d="M1391.95 1767.34 Q1388.33 1767.34 1386.51 1770.9 Q1384.7 1774.45 1384.7 1781.58 Q1384.7 1788.68 1386.51 1792.25 Q1388.33 1795.79 1391.95 1795.79 Q1395.58 1795.79 1397.39 1792.25 Q1399.21 1788.68 1399.21 1781.58 Q1399.21 1774.45 1397.39 1770.9 Q1395.58 1767.34 1391.95 1767.34 M1391.95 1763.64 Q1397.76 1763.64 1400.81 1768.24 Q1403.89 1772.83 1403.89 1781.58 Q1403.89 1790.3 1400.81 1794.91 Q1397.76 1799.49 1391.95 1799.49 Q1386.14 1799.49 1383.06 1794.91 Q1380 1790.3 1380 1781.58 Q1380 1772.83 1383.06 1768.24 Q1386.14 1763.64 1391.95 1763.64 Z" fill="#000000" fill-rule="nonzero" fill-opacity="1" /><path clip-path="url(#clip220)" d="M1948.78 1794.89 L1956.41 1794.89 L1956.41 1768.52 L1948.1 1770.19 L1948.1 1765.93 L1956.37 1764.26 L1961.04 1764.26 L1961.04 1794.89 L1968.68 1794.89 L1968.68 1798.82 L1948.78 1798.82 L1948.78 1794.89 Z" fill="#000000" fill-rule="nonzero" fill-opacity="1" /><path clip-path="url(#clip220)" d="M1978.17 1764.26 L1996.53 1764.26 L1996.53 1768.2 L1982.46 1768.2 L1982.46 1776.67 Q1983.47 1776.32 1984.49 1776.16 Q1985.51 1775.97 1986.53 1775.97 Q1992.32 1775.97 1995.7 1779.15 Q1999.08 1782.32 1999.08 1787.73 Q1999.08 1793.31 1995.6 1796.41 Q1992.13 1799.49 1985.81 1799.49 Q1983.64 1799.49 1981.37 1799.12 Q1979.12 1798.75 1976.72 1798.01 L1976.72 1793.31 Q1978.8 1794.45 1981.02 1795 Q1983.24 1795.56 1985.72 1795.56 Q1989.72 1795.56 1992.06 1793.45 Q1994.4 1791.34 1994.4 1787.73 Q1994.4 1784.12 1992.06 1782.02 Q1989.72 1779.91 1985.72 1779.91 Q1983.84 1779.91 1981.97 1780.33 Q1980.12 1780.74 1978.17 1781.62 L1978.17 1764.26 Z" fill="#000000" fill-rule="nonzero" fill-opacity="1" /><path clip-path="url(#clip220)" d="M2548.05 1794.89 L2564.37 1794.89 L2564.37 1798.82 L2542.42 1798.82 L2542.42 1794.89 Q2545.08 1792.13 2549.67 1787.5 Q2554.27 1782.85 2555.45 1781.51 Q2557.7 1778.98 2558.58 1777.25 Q2559.48 1775.49 2559.48 1773.8 Q2559.48 1771.04 2557.54 1769.31 Q2555.62 1767.57 2552.51 1767.57 Q2550.32 1767.57 2547.86 1768.34 Q2545.43 1769.1 2542.65 1770.65 L2542.65 1765.93 Q2545.48 1764.79 2547.93 1764.21 Q2550.39 1763.64 2552.42 1763.64 Q2557.79 1763.64 2560.99 1766.32 Q2564.18 1769.01 2564.18 1773.5 Q2564.18 1775.63 2563.37 1777.55 Q2562.58 1779.45 2560.48 1782.04 Q2559.9 1782.71 2556.8 1785.93 Q2553.7 1789.12 2548.05 1794.89 Z" fill="#000000" fill-rule="nonzero" fill-opacity="1" /><path clip-path="url(#clip220)" d="M2584.18 1767.34 Q2580.57 1767.34 2578.74 1770.9 Q2576.94 1774.45 2576.94 1781.58 Q2576.94 1788.68 2578.74 1792.25 Q2580.57 1795.79 2584.18 1795.79 Q2587.82 1795.79 2589.62 1792.25 Q2591.45 1788.68 2591.45 1781.58 Q2591.45 1774.45 2589.62 1770.9 Q2587.82 1767.34 2584.18 1767.34 M2584.18 1763.64 Q2589.99 1763.64 2593.05 1768.24 Q2596.13 1772.83 2596.13 1781.58 Q2596.13 1790.3 2593.05 1794.91 Q2589.99 1799.49 2584.18 1799.49 Q2578.37 1799.49 2575.29 1794.91 Q2572.24 1790.3 2572.24 1781.58 Q2572.24 1772.83 2575.29 1768.24 Q2578.37 1763.64 2584.18 1763.64 Z" fill="#000000" fill-rule="nonzero" fill-opacity="1" /><path clip-path="url(#clip220)" d="M1317.07 1837.53 L1317.07 1847.65 L1329.13 1847.65 L1329.13 1852.2 L1317.07 1852.2 L1317.07 1871.56 Q1317.07 1875.92 1318.24 1877.16 Q1319.45 1878.4 1323.11 1878.4 L1329.13 1878.4 L1329.13 1883.3 L1323.11 1883.3 Q1316.33 1883.3 1313.76 1880.79 Q1311.18 1878.24 1311.18 1871.56 L1311.18 1852.2 L1306.88 1852.2 L1306.88 1847.65 L1311.18 1847.65 L1311.18 1837.53 L1317.07 1837.53 Z" fill="#000000" fill-rule="nonzero" fill-opacity="1" /><path clip-path="url(#clip220)" d="M1336.83 1847.65 L1342.69 1847.65 L1342.69 1883.3 L1336.83 1883.3 L1336.83 1847.65 M1336.83 1833.78 L1342.69 1833.78 L1342.69 1841.19 L1336.83 1841.19 L1336.83 1833.78 Z" fill="#000000" fill-rule="nonzero" fill-opacity="1" /><path clip-path="url(#clip220)" d="M1382.7 1854.5 Q1384.89 1850.55 1387.95 1848.67 Q1391 1846.79 1395.14 1846.79 Q1400.71 1846.79 1403.74 1850.71 Q1406.76 1854.59 1406.76 1861.78 L1406.76 1883.3 L1400.87 1883.3 L1400.87 1861.98 Q1400.87 1856.85 1399.06 1854.37 Q1397.24 1851.89 1393.52 1851.89 Q1388.97 1851.89 1386.33 1854.91 Q1383.68 1857.93 1383.68 1863.15 L1383.68 1883.3 L1377.8 1883.3 L1377.8 1861.98 Q1377.8 1856.82 1375.98 1854.37 Q1374.17 1851.89 1370.38 1851.89 Q1365.89 1851.89 1363.25 1854.94 Q1360.61 1857.97 1360.61 1863.15 L1360.61 1883.3 L1354.72 1883.3 L1354.72 1847.65 L1360.61 1847.65 L1360.61 1853.19 Q1362.61 1849.91 1365.41 1848.35 Q1368.21 1846.79 1372.07 1846.79 Q1375.95 1846.79 1378.65 1848.77 Q1381.39 1850.74 1382.7 1854.5 Z" fill="#000000" fill-rule="nonzero" fill-opacity="1" /><path clip-path="url(#clip220)" d="M1448.93 1864.01 L1448.93 1866.88 L1422 1866.88 Q1422.39 1872.92 1425.63 1876.11 Q1428.91 1879.26 1434.74 1879.26 Q1438.11 1879.26 1441.26 1878.43 Q1444.44 1877.6 1447.56 1875.95 L1447.56 1881.49 Q1444.41 1882.82 1441.1 1883.52 Q1437.79 1884.22 1434.39 1884.22 Q1425.86 1884.22 1420.86 1879.26 Q1415.89 1874.29 1415.89 1865.83 Q1415.89 1857.07 1420.6 1851.95 Q1425.35 1846.79 1433.37 1846.79 Q1440.56 1846.79 1444.73 1851.44 Q1448.93 1856.06 1448.93 1864.01 M1443.08 1862.29 Q1443.01 1857.49 1440.37 1854.62 Q1437.76 1851.76 1433.43 1851.76 Q1428.53 1851.76 1425.57 1854.53 Q1422.64 1857.3 1422.2 1862.33 L1443.08 1862.29 Z" fill="#000000" fill-rule="nonzero" fill-opacity="1" /><polyline clip-path="url(#clip220)" style="stroke:#000000; stroke-linecap:round; stroke-linejoin:round; stroke-width:4; stroke-opacity:1; fill:none" points="115.057,1734.12 115.057,127.792 "/>
<polyline clip-path="url(#clip220)" style="stroke:#000000; stroke-linecap:round; stroke-linejoin:round; stroke-width:4; stroke-opacity:1; fill:none" points="115.057,1688.65 133.955,1688.65 "/>
<polyline clip-path="url(#clip220)" style="stroke:#000000; stroke-linecap:round; stroke-linejoin:round; stroke-width:4; stroke-opacity:1; fill:none" points="115.057,1370.19 133.955,1370.19 "/>
<polyline clip-path="url(#clip220)" style="stroke:#000000; stroke-linecap:round; stroke-linejoin:round; stroke-width:4; stroke-opacity:1; fill:none" points="115.057,1051.72 133.955,1051.72 "/>
<polyline clip-path="url(#clip220)" style="stroke:#000000; stroke-linecap:round; stroke-linejoin:round; stroke-width:4; stroke-opacity:1; fill:none" points="115.057,733.246 133.955,733.246 "/>
<polyline clip-path="url(#clip220)" style="stroke:#000000; stroke-linecap:round; stroke-linejoin:round; stroke-width:4; stroke-opacity:1; fill:none" points="115.057,414.776 133.955,414.776 "/>
<path clip-path="url(#clip220)" d="M62.7928 1674.45 Q59.1817 1674.45 57.353 1678.02 Q55.5475 1681.56 55.5475 1688.69 Q55.5475 1695.8 57.353 1699.36 Q59.1817 1702.9 62.7928 1702.9 Q66.427 1702.9 68.2326 1699.36 Q70.0613 1695.8 70.0613 1688.69 Q70.0613 1681.56 68.2326 1678.02 Q66.427 1674.45 62.7928 1674.45 M62.7928 1670.75 Q68.6029 1670.75 71.6585 1675.36 Q74.7372 1679.94 74.7372 1688.69 Q74.7372 1697.42 71.6585 1702.02 Q68.6029 1706.61 62.7928 1706.61 Q56.9826 1706.61 53.904 1702.02 Q50.8484 1697.42 50.8484 1688.69 Q50.8484 1679.94 53.904 1675.36 Q56.9826 1670.75 62.7928 1670.75 Z" fill="#000000" fill-rule="nonzero" fill-opacity="1" /><path clip-path="url(#clip220)" d="M58.4178 1383.53 L74.7372 1383.53 L74.7372 1387.47 L52.7928 1387.47 L52.7928 1383.53 Q55.4549 1380.78 60.0382 1376.15 Q64.6446 1371.49 65.8252 1370.15 Q68.0705 1367.63 68.9502 1365.89 Q69.8529 1364.13 69.8529 1362.44 Q69.8529 1359.69 67.9085 1357.95 Q65.9872 1356.22 62.8854 1356.22 Q60.6863 1356.22 58.2326 1356.98 Q55.8021 1357.74 53.0243 1359.29 L53.0243 1354.57 Q55.8484 1353.44 58.3021 1352.86 Q60.7558 1352.28 62.7928 1352.28 Q68.1631 1352.28 71.3576 1354.97 Q74.552 1357.65 74.552 1362.14 Q74.552 1364.27 73.7418 1366.19 Q72.9548 1368.09 70.8483 1370.68 Q70.2696 1371.35 67.1678 1374.57 Q64.0659 1377.77 58.4178 1383.53 Z" fill="#000000" fill-rule="nonzero" fill-opacity="1" /><path clip-path="url(#clip220)" d="M65.1539 1038.51 L53.3484 1056.96 L65.1539 1056.96 L65.1539 1038.51 M63.927 1034.44 L69.8066 1034.44 L69.8066 1056.96 L74.7372 1056.96 L74.7372 1060.85 L69.8066 1060.85 L69.8066 1069 L65.1539 1069 L65.1539 1060.85 L49.5521 1060.85 L49.5521 1056.33 L63.927 1034.44 Z" fill="#000000" fill-rule="nonzero" fill-opacity="1" /><path clip-path="url(#clip220)" d="M63.2095 731.382 Q60.0613 731.382 58.2095 733.535 Q56.3808 735.688 56.3808 739.438 Q56.3808 743.165 58.2095 745.341 Q60.0613 747.494 63.2095 747.494 Q66.3576 747.494 68.1863 745.341 Q70.0381 743.165 70.0381 739.438 Q70.0381 735.688 68.1863 733.535 Q66.3576 731.382 63.2095 731.382 M72.4918 716.73 L72.4918 720.989 Q70.7326 720.156 68.927 719.716 Q67.1446 719.276 65.3854 719.276 Q60.7558 719.276 58.3021 722.401 Q55.8715 725.526 55.5243 731.845 Q56.89 729.832 58.9502 728.767 Q61.0104 727.679 63.4872 727.679 Q68.6955 727.679 71.7048 730.85 Q74.7372 733.998 74.7372 739.438 Q74.7372 744.762 71.589 747.98 Q68.4409 751.197 63.2095 751.197 Q57.2141 751.197 54.0428 746.614 Q50.8716 742.007 50.8716 733.281 Q50.8716 725.086 54.7604 720.225 Q58.6493 715.341 65.2002 715.341 Q66.9594 715.341 68.7418 715.688 Q70.5474 716.035 72.4918 716.73 Z" fill="#000000" fill-rule="nonzero" fill-opacity="1" /><path clip-path="url(#clip220)" d="M62.8854 415.644 Q59.5521 415.644 57.6308 417.427 Q55.7326 419.209 55.7326 422.334 Q55.7326 425.459 57.6308 427.241 Q59.5521 429.024 62.8854 429.024 Q66.2187 429.024 68.14 427.241 Q70.0613 425.436 70.0613 422.334 Q70.0613 419.209 68.14 417.427 Q66.2419 415.644 62.8854 415.644 M58.2095 413.654 Q55.2002 412.913 53.5104 410.853 Q51.8438 408.792 51.8438 405.83 Q51.8438 401.686 54.7836 399.279 Q57.7465 396.871 62.8854 396.871 Q68.0474 396.871 70.9872 399.279 Q73.927 401.686 73.927 405.83 Q73.927 408.792 72.2372 410.853 Q70.5705 412.913 67.5844 413.654 Q70.964 414.441 72.839 416.732 Q74.7372 419.024 74.7372 422.334 Q74.7372 427.357 71.6585 430.042 Q68.6029 432.728 62.8854 432.728 Q57.1678 432.728 54.0891 430.042 Q51.0336 427.357 51.0336 422.334 Q51.0336 419.024 52.9317 416.732 Q54.8299 414.441 58.2095 413.654 M56.4965 406.269 Q56.4965 408.954 58.1632 410.459 Q59.853 411.964 62.8854 411.964 Q65.8946 411.964 67.5844 410.459 Q69.2974 408.954 69.2974 406.269 Q69.2974 403.584 67.5844 402.08 Q65.8946 400.575 62.8854 400.575 Q59.853 400.575 58.1632 402.08 Q56.4965 403.584 56.4965 406.269 Z" fill="#000000" fill-rule="nonzero" fill-opacity="1" /><path clip-path="url(#clip220)" d="M541.658 12.096 L592.821 12.096 L592.821 18.9825 L571.351 18.9825 L571.351 72.576 L563.128 72.576 L563.128 18.9825 L541.658 18.9825 L541.658 12.096 Z" fill="#000000" fill-rule="nonzero" fill-opacity="1" /><path clip-path="url(#clip220)" d="M582.329 27.2059 L589.783 27.2059 L599.1 62.6108 L608.377 27.2059 L617.167 27.2059 L626.484 62.6108 L635.761 27.2059 L643.214 27.2059 L631.345 72.576 L622.555 72.576 L612.792 35.3887 L602.989 72.576 L594.198 72.576 L582.329 27.2059 Z" fill="#000000" fill-rule="nonzero" fill-opacity="1" /><path clip-path="url(#clip220)" d="M672.097 32.4315 Q666.102 32.4315 662.618 37.1306 Q659.134 41.7891 659.134 49.9314 Q659.134 58.0738 662.578 62.7728 Q666.061 67.4314 672.097 67.4314 Q678.052 67.4314 681.536 62.7323 Q685.02 58.0333 685.02 49.9314 Q685.02 41.8701 681.536 37.1711 Q678.052 32.4315 672.097 32.4315 M672.097 26.1121 Q681.819 26.1121 687.369 32.4315 Q692.919 38.7509 692.919 49.9314 Q692.919 61.0714 687.369 67.4314 Q681.819 73.7508 672.097 73.7508 Q662.335 73.7508 656.785 67.4314 Q651.276 61.0714 651.276 49.9314 Q651.276 38.7509 656.785 32.4315 Q662.335 26.1121 672.097 26.1121 Z" fill="#000000" fill-rule="nonzero" fill-opacity="1" /><path clip-path="url(#clip220)" d="M703.046 46.5287 L724.881 46.5287 L724.881 53.1722 L703.046 53.1722 L703.046 46.5287 Z" fill="#000000" fill-rule="nonzero" fill-opacity="1" /><path clip-path="url(#clip220)" d="M736.466 9.54393 L743.96 9.54393 L743.96 46.7717 L766.2 27.2059 L775.719 27.2059 L751.657 48.4326 L776.732 72.576 L767.01 72.576 L743.96 50.4176 L743.96 72.576 L736.466 72.576 L736.466 9.54393 Z" fill="#000000" fill-rule="nonzero" fill-opacity="1" /><path clip-path="url(#clip220)" d="M820.644 48.0275 L820.644 51.6733 L786.373 51.6733 Q786.859 59.3701 790.991 63.421 Q795.164 67.4314 802.577 67.4314 Q806.871 67.4314 810.881 66.3781 Q814.932 65.3249 818.902 63.2184 L818.902 70.267 Q814.892 71.9684 810.679 72.8596 Q806.466 73.7508 802.131 73.7508 Q791.275 73.7508 784.915 67.4314 Q778.596 61.1119 778.596 50.3365 Q778.596 39.1965 784.591 32.6746 Q790.627 26.1121 800.835 26.1121 Q809.99 26.1121 815.297 32.0264 Q820.644 37.9003 820.644 48.0275 M813.19 45.84 Q813.109 39.7232 809.747 36.0774 Q806.425 32.4315 800.916 32.4315 Q794.678 32.4315 790.91 35.9558 Q787.183 39.4801 786.616 45.8805 L813.19 45.84 Z" fill="#000000" fill-rule="nonzero" fill-opacity="1" /><path clip-path="url(#clip220)" d="M859.168 34.1734 Q857.912 33.4443 856.413 33.1202 Q854.955 32.7556 853.173 32.7556 Q846.853 32.7556 843.45 36.8875 Q840.088 40.9789 840.088 48.6757 L840.088 72.576 L832.594 72.576 L832.594 27.2059 L840.088 27.2059 L840.088 34.2544 Q842.438 30.1225 846.205 28.1376 Q849.972 26.1121 855.36 26.1121 Q856.13 26.1121 857.062 26.2337 Q857.993 26.3147 859.127 26.5172 L859.168 34.1734 Z" fill="#000000" fill-rule="nonzero" fill-opacity="1" /><path clip-path="url(#clip220)" d="M903.242 45.1919 L903.242 72.576 L895.788 72.576 L895.788 45.4349 Q895.788 38.994 893.277 35.7938 Q890.765 32.5936 885.742 32.5936 Q879.706 32.5936 876.222 36.4419 Q872.739 40.2903 872.739 46.9338 L872.739 72.576 L865.244 72.576 L865.244 27.2059 L872.739 27.2059 L872.739 34.2544 Q875.412 30.163 879.017 28.1376 Q882.663 26.1121 887.403 26.1121 Q895.221 26.1121 899.231 30.9732 Q903.242 35.7938 903.242 45.1919 Z" fill="#000000" fill-rule="nonzero" fill-opacity="1" /><path clip-path="url(#clip220)" d="M956.916 48.0275 L956.916 51.6733 L922.646 51.6733 Q923.132 59.3701 927.264 63.421 Q931.436 67.4314 938.849 67.4314 Q943.143 67.4314 947.154 66.3781 Q951.205 65.3249 955.174 63.2184 L955.174 70.267 Q951.164 71.9684 946.951 72.8596 Q942.738 73.7508 938.404 73.7508 Q927.547 73.7508 921.187 67.4314 Q914.868 61.1119 914.868 50.3365 Q914.868 39.1965 920.863 32.6746 Q926.899 26.1121 937.107 26.1121 Q946.262 26.1121 951.569 32.0264 Q956.916 37.9003 956.916 48.0275 M949.463 45.84 Q949.382 39.7232 946.019 36.0774 Q942.698 32.4315 937.188 32.4315 Q930.95 32.4315 927.183 35.9558 Q923.456 39.4801 922.889 45.8805 L949.463 45.84 Z" fill="#000000" fill-rule="nonzero" fill-opacity="1" /><path clip-path="url(#clip220)" d="M969.15 9.54393 L976.604 9.54393 L976.604 72.576 L969.15 72.576 L969.15 9.54393 Z" fill="#000000" fill-rule="nonzero" fill-opacity="1" /><path clip-path="url(#clip220)" d="M1053.89 35.9153 Q1056.69 30.8922 1060.58 28.5022 Q1064.47 26.1121 1069.73 26.1121 Q1076.82 26.1121 1080.67 31.0947 Q1084.52 36.0368 1084.52 45.1919 L1084.52 72.576 L1077.03 72.576 L1077.03 45.4349 Q1077.03 38.913 1074.72 35.7533 Q1072.41 32.5936 1067.67 32.5936 Q1061.88 32.5936 1058.51 36.4419 Q1055.15 40.2903 1055.15 46.9338 L1055.15 72.576 L1047.66 72.576 L1047.66 45.4349 Q1047.66 38.8725 1045.35 35.7533 Q1043.04 32.5936 1038.22 32.5936 Q1032.51 32.5936 1029.14 36.4824 Q1025.78 40.3308 1025.78 46.9338 L1025.78 72.576 L1018.29 72.576 L1018.29 27.2059 L1025.78 27.2059 L1025.78 34.2544 Q1028.33 30.082 1031.9 28.0971 Q1035.46 26.1121 1040.36 26.1121 Q1045.31 26.1121 1048.75 28.6237 Q1052.23 31.1352 1053.89 35.9153 Z" fill="#000000" fill-rule="nonzero" fill-opacity="1" /><path clip-path="url(#clip220)" d="M1120.01 49.7694 Q1110.97 49.7694 1107.49 51.8354 Q1104 53.9013 1104 58.8839 Q1104 62.8538 1106.6 65.2034 Q1109.23 67.5124 1113.73 67.5124 Q1119.92 67.5124 1123.65 63.1374 Q1127.42 58.7219 1127.42 51.4303 L1127.42 49.7694 L1120.01 49.7694 M1134.87 46.6907 L1134.87 72.576 L1127.42 72.576 L1127.42 65.6895 Q1124.87 69.8214 1121.06 71.8063 Q1117.25 73.7508 1111.74 73.7508 Q1104.77 73.7508 1100.64 69.8619 Q1096.55 65.9325 1096.55 59.3701 Q1096.55 51.7138 1101.66 47.825 Q1106.8 43.9361 1116.97 43.9361 L1127.42 43.9361 L1127.42 43.2069 Q1127.42 38.0623 1124.02 35.2672 Q1120.65 32.4315 1114.54 32.4315 Q1110.65 32.4315 1106.96 33.3632 Q1103.28 34.295 1099.87 36.1584 L1099.87 29.2718 Q1103.96 27.692 1107.81 26.9223 Q1111.66 26.1121 1115.31 26.1121 Q1125.15 26.1121 1130.01 31.2163 Q1134.87 36.3204 1134.87 46.6907 Z" fill="#000000" fill-rule="nonzero" fill-opacity="1" /><path clip-path="url(#clip220)" d="M1157.6 14.324 L1157.6 27.2059 L1172.95 27.2059 L1172.95 32.9987 L1157.6 32.9987 L1157.6 57.6282 Q1157.6 63.1779 1159.1 64.7578 Q1160.64 66.3376 1165.29 66.3376 L1172.95 66.3376 L1172.95 72.576 L1165.29 72.576 Q1156.67 72.576 1153.39 69.3758 Q1150.1 66.1351 1150.1 57.6282 L1150.1 32.9987 L1144.64 32.9987 L1144.64 27.2059 L1150.1 27.2059 L1150.1 14.324 L1157.6 14.324 Z" fill="#000000" fill-rule="nonzero" fill-opacity="1" /><path clip-path="url(#clip220)" d="M1181.98 54.671 L1181.98 27.2059 L1189.44 27.2059 L1189.44 54.3874 Q1189.44 60.8284 1191.95 64.0691 Q1194.46 67.2693 1199.48 67.2693 Q1205.52 67.2693 1209 63.421 Q1212.53 59.5726 1212.53 52.9291 L1212.53 27.2059 L1219.98 27.2059 L1219.98 72.576 L1212.53 72.576 L1212.53 65.6084 Q1209.81 69.7404 1206.21 71.7658 Q1202.64 73.7508 1197.9 73.7508 Q1190.09 73.7508 1186.04 68.8897 Q1181.98 64.0286 1181.98 54.671 M1200.74 26.1121 L1200.74 26.1121 Z" fill="#000000" fill-rule="nonzero" fill-opacity="1" /><path clip-path="url(#clip220)" d="M1261.63 34.1734 Q1260.37 33.4443 1258.87 33.1202 Q1257.41 32.7556 1255.63 32.7556 Q1249.31 32.7556 1245.91 36.8875 Q1242.55 40.9789 1242.55 48.6757 L1242.55 72.576 L1235.05 72.576 L1235.05 27.2059 L1242.55 27.2059 L1242.55 34.2544 Q1244.9 30.1225 1248.66 28.1376 Q1252.43 26.1121 1257.82 26.1121 Q1258.59 26.1121 1259.52 26.2337 Q1260.45 26.3147 1261.58 26.5172 L1261.63 34.1734 Z" fill="#000000" fill-rule="nonzero" fill-opacity="1" /><path clip-path="url(#clip220)" d="M1290.06 49.7694 Q1281.03 49.7694 1277.55 51.8354 Q1274.06 53.9013 1274.06 58.8839 Q1274.06 62.8538 1276.65 65.2034 Q1279.29 67.5124 1283.78 67.5124 Q1289.98 67.5124 1293.71 63.1374 Q1297.48 58.7219 1297.48 51.4303 L1297.48 49.7694 L1290.06 49.7694 M1304.93 46.6907 L1304.93 72.576 L1297.48 72.576 L1297.48 65.6895 Q1294.92 69.8214 1291.12 71.8063 Q1287.31 73.7508 1281.8 73.7508 Q1274.83 73.7508 1270.7 69.8619 Q1266.61 65.9325 1266.61 59.3701 Q1266.61 51.7138 1271.71 47.825 Q1276.86 43.9361 1287.02 43.9361 L1297.48 43.9361 L1297.48 43.2069 Q1297.48 38.0623 1294.07 35.2672 Q1290.71 32.4315 1284.59 32.4315 Q1280.71 32.4315 1277.02 33.3632 Q1273.33 34.295 1269.93 36.1584 L1269.93 29.2718 Q1274.02 27.692 1277.87 26.9223 Q1281.72 26.1121 1285.36 26.1121 Q1295.21 26.1121 1300.07 31.2163 Q1304.93 36.3204 1304.93 46.6907 Z" fill="#000000" fill-rule="nonzero" fill-opacity="1" /><path clip-path="url(#clip220)" d="M1327.66 14.324 L1327.66 27.2059 L1343.01 27.2059 L1343.01 32.9987 L1327.66 32.9987 L1327.66 57.6282 Q1327.66 63.1779 1329.15 64.7578 Q1330.69 66.3376 1335.35 66.3376 L1343.01 66.3376 L1343.01 72.576 L1335.35 72.576 Q1326.72 72.576 1323.44 69.3758 Q1320.16 66.1351 1320.16 57.6282 L1320.16 32.9987 L1314.69 32.9987 L1314.69 27.2059 L1320.16 27.2059 L1320.16 14.324 L1327.66 14.324 Z" fill="#000000" fill-rule="nonzero" fill-opacity="1" /><path clip-path="url(#clip220)" d="M1352.81 27.2059 L1360.26 27.2059 L1360.26 72.576 L1352.81 72.576 L1352.81 27.2059 M1352.81 9.54393 L1360.26 9.54393 L1360.26 18.9825 L1352.81 18.9825 L1352.81 9.54393 Z" fill="#000000" fill-rule="nonzero" fill-opacity="1" /><path clip-path="url(#clip220)" d="M1393.44 32.4315 Q1387.45 32.4315 1383.96 37.1306 Q1380.48 41.7891 1380.48 49.9314 Q1380.48 58.0738 1383.92 62.7728 Q1387.41 67.4314 1393.44 67.4314 Q1399.4 67.4314 1402.88 62.7323 Q1406.36 58.0333 1406.36 49.9314 Q1406.36 41.8701 1402.88 37.1711 Q1399.4 32.4315 1393.44 32.4315 M1393.44 26.1121 Q1403.16 26.1121 1408.71 32.4315 Q1414.26 38.7509 1414.26 49.9314 Q1414.26 61.0714 1408.71 67.4314 Q1403.16 73.7508 1393.44 73.7508 Q1383.68 73.7508 1378.13 67.4314 Q1372.62 61.0714 1372.62 49.9314 Q1372.62 38.7509 1378.13 32.4315 Q1383.68 26.1121 1393.44 26.1121 Z" fill="#000000" fill-rule="nonzero" fill-opacity="1" /><path clip-path="url(#clip220)" d="M1464.33 45.1919 L1464.33 72.576 L1456.88 72.576 L1456.88 45.4349 Q1456.88 38.994 1454.37 35.7938 Q1451.86 32.5936 1446.83 32.5936 Q1440.8 32.5936 1437.31 36.4419 Q1433.83 40.2903 1433.83 46.9338 L1433.83 72.576 L1426.34 72.576 L1426.34 27.2059 L1433.83 27.2059 L1433.83 34.2544 Q1436.5 30.163 1440.11 28.1376 Q1443.75 26.1121 1448.49 26.1121 Q1456.31 26.1121 1460.32 30.9732 Q1464.33 35.7938 1464.33 45.1919 Z" fill="#000000" fill-rule="nonzero" fill-opacity="1" /><path clip-path="url(#clip220)" d="M1523.48 9.62495 Q1518.05 18.942 1515.41 28.0566 Q1512.78 37.1711 1512.78 46.5287 Q1512.78 55.8863 1515.41 65.0818 Q1518.09 74.2369 1523.48 83.5134 L1516.99 83.5134 Q1510.92 73.9938 1507.88 64.7983 Q1504.88 55.6027 1504.88 46.5287 Q1504.88 37.4952 1507.88 28.3401 Q1510.88 19.1851 1516.99 9.62495 L1523.48 9.62495 Z" fill="#000000" fill-rule="nonzero" fill-opacity="1" /><path clip-path="url(#clip220)" d="M1560.18 64.3122 Q1561.64 66.2566 1566.01 66.2566 L1569.62 66.2566 L1569.62 72.576 L1565.12 72.576 Q1557.83 72.576 1554.51 68.6871 Q1551.18 64.7172 1551.18 56.1293 L1551.18 34.6595 L1534.17 34.6595 L1534.17 27.2059 L1576.02 27.2059 L1576.02 34.6595 L1558.8 34.6595 L1558.8 56.5749 Q1558.8 62.4487 1560.18 64.3122 Z" fill="#000000" fill-rule="nonzero" fill-opacity="1" /><path clip-path="url(#clip220)" d="M1615.23 34.9026 L1667.16 34.9026 L1667.16 41.7081 L1615.23 41.7081 L1615.23 34.9026 M1615.23 51.4303 L1667.16 51.4303 L1667.16 58.3168 L1615.23 58.3168 L1615.23 51.4303 Z" fill="#000000" fill-rule="nonzero" fill-opacity="1" /><path clip-path="url(#clip220)" d="M1712.61 65.6895 L1725.98 65.6895 L1725.98 19.5497 L1711.44 22.4663 L1711.44 15.0127 L1725.9 12.096 L1734.08 12.096 L1734.08 65.6895 L1747.45 65.6895 L1747.45 72.576 L1712.61 72.576 L1712.61 65.6895 Z" fill="#000000" fill-rule="nonzero" fill-opacity="1" /><path clip-path="url(#clip220)" d="M1809.92 49.7694 Q1800.88 49.7694 1797.4 51.8354 Q1793.91 53.9013 1793.91 58.8839 Q1793.91 62.8538 1796.51 65.2034 Q1799.14 67.5124 1803.64 67.5124 Q1809.83 67.5124 1813.56 63.1374 Q1817.33 58.7219 1817.33 51.4303 L1817.33 49.7694 L1809.92 49.7694 M1824.78 46.6907 L1824.78 72.576 L1817.33 72.576 L1817.33 65.6895 Q1814.78 69.8214 1810.97 71.8063 Q1807.16 73.7508 1801.65 73.7508 Q1794.68 73.7508 1790.55 69.8619 Q1786.46 65.9325 1786.46 59.3701 Q1786.46 51.7138 1791.56 47.825 Q1796.71 43.9361 1806.88 43.9361 L1817.33 43.9361 L1817.33 43.2069 Q1817.33 38.0623 1813.93 35.2672 Q1810.56 32.4315 1804.45 32.4315 Q1800.56 32.4315 1796.87 33.3632 Q1793.18 34.295 1789.78 36.1584 L1789.78 29.2718 Q1793.87 27.692 1797.72 26.9223 Q1801.57 26.1121 1805.22 26.1121 Q1815.06 26.1121 1819.92 31.2163 Q1824.78 36.3204 1824.78 46.6907 Z" fill="#000000" fill-rule="nonzero" fill-opacity="1" /><path clip-path="url(#clip220)" d="M1877.85 45.1919 L1877.85 72.576 L1870.4 72.576 L1870.4 45.4349 Q1870.4 38.994 1867.88 35.7938 Q1865.37 32.5936 1860.35 32.5936 Q1854.31 32.5936 1850.83 36.4419 Q1847.35 40.2903 1847.35 46.9338 L1847.35 72.576 L1839.85 72.576 L1839.85 27.2059 L1847.35 27.2059 L1847.35 34.2544 Q1850.02 30.163 1853.62 28.1376 Q1857.27 26.1121 1862.01 26.1121 Q1869.83 26.1121 1873.84 30.9732 Q1877.85 35.7938 1877.85 45.1919 Z" fill="#000000" fill-rule="nonzero" fill-opacity="1" /><path clip-path="url(#clip220)" d="M1922.57 34.0924 L1922.57 9.54393 L1930.02 9.54393 L1930.02 72.576 L1922.57 72.576 L1922.57 65.7705 Q1920.22 69.8214 1916.62 71.8063 Q1913.05 73.7508 1908.03 73.7508 Q1899.8 73.7508 1894.62 67.1883 Q1889.47 60.6258 1889.47 49.9314 Q1889.47 39.2371 1894.62 32.6746 Q1899.8 26.1121 1908.03 26.1121 Q1913.05 26.1121 1916.62 28.0971 Q1920.22 30.0415 1922.57 34.0924 M1897.17 49.9314 Q1897.17 58.1548 1900.53 62.8538 Q1903.94 67.5124 1909.85 67.5124 Q1915.77 67.5124 1919.17 62.8538 Q1922.57 58.1548 1922.57 49.9314 Q1922.57 41.7081 1919.17 37.0496 Q1915.77 32.3505 1909.85 32.3505 Q1903.94 32.3505 1900.53 37.0496 Q1897.17 41.7081 1897.17 49.9314 Z" fill="#000000" fill-rule="nonzero" fill-opacity="1" /><path clip-path="url(#clip220)" d="M1993.99 64.3122 Q1995.45 66.2566 1999.82 66.2566 L2003.43 66.2566 L2003.43 72.576 L1998.93 72.576 Q1991.64 72.576 1988.32 68.6871 Q1985 64.7172 1985 56.1293 L1985 34.6595 L1967.98 34.6595 L1967.98 27.2059 L2009.83 27.2059 L2009.83 34.6595 L1992.61 34.6595 L1992.61 56.5749 Q1992.61 62.4487 1993.99 64.3122 Z" fill="#000000" fill-rule="nonzero" fill-opacity="1" /><path clip-path="url(#clip220)" d="M2049.04 34.9026 L2100.97 34.9026 L2100.97 41.7081 L2049.04 41.7081 L2049.04 34.9026 M2049.04 51.4303 L2100.97 51.4303 L2100.97 58.3168 L2049.04 58.3168 L2049.04 51.4303 Z" fill="#000000" fill-rule="nonzero" fill-opacity="1" /><path clip-path="url(#clip220)" d="M2167.49 19.2256 L2146.83 51.5113 L2167.49 51.5113 L2167.49 19.2256 M2165.34 12.096 L2175.63 12.096 L2175.63 51.5113 L2184.26 51.5113 L2184.26 58.3168 L2175.63 58.3168 L2175.63 72.576 L2167.49 72.576 L2167.49 58.3168 L2140.19 58.3168 L2140.19 50.4176 L2165.34 12.096 Z" fill="#000000" fill-rule="nonzero" fill-opacity="1" /><path clip-path="url(#clip220)" d="M2195.56 9.62495 L2202.04 9.62495 Q2208.12 19.1851 2211.12 28.3401 Q2214.15 37.4952 2214.15 46.5287 Q2214.15 55.6027 2211.12 64.7983 Q2208.12 73.9938 2202.04 83.5134 L2195.56 83.5134 Q2200.95 74.2369 2203.58 65.0818 Q2206.26 55.8863 2206.26 46.5287 Q2206.26 37.1711 2203.58 28.0566 Q2200.95 18.942 2195.56 9.62495 Z" fill="#000000" fill-rule="nonzero" fill-opacity="1" /><polyline clip-path="url(#clip221)" style="stroke:#009af9; stroke-linecap:round; stroke-linejoin:round; stroke-width:4; stroke-opacity:1; fill:none" points="186.539,1529.42 210.367,1516.81 234.194,1504.45 258.021,1492.33 281.849,1480.45 305.676,1468.81 329.503,1457.4 353.331,1446.21 377.158,1435.24 400.985,1424.5 424.813,1413.96 448.64,1403.64 472.467,1393.52 496.295,1383.59 520.122,1373.87 543.949,1364.34 567.777,1354.99 591.604,1345.84 615.431,1336.86 639.259,1328.06 663.086,1319.43 686.913,1310.98 710.741,1302.69 734.568,1294.57 758.396,1286.61 782.223,1278.8 806.05,1271.15 829.878,1263.66 853.705,1256.31 877.532,1249.1 901.36,1242.04 925.187,1235.12 949.014,1228.33 972.842,1221.68 996.669,1215.17 1020.5,1208.78 1044.32,1202.51 1068.15,1196.37 1091.98,1190.36 1115.81,1184.46 1139.63,1178.68 1163.46,1173.01 1187.29,1167.45 1211.12,1162.01 1234.94,1156.67 1258.77,1151.44 1282.6,1146.31 1306.42,1141.29 1330.25,1136.36 1354.08,1131.53 1377.91,1126.8 1401.73,1122.16 1425.56,1117.61 1449.39,1113.15 1473.22,1108.78 1497.04,1104.5 1520.87,1100.3 1544.7,1096.19 1568.53,1092.15 1592.35,1088.2 1616.18,1084.32 1640.01,1080.52 1663.83,1076.8 1687.66,1073.15 1711.49,1069.57 1735.32,1066.07 1759.14,1062.63 1782.97,1059.26 1806.8,1055.96 1830.63,1052.72 1854.45,1049.55 1878.28,1046.44 1902.11,1043.39 1925.94,1040.4 1949.76,1037.47 1973.59,1034.6 1997.42,1031.79 2021.24,1029.03 2045.07,1026.32 2068.9,1023.67 2092.73,1021.08 2116.55,1018.53 2140.38,1016.03 2164.21,1013.59 2188.04,1011.19 2211.86,1008.84 2235.69,1006.54 2259.52,1004.28 2283.35,1002.06 2307.17,999.893 2331,997.766 2354.83,995.681 2378.66,993.638 2402.48,991.635 2426.31,989.671 2450.14,987.747 2473.96,985.86 2497.79,984.011 2521.62,982.199 2545.45,980.422 2569.27,978.681 "/>
<polyline clip-path="url(#clip221)" style="stroke:#e26f46; stroke-linecap:round; stroke-linejoin:round; stroke-width:4; stroke-opacity:1; fill:none" points="186.539,1688.65 210.367,1680.73 234.194,1672.89 258.021,1665.12 281.849,1657.44 305.676,1649.83 329.503,1642.23 353.331,1634.58 377.158,1626.89 400.985,1619.15 424.813,1611.37 448.64,1603.56 472.467,1595.71 496.295,1587.83 520.122,1579.92 543.949,1571.99 567.777,1564.02 591.604,1556.04 615.431,1548.04 639.259,1540.01 663.086,1531.97 686.913,1523.67 710.741,1514.86 734.568,1505.56 758.396,1495.78 782.223,1485.55 806.05,1474.88 829.878,1463.78 853.705,1452.27 877.532,1440.36 901.36,1428.06 925.187,1415.4 949.014,1402.38 972.842,1389.02 996.669,1375.33 1020.5,1361.32 1044.32,1347 1068.15,1332.39 1091.98,1317.5 1115.81,1302.33 1139.63,1286.91 1163.46,1271.24 1187.29,1255.32 1211.12,1239.18 1234.94,1222.82 1258.77,1206.26 1282.6,1189.49 1306.42,1172.53 1330.25,1155.39 1354.08,1138.08 1377.91,1120.6 1401.73,1102.97 1425.56,1085.19 1449.39,1067.27 1473.22,1049.21 1497.04,1031.04 1520.87,1012.74 1544.7,994.335 1568.53,975.826 1592.35,957.22 1616.18,938.524 1640.01,919.743 1663.83,900.885 1687.66,881.955 1711.49,862.959 1735.32,843.903 1759.14,824.792 1782.97,805.632 1806.8,786.428 1830.63,767.185 1854.45,747.908 1878.28,728.601 1902.11,709.27 1925.94,689.919 1949.76,670.552 1973.59,651.174 1997.42,631.788 2021.24,612.4 2045.07,593.012 2068.9,573.629 2092.73,554.253 2116.55,534.89 2140.38,515.542 2164.21,496.213 2188.04,476.905 2211.86,457.623 2235.69,438.368 2259.52,419.145 2283.35,399.955 2307.17,380.803 2331,361.689 2354.83,342.618 2378.66,323.591 2402.48,304.611 2426.31,285.681 2450.14,266.802 2473.96,247.976 2497.79,229.207 2521.62,210.495 2545.45,191.844 2569.27,173.254 "/>
<path clip-path="url(#clip220)" d="M199.247 336.856 L636.145 336.856 L636.145 181.336 L199.247 181.336  Z" fill="#ffffff" fill-rule="evenodd" fill-opacity="1"/>
<polyline clip-path="url(#clip220)" style="stroke:#000000; stroke-linecap:round; stroke-linejoin:round; stroke-width:4; stroke-opacity:1; fill:none" points="199.247,336.856 636.145,336.856 636.145,181.336 199.247,181.336 199.247,336.856 "/>
<polyline clip-path="url(#clip220)" style="stroke:#009af9; stroke-linecap:round; stroke-linejoin:round; stroke-width:4; stroke-opacity:1; fill:none" points="227.31,233.176 395.69,233.176 "/>
<path clip-path="url(#clip220)" d="M429.078 224.531 L433.337 224.531 L433.337 250.919 Q433.337 255.873 431.439 258.095 Q429.564 260.317 425.374 260.317 L423.754 260.317 L423.754 256.706 L424.888 256.706 Q427.318 256.706 428.198 255.572 Q429.078 254.461 429.078 250.919 L429.078 224.531 M429.078 214.438 L433.337 214.438 L433.337 219.831 L429.078 219.831 L429.078 214.438 Z" fill="#000000" fill-rule="nonzero" fill-opacity="1" /><path clip-path="url(#clip220)" d="M441.809 240.225 L441.809 224.531 L446.068 224.531 L446.068 240.063 Q446.068 243.743 447.504 245.595 Q448.939 247.424 451.809 247.424 Q455.258 247.424 457.249 245.225 Q459.263 243.026 459.263 239.229 L459.263 224.531 L463.522 224.531 L463.522 250.456 L459.263 250.456 L459.263 246.475 Q457.712 248.836 455.652 249.993 Q453.615 251.128 450.906 251.128 Q446.439 251.128 444.124 248.35 Q441.809 245.572 441.809 240.225 M452.527 223.906 L452.527 223.906 Z" fill="#000000" fill-rule="nonzero" fill-opacity="1" /><path clip-path="url(#clip220)" d="M469.24 224.531 L473.753 224.531 L481.855 246.29 L489.957 224.531 L494.471 224.531 L484.749 250.456 L478.962 250.456 L469.24 224.531 Z" fill="#000000" fill-rule="nonzero" fill-opacity="1" /><path clip-path="url(#clip220)" d="M522.526 236.429 L522.526 238.512 L502.943 238.512 Q503.221 242.91 505.582 245.225 Q507.966 247.516 512.202 247.516 Q514.656 247.516 516.948 246.915 Q519.262 246.313 521.531 245.109 L521.531 249.137 Q519.239 250.109 516.832 250.618 Q514.424 251.128 511.948 251.128 Q505.744 251.128 502.11 247.516 Q498.499 243.905 498.499 237.748 Q498.499 231.382 501.925 227.655 Q505.374 223.906 511.207 223.906 Q516.438 223.906 519.471 227.285 Q522.526 230.642 522.526 236.429 M518.267 235.179 Q518.221 231.683 516.299 229.6 Q514.401 227.517 511.253 227.517 Q507.688 227.517 505.536 229.53 Q503.406 231.544 503.082 235.202 L518.267 235.179 Z" fill="#000000" fill-rule="nonzero" fill-opacity="1" /><path clip-path="url(#clip220)" d="M551.068 234.808 L551.068 250.456 L546.809 250.456 L546.809 234.947 Q546.809 231.267 545.373 229.438 Q543.938 227.609 541.068 227.609 Q537.619 227.609 535.628 229.808 Q533.637 232.007 533.637 235.804 L533.637 250.456 L529.355 250.456 L529.355 224.531 L533.637 224.531 L533.637 228.558 Q535.165 226.22 537.225 225.063 Q539.309 223.906 542.017 223.906 Q546.485 223.906 548.776 226.683 Q551.068 229.438 551.068 234.808 Z" fill="#000000" fill-rule="nonzero" fill-opacity="1" /><path clip-path="url(#clip220)" d="M559.563 224.531 L563.822 224.531 L563.822 250.456 L559.563 250.456 L559.563 224.531 M559.563 214.438 L563.822 214.438 L563.822 219.831 L559.563 219.831 L559.563 214.438 Z" fill="#000000" fill-rule="nonzero" fill-opacity="1" /><path clip-path="url(#clip220)" d="M572.734 214.438 L576.994 214.438 L576.994 250.456 L572.734 250.456 L572.734 214.438 Z" fill="#000000" fill-rule="nonzero" fill-opacity="1" /><path clip-path="url(#clip220)" d="M608.081 236.429 L608.081 238.512 L588.498 238.512 Q588.776 242.91 591.137 245.225 Q593.521 247.516 597.757 247.516 Q600.211 247.516 602.503 246.915 Q604.818 246.313 607.086 245.109 L607.086 249.137 Q604.794 250.109 602.387 250.618 Q599.98 251.128 597.503 251.128 Q591.299 251.128 587.665 247.516 Q584.054 243.905 584.054 237.748 Q584.054 231.382 587.48 227.655 Q590.929 223.906 596.762 223.906 Q601.993 223.906 605.026 227.285 Q608.081 230.642 608.081 236.429 M603.822 235.179 Q603.776 231.683 601.855 229.6 Q599.956 227.517 596.808 227.517 Q593.244 227.517 591.091 229.53 Q588.961 231.544 588.637 235.202 L603.822 235.179 Z" fill="#000000" fill-rule="nonzero" fill-opacity="1" /><polyline clip-path="url(#clip220)" style="stroke:#e26f46; stroke-linecap:round; stroke-linejoin:round; stroke-width:4; stroke-opacity:1; fill:none" points="227.31,285.016 395.69,285.016 "/>
<path clip-path="url(#clip220)" d="M437.156 289.264 Q431.994 289.264 430.004 290.444 Q428.013 291.625 428.013 294.472 Q428.013 296.741 429.494 298.083 Q430.999 299.403 433.568 299.403 Q437.11 299.403 439.24 296.903 Q441.392 294.38 441.392 290.213 L441.392 289.264 L437.156 289.264 M445.652 287.505 L445.652 302.296 L441.392 302.296 L441.392 298.361 Q439.934 300.722 437.758 301.856 Q435.582 302.968 432.434 302.968 Q428.453 302.968 426.092 300.745 Q423.754 298.5 423.754 294.75 Q423.754 290.375 426.67 288.153 Q429.61 285.931 435.42 285.931 L441.392 285.931 L441.392 285.514 Q441.392 282.574 439.448 280.977 Q437.527 279.357 434.031 279.357 Q431.809 279.357 429.703 279.889 Q427.596 280.421 425.652 281.486 L425.652 277.551 Q427.99 276.648 430.189 276.208 Q432.388 275.746 434.471 275.746 Q440.096 275.746 442.874 278.662 Q445.652 281.579 445.652 287.505 Z" fill="#000000" fill-rule="nonzero" fill-opacity="1" /><path clip-path="url(#clip220)" d="M471.485 280.306 L471.485 266.278 L475.744 266.278 L475.744 302.296 L471.485 302.296 L471.485 298.407 Q470.142 300.722 468.082 301.856 Q466.045 302.968 463.175 302.968 Q458.476 302.968 455.513 299.218 Q452.573 295.468 452.573 289.357 Q452.573 283.245 455.513 279.495 Q458.476 275.746 463.175 275.746 Q466.045 275.746 468.082 276.88 Q470.142 277.991 471.485 280.306 M456.971 289.357 Q456.971 294.056 458.892 296.741 Q460.837 299.403 464.216 299.403 Q467.596 299.403 469.54 296.741 Q471.485 294.056 471.485 289.357 Q471.485 284.657 469.54 281.995 Q467.596 279.31 464.216 279.31 Q460.837 279.31 458.892 281.995 Q456.971 284.657 456.971 289.357 Z" fill="#000000" fill-rule="nonzero" fill-opacity="1" /><path clip-path="url(#clip220)" d="M484.077 292.065 L484.077 276.371 L488.337 276.371 L488.337 291.903 Q488.337 295.583 489.772 297.435 Q491.207 299.264 494.077 299.264 Q497.526 299.264 499.517 297.065 Q501.531 294.866 501.531 291.069 L501.531 276.371 L505.79 276.371 L505.79 302.296 L501.531 302.296 L501.531 298.315 Q499.98 300.676 497.92 301.833 Q495.883 302.968 493.175 302.968 Q488.707 302.968 486.392 300.19 Q484.077 297.412 484.077 292.065 M494.795 275.746 L494.795 275.746 Z" fill="#000000" fill-rule="nonzero" fill-opacity="1" /><path clip-path="url(#clip220)" d="M514.563 266.278 L518.823 266.278 L518.823 302.296 L514.563 302.296 L514.563 266.278 Z" fill="#000000" fill-rule="nonzero" fill-opacity="1" /><path clip-path="url(#clip220)" d="M531.948 269.009 L531.948 276.371 L540.721 276.371 L540.721 279.681 L531.948 279.681 L531.948 293.755 Q531.948 296.926 532.804 297.829 Q533.684 298.731 536.346 298.731 L540.721 298.731 L540.721 302.296 L536.346 302.296 Q531.415 302.296 529.54 300.468 Q527.665 298.616 527.665 293.755 L527.665 279.681 L524.54 279.681 L524.54 276.371 L527.665 276.371 L527.665 269.009 L531.948 269.009 Z" fill="#000000" fill-rule="nonzero" fill-opacity="1" /></svg>
