<?xml version="1.0" encoding="utf-8"?>
<svg xmlns="http://www.w3.org/2000/svg" xmlns:xlink="http://www.w3.org/1999/xlink" width="672" height="480" viewBox="0 0 2688 1920">
<defs>
  <clipPath id="clip190">
    <rect x="0" y="0" width="2688" height="1920"/>
  </clipPath>
</defs>
<path clip-path="url(#clip190)" d="M0 1920 L2688 1920 L2688 -4.26326e-14 L0 -4.26326e-14  Z" fill="#ffffff" fill-rule="evenodd" fill-opacity="1"/>
<defs>
  <clipPath id="clip191">
    <rect x="181" y="127" width="2460" height="1607"/>
  </clipPath>
</defs>
<path clip-path="url(#clip190)" d="M181.719 1734.12 L2640.76 1734.12 L2640.76 127.792 L181.719 127.792  Z" fill="#ffffff" fill-rule="evenodd" fill-opacity="1"/>
<polyline clip-path="url(#clip191)" style="stroke:#000000; stroke-linecap:round; stroke-linejoin:round; stroke-width:2; stroke-opacity:0.1; fill:none" points="251.315,1734.12 251.315,127.792 "/>
<polyline clip-path="url(#clip191)" style="stroke:#000000; stroke-linecap:round; stroke-linejoin:round; stroke-width:2; stroke-opacity:0.1; fill:none" points="831.276,1734.12 831.276,127.792 "/>
<polyline clip-path="url(#clip191)" style="stroke:#000000; stroke-linecap:round; stroke-linejoin:round; stroke-width:2; stroke-opacity:0.1; fill:none" points="1411.24,1734.12 1411.24,127.792 "/>
<polyline clip-path="url(#clip191)" style="stroke:#000000; stroke-linecap:round; stroke-linejoin:round; stroke-width:2; stroke-opacity:0.1; fill:none" points="1991.2,1734.12 1991.2,127.792 "/>
<polyline clip-path="url(#clip191)" style="stroke:#000000; stroke-linecap:round; stroke-linejoin:round; stroke-width:2; stroke-opacity:0.1; fill:none" points="2571.16,1734.12 2571.16,127.792 "/>
<polyline clip-path="url(#clip191)" style="stroke:#000000; stroke-linecap:round; stroke-linejoin:round; stroke-width:2; stroke-opacity:0.1; fill:none" points="181.719,1688.65 2640.76,1688.65 "/>
<polyline clip-path="url(#clip191)" style="stroke:#000000; stroke-linecap:round; stroke-linejoin:round; stroke-width:2; stroke-opacity:0.1; fill:none" points="181.719,1433.45 2640.76,1433.45 "/>
<polyline clip-path="url(#clip191)" style="stroke:#000000; stroke-linecap:round; stroke-linejoin:round; stroke-width:2; stroke-opacity:0.1; fill:none" points="181.719,1178.24 2640.76,1178.24 "/>
<polyline clip-path="url(#clip191)" style="stroke:#000000; stroke-linecap:round; stroke-linejoin:round; stroke-width:2; stroke-opacity:0.1; fill:none" points="181.719,923.026 2640.76,923.026 "/>
<polyline clip-path="url(#clip191)" style="stroke:#000000; stroke-linecap:round; stroke-linejoin:round; stroke-width:2; stroke-opacity:0.1; fill:none" points="181.719,667.816 2640.76,667.816 "/>
<polyline clip-path="url(#clip191)" style="stroke:#000000; stroke-linecap:round; stroke-linejoin:round; stroke-width:2; stroke-opacity:0.1; fill:none" points="181.719,412.606 2640.76,412.606 "/>
<polyline clip-path="url(#clip191)" style="stroke:#000000; stroke-linecap:round; stroke-linejoin:round; stroke-width:2; stroke-opacity:0.1; fill:none" points="181.719,157.397 2640.76,157.397 "/>
<polyline clip-path="url(#clip190)" style="stroke:#000000; stroke-linecap:round; stroke-linejoin:round; stroke-width:4; stroke-opacity:1; fill:none" points="181.719,1734.12 2640.76,1734.12 "/>
<polyline clip-path="url(#clip190)" style="stroke:#000000; stroke-linecap:round; stroke-linejoin:round; stroke-width:4; stroke-opacity:1; fill:none" points="251.315,1734.12 251.315,1715.22 "/>
<polyline clip-path="url(#clip190)" style="stroke:#000000; stroke-linecap:round; stroke-linejoin:round; stroke-width:4; stroke-opacity:1; fill:none" points="831.276,1734.12 831.276,1715.22 "/>
<polyline clip-path="url(#clip190)" style="stroke:#000000; stroke-linecap:round; stroke-linejoin:round; stroke-width:4; stroke-opacity:1; fill:none" points="1411.24,1734.12 1411.24,1715.22 "/>
<polyline clip-path="url(#clip190)" style="stroke:#000000; stroke-linecap:round; stroke-linejoin:round; stroke-width:4; stroke-opacity:1; fill:none" points="1991.2,1734.12 1991.2,1715.22 "/>
<polyline clip-path="url(#clip190)" style="stroke:#000000; stroke-linecap:round; stroke-linejoin:round; stroke-width:4; stroke-opacity:1; fill:none" points="2571.16,1734.12 2571.16,1715.22 "/>
<path clip-path="url(#clip190)" d="M251.315 1767.34 Q247.704 1767.34 245.875 1770.9 Q244.07 1774.45 244.07 1781.58 Q244.07 1788.68 245.875 1792.25 Q247.704 1795.79 251.315 1795.79 Q254.949 1795.79 256.755 1792.25 Q258.583 1788.68 258.583 1781.58 Q258.583 1774.45 256.755 1770.9 Q254.949 1767.34 251.315 1767.34 M251.315 1763.64 Q257.125 1763.64 260.181 1768.24 Q263.259 1772.83 263.259 1781.58 Q263.259 1790.3 260.181 1794.91 Q257.125 1799.49 251.315 1799.49 Q245.505 1799.49 242.426 1794.91 Q239.37 1790.3 239.37 1781.58 Q239.37 1772.83 242.426 1768.24 Q245.505 1763.64 251.315 1763.64 Z" fill="#000000" fill-rule="nonzero" fill-opacity="1" /><path clip-path="url(#clip190)" d="M821.554 1764.26 L839.91 1764.26 L839.91 1768.2 L825.836 1768.2 L825.836 1776.67 Q826.855 1776.32 827.874 1776.16 Q828.892 1775.97 829.911 1775.97 Q835.698 1775.97 839.077 1779.15 Q842.457 1782.32 842.457 1787.73 Q842.457 1793.31 838.985 1796.41 Q835.512 1799.49 829.193 1799.49 Q827.017 1799.49 824.749 1799.12 Q822.503 1798.75 820.096 1798.01 L820.096 1793.31 Q822.179 1794.45 824.401 1795 Q826.624 1795.56 829.1 1795.56 Q833.105 1795.56 835.443 1793.45 Q837.781 1791.34 837.781 1787.73 Q837.781 1784.12 835.443 1782.02 Q833.105 1779.91 829.1 1779.91 Q827.225 1779.91 825.35 1780.33 Q823.499 1780.74 821.554 1781.62 L821.554 1764.26 Z" fill="#000000" fill-rule="nonzero" fill-opacity="1" /><path clip-path="url(#clip190)" d="M1385.93 1794.89 L1393.56 1794.89 L1393.56 1768.52 L1385.25 1770.19 L1385.25 1765.93 L1393.52 1764.26 L1398.19 1764.26 L1398.19 1794.89 L1405.83 1794.89 L1405.83 1798.82 L1385.93 1798.82 L1385.93 1794.89 Z" fill="#000000" fill-rule="nonzero" fill-opacity="1" /><path clip-path="url(#clip190)" d="M1425.28 1767.34 Q1421.67 1767.34 1419.84 1770.9 Q1418.03 1774.45 1418.03 1781.58 Q1418.03 1788.68 1419.84 1792.25 Q1421.67 1795.79 1425.28 1795.79 Q1428.91 1795.79 1430.72 1792.25 Q1432.55 1788.68 1432.55 1781.58 Q1432.55 1774.45 1430.72 1770.9 Q1428.91 1767.34 1425.28 1767.34 M1425.28 1763.64 Q1431.09 1763.64 1434.14 1768.24 Q1437.22 1772.83 1437.22 1781.58 Q1437.22 1790.3 1434.14 1794.91 Q1431.09 1799.49 1425.28 1799.49 Q1419.47 1799.49 1416.39 1794.91 Q1413.33 1790.3 1413.33 1781.58 Q1413.33 1772.83 1416.39 1768.24 Q1419.47 1763.64 1425.28 1763.64 Z" fill="#000000" fill-rule="nonzero" fill-opacity="1" /><path clip-path="url(#clip190)" d="M1966.38 1794.89 L1974.02 1794.89 L1974.02 1768.52 L1965.71 1770.19 L1965.71 1765.93 L1973.98 1764.26 L1978.65 1764.26 L1978.65 1794.89 L1986.29 1794.89 L1986.29 1798.82 L1966.38 1798.82 L1966.38 1794.89 Z" fill="#000000" fill-rule="nonzero" fill-opacity="1" /><path clip-path="url(#clip190)" d="M1995.78 1764.26 L2014.14 1764.26 L2014.14 1768.2 L2000.06 1768.2 L2000.06 1776.67 Q2001.08 1776.32 2002.1 1776.16 Q2003.12 1775.97 2004.14 1775.97 Q2009.93 1775.97 2013.31 1779.15 Q2016.69 1782.32 2016.69 1787.73 Q2016.69 1793.31 2013.21 1796.41 Q2009.74 1799.49 2003.42 1799.49 Q2001.25 1799.49 1998.98 1799.12 Q1996.73 1798.75 1994.32 1798.01 L1994.32 1793.31 Q1996.41 1794.45 1998.63 1795 Q2000.85 1795.56 2003.33 1795.56 Q2007.33 1795.56 2009.67 1793.45 Q2012.01 1791.34 2012.01 1787.73 Q2012.01 1784.12 2009.67 1782.02 Q2007.33 1779.91 2003.33 1779.91 Q2001.45 1779.91 1999.58 1780.33 Q1997.73 1780.74 1995.78 1781.62 L1995.78 1764.26 Z" fill="#000000" fill-rule="nonzero" fill-opacity="1" /><path clip-path="url(#clip190)" d="M2549.93 1794.89 L2566.25 1794.89 L2566.25 1798.82 L2544.31 1798.82 L2544.31 1794.89 Q2546.97 1792.13 2551.55 1787.5 Q2556.16 1782.85 2557.34 1781.51 Q2559.59 1778.98 2560.47 1777.25 Q2561.37 1775.49 2561.37 1773.8 Q2561.37 1771.04 2559.42 1769.31 Q2557.5 1767.57 2554.4 1767.57 Q2552.2 1767.57 2549.75 1768.34 Q2547.32 1769.1 2544.54 1770.65 L2544.54 1765.93 Q2547.36 1764.79 2549.82 1764.21 Q2552.27 1763.64 2554.31 1763.64 Q2559.68 1763.64 2562.87 1766.32 Q2566.07 1769.01 2566.07 1773.5 Q2566.07 1775.63 2565.26 1777.55 Q2564.47 1779.45 2562.36 1782.04 Q2561.79 1782.71 2558.68 1785.93 Q2555.58 1789.12 2549.93 1794.89 Z" fill="#000000" fill-rule="nonzero" fill-opacity="1" /><path clip-path="url(#clip190)" d="M2586.07 1767.34 Q2582.46 1767.34 2580.63 1770.9 Q2578.82 1774.45 2578.82 1781.58 Q2578.82 1788.68 2580.63 1792.25 Q2582.46 1795.79 2586.07 1795.79 Q2589.7 1795.79 2591.51 1792.25 Q2593.34 1788.68 2593.34 1781.58 Q2593.34 1774.45 2591.51 1770.9 Q2589.7 1767.34 2586.07 1767.34 M2586.07 1763.64 Q2591.88 1763.64 2594.93 1768.24 Q2598.01 1772.83 2598.01 1781.58 Q2598.01 1790.3 2594.93 1794.91 Q2591.88 1799.49 2586.07 1799.49 Q2580.26 1799.49 2577.18 1794.91 Q2574.12 1790.3 2574.12 1781.58 Q2574.12 1772.83 2577.18 1768.24 Q2580.26 1763.64 2586.07 1763.64 Z" fill="#000000" fill-rule="nonzero" fill-opacity="1" /><path clip-path="url(#clip190)" d="M1350.4 1837.53 L1350.4 1847.65 L1362.46 1847.65 L1362.46 1852.2 L1350.4 1852.2 L1350.4 1871.56 Q1350.4 1875.92 1351.58 1877.16 Q1352.78 1878.4 1356.44 1878.4 L1362.46 1878.4 L1362.46 1883.3 L1356.44 1883.3 Q1349.67 1883.3 1347.09 1880.79 Q1344.51 1878.24 1344.51 1871.56 L1344.51 1852.2 L1340.21 1852.2 L1340.21 1847.65 L1344.51 1847.65 L1344.51 1837.53 L1350.4 1837.53 Z" fill="#000000" fill-rule="nonzero" fill-opacity="1" /><path clip-path="url(#clip190)" d="M1370.16 1847.65 L1376.02 1847.65 L1376.02 1883.3 L1370.16 1883.3 L1370.16 1847.65 M1370.16 1833.78 L1376.02 1833.78 L1376.02 1841.19 L1370.16 1841.19 L1370.16 1833.78 Z" fill="#000000" fill-rule="nonzero" fill-opacity="1" /><path clip-path="url(#clip190)" d="M1416.03 1854.5 Q1418.22 1850.55 1421.28 1848.67 Q1424.34 1846.79 1428.47 1846.79 Q1434.04 1846.79 1437.07 1850.71 Q1440.09 1854.59 1440.09 1861.78 L1440.09 1883.3 L1434.2 1883.3 L1434.2 1861.98 Q1434.2 1856.85 1432.39 1854.37 Q1430.57 1851.89 1426.85 1851.89 Q1422.3 1851.89 1419.66 1854.91 Q1417.01 1857.93 1417.01 1863.15 L1417.01 1883.3 L1411.13 1883.3 L1411.13 1861.98 Q1411.13 1856.82 1409.31 1854.37 Q1407.5 1851.89 1403.71 1851.89 Q1399.22 1851.89 1396.58 1854.94 Q1393.94 1857.97 1393.94 1863.15 L1393.94 1883.3 L1388.05 1883.3 L1388.05 1847.65 L1393.94 1847.65 L1393.94 1853.19 Q1395.94 1849.91 1398.75 1848.35 Q1401.55 1846.79 1405.4 1846.79 Q1409.28 1846.79 1411.99 1848.77 Q1414.72 1850.74 1416.03 1854.5 Z" fill="#000000" fill-rule="nonzero" fill-opacity="1" /><path clip-path="url(#clip190)" d="M1482.26 1864.01 L1482.26 1866.88 L1455.34 1866.88 Q1455.72 1872.92 1458.96 1876.11 Q1462.24 1879.26 1468.07 1879.26 Q1471.44 1879.26 1474.59 1878.43 Q1477.78 1877.6 1480.89 1875.95 L1480.89 1881.49 Q1477.74 1882.82 1474.43 1883.52 Q1471.12 1884.22 1467.72 1884.22 Q1459.19 1884.22 1454.19 1879.26 Q1449.23 1874.29 1449.23 1865.83 Q1449.23 1857.07 1453.94 1851.95 Q1458.68 1846.79 1466.7 1846.79 Q1473.89 1846.79 1478.06 1851.44 Q1482.26 1856.06 1482.26 1864.01 M1476.41 1862.29 Q1476.34 1857.49 1473.7 1854.62 Q1471.09 1851.76 1466.76 1851.76 Q1461.86 1851.76 1458.9 1854.53 Q1455.97 1857.3 1455.53 1862.33 L1476.41 1862.29 Z" fill="#000000" fill-rule="nonzero" fill-opacity="1" /><polyline clip-path="url(#clip190)" style="stroke:#000000; stroke-linecap:round; stroke-linejoin:round; stroke-width:4; stroke-opacity:1; fill:none" points="181.719,1734.12 181.719,127.792 "/>
<polyline clip-path="url(#clip190)" style="stroke:#000000; stroke-linecap:round; stroke-linejoin:round; stroke-width:4; stroke-opacity:1; fill:none" points="181.719,1688.65 200.617,1688.65 "/>
<polyline clip-path="url(#clip190)" style="stroke:#000000; stroke-linecap:round; stroke-linejoin:round; stroke-width:4; stroke-opacity:1; fill:none" points="181.719,1433.45 200.617,1433.45 "/>
<polyline clip-path="url(#clip190)" style="stroke:#000000; stroke-linecap:round; stroke-linejoin:round; stroke-width:4; stroke-opacity:1; fill:none" points="181.719,1178.24 200.617,1178.24 "/>
<polyline clip-path="url(#clip190)" style="stroke:#000000; stroke-linecap:round; stroke-linejoin:round; stroke-width:4; stroke-opacity:1; fill:none" points="181.719,923.026 200.617,923.026 "/>
<polyline clip-path="url(#clip190)" style="stroke:#000000; stroke-linecap:round; stroke-linejoin:round; stroke-width:4; stroke-opacity:1; fill:none" points="181.719,667.816 200.617,667.816 "/>
<polyline clip-path="url(#clip190)" style="stroke:#000000; stroke-linecap:round; stroke-linejoin:round; stroke-width:4; stroke-opacity:1; fill:none" points="181.719,412.606 200.617,412.606 "/>
<polyline clip-path="url(#clip190)" style="stroke:#000000; stroke-linecap:round; stroke-linejoin:round; stroke-width:4; stroke-opacity:1; fill:none" points="181.719,157.397 200.617,157.397 "/>
<path clip-path="url(#clip190)" d="M129.455 1674.45 Q125.844 1674.45 124.015 1678.02 Q122.21 1681.56 122.21 1688.69 Q122.21 1695.8 124.015 1699.36 Q125.844 1702.9 129.455 1702.9 Q133.089 1702.9 134.895 1699.36 Q136.724 1695.8 136.724 1688.69 Q136.724 1681.56 134.895 1678.02 Q133.089 1674.45 129.455 1674.45 M129.455 1670.75 Q135.265 1670.75 138.321 1675.36 Q141.399 1679.94 141.399 1688.69 Q141.399 1697.42 138.321 1702.02 Q135.265 1706.61 129.455 1706.61 Q123.645 1706.61 120.566 1702.02 Q117.511 1697.42 117.511 1688.69 Q117.511 1679.94 120.566 1675.36 Q123.645 1670.75 129.455 1670.75 Z" fill="#000000" fill-rule="nonzero" fill-opacity="1" /><path clip-path="url(#clip190)" d="M121.492 1446.79 L129.131 1446.79 L129.131 1420.42 L120.821 1422.09 L120.821 1417.83 L129.085 1416.17 L133.761 1416.17 L133.761 1446.79 L141.399 1446.79 L141.399 1450.73 L121.492 1450.73 L121.492 1446.79 Z" fill="#000000" fill-rule="nonzero" fill-opacity="1" /><path clip-path="url(#clip190)" d="M125.08 1191.58 L141.399 1191.58 L141.399 1195.52 L119.455 1195.52 L119.455 1191.58 Q122.117 1188.83 126.7 1184.2 Q131.307 1179.54 132.488 1178.2 Q134.733 1175.68 135.612 1173.94 Q136.515 1172.18 136.515 1170.49 Q136.515 1167.74 134.571 1166 Q132.65 1164.27 129.548 1164.27 Q127.349 1164.27 124.895 1165.03 Q122.464 1165.79 119.687 1167.34 L119.687 1162.62 Q122.511 1161.49 124.964 1160.91 Q127.418 1160.33 129.455 1160.33 Q134.825 1160.33 138.02 1163.02 Q141.214 1165.7 141.214 1170.19 Q141.214 1172.32 140.404 1174.24 Q139.617 1176.14 137.511 1178.73 Q136.932 1179.4 133.83 1182.62 Q130.728 1185.82 125.08 1191.58 Z" fill="#000000" fill-rule="nonzero" fill-opacity="1" /><path clip-path="url(#clip190)" d="M134.27 921.672 Q137.626 922.389 139.501 924.658 Q141.399 926.926 141.399 930.26 Q141.399 935.375 137.881 938.176 Q134.362 940.977 127.881 940.977 Q125.705 940.977 123.39 940.537 Q121.099 940.121 118.645 939.264 L118.645 934.75 Q120.589 935.885 122.904 936.463 Q125.219 937.042 127.742 937.042 Q132.14 937.042 134.432 935.306 Q136.747 933.57 136.747 930.26 Q136.747 927.204 134.594 925.491 Q132.464 923.755 128.645 923.755 L124.617 923.755 L124.617 919.912 L128.83 919.912 Q132.279 919.912 134.108 918.547 Q135.937 917.158 135.937 914.565 Q135.937 911.903 134.038 910.491 Q132.163 909.056 128.645 909.056 Q126.724 909.056 124.525 909.473 Q122.326 909.889 119.687 910.769 L119.687 906.602 Q122.349 905.862 124.663 905.491 Q127.001 905.121 129.062 905.121 Q134.386 905.121 137.487 907.551 Q140.589 909.959 140.589 914.079 Q140.589 916.949 138.946 918.94 Q137.302 920.908 134.27 921.672 Z" fill="#000000" fill-rule="nonzero" fill-opacity="1" /><path clip-path="url(#clip190)" d="M131.816 654.61 L120.011 673.059 L131.816 673.059 L131.816 654.61 M130.589 650.536 L136.469 650.536 L136.469 673.059 L141.399 673.059 L141.399 676.948 L136.469 676.948 L136.469 685.096 L131.816 685.096 L131.816 676.948 L116.214 676.948 L116.214 672.434 L130.589 650.536 Z" fill="#000000" fill-rule="nonzero" fill-opacity="1" /><path clip-path="url(#clip190)" d="M120.497 395.326 L138.853 395.326 L138.853 399.262 L124.779 399.262 L124.779 407.734 Q125.798 407.386 126.816 407.224 Q127.835 407.039 128.853 407.039 Q134.64 407.039 138.02 410.211 Q141.399 413.382 141.399 418.798 Q141.399 424.377 137.927 427.479 Q134.455 430.558 128.136 430.558 Q125.96 430.558 123.691 430.187 Q121.446 429.817 119.039 429.076 L119.039 424.377 Q121.122 425.511 123.344 426.067 Q125.566 426.623 128.043 426.623 Q132.048 426.623 134.386 424.516 Q136.724 422.41 136.724 418.798 Q136.724 415.187 134.386 413.081 Q132.048 410.974 128.043 410.974 Q126.168 410.974 124.293 411.391 Q122.441 411.808 120.497 412.687 L120.497 395.326 Z" fill="#000000" fill-rule="nonzero" fill-opacity="1" /><path clip-path="url(#clip190)" d="M129.872 155.533 Q126.724 155.533 124.872 157.686 Q123.043 159.839 123.043 163.589 Q123.043 167.316 124.872 169.492 Q126.724 171.644 129.872 171.644 Q133.02 171.644 134.849 169.492 Q136.7 167.316 136.7 163.589 Q136.7 159.839 134.849 157.686 Q133.02 155.533 129.872 155.533 M139.154 140.881 L139.154 145.14 Q137.395 144.306 135.589 143.867 Q133.807 143.427 132.048 143.427 Q127.418 143.427 124.964 146.552 Q122.534 149.677 122.187 155.996 Q123.552 153.982 125.613 152.918 Q127.673 151.83 130.15 151.83 Q135.358 151.83 138.367 155.001 Q141.399 158.149 141.399 163.589 Q141.399 168.913 138.251 172.13 Q135.103 175.348 129.872 175.348 Q123.876 175.348 120.705 170.765 Q117.534 166.158 117.534 157.431 Q117.534 149.237 121.423 144.376 Q125.312 139.492 131.863 139.492 Q133.622 139.492 135.404 139.839 Q137.21 140.186 139.154 140.881 Z" fill="#000000" fill-rule="nonzero" fill-opacity="1" /><path clip-path="url(#clip190)" d="M43.719 1090.1 Q43.719 1097.19 45.3422 1099.93 Q46.9655 1102.67 50.8804 1102.67 Q53.9996 1102.67 55.8457 1100.63 Q57.6599 1098.56 57.6599 1095.03 Q57.6599 1090.16 54.2224 1087.23 Q50.7531 1084.27 45.0239 1084.27 L43.719 1084.27 L43.719 1090.1 M41.3 1078.42 L61.6384 1078.42 L61.6384 1084.27 L56.2276 1084.27 Q59.4741 1086.28 61.0337 1089.27 Q62.5615 1092.26 62.5615 1096.59 Q62.5615 1102.06 59.5059 1105.31 Q56.4186 1108.53 51.2623 1108.53 Q45.2467 1108.53 42.1912 1104.52 Q39.1357 1100.47 39.1357 1092.48 L39.1357 1084.27 L38.5628 1084.27 Q34.5205 1084.27 32.3244 1086.95 Q30.0964 1089.59 30.0964 1094.39 Q30.0964 1097.45 30.8284 1100.35 Q31.5605 1103.24 33.0246 1105.92 L27.6137 1105.92 Q26.3724 1102.7 25.7677 1099.68 Q25.1311 1096.65 25.1311 1093.79 Q25.1311 1086.05 29.1415 1082.24 Q33.1519 1078.42 41.3 1078.42 Z" fill="#000000" fill-rule="nonzero" fill-opacity="1" /><path clip-path="url(#clip190)" d="M43.8463 1040.76 Q37.3851 1040.76 33.7248 1043.44 Q30.0327 1046.08 30.0327 1050.73 Q30.0327 1055.37 33.7248 1058.05 Q37.3851 1060.69 43.8463 1060.69 Q50.3075 1060.69 53.9996 1058.05 Q57.6599 1055.37 57.6599 1050.73 Q57.6599 1046.08 53.9996 1043.44 Q50.3075 1040.76 43.8463 1040.76 M31.4013 1060.69 Q28.2185 1058.84 26.6907 1056.04 Q25.1311 1053.21 25.1311 1049.29 Q25.1311 1042.8 30.2873 1038.76 Q35.4436 1034.68 43.8463 1034.68 Q52.249 1034.68 57.4052 1038.76 Q62.5615 1042.8 62.5615 1049.29 Q62.5615 1053.21 61.0337 1056.04 Q59.4741 1058.84 56.2912 1060.69 L61.6384 1060.69 L61.6384 1066.58 L12.1132 1066.58 L12.1132 1060.69 L31.4013 1060.69 Z" fill="#000000" fill-rule="nonzero" fill-opacity="1" /><path clip-path="url(#clip190)" d="M47.5702 1025.58 L25.9905 1025.58 L25.9905 1019.72 L47.3474 1019.72 Q52.4082 1019.72 54.9545 1017.75 Q57.4689 1015.78 57.4689 1011.83 Q57.4689 1007.09 54.4452 1004.35 Q51.4215 1001.58 46.2016 1001.58 L25.9905 1001.58 L25.9905 995.726 L61.6384 995.726 L61.6384 1001.58 L56.1639 1001.58 Q59.4104 1003.71 61.0019 1006.55 Q62.5615 1009.35 62.5615 1013.07 Q62.5615 1019.22 58.742 1022.4 Q54.9226 1025.58 47.5702 1025.58 M25.1311 1010.84 L25.1311 1010.84 Z" fill="#000000" fill-rule="nonzero" fill-opacity="1" /><path clip-path="url(#clip190)" d="M40.1224 954.03 L61.6384 954.03 L61.6384 959.887 L40.3133 959.887 Q35.2526 959.887 32.7381 961.86 Q30.2237 963.833 30.2237 967.78 Q30.2237 972.523 33.2474 975.26 Q36.2711 977.997 41.491 977.997 L61.6384 977.997 L61.6384 983.885 L25.9905 983.885 L25.9905 977.997 L31.5287 977.997 Q28.314 975.896 26.7225 973.064 Q25.1311 970.199 25.1311 966.475 Q25.1311 960.332 28.9505 957.181 Q32.7381 954.03 40.1224 954.03 Z" fill="#000000" fill-rule="nonzero" fill-opacity="1" /><path clip-path="url(#clip190)" d="M31.4013 918.892 L12.1132 918.892 L12.1132 913.035 L61.6384 913.035 L61.6384 918.892 L56.2912 918.892 Q59.4741 920.738 61.0337 923.57 Q62.5615 926.371 62.5615 930.318 Q62.5615 936.779 57.4052 940.853 Q52.249 944.895 43.8463 944.895 Q35.4436 944.895 30.2873 940.853 Q25.1311 936.779 25.1311 930.318 Q25.1311 926.371 26.6907 923.57 Q28.2185 920.738 31.4013 918.892 M43.8463 938.848 Q50.3075 938.848 53.9996 936.206 Q57.6599 933.533 57.6599 928.886 Q57.6599 924.239 53.9996 921.565 Q50.3075 918.892 43.8463 918.892 Q37.3851 918.892 33.7248 921.565 Q30.0327 924.239 30.0327 928.886 Q30.0327 933.533 33.7248 936.206 Q37.3851 938.848 43.8463 938.848 Z" fill="#000000" fill-rule="nonzero" fill-opacity="1" /><path clip-path="url(#clip190)" d="M43.719 884.771 Q43.719 891.869 45.3422 894.606 Q46.9655 897.344 50.8804 897.344 Q53.9996 897.344 55.8457 895.307 Q57.6599 893.238 57.6599 889.705 Q57.6599 884.835 54.2224 881.907 Q50.7531 878.947 45.0239 878.947 L43.719 878.947 L43.719 884.771 M41.3 873.09 L61.6384 873.09 L61.6384 878.947 L56.2276 878.947 Q59.4741 880.952 61.0337 883.944 Q62.5615 886.936 62.5615 891.264 Q62.5615 896.739 59.5059 899.985 Q56.4186 903.2 51.2623 903.2 Q45.2467 903.2 42.1912 899.19 Q39.1357 895.147 39.1357 887.158 L39.1357 878.947 L38.5628 878.947 Q34.5205 878.947 32.3244 881.62 Q30.0964 884.262 30.0964 889.068 Q30.0964 892.124 30.8284 895.02 Q31.5605 897.917 33.0246 900.59 L27.6137 900.59 Q26.3724 897.375 25.7677 894.352 Q25.1311 891.328 25.1311 888.463 Q25.1311 880.729 29.1415 876.91 Q33.1519 873.09 41.3 873.09 Z" fill="#000000" fill-rule="nonzero" fill-opacity="1" /><path clip-path="url(#clip190)" d="M40.1224 831.395 L61.6384 831.395 L61.6384 837.251 L40.3133 837.251 Q35.2526 837.251 32.7381 839.225 Q30.2237 841.198 30.2237 845.145 Q30.2237 849.887 33.2474 852.625 Q36.2711 855.362 41.491 855.362 L61.6384 855.362 L61.6384 861.25 L25.9905 861.25 L25.9905 855.362 L31.5287 855.362 Q28.314 853.261 26.7225 850.428 Q25.1311 847.564 25.1311 843.84 Q25.1311 837.697 28.9505 834.546 Q32.7381 831.395 40.1224 831.395 Z" fill="#000000" fill-rule="nonzero" fill-opacity="1" /><path clip-path="url(#clip190)" d="M27.3591 794.06 L32.8336 794.06 Q31.465 796.543 30.7966 799.057 Q30.0964 801.54 30.0964 804.086 Q30.0964 809.783 33.7248 812.934 Q37.3214 816.085 43.8463 816.085 Q50.3711 816.085 53.9996 812.934 Q57.5962 809.783 57.5962 804.086 Q57.5962 801.54 56.9278 799.057 Q56.2276 796.543 54.859 794.06 L60.2698 794.06 Q61.4156 796.511 61.9886 799.153 Q62.5615 801.763 62.5615 804.723 Q62.5615 812.775 57.5007 817.518 Q52.44 822.26 43.8463 822.26 Q35.1253 822.26 30.1282 817.486 Q25.1311 812.68 25.1311 804.341 Q25.1311 801.635 25.704 799.057 Q26.2451 796.479 27.3591 794.06 Z" fill="#000000" fill-rule="nonzero" fill-opacity="1" /><path clip-path="url(#clip190)" d="M42.3504 753.383 L45.2149 753.383 L45.2149 780.31 Q51.2623 779.928 54.4452 776.682 Q57.5962 773.403 57.5962 767.579 Q57.5962 764.205 56.7687 761.054 Q55.9411 757.871 54.2861 754.752 L59.8242 754.752 Q61.161 757.903 61.8612 761.213 Q62.5615 764.523 62.5615 767.929 Q62.5615 776.459 57.5962 781.456 Q52.631 786.421 44.1646 786.421 Q35.4117 786.421 30.2873 781.711 Q25.1311 776.968 25.1311 768.947 Q25.1311 761.754 29.7781 757.585 Q34.3932 753.383 42.3504 753.383 M40.6316 759.24 Q35.8255 759.303 32.9609 761.945 Q30.0964 764.555 30.0964 768.884 Q30.0964 773.785 32.8654 776.745 Q35.6345 779.674 40.6634 780.119 L40.6316 759.24 Z" fill="#000000" fill-rule="nonzero" fill-opacity="1" /><path clip-path="url(#clip190)" d="M833.498 18.8205 L833.498 65.8515 L843.382 65.8515 Q855.899 65.8515 861.692 60.1802 Q867.525 54.509 867.525 42.2752 Q867.525 30.1225 861.692 24.4918 Q855.899 18.8205 843.382 18.8205 L833.498 18.8205 M825.315 12.096 L842.126 12.096 Q859.707 12.096 867.93 19.4281 Q876.154 26.7198 876.154 42.2752 Q876.154 57.9117 867.89 65.2439 Q859.626 72.576 842.126 72.576 L825.315 72.576 L825.315 12.096 Z" fill="#000000" fill-rule="nonzero" fill-opacity="1" /><path clip-path="url(#clip190)" d="M927.681 48.0275 L927.681 51.6733 L893.411 51.6733 Q893.897 59.3701 898.029 63.421 Q902.201 67.4314 909.614 67.4314 Q913.908 67.4314 917.919 66.3781 Q921.969 65.3249 925.939 63.2184 L925.939 70.267 Q921.929 71.9684 917.716 72.8596 Q913.503 73.7508 909.169 73.7508 Q898.312 73.7508 891.952 67.4314 Q885.633 61.1119 885.633 50.3365 Q885.633 39.1965 891.628 32.6746 Q897.664 26.1121 907.872 26.1121 Q917.027 26.1121 922.334 32.0264 Q927.681 37.9003 927.681 48.0275 M920.228 45.84 Q920.147 39.7232 916.784 36.0774 Q913.463 32.4315 907.953 32.4315 Q901.715 32.4315 897.948 35.9558 Q894.221 39.4801 893.654 45.8805 L920.228 45.84 Z" fill="#000000" fill-rule="nonzero" fill-opacity="1" /><path clip-path="url(#clip190)" d="M939.915 9.54393 L947.369 9.54393 L947.369 72.576 L939.915 72.576 L939.915 9.54393 Z" fill="#000000" fill-rule="nonzero" fill-opacity="1" /><path clip-path="url(#clip190)" d="M983.584 49.7694 Q974.55 49.7694 971.066 51.8354 Q967.583 53.9013 967.583 58.8839 Q967.583 62.8538 970.175 65.2034 Q972.808 67.5124 977.305 67.5124 Q983.503 67.5124 987.23 63.1374 Q990.997 58.7219 990.997 51.4303 L990.997 49.7694 L983.584 49.7694 M998.451 46.6907 L998.451 72.576 L990.997 72.576 L990.997 65.6895 Q988.445 69.8214 984.637 71.8063 Q980.829 73.7508 975.32 73.7508 Q968.352 73.7508 964.22 69.8619 Q960.129 65.9325 960.129 59.3701 Q960.129 51.7138 965.233 47.825 Q970.378 43.9361 980.546 43.9361 L990.997 43.9361 L990.997 43.2069 Q990.997 38.0623 987.594 35.2672 Q984.232 32.4315 978.115 32.4315 Q974.226 32.4315 970.54 33.3632 Q966.854 34.295 963.451 36.1584 L963.451 29.2718 Q967.542 27.692 971.391 26.9223 Q975.239 26.1121 978.885 26.1121 Q988.728 26.1121 993.589 31.2163 Q998.451 36.3204 998.451 46.6907 Z" fill="#000000" fill-rule="nonzero" fill-opacity="1" /><path clip-path="url(#clip190)" d="M1032.68 76.7889 Q1029.52 84.8907 1026.52 87.3618 Q1023.53 89.8329 1018.5 89.8329 L1012.55 89.8329 L1012.55 83.5945 L1016.92 83.5945 Q1020 83.5945 1021.7 82.1361 Q1023.4 80.6778 1025.47 75.2496 L1026.81 71.8468 L1008.46 27.2059 L1016.36 27.2059 L1030.53 62.6918 L1044.71 27.2059 L1052.61 27.2059 L1032.68 76.7889 Z" fill="#000000" fill-rule="nonzero" fill-opacity="1" /><path clip-path="url(#clip190)" d="M1101.71 48.0275 L1101.71 51.6733 L1067.44 51.6733 Q1067.92 59.3701 1072.06 63.421 Q1076.23 67.4314 1083.64 67.4314 Q1087.94 67.4314 1091.95 66.3781 Q1096 65.3249 1099.97 63.2184 L1099.97 70.267 Q1095.96 71.9684 1091.74 72.8596 Q1087.53 73.7508 1083.2 73.7508 Q1072.34 73.7508 1065.98 67.4314 Q1059.66 61.1119 1059.66 50.3365 Q1059.66 39.1965 1065.66 32.6746 Q1071.69 26.1121 1081.9 26.1121 Q1091.05 26.1121 1096.36 32.0264 Q1101.71 37.9003 1101.71 48.0275 M1094.25 45.84 Q1094.17 39.7232 1090.81 36.0774 Q1087.49 32.4315 1081.98 32.4315 Q1075.74 32.4315 1071.97 35.9558 Q1068.25 39.4801 1067.68 45.8805 L1094.25 45.84 Z" fill="#000000" fill-rule="nonzero" fill-opacity="1" /><path clip-path="url(#clip190)" d="M1143.8 34.0924 L1143.8 9.54393 L1151.25 9.54393 L1151.25 72.576 L1143.8 72.576 L1143.8 65.7705 Q1141.45 69.8214 1137.84 71.8063 Q1134.28 73.7508 1129.25 73.7508 Q1121.03 73.7508 1115.85 67.1883 Q1110.7 60.6258 1110.7 49.9314 Q1110.7 39.2371 1115.85 32.6746 Q1121.03 26.1121 1129.25 26.1121 Q1134.28 26.1121 1137.84 28.0971 Q1141.45 30.0415 1143.8 34.0924 M1118.4 49.9314 Q1118.4 58.1548 1121.76 62.8538 Q1125.16 67.5124 1131.08 67.5124 Q1136.99 67.5124 1140.39 62.8538 Q1143.8 58.1548 1143.8 49.9314 Q1143.8 41.7081 1140.39 37.0496 Q1136.99 32.3505 1131.08 32.3505 Q1125.16 32.3505 1121.76 37.0496 Q1118.4 41.7081 1118.4 49.9314 Z" fill="#000000" fill-rule="nonzero" fill-opacity="1" /><path clip-path="url(#clip190)" d="M1228.3 35.9153 Q1231.09 30.8922 1234.98 28.5022 Q1238.87 26.1121 1244.14 26.1121 Q1251.23 26.1121 1255.08 31.0947 Q1258.92 36.0368 1258.92 45.1919 L1258.92 72.576 L1251.43 72.576 L1251.43 45.4349 Q1251.43 38.913 1249.12 35.7533 Q1246.81 32.5936 1242.07 32.5936 Q1236.28 32.5936 1232.92 36.4419 Q1229.55 40.2903 1229.55 46.9338 L1229.55 72.576 L1222.06 72.576 L1222.06 45.4349 Q1222.06 38.8725 1219.75 35.7533 Q1217.44 32.5936 1212.62 32.5936 Q1206.91 32.5936 1203.55 36.4824 Q1200.19 40.3308 1200.19 46.9338 L1200.19 72.576 L1192.69 72.576 L1192.69 27.2059 L1200.19 27.2059 L1200.19 34.2544 Q1202.74 30.082 1206.3 28.0971 Q1209.87 26.1121 1214.77 26.1121 Q1219.71 26.1121 1223.15 28.6237 Q1226.64 31.1352 1228.3 35.9153 Z" fill="#000000" fill-rule="nonzero" fill-opacity="1" /><path clip-path="url(#clip190)" d="M1294.41 49.7694 Q1285.38 49.7694 1281.89 51.8354 Q1278.41 53.9013 1278.41 58.8839 Q1278.41 62.8538 1281 65.2034 Q1283.63 67.5124 1288.13 67.5124 Q1294.33 67.5124 1298.06 63.1374 Q1301.82 58.7219 1301.82 51.4303 L1301.82 49.7694 L1294.41 49.7694 M1309.28 46.6907 L1309.28 72.576 L1301.82 72.576 L1301.82 65.6895 Q1299.27 69.8214 1295.46 71.8063 Q1291.66 73.7508 1286.15 73.7508 Q1279.18 73.7508 1275.05 69.8619 Q1270.95 65.9325 1270.95 59.3701 Q1270.95 51.7138 1276.06 47.825 Q1281.2 43.9361 1291.37 43.9361 L1301.82 43.9361 L1301.82 43.2069 Q1301.82 38.0623 1298.42 35.2672 Q1295.06 32.4315 1288.94 32.4315 Q1285.05 32.4315 1281.37 33.3632 Q1277.68 34.295 1274.28 36.1584 L1274.28 29.2718 Q1278.37 27.692 1282.22 26.9223 Q1286.06 26.1121 1289.71 26.1121 Q1299.55 26.1121 1304.42 31.2163 Q1309.28 36.3204 1309.28 46.6907 Z" fill="#000000" fill-rule="nonzero" fill-opacity="1" /><path clip-path="url(#clip190)" d="M1332 14.324 L1332 27.2059 L1347.35 27.2059 L1347.35 32.9987 L1332 32.9987 L1332 57.6282 Q1332 63.1779 1333.5 64.7578 Q1335.04 66.3376 1339.7 66.3376 L1347.35 66.3376 L1347.35 72.576 L1339.7 72.576 Q1331.07 72.576 1327.79 69.3758 Q1324.51 66.1351 1324.51 57.6282 L1324.51 32.9987 L1319.04 32.9987 L1319.04 27.2059 L1324.51 27.2059 L1324.51 14.324 L1332 14.324 Z" fill="#000000" fill-rule="nonzero" fill-opacity="1" /><path clip-path="url(#clip190)" d="M1356.39 54.671 L1356.39 27.2059 L1363.84 27.2059 L1363.84 54.3874 Q1363.84 60.8284 1366.35 64.0691 Q1368.87 67.2693 1373.89 67.2693 Q1379.92 67.2693 1383.41 63.421 Q1386.93 59.5726 1386.93 52.9291 L1386.93 27.2059 L1394.39 27.2059 L1394.39 72.576 L1386.93 72.576 L1386.93 65.6084 Q1384.22 69.7404 1380.61 71.7658 Q1377.05 73.7508 1372.31 73.7508 Q1364.49 73.7508 1360.44 68.8897 Q1356.39 64.0286 1356.39 54.671 M1375.14 26.1121 L1375.14 26.1121 Z" fill="#000000" fill-rule="nonzero" fill-opacity="1" /><path clip-path="url(#clip190)" d="M1436.03 34.1734 Q1434.77 33.4443 1433.27 33.1202 Q1431.82 32.7556 1430.03 32.7556 Q1423.71 32.7556 1420.31 36.8875 Q1416.95 40.9789 1416.95 48.6757 L1416.95 72.576 L1409.46 72.576 L1409.46 27.2059 L1416.95 27.2059 L1416.95 34.2544 Q1419.3 30.1225 1423.07 28.1376 Q1426.83 26.1121 1432.22 26.1121 Q1432.99 26.1121 1433.92 26.2337 Q1434.85 26.3147 1435.99 26.5172 L1436.03 34.1734 Z" fill="#000000" fill-rule="nonzero" fill-opacity="1" /><path clip-path="url(#clip190)" d="M1464.47 49.7694 Q1455.43 49.7694 1451.95 51.8354 Q1448.47 53.9013 1448.47 58.8839 Q1448.47 62.8538 1451.06 65.2034 Q1453.69 67.5124 1458.19 67.5124 Q1464.39 67.5124 1468.11 63.1374 Q1471.88 58.7219 1471.88 51.4303 L1471.88 49.7694 L1464.47 49.7694 M1479.33 46.6907 L1479.33 72.576 L1471.88 72.576 L1471.88 65.6895 Q1469.33 69.8214 1465.52 71.8063 Q1461.71 73.7508 1456.2 73.7508 Q1449.24 73.7508 1445.1 69.8619 Q1441.01 65.9325 1441.01 59.3701 Q1441.01 51.7138 1446.12 47.825 Q1451.26 43.9361 1461.43 43.9361 L1471.88 43.9361 L1471.88 43.2069 Q1471.88 38.0623 1468.48 35.2672 Q1465.11 32.4315 1459 32.4315 Q1455.11 32.4315 1451.42 33.3632 Q1447.74 34.295 1444.33 36.1584 L1444.33 29.2718 Q1448.43 27.692 1452.27 26.9223 Q1456.12 26.1121 1459.77 26.1121 Q1469.61 26.1121 1474.47 31.2163 Q1479.33 36.3204 1479.33 46.6907 Z" fill="#000000" fill-rule="nonzero" fill-opacity="1" /><path clip-path="url(#clip190)" d="M1502.06 14.324 L1502.06 27.2059 L1517.41 27.2059 L1517.41 32.9987 L1502.06 32.9987 L1502.06 57.6282 Q1502.06 63.1779 1503.56 64.7578 Q1505.1 66.3376 1509.76 66.3376 L1517.41 66.3376 L1517.41 72.576 L1509.76 72.576 Q1501.13 72.576 1497.85 69.3758 Q1494.56 66.1351 1494.56 57.6282 L1494.56 32.9987 L1489.1 32.9987 L1489.1 27.2059 L1494.56 27.2059 L1494.56 14.324 L1502.06 14.324 Z" fill="#000000" fill-rule="nonzero" fill-opacity="1" /><path clip-path="url(#clip190)" d="M1527.22 27.2059 L1534.67 27.2059 L1534.67 72.576 L1527.22 72.576 L1527.22 27.2059 M1527.22 9.54393 L1534.67 9.54393 L1534.67 18.9825 L1527.22 18.9825 L1527.22 9.54393 Z" fill="#000000" fill-rule="nonzero" fill-opacity="1" /><path clip-path="url(#clip190)" d="M1567.85 32.4315 Q1561.85 32.4315 1558.37 37.1306 Q1554.88 41.7891 1554.88 49.9314 Q1554.88 58.0738 1558.33 62.7728 Q1561.81 67.4314 1567.85 67.4314 Q1573.8 67.4314 1577.28 62.7323 Q1580.77 58.0333 1580.77 49.9314 Q1580.77 41.8701 1577.28 37.1711 Q1573.8 32.4315 1567.85 32.4315 M1567.85 26.1121 Q1577.57 26.1121 1583.12 32.4315 Q1588.67 38.7509 1588.67 49.9314 Q1588.67 61.0714 1583.12 67.4314 Q1577.57 73.7508 1567.85 73.7508 Q1558.08 73.7508 1552.53 67.4314 Q1547.02 61.0714 1547.02 49.9314 Q1547.02 38.7509 1552.53 32.4315 Q1558.08 26.1121 1567.85 26.1121 Z" fill="#000000" fill-rule="nonzero" fill-opacity="1" /><path clip-path="url(#clip190)" d="M1638.74 45.1919 L1638.74 72.576 L1631.28 72.576 L1631.28 45.4349 Q1631.28 38.994 1628.77 35.7938 Q1626.26 32.5936 1621.24 32.5936 Q1615.2 32.5936 1611.72 36.4419 Q1608.23 40.2903 1608.23 46.9338 L1608.23 72.576 L1600.74 72.576 L1600.74 27.2059 L1608.23 27.2059 L1608.23 34.2544 Q1610.91 30.163 1614.51 28.1376 Q1618.16 26.1121 1622.9 26.1121 Q1630.72 26.1121 1634.73 30.9732 Q1638.74 35.7938 1638.74 45.1919 Z" fill="#000000" fill-rule="nonzero" fill-opacity="1" /><path clip-path="url(#clip190)" d="M1655.51 62.2867 L1664.05 62.2867 L1664.05 69.2543 L1657.41 82.2172 L1652.19 82.2172 L1655.51 69.2543 L1655.51 62.2867 Z" fill="#000000" fill-rule="nonzero" fill-opacity="1" /><path clip-path="url(#clip190)" d="M1728.59 64.3122 Q1730.04 66.2566 1734.42 66.2566 L1738.02 66.2566 L1738.02 72.576 L1733.53 72.576 Q1726.24 72.576 1722.91 68.6871 Q1719.59 64.7172 1719.59 56.1293 L1719.59 34.6595 L1702.58 34.6595 L1702.58 27.2059 L1744.42 27.2059 L1744.42 34.6595 L1727.21 34.6595 L1727.21 56.5749 Q1727.21 62.4487 1728.59 64.3122 Z" fill="#000000" fill-rule="nonzero" fill-opacity="1" /><path clip-path="url(#clip190)" d="M1783.64 34.9026 L1835.57 34.9026 L1835.57 41.7081 L1783.64 41.7081 L1783.64 34.9026 M1783.64 51.4303 L1835.57 51.4303 L1835.57 58.3168 L1783.64 58.3168 L1783.64 51.4303 Z" fill="#000000" fill-rule="nonzero" fill-opacity="1" /><path clip-path="url(#clip190)" d="M1886.65 65.6895 L1915.21 65.6895 L1915.21 72.576 L1876.81 72.576 L1876.81 65.6895 Q1881.47 60.8689 1889.49 52.7671 Q1897.55 44.6248 1899.61 42.2752 Q1903.54 37.8598 1905.08 34.8216 Q1906.66 31.7429 1906.66 28.7857 Q1906.66 23.9651 1903.26 20.927 Q1899.9 17.8888 1894.47 17.8888 Q1890.62 17.8888 1886.33 19.2256 Q1882.07 20.5624 1877.21 23.2765 L1877.21 15.0127 Q1882.16 13.0277 1886.45 12.015 Q1890.74 11.0023 1894.31 11.0023 Q1903.71 11.0023 1909.3 15.7013 Q1914.89 20.4004 1914.89 28.2591 Q1914.89 31.9859 1913.47 35.3482 Q1912.09 38.6699 1908.41 43.2069 Q1907.39 44.3817 1901.96 50.0125 Q1896.54 55.6027 1886.65 65.6895 Z" fill="#000000" fill-rule="nonzero" fill-opacity="1" /><path clip-path="url(#clip190)" d="M1932.39 62.2867 L1940.93 62.2867 L1940.93 72.576 L1932.39 72.576 L1932.39 62.2867 Z" fill="#000000" fill-rule="nonzero" fill-opacity="1" /><path clip-path="url(#clip190)" d="M1976.26 17.4837 Q1969.94 17.4837 1966.74 23.7221 Q1963.58 29.92 1963.58 42.3968 Q1963.58 54.833 1966.74 61.0714 Q1969.94 67.2693 1976.26 67.2693 Q1982.62 67.2693 1985.78 61.0714 Q1988.98 54.833 1988.98 42.3968 Q1988.98 29.92 1985.78 23.7221 Q1982.62 17.4837 1976.26 17.4837 M1976.26 11.0023 Q1986.43 11.0023 1991.77 19.0636 Q1997.16 27.0843 1997.16 42.3968 Q1997.16 57.6687 1991.77 65.73 Q1986.43 73.7508 1976.26 73.7508 Q1966.09 73.7508 1960.7 65.73 Q1955.36 57.6687 1955.36 42.3968 Q1955.36 27.0843 1960.7 19.0636 Q1966.09 11.0023 1976.26 11.0023 Z" fill="#000000" fill-rule="nonzero" fill-opacity="1" /><polyline clip-path="url(#clip191)" style="stroke:#009af9; stroke-linecap:round; stroke-linejoin:round; stroke-width:4; stroke-opacity:1; fill:none" points="251.315,1433.45 274.513,1454.61 297.712,1475.35 320.91,1495.68 344.109,1515.61 367.307,1535.14 390.506,1554.29 413.704,1573.05 436.903,1591.45 460.101,1609.48 483.299,1627.16 506.498,1642.76 529.696,1654.65 552.895,1662.98 576.093,1667.88 599.292,1669.48 622.49,1667.92 645.689,1663.31 668.887,1655.79 692.086,1645.46 715.284,1632.44 738.482,1616.94 761.681,1599.52 784.879,1580.8 808.078,1561.39 831.276,1541.83 854.475,1522.67 877.673,1504.38 900.872,1487.45 924.07,1472.29 947.269,1459.34 970.467,1448.96 993.665,1441.47 1016.86,1437.05 1040.06,1435.81 1063.26,1437.77 1086.46,1442.84 1109.66,1450.86 1132.86,1461.58 1156.05,1474.68 1179.25,1489.82 1202.45,1506.56 1225.65,1524.41 1248.85,1542.87 1272.05,1561.4 1295.25,1579.52 1318.44,1596.72 1341.64,1612.52 1364.84,1626.47 1388.04,1638.21 1411.24,1647.43 1434.44,1653.87 1457.63,1657.37 1480.83,1657.86 1504.03,1655.32 1527.23,1649.86 1550.43,1641.64 1573.63,1630.9 1596.83,1617.96 1620.02,1603.19 1643.22,1587 1666.42,1569.86 1689.62,1552.26 1712.82,1534.69 1736.02,1517.64 1759.21,1501.57 1782.41,1486.92 1805.61,1474.11 1828.81,1463.47 1852.01,1455.31 1875.21,1449.82 1898.41,1447.15 1921.6,1447.35 1944.8,1450.41 1968,1456.23 1991.2,1464.63 2014.4,1475.34 2037.6,1488.05 2060.79,1502.4 2083.99,1518.01 2107.19,1534.45 2130.39,1551.23 2153.59,1567.87 2176.79,1583.92 2199.99,1598.92 2223.18,1612.45 2246.38,1624.16 2269.58,1633.73 2292.78,1640.92 2315.98,1645.55 2339.18,1647.48 2362.37,1646.65 2385.57,1643.13 2408.77,1637.03 2431.97,1628.55 2455.17,1617.92 2478.37,1605.43 2501.57,1591.45 2524.76,1576.38 2547.96,1560.66 2571.16,1544.72 "/>
<polyline clip-path="url(#clip191)" style="stroke:#e26f46; stroke-linecap:round; stroke-linejoin:round; stroke-width:4; stroke-opacity:1; fill:none" points="251.315,1688.65 274.513,1647.07 297.712,1605.91 320.91,1565.15 344.109,1524.8 367.307,1484.84 390.506,1445.29 413.704,1406.13 436.903,1367.36 460.101,1328.98 483.299,1290.97 506.498,1255.08 529.696,1222.96 552.895,1194.5 576.093,1169.61 599.292,1148.18 622.49,1130.11 645.689,1115.32 668.887,1103.69 692.086,1095.15 715.284,1089.6 738.482,1086.87 761.681,1086.4 784.879,1087.58 808.078,1089.82 831.276,1092.57 854.475,1095.29 877.673,1097.48 900.872,1098.66 924.07,1098.37 947.269,1096.18 970.467,1091.67 993.665,1084.52 1016.86,1074.5 1040.06,1061.47 1063.26,1045.38 1086.46,1026.29 1109.66,1004.32 1132.86,979.702 1156.05,952.71 1179.25,923.691 1202.45,893.043 1225.65,861.244 1248.85,828.808 1272.05,796.244 1295.25,764.056 1318.44,732.746 1341.64,702.812 1364.84,674.717 1388.04,648.848 1411.24,625.542 1434.44,605.071 1457.63,587.629 1480.83,573.325 1504.03,562.183 1527.23,554.146 1550.43,549.073 1573.63,546.745 1596.83,546.867 1620.02,549.086 1643.22,552.996 1666.42,558.152 1689.62,564.064 1712.82,570.23 1736.02,576.163 1759.21,581.392 1782.41,585.461 1805.61,587.938 1828.81,588.457 1852.01,586.703 1875.21,582.434 1898.41,575.486 1921.6,565.773 1944.8,553.286 1968,538.081 1991.2,520.321 2014.4,500.249 2037.6,478.156 2060.79,454.373 2083.99,429.279 2107.19,403.297 2130.39,376.894 2153.59,350.565 2176.79,324.756 2199.99,299.941 2223.18,276.551 2246.38,254.962 2269.58,235.496 2292.78,218.423 2315.98,203.955 2339.18,192.254 2362.37,183.398 2385.57,177.354 2408.77,174.026 2431.97,173.254 2455.17,174.82 2478.37,178.443 2501.57,183.785 2524.76,190.443 2547.96,197.987 2571.16,205.991 "/>
<path clip-path="url(#clip190)" d="M263.687 336.856 L693.919 336.856 L693.919 181.336 L263.687 181.336  Z" fill="#ffffff" fill-rule="evenodd" fill-opacity="1"/>
<polyline clip-path="url(#clip190)" style="stroke:#000000; stroke-linecap:round; stroke-linejoin:round; stroke-width:4; stroke-opacity:1; fill:none" points="263.687,336.856 693.919,336.856 693.919,181.336 263.687,181.336 263.687,336.856 "/>
<polyline clip-path="url(#clip190)" style="stroke:#009af9; stroke-linecap:round; stroke-linejoin:round; stroke-width:4; stroke-opacity:1; fill:none" points="291.01,233.176 454.946,233.176 "/>
<path clip-path="url(#clip190)" d="M487.592 224.531 L491.852 224.531 L491.852 250.919 Q491.852 255.873 489.954 258.095 Q488.079 260.317 483.889 260.317 L482.268 260.317 L482.268 256.706 L483.403 256.706 Q485.833 256.706 486.713 255.572 Q487.592 254.461 487.592 250.919 L487.592 224.531 M487.592 214.438 L491.852 214.438 L491.852 219.831 L487.592 219.831 L487.592 214.438 Z" fill="#000000" fill-rule="nonzero" fill-opacity="1" /><path clip-path="url(#clip190)" d="M500.324 240.225 L500.324 224.531 L504.583 224.531 L504.583 240.063 Q504.583 243.743 506.018 245.595 Q507.453 247.424 510.324 247.424 Q513.773 247.424 515.764 245.225 Q517.777 243.026 517.777 239.229 L517.777 224.531 L522.037 224.531 L522.037 250.456 L517.777 250.456 L517.777 246.475 Q516.227 248.836 514.166 249.993 Q512.129 251.128 509.421 251.128 Q504.953 251.128 502.639 248.35 Q500.324 245.572 500.324 240.225 M511.041 223.906 L511.041 223.906 Z" fill="#000000" fill-rule="nonzero" fill-opacity="1" /><path clip-path="url(#clip190)" d="M527.754 224.531 L532.268 224.531 L540.37 246.29 L548.472 224.531 L552.986 224.531 L543.263 250.456 L537.476 250.456 L527.754 224.531 Z" fill="#000000" fill-rule="nonzero" fill-opacity="1" /><path clip-path="url(#clip190)" d="M581.041 236.429 L581.041 238.512 L561.458 238.512 Q561.736 242.91 564.097 245.225 Q566.481 247.516 570.717 247.516 Q573.171 247.516 575.462 246.915 Q577.777 246.313 580.046 245.109 L580.046 249.137 Q577.754 250.109 575.347 250.618 Q572.939 251.128 570.462 251.128 Q564.259 251.128 560.624 247.516 Q557.013 243.905 557.013 237.748 Q557.013 231.382 560.439 227.655 Q563.888 223.906 569.722 223.906 Q574.953 223.906 577.985 227.285 Q581.041 230.642 581.041 236.429 M576.782 235.179 Q576.735 231.683 574.814 229.6 Q572.916 227.517 569.768 227.517 Q566.203 227.517 564.05 229.53 Q561.921 231.544 561.597 235.202 L576.782 235.179 Z" fill="#000000" fill-rule="nonzero" fill-opacity="1" /><path clip-path="url(#clip190)" d="M609.583 234.808 L609.583 250.456 L605.323 250.456 L605.323 234.947 Q605.323 231.267 603.888 229.438 Q602.453 227.609 599.583 227.609 Q596.134 227.609 594.143 229.808 Q592.152 232.007 592.152 235.804 L592.152 250.456 L587.87 250.456 L587.87 224.531 L592.152 224.531 L592.152 228.558 Q593.68 226.22 595.74 225.063 Q597.823 223.906 600.532 223.906 Q604.999 223.906 607.291 226.683 Q609.583 229.438 609.583 234.808 Z" fill="#000000" fill-rule="nonzero" fill-opacity="1" /><path clip-path="url(#clip190)" d="M618.078 224.531 L622.337 224.531 L622.337 250.456 L618.078 250.456 L618.078 224.531 M618.078 214.438 L622.337 214.438 L622.337 219.831 L618.078 219.831 L618.078 214.438 Z" fill="#000000" fill-rule="nonzero" fill-opacity="1" /><path clip-path="url(#clip190)" d="M631.249 214.438 L635.508 214.438 L635.508 250.456 L631.249 250.456 L631.249 214.438 Z" fill="#000000" fill-rule="nonzero" fill-opacity="1" /><path clip-path="url(#clip190)" d="M666.596 236.429 L666.596 238.512 L647.013 238.512 Q647.291 242.91 649.652 245.225 Q652.036 247.516 656.272 247.516 Q658.726 247.516 661.017 246.915 Q663.332 246.313 665.601 245.109 L665.601 249.137 Q663.309 250.109 660.902 250.618 Q658.494 251.128 656.017 251.128 Q649.814 251.128 646.18 247.516 Q642.568 243.905 642.568 237.748 Q642.568 231.382 645.994 227.655 Q649.443 223.906 655.277 223.906 Q660.508 223.906 663.541 227.285 Q666.596 230.642 666.596 236.429 M662.337 235.179 Q662.291 231.683 660.369 229.6 Q658.471 227.517 655.323 227.517 Q651.758 227.517 649.605 229.53 Q647.476 231.544 647.152 235.202 L662.337 235.179 Z" fill="#000000" fill-rule="nonzero" fill-opacity="1" /><polyline clip-path="url(#clip190)" style="stroke:#e26f46; stroke-linecap:round; stroke-linejoin:round; stroke-width:4; stroke-opacity:1; fill:none" points="291.01,285.016 454.946,285.016 "/>
<path clip-path="url(#clip190)" d="M495.671 289.264 Q490.509 289.264 488.518 290.444 Q486.528 291.625 486.528 294.472 Q486.528 296.741 488.009 298.083 Q489.514 299.403 492.083 299.403 Q495.625 299.403 497.754 296.903 Q499.907 294.38 499.907 290.213 L499.907 289.264 L495.671 289.264 M504.166 287.505 L504.166 302.296 L499.907 302.296 L499.907 298.361 Q498.449 300.722 496.273 301.856 Q494.097 302.968 490.949 302.968 Q486.967 302.968 484.606 300.745 Q482.268 298.5 482.268 294.75 Q482.268 290.375 485.185 288.153 Q488.125 285.931 493.935 285.931 L499.907 285.931 L499.907 285.514 Q499.907 282.574 497.963 280.977 Q496.041 279.357 492.546 279.357 Q490.324 279.357 488.217 279.889 Q486.111 280.421 484.167 281.486 L484.167 277.551 Q486.504 276.648 488.704 276.208 Q490.903 275.746 492.986 275.746 Q498.611 275.746 501.389 278.662 Q504.166 281.579 504.166 287.505 Z" fill="#000000" fill-rule="nonzero" fill-opacity="1" /><path clip-path="url(#clip190)" d="M530 280.306 L530 266.278 L534.259 266.278 L534.259 302.296 L530 302.296 L530 298.407 Q528.657 300.722 526.597 301.856 Q524.56 302.968 521.689 302.968 Q516.99 302.968 514.027 299.218 Q511.088 295.468 511.088 289.357 Q511.088 283.245 514.027 279.495 Q516.99 275.746 521.689 275.746 Q524.56 275.746 526.597 276.88 Q528.657 277.991 530 280.306 M515.486 289.357 Q515.486 294.056 517.407 296.741 Q519.352 299.403 522.731 299.403 Q526.111 299.403 528.055 296.741 Q530 294.056 530 289.357 Q530 284.657 528.055 281.995 Q526.111 279.31 522.731 279.31 Q519.352 279.31 517.407 281.995 Q515.486 284.657 515.486 289.357 Z" fill="#000000" fill-rule="nonzero" fill-opacity="1" /><path clip-path="url(#clip190)" d="M542.592 292.065 L542.592 276.371 L546.851 276.371 L546.851 291.903 Q546.851 295.583 548.287 297.435 Q549.722 299.264 552.592 299.264 Q556.041 299.264 558.032 297.065 Q560.046 294.866 560.046 291.069 L560.046 276.371 L564.305 276.371 L564.305 302.296 L560.046 302.296 L560.046 298.315 Q558.495 300.676 556.435 301.833 Q554.398 302.968 551.689 302.968 Q547.222 302.968 544.907 300.19 Q542.592 297.412 542.592 292.065 M553.31 275.746 L553.31 275.746 Z" fill="#000000" fill-rule="nonzero" fill-opacity="1" /><path clip-path="url(#clip190)" d="M573.078 266.278 L577.337 266.278 L577.337 302.296 L573.078 302.296 L573.078 266.278 Z" fill="#000000" fill-rule="nonzero" fill-opacity="1" /><path clip-path="url(#clip190)" d="M590.462 269.009 L590.462 276.371 L599.235 276.371 L599.235 279.681 L590.462 279.681 L590.462 293.755 Q590.462 296.926 591.319 297.829 Q592.198 298.731 594.86 298.731 L599.235 298.731 L599.235 302.296 L594.86 302.296 Q589.93 302.296 588.055 300.468 Q586.18 298.616 586.18 293.755 L586.18 279.681 L583.055 279.681 L583.055 276.371 L586.18 276.371 L586.18 269.009 L590.462 269.009 Z" fill="#000000" fill-rule="nonzero" fill-opacity="1" /></svg>
