<?xml version="1.0" encoding="utf-8"?>
<svg xmlns="http://www.w3.org/2000/svg" xmlns:xlink="http://www.w3.org/1999/xlink" width="672" height="480" viewBox="0 0 2688 1920">
<defs>
  <clipPath id="clip270">
    <rect x="0" y="0" width="2688" height="1920"/>
  </clipPath>
</defs>
<path clip-path="url(#clip270)" d="M0 1920 L2688 1920 L2688 -4.26326e-14 L0 -4.26326e-14  Z" fill="#ffffff" fill-rule="evenodd" fill-opacity="1"/>
<defs>
  <clipPath id="clip271">
    <rect x="143" y="127" width="2498" height="1607"/>
  </clipPath>
</defs>
<path clip-path="url(#clip270)" d="M143.576 1734.12 L2640.76 1734.12 L2640.76 127.792 L143.576 127.792  Z" fill="#ffffff" fill-rule="evenodd" fill-opacity="1"/>
<polyline clip-path="url(#clip271)" style="stroke:#000000; stroke-linecap:round; stroke-linejoin:round; stroke-width:2; stroke-opacity:0.1; fill:none" points="214.25,1734.12 214.25,127.792 "/>
<polyline clip-path="url(#clip271)" style="stroke:#000000; stroke-linecap:round; stroke-linejoin:round; stroke-width:2; stroke-opacity:0.1; fill:none" points="803.208,1734.12 803.208,127.792 "/>
<polyline clip-path="url(#clip271)" style="stroke:#000000; stroke-linecap:round; stroke-linejoin:round; stroke-width:2; stroke-opacity:0.1; fill:none" points="1392.17,1734.12 1392.17,127.792 "/>
<polyline clip-path="url(#clip271)" style="stroke:#000000; stroke-linecap:round; stroke-linejoin:round; stroke-width:2; stroke-opacity:0.1; fill:none" points="1981.12,1734.12 1981.12,127.792 "/>
<polyline clip-path="url(#clip271)" style="stroke:#000000; stroke-linecap:round; stroke-linejoin:round; stroke-width:2; stroke-opacity:0.1; fill:none" points="2570.08,1734.12 2570.08,127.792 "/>
<polyline clip-path="url(#clip271)" style="stroke:#000000; stroke-linecap:round; stroke-linejoin:round; stroke-width:2; stroke-opacity:0.1; fill:none" points="143.576,1690.88 2640.76,1690.88 "/>
<polyline clip-path="url(#clip271)" style="stroke:#000000; stroke-linecap:round; stroke-linejoin:round; stroke-width:2; stroke-opacity:0.1; fill:none" points="143.576,1243.19 2640.76,1243.19 "/>
<polyline clip-path="url(#clip271)" style="stroke:#000000; stroke-linecap:round; stroke-linejoin:round; stroke-width:2; stroke-opacity:0.1; fill:none" points="143.576,795.491 2640.76,795.491 "/>
<polyline clip-path="url(#clip271)" style="stroke:#000000; stroke-linecap:round; stroke-linejoin:round; stroke-width:2; stroke-opacity:0.1; fill:none" points="143.576,347.795 2640.76,347.795 "/>
<polyline clip-path="url(#clip270)" style="stroke:#000000; stroke-linecap:round; stroke-linejoin:round; stroke-width:4; stroke-opacity:1; fill:none" points="143.576,1734.12 2640.76,1734.12 "/>
<polyline clip-path="url(#clip270)" style="stroke:#000000; stroke-linecap:round; stroke-linejoin:round; stroke-width:4; stroke-opacity:1; fill:none" points="214.25,1734.12 214.25,1715.22 "/>
<polyline clip-path="url(#clip270)" style="stroke:#000000; stroke-linecap:round; stroke-linejoin:round; stroke-width:4; stroke-opacity:1; fill:none" points="803.208,1734.12 803.208,1715.22 "/>
<polyline clip-path="url(#clip270)" style="stroke:#000000; stroke-linecap:round; stroke-linejoin:round; stroke-width:4; stroke-opacity:1; fill:none" points="1392.17,1734.12 1392.17,1715.22 "/>
<polyline clip-path="url(#clip270)" style="stroke:#000000; stroke-linecap:round; stroke-linejoin:round; stroke-width:4; stroke-opacity:1; fill:none" points="1981.12,1734.12 1981.12,1715.22 "/>
<polyline clip-path="url(#clip270)" style="stroke:#000000; stroke-linecap:round; stroke-linejoin:round; stroke-width:4; stroke-opacity:1; fill:none" points="2570.08,1734.12 2570.08,1715.22 "/>
<path clip-path="url(#clip270)" d="M191.635 1767.34 Q188.024 1767.34 186.195 1770.9 Q184.39 1774.45 184.39 1781.58 Q184.39 1788.68 186.195 1792.25 Q188.024 1795.79 191.635 1795.79 Q195.269 1795.79 197.075 1792.25 Q198.903 1788.68 198.903 1781.58 Q198.903 1774.45 197.075 1770.9 Q195.269 1767.34 191.635 1767.34 M191.635 1763.64 Q197.445 1763.64 200.501 1768.24 Q203.579 1772.83 203.579 1781.58 Q203.579 1790.3 200.501 1794.91 Q197.445 1799.49 191.635 1799.49 Q185.825 1799.49 182.746 1794.91 Q179.69 1790.3 179.69 1781.58 Q179.69 1772.83 182.746 1768.24 Q185.825 1763.64 191.635 1763.64 Z" fill="#000000" fill-rule="nonzero" fill-opacity="1" /><path clip-path="url(#clip270)" d="M211.797 1792.94 L216.681 1792.94 L216.681 1798.82 L211.797 1798.82 L211.797 1792.94 Z" fill="#000000" fill-rule="nonzero" fill-opacity="1" /><path clip-path="url(#clip270)" d="M236.866 1767.34 Q233.255 1767.34 231.426 1770.9 Q229.621 1774.45 229.621 1781.58 Q229.621 1788.68 231.426 1792.25 Q233.255 1795.79 236.866 1795.79 Q240.5 1795.79 242.306 1792.25 Q244.135 1788.68 244.135 1781.58 Q244.135 1774.45 242.306 1770.9 Q240.5 1767.34 236.866 1767.34 M236.866 1763.64 Q242.676 1763.64 245.732 1768.24 Q248.81 1772.83 248.81 1781.58 Q248.81 1790.3 245.732 1794.91 Q242.676 1799.49 236.866 1799.49 Q231.056 1799.49 227.977 1794.91 Q224.922 1790.3 224.922 1781.58 Q224.922 1772.83 227.977 1768.24 Q231.056 1763.64 236.866 1763.64 Z" fill="#000000" fill-rule="nonzero" fill-opacity="1" /><path clip-path="url(#clip270)" d="M774.944 1794.89 L791.264 1794.89 L791.264 1798.82 L769.319 1798.82 L769.319 1794.89 Q771.981 1792.13 776.565 1787.5 Q781.171 1782.85 782.352 1781.51 Q784.597 1778.98 785.477 1777.25 Q786.379 1775.49 786.379 1773.8 Q786.379 1771.04 784.435 1769.31 Q782.514 1767.57 779.412 1767.57 Q777.213 1767.57 774.759 1768.34 Q772.329 1769.1 769.551 1770.65 L769.551 1765.93 Q772.375 1764.79 774.829 1764.21 Q777.282 1763.64 779.319 1763.64 Q784.69 1763.64 787.884 1766.32 Q791.079 1769.01 791.079 1773.5 Q791.079 1775.63 790.268 1777.55 Q789.481 1779.45 787.375 1782.04 Q786.796 1782.71 783.694 1785.93 Q780.592 1789.12 774.944 1794.89 Z" fill="#000000" fill-rule="nonzero" fill-opacity="1" /><path clip-path="url(#clip270)" d="M801.078 1792.94 L805.963 1792.94 L805.963 1798.82 L801.078 1798.82 L801.078 1792.94 Z" fill="#000000" fill-rule="nonzero" fill-opacity="1" /><path clip-path="url(#clip270)" d="M816.194 1764.26 L834.551 1764.26 L834.551 1768.2 L820.477 1768.2 L820.477 1776.67 Q821.495 1776.32 822.514 1776.16 Q823.532 1775.97 824.551 1775.97 Q830.338 1775.97 833.717 1779.15 Q837.097 1782.32 837.097 1787.73 Q837.097 1793.31 833.625 1796.41 Q830.152 1799.49 823.833 1799.49 Q821.657 1799.49 819.389 1799.12 Q817.143 1798.75 814.736 1798.01 L814.736 1793.31 Q816.819 1794.45 819.041 1795 Q821.264 1795.56 823.74 1795.56 Q827.745 1795.56 830.083 1793.45 Q832.421 1791.34 832.421 1787.73 Q832.421 1784.12 830.083 1782.02 Q827.745 1779.91 823.74 1779.91 Q821.865 1779.91 819.99 1780.33 Q818.139 1780.74 816.194 1781.62 L816.194 1764.26 Z" fill="#000000" fill-rule="nonzero" fill-opacity="1" /><path clip-path="url(#clip270)" d="M1359.33 1764.26 L1377.69 1764.26 L1377.69 1768.2 L1363.61 1768.2 L1363.61 1776.67 Q1364.63 1776.32 1365.65 1776.16 Q1366.67 1775.97 1367.69 1775.97 Q1373.47 1775.97 1376.85 1779.15 Q1380.23 1782.32 1380.23 1787.73 Q1380.23 1793.31 1376.76 1796.41 Q1373.29 1799.49 1366.97 1799.49 Q1364.79 1799.49 1362.52 1799.12 Q1360.28 1798.75 1357.87 1798.01 L1357.87 1793.31 Q1359.96 1794.45 1362.18 1795 Q1364.4 1795.56 1366.88 1795.56 Q1370.88 1795.56 1373.22 1793.45 Q1375.56 1791.34 1375.56 1787.73 Q1375.56 1784.12 1373.22 1782.02 Q1370.88 1779.91 1366.88 1779.91 Q1365 1779.91 1363.13 1780.33 Q1361.27 1780.74 1359.33 1781.62 L1359.33 1764.26 Z" fill="#000000" fill-rule="nonzero" fill-opacity="1" /><path clip-path="url(#clip270)" d="M1389.45 1792.94 L1394.33 1792.94 L1394.33 1798.82 L1389.45 1798.82 L1389.45 1792.94 Z" fill="#000000" fill-rule="nonzero" fill-opacity="1" /><path clip-path="url(#clip270)" d="M1414.52 1767.34 Q1410.9 1767.34 1409.08 1770.9 Q1407.27 1774.45 1407.27 1781.58 Q1407.27 1788.68 1409.08 1792.25 Q1410.9 1795.79 1414.52 1795.79 Q1418.15 1795.79 1419.95 1792.25 Q1421.78 1788.68 1421.78 1781.58 Q1421.78 1774.45 1419.95 1770.9 Q1418.15 1767.34 1414.52 1767.34 M1414.52 1763.64 Q1420.33 1763.64 1423.38 1768.24 Q1426.46 1772.83 1426.46 1781.58 Q1426.46 1790.3 1423.38 1794.91 Q1420.33 1799.49 1414.52 1799.49 Q1408.7 1799.49 1405.63 1794.91 Q1402.57 1790.3 1402.57 1781.58 Q1402.57 1772.83 1405.63 1768.24 Q1408.7 1763.64 1414.52 1763.64 Z" fill="#000000" fill-rule="nonzero" fill-opacity="1" /><path clip-path="url(#clip270)" d="M1947.44 1764.26 L1969.67 1764.26 L1969.67 1766.25 L1957.12 1798.82 L1952.23 1798.82 L1964.04 1768.2 L1947.44 1768.2 L1947.44 1764.26 Z" fill="#000000" fill-rule="nonzero" fill-opacity="1" /><path clip-path="url(#clip270)" d="M1978.79 1792.94 L1983.67 1792.94 L1983.67 1798.82 L1978.79 1798.82 L1978.79 1792.94 Z" fill="#000000" fill-rule="nonzero" fill-opacity="1" /><path clip-path="url(#clip270)" d="M1993.9 1764.26 L2012.26 1764.26 L2012.26 1768.2 L1998.18 1768.2 L1998.18 1776.67 Q1999.2 1776.32 2000.22 1776.16 Q2001.24 1775.97 2002.26 1775.97 Q2008.04 1775.97 2011.42 1779.15 Q2014.8 1782.32 2014.8 1787.73 Q2014.8 1793.31 2011.33 1796.41 Q2007.86 1799.49 2001.54 1799.49 Q1999.36 1799.49 1997.1 1799.12 Q1994.85 1798.75 1992.44 1798.01 L1992.44 1793.31 Q1994.53 1794.45 1996.75 1795 Q1998.97 1795.56 2001.45 1795.56 Q2005.45 1795.56 2007.79 1793.45 Q2010.13 1791.34 2010.13 1787.73 Q2010.13 1784.12 2007.79 1782.02 Q2005.45 1779.91 2001.45 1779.91 Q1999.57 1779.91 1997.7 1780.33 Q1995.85 1780.74 1993.9 1781.62 L1993.9 1764.26 Z" fill="#000000" fill-rule="nonzero" fill-opacity="1" /><path clip-path="url(#clip270)" d="M2522.15 1794.89 L2529.79 1794.89 L2529.79 1768.52 L2521.48 1770.19 L2521.48 1765.93 L2529.75 1764.26 L2534.42 1764.26 L2534.42 1794.89 L2542.06 1794.89 L2542.06 1798.82 L2522.15 1798.82 L2522.15 1794.89 Z" fill="#000000" fill-rule="nonzero" fill-opacity="1" /><path clip-path="url(#clip270)" d="M2561.5 1767.34 Q2557.89 1767.34 2556.06 1770.9 Q2554.26 1774.45 2554.26 1781.58 Q2554.26 1788.68 2556.06 1792.25 Q2557.89 1795.79 2561.5 1795.79 Q2565.14 1795.79 2566.94 1792.25 Q2568.77 1788.68 2568.77 1781.58 Q2568.77 1774.45 2566.94 1770.9 Q2565.14 1767.34 2561.5 1767.34 M2561.5 1763.64 Q2567.31 1763.64 2570.37 1768.24 Q2573.45 1772.83 2573.45 1781.58 Q2573.45 1790.3 2570.37 1794.91 Q2567.31 1799.49 2561.5 1799.49 Q2555.69 1799.49 2552.62 1794.91 Q2549.56 1790.3 2549.56 1781.58 Q2549.56 1772.83 2552.62 1768.24 Q2555.69 1763.64 2561.5 1763.64 Z" fill="#000000" fill-rule="nonzero" fill-opacity="1" /><path clip-path="url(#clip270)" d="M2581.67 1792.94 L2586.55 1792.94 L2586.55 1798.82 L2581.67 1798.82 L2581.67 1792.94 Z" fill="#000000" fill-rule="nonzero" fill-opacity="1" /><path clip-path="url(#clip270)" d="M2606.74 1767.34 Q2603.12 1767.34 2601.3 1770.9 Q2599.49 1774.45 2599.49 1781.58 Q2599.49 1788.68 2601.3 1792.25 Q2603.12 1795.79 2606.74 1795.79 Q2610.37 1795.79 2612.18 1792.25 Q2614 1788.68 2614 1781.58 Q2614 1774.45 2612.18 1770.9 Q2610.37 1767.34 2606.74 1767.34 M2606.74 1763.64 Q2612.55 1763.64 2615.6 1768.24 Q2618.68 1772.83 2618.68 1781.58 Q2618.68 1790.3 2615.6 1794.91 Q2612.55 1799.49 2606.74 1799.49 Q2600.93 1799.49 2597.85 1794.91 Q2594.79 1790.3 2594.79 1781.58 Q2594.79 1772.83 2597.85 1768.24 Q2600.93 1763.64 2606.74 1763.64 Z" fill="#000000" fill-rule="nonzero" fill-opacity="1" /><path clip-path="url(#clip270)" d="M1331.33 1837.53 L1331.33 1847.65 L1343.39 1847.65 L1343.39 1852.2 L1331.33 1852.2 L1331.33 1871.56 Q1331.33 1875.92 1332.5 1877.16 Q1333.71 1878.4 1337.37 1878.4 L1343.39 1878.4 L1343.39 1883.3 L1337.37 1883.3 Q1330.59 1883.3 1328.02 1880.79 Q1325.44 1878.24 1325.44 1871.56 L1325.44 1852.2 L1321.14 1852.2 L1321.14 1847.65 L1325.44 1847.65 L1325.44 1837.53 L1331.33 1837.53 Z" fill="#000000" fill-rule="nonzero" fill-opacity="1" /><path clip-path="url(#clip270)" d="M1351.09 1847.65 L1356.95 1847.65 L1356.95 1883.3 L1351.09 1883.3 L1351.09 1847.65 M1351.09 1833.78 L1356.95 1833.78 L1356.95 1841.19 L1351.09 1841.19 L1351.09 1833.78 Z" fill="#000000" fill-rule="nonzero" fill-opacity="1" /><path clip-path="url(#clip270)" d="M1396.96 1854.5 Q1399.15 1850.55 1402.21 1848.67 Q1405.26 1846.79 1409.4 1846.79 Q1414.97 1846.79 1417.99 1850.71 Q1421.02 1854.59 1421.02 1861.78 L1421.02 1883.3 L1415.13 1883.3 L1415.13 1861.98 Q1415.13 1856.85 1413.32 1854.37 Q1411.5 1851.89 1407.78 1851.89 Q1403.23 1851.89 1400.58 1854.91 Q1397.94 1857.93 1397.94 1863.15 L1397.94 1883.3 L1392.05 1883.3 L1392.05 1861.98 Q1392.05 1856.82 1390.24 1854.37 Q1388.43 1851.89 1384.64 1851.89 Q1380.15 1851.89 1377.51 1854.94 Q1374.87 1857.97 1374.87 1863.15 L1374.87 1883.3 L1368.98 1883.3 L1368.98 1847.65 L1374.87 1847.65 L1374.87 1853.19 Q1376.87 1849.91 1379.67 1848.35 Q1382.47 1846.79 1386.33 1846.79 Q1390.21 1846.79 1392.91 1848.77 Q1395.65 1850.74 1396.96 1854.5 Z" fill="#000000" fill-rule="nonzero" fill-opacity="1" /><path clip-path="url(#clip270)" d="M1463.19 1864.01 L1463.19 1866.88 L1436.26 1866.88 Q1436.65 1872.92 1439.89 1876.11 Q1443.17 1879.26 1449 1879.26 Q1452.37 1879.26 1455.52 1878.43 Q1458.7 1877.6 1461.82 1875.95 L1461.82 1881.49 Q1458.67 1882.82 1455.36 1883.52 Q1452.05 1884.22 1448.65 1884.22 Q1440.12 1884.22 1435.12 1879.26 Q1430.15 1874.29 1430.15 1865.83 Q1430.15 1857.07 1434.86 1851.95 Q1439.61 1846.79 1447.63 1846.79 Q1454.82 1846.79 1458.99 1851.44 Q1463.19 1856.06 1463.19 1864.01 M1457.33 1862.29 Q1457.27 1857.49 1454.63 1854.62 Q1452.02 1851.76 1447.69 1851.76 Q1442.79 1851.76 1439.83 1854.53 Q1436.9 1857.3 1436.46 1862.33 L1457.33 1862.29 Z" fill="#000000" fill-rule="nonzero" fill-opacity="1" /><polyline clip-path="url(#clip270)" style="stroke:#000000; stroke-linecap:round; stroke-linejoin:round; stroke-width:4; stroke-opacity:1; fill:none" points="143.576,1734.12 143.576,127.792 "/>
<polyline clip-path="url(#clip270)" style="stroke:#000000; stroke-linecap:round; stroke-linejoin:round; stroke-width:4; stroke-opacity:1; fill:none" points="143.576,1690.88 162.473,1690.88 "/>
<polyline clip-path="url(#clip270)" style="stroke:#000000; stroke-linecap:round; stroke-linejoin:round; stroke-width:4; stroke-opacity:1; fill:none" points="143.576,1243.19 162.473,1243.19 "/>
<polyline clip-path="url(#clip270)" style="stroke:#000000; stroke-linecap:round; stroke-linejoin:round; stroke-width:4; stroke-opacity:1; fill:none" points="143.576,795.491 162.473,795.491 "/>
<polyline clip-path="url(#clip270)" style="stroke:#000000; stroke-linecap:round; stroke-linejoin:round; stroke-width:4; stroke-opacity:1; fill:none" points="143.576,347.795 162.473,347.795 "/>
<path clip-path="url(#clip270)" d="M91.3112 1676.68 Q87.7001 1676.68 85.8714 1680.25 Q84.0658 1683.79 84.0658 1690.92 Q84.0658 1698.03 85.8714 1701.59 Q87.7001 1705.13 91.3112 1705.13 Q94.9454 1705.13 96.7509 1701.59 Q98.5796 1698.03 98.5796 1690.92 Q98.5796 1683.79 96.7509 1680.25 Q94.9454 1676.68 91.3112 1676.68 M91.3112 1672.98 Q97.1213 1672.98 100.177 1677.59 Q103.256 1682.17 103.256 1690.92 Q103.256 1699.65 100.177 1704.25 Q97.1213 1708.84 91.3112 1708.84 Q85.501 1708.84 82.4223 1704.25 Q79.3668 1699.65 79.3668 1690.92 Q79.3668 1682.17 82.4223 1677.59 Q85.501 1672.98 91.3112 1672.98 Z" fill="#000000" fill-rule="nonzero" fill-opacity="1" /><path clip-path="url(#clip270)" d="M51.9595 1256.53 L59.5984 1256.53 L59.5984 1230.17 L51.2882 1231.83 L51.2882 1227.57 L59.5521 1225.91 L64.228 1225.91 L64.228 1256.53 L71.8668 1256.53 L71.8668 1260.47 L51.9595 1260.47 L51.9595 1256.53 Z" fill="#000000" fill-rule="nonzero" fill-opacity="1" /><path clip-path="url(#clip270)" d="M91.3112 1228.99 Q87.7001 1228.99 85.8714 1232.55 Q84.0658 1236.09 84.0658 1243.22 Q84.0658 1250.33 85.8714 1253.89 Q87.7001 1257.44 91.3112 1257.44 Q94.9454 1257.44 96.7509 1253.89 Q98.5796 1250.33 98.5796 1243.22 Q98.5796 1236.09 96.7509 1232.55 Q94.9454 1228.99 91.3112 1228.99 M91.3112 1225.28 Q97.1213 1225.28 100.177 1229.89 Q103.256 1234.47 103.256 1243.22 Q103.256 1251.95 100.177 1256.56 Q97.1213 1261.14 91.3112 1261.14 Q85.501 1261.14 82.4223 1256.56 Q79.3668 1251.95 79.3668 1243.22 Q79.3668 1234.47 82.4223 1229.89 Q85.501 1225.28 91.3112 1225.28 Z" fill="#000000" fill-rule="nonzero" fill-opacity="1" /><path clip-path="url(#clip270)" d="M55.1771 808.836 L71.4965 808.836 L71.4965 812.771 L49.5521 812.771 L49.5521 808.836 Q52.2141 806.081 56.7975 801.452 Q61.4039 796.799 62.5845 795.456 Q64.8298 792.933 65.7094 791.197 Q66.6122 789.438 66.6122 787.748 Q66.6122 784.993 64.6678 783.257 Q62.7465 781.521 59.6447 781.521 Q57.4456 781.521 54.9919 782.285 Q52.5614 783.049 49.7836 784.6 L49.7836 779.878 Q52.6077 778.743 55.0614 778.165 Q57.515 777.586 59.5521 777.586 Q64.9224 777.586 68.1168 780.271 Q71.3113 782.956 71.3113 787.447 Q71.3113 789.577 70.5011 791.498 Q69.7141 793.396 67.6076 795.989 Q67.0289 796.66 63.927 799.878 Q60.8252 803.072 55.1771 808.836 Z" fill="#000000" fill-rule="nonzero" fill-opacity="1" /><path clip-path="url(#clip270)" d="M91.3112 781.29 Q87.7001 781.29 85.8714 784.855 Q84.0658 788.396 84.0658 795.526 Q84.0658 802.632 85.8714 806.197 Q87.7001 809.739 91.3112 809.739 Q94.9454 809.739 96.7509 806.197 Q98.5796 802.632 98.5796 795.526 Q98.5796 788.396 96.7509 784.855 Q94.9454 781.29 91.3112 781.29 M91.3112 777.586 Q97.1213 777.586 100.177 782.193 Q103.256 786.776 103.256 795.526 Q103.256 804.253 100.177 808.859 Q97.1213 813.442 91.3112 813.442 Q85.501 813.442 82.4223 808.859 Q79.3668 804.253 79.3668 795.526 Q79.3668 786.776 82.4223 782.193 Q85.501 777.586 91.3112 777.586 Z" fill="#000000" fill-rule="nonzero" fill-opacity="1" /><path clip-path="url(#clip270)" d="M65.3159 346.44 Q68.6724 347.158 70.5474 349.427 Q72.4455 351.695 72.4455 355.028 Q72.4455 360.144 68.927 362.945 Q65.4085 365.746 58.9271 365.746 Q56.7512 365.746 54.4364 365.306 Q52.1447 364.889 49.691 364.033 L49.691 359.519 Q51.6354 360.653 53.9503 361.232 Q56.2651 361.811 58.7882 361.811 Q63.1863 361.811 65.478 360.075 Q67.7928 358.339 67.7928 355.028 Q67.7928 351.973 65.64 350.26 Q63.5104 348.524 59.691 348.524 L55.6632 348.524 L55.6632 344.681 L59.8761 344.681 Q63.3252 344.681 65.1539 343.316 Q66.9826 341.927 66.9826 339.334 Q66.9826 336.672 65.0845 335.26 Q63.2095 333.825 59.691 333.825 Q57.7697 333.825 55.5706 334.241 Q53.3715 334.658 50.7327 335.538 L50.7327 331.371 Q53.3947 330.63 55.7095 330.26 Q58.0475 329.89 60.1076 329.89 Q65.4317 329.89 68.5335 332.32 Q71.6353 334.728 71.6353 338.848 Q71.6353 341.718 69.9918 343.709 Q68.3483 345.677 65.3159 346.44 Z" fill="#000000" fill-rule="nonzero" fill-opacity="1" /><path clip-path="url(#clip270)" d="M91.3112 333.593 Q87.7001 333.593 85.8714 337.158 Q84.0658 340.7 84.0658 347.829 Q84.0658 354.936 85.8714 358.501 Q87.7001 362.042 91.3112 362.042 Q94.9454 362.042 96.7509 358.501 Q98.5796 354.936 98.5796 347.829 Q98.5796 340.7 96.7509 337.158 Q94.9454 333.593 91.3112 333.593 M91.3112 329.89 Q97.1213 329.89 100.177 334.496 Q103.256 339.079 103.256 347.829 Q103.256 356.556 100.177 361.163 Q97.1213 365.746 91.3112 365.746 Q85.501 365.746 82.4223 361.163 Q79.3668 356.556 79.3668 347.829 Q79.3668 339.079 82.4223 334.496 Q85.501 329.89 91.3112 329.89 Z" fill="#000000" fill-rule="nonzero" fill-opacity="1" /><path clip-path="url(#clip270)" d="M959.489 18.8205 L959.489 41.5461 L969.778 41.5461 Q975.49 41.5461 978.609 38.5889 Q981.728 35.6318 981.728 30.163 Q981.728 24.7348 978.609 21.7777 Q975.49 18.8205 969.778 18.8205 L959.489 18.8205 M951.306 12.096 L969.778 12.096 Q979.946 12.096 985.131 16.714 Q990.357 21.2916 990.357 30.163 Q990.357 39.1155 985.131 43.6931 Q979.946 48.2706 969.778 48.2706 L959.489 48.2706 L959.489 72.576 L951.306 72.576 L951.306 12.096 Z" fill="#000000" fill-rule="nonzero" fill-opacity="1" /><path clip-path="url(#clip270)" d="M1036.86 48.0275 L1036.86 51.6733 L1002.59 51.6733 Q1003.08 59.3701 1007.21 63.421 Q1011.38 67.4314 1018.79 67.4314 Q1023.09 67.4314 1027.1 66.3781 Q1031.15 65.3249 1035.12 63.2184 L1035.12 70.267 Q1031.11 71.9684 1026.9 72.8596 Q1022.68 73.7508 1018.35 73.7508 Q1007.49 73.7508 1001.13 67.4314 Q994.813 61.1119 994.813 50.3365 Q994.813 39.1965 1000.81 32.6746 Q1006.84 26.1121 1017.05 26.1121 Q1026.21 26.1121 1031.51 32.0264 Q1036.86 37.9003 1036.86 48.0275 M1029.41 45.84 Q1029.33 39.7232 1025.96 36.0774 Q1022.64 32.4315 1017.13 32.4315 Q1010.89 32.4315 1007.13 35.9558 Q1003.4 39.4801 1002.83 45.8805 L1029.41 45.84 Z" fill="#000000" fill-rule="nonzero" fill-opacity="1" /><path clip-path="url(#clip270)" d="M1075.39 34.1734 Q1074.13 33.4443 1072.63 33.1202 Q1071.17 32.7556 1069.39 32.7556 Q1063.07 32.7556 1059.67 36.8875 Q1056.31 40.9789 1056.31 48.6757 L1056.31 72.576 L1048.81 72.576 L1048.81 27.2059 L1056.31 27.2059 L1056.31 34.2544 Q1058.65 30.1225 1062.42 28.1376 Q1066.19 26.1121 1071.58 26.1121 Q1072.35 26.1121 1073.28 26.2337 Q1074.21 26.3147 1075.34 26.5172 L1075.39 34.1734 Z" fill="#000000" fill-rule="nonzero" fill-opacity="1" /><path clip-path="url(#clip270)" d="M1083.2 27.2059 L1090.66 27.2059 L1090.66 72.576 L1083.2 72.576 L1083.2 27.2059 M1083.2 9.54393 L1090.66 9.54393 L1090.66 18.9825 L1083.2 18.9825 L1083.2 9.54393 Z" fill="#000000" fill-rule="nonzero" fill-opacity="1" /><path clip-path="url(#clip270)" d="M1123.83 32.4315 Q1117.84 32.4315 1114.35 37.1306 Q1110.87 41.7891 1110.87 49.9314 Q1110.87 58.0738 1114.31 62.7728 Q1117.8 67.4314 1123.83 67.4314 Q1129.79 67.4314 1133.27 62.7323 Q1136.76 58.0333 1136.76 49.9314 Q1136.76 41.8701 1133.27 37.1711 Q1129.79 32.4315 1123.83 32.4315 M1123.83 26.1121 Q1133.56 26.1121 1139.11 32.4315 Q1144.66 38.7509 1144.66 49.9314 Q1144.66 61.0714 1139.11 67.4314 Q1133.56 73.7508 1123.83 73.7508 Q1114.07 73.7508 1108.52 67.4314 Q1103.01 61.0714 1103.01 49.9314 Q1103.01 38.7509 1108.52 32.4315 Q1114.07 26.1121 1123.83 26.1121 Z" fill="#000000" fill-rule="nonzero" fill-opacity="1" /><path clip-path="url(#clip270)" d="M1186.87 34.0924 L1186.87 9.54393 L1194.32 9.54393 L1194.32 72.576 L1186.87 72.576 L1186.87 65.7705 Q1184.52 69.8214 1180.91 71.8063 Q1177.35 73.7508 1172.32 73.7508 Q1164.1 73.7508 1158.91 67.1883 Q1153.77 60.6258 1153.77 49.9314 Q1153.77 39.2371 1158.91 32.6746 Q1164.1 26.1121 1172.32 26.1121 Q1177.35 26.1121 1180.91 28.0971 Q1184.52 30.0415 1186.87 34.0924 M1161.47 49.9314 Q1161.47 58.1548 1164.83 62.8538 Q1168.23 67.5124 1174.15 67.5124 Q1180.06 67.5124 1183.46 62.8538 Q1186.87 58.1548 1186.87 49.9314 Q1186.87 41.7081 1183.46 37.0496 Q1180.06 32.3505 1174.15 32.3505 Q1168.23 32.3505 1164.83 37.0496 Q1161.47 41.7081 1161.47 49.9314 Z" fill="#000000" fill-rule="nonzero" fill-opacity="1" /><path clip-path="url(#clip270)" d="M1209.67 27.2059 L1217.13 27.2059 L1217.13 72.576 L1209.67 72.576 L1209.67 27.2059 M1209.67 9.54393 L1217.13 9.54393 L1217.13 18.9825 L1209.67 18.9825 L1209.67 9.54393 Z" fill="#000000" fill-rule="nonzero" fill-opacity="1" /><path clip-path="url(#clip270)" d="M1265.37 28.9478 L1265.37 35.9153 Q1262.21 34.1734 1259.01 33.3227 Q1255.85 32.4315 1252.61 32.4315 Q1245.36 32.4315 1241.35 37.0496 Q1237.34 41.6271 1237.34 49.9314 Q1237.34 58.2358 1241.35 62.8538 Q1245.36 67.4314 1252.61 67.4314 Q1255.85 67.4314 1259.01 66.5807 Q1262.21 65.6895 1265.37 63.9476 L1265.37 70.8341 Q1262.25 72.2924 1258.89 73.0216 Q1255.57 73.7508 1251.8 73.7508 Q1241.55 73.7508 1235.52 67.3098 Q1229.48 60.8689 1229.48 49.9314 Q1229.48 38.832 1235.56 32.472 Q1241.67 26.1121 1252.29 26.1121 Q1255.73 26.1121 1259.01 26.8413 Q1262.29 27.5299 1265.37 28.9478 Z" fill="#000000" fill-rule="nonzero" fill-opacity="1" /><path clip-path="url(#clip270)" d="M1325.33 49.7694 Q1316.29 49.7694 1312.81 51.8354 Q1309.32 53.9013 1309.32 58.8839 Q1309.32 62.8538 1311.92 65.2034 Q1314.55 67.5124 1319.05 67.5124 Q1325.24 67.5124 1328.97 63.1374 Q1332.74 58.7219 1332.74 51.4303 L1332.74 49.7694 L1325.33 49.7694 M1340.19 46.6907 L1340.19 72.576 L1332.74 72.576 L1332.74 65.6895 Q1330.19 69.8214 1326.38 71.8063 Q1322.57 73.7508 1317.06 73.7508 Q1310.09 73.7508 1305.96 69.8619 Q1301.87 65.9325 1301.87 59.3701 Q1301.87 51.7138 1306.98 47.825 Q1312.12 43.9361 1322.29 43.9361 L1332.74 43.9361 L1332.74 43.2069 Q1332.74 38.0623 1329.34 35.2672 Q1325.97 32.4315 1319.86 32.4315 Q1315.97 32.4315 1312.28 33.3632 Q1308.6 34.295 1305.19 36.1584 L1305.19 29.2718 Q1309.28 27.692 1313.13 26.9223 Q1316.98 26.1121 1320.63 26.1121 Q1330.47 26.1121 1335.33 31.2163 Q1340.19 36.3204 1340.19 46.6907 Z" fill="#000000" fill-rule="nonzero" fill-opacity="1" /><path clip-path="url(#clip270)" d="M1385.4 34.0924 L1385.4 9.54393 L1392.85 9.54393 L1392.85 72.576 L1385.4 72.576 L1385.4 65.7705 Q1383.05 69.8214 1379.45 71.8063 Q1375.88 73.7508 1370.86 73.7508 Q1362.63 73.7508 1357.45 67.1883 Q1352.3 60.6258 1352.3 49.9314 Q1352.3 39.2371 1357.45 32.6746 Q1362.63 26.1121 1370.86 26.1121 Q1375.88 26.1121 1379.45 28.0971 Q1383.05 30.0415 1385.4 34.0924 M1360 49.9314 Q1360 58.1548 1363.36 62.8538 Q1366.77 67.5124 1372.68 67.5124 Q1378.6 67.5124 1382 62.8538 Q1385.4 58.1548 1385.4 49.9314 Q1385.4 41.7081 1382 37.0496 Q1378.6 32.3505 1372.68 32.3505 Q1366.77 32.3505 1363.36 37.0496 Q1360 41.7081 1360 49.9314 Z" fill="#000000" fill-rule="nonzero" fill-opacity="1" /><path clip-path="url(#clip270)" d="M1407.44 54.671 L1407.44 27.2059 L1414.89 27.2059 L1414.89 54.3874 Q1414.89 60.8284 1417.4 64.0691 Q1419.91 67.2693 1424.94 67.2693 Q1430.97 67.2693 1434.46 63.421 Q1437.98 59.5726 1437.98 52.9291 L1437.98 27.2059 L1445.44 27.2059 L1445.44 72.576 L1437.98 72.576 L1437.98 65.6084 Q1435.27 69.7404 1431.66 71.7658 Q1428.1 73.7508 1423.36 73.7508 Q1415.54 73.7508 1411.49 68.8897 Q1407.44 64.0286 1407.44 54.671 M1426.19 26.1121 L1426.19 26.1121 Z" fill="#000000" fill-rule="nonzero" fill-opacity="1" /><path clip-path="url(#clip270)" d="M1460.79 9.54393 L1468.24 9.54393 L1468.24 72.576 L1460.79 72.576 L1460.79 9.54393 Z" fill="#000000" fill-rule="nonzero" fill-opacity="1" /><path clip-path="url(#clip270)" d="M1491.21 14.324 L1491.21 27.2059 L1506.56 27.2059 L1506.56 32.9987 L1491.21 32.9987 L1491.21 57.6282 Q1491.21 63.1779 1492.71 64.7578 Q1494.25 66.3376 1498.91 66.3376 L1506.56 66.3376 L1506.56 72.576 L1498.91 72.576 Q1490.28 72.576 1487 69.3758 Q1483.72 66.1351 1483.72 57.6282 L1483.72 32.9987 L1478.25 32.9987 L1478.25 27.2059 L1483.72 27.2059 L1483.72 14.324 L1491.21 14.324 Z" fill="#000000" fill-rule="nonzero" fill-opacity="1" /><path clip-path="url(#clip270)" d="M1569.03 34.1734 Q1567.77 33.4443 1566.27 33.1202 Q1564.82 32.7556 1563.03 32.7556 Q1556.71 32.7556 1553.31 36.8875 Q1549.95 40.9789 1549.95 48.6757 L1549.95 72.576 L1542.45 72.576 L1542.45 27.2059 L1549.95 27.2059 L1549.95 34.2544 Q1552.3 30.1225 1556.07 28.1376 Q1559.83 26.1121 1565.22 26.1121 Q1565.99 26.1121 1566.92 26.2337 Q1567.85 26.3147 1568.99 26.5172 L1569.03 34.1734 Z" fill="#000000" fill-rule="nonzero" fill-opacity="1" /><path clip-path="url(#clip270)" d="M1613.83 48.0275 L1613.83 51.6733 L1579.56 51.6733 Q1580.05 59.3701 1584.18 63.421 Q1588.35 67.4314 1595.76 67.4314 Q1600.06 67.4314 1604.07 66.3781 Q1608.12 65.3249 1612.09 63.2184 L1612.09 70.267 Q1608.08 71.9684 1603.87 72.8596 Q1599.65 73.7508 1595.32 73.7508 Q1584.46 73.7508 1578.1 67.4314 Q1571.78 61.1119 1571.78 50.3365 Q1571.78 39.1965 1577.78 32.6746 Q1583.81 26.1121 1594.02 26.1121 Q1603.18 26.1121 1608.48 32.0264 Q1613.83 37.9003 1613.83 48.0275 M1606.38 45.84 Q1606.3 39.7232 1602.93 36.0774 Q1599.61 32.4315 1594.1 32.4315 Q1587.86 32.4315 1584.1 35.9558 Q1580.37 39.4801 1579.8 45.8805 L1606.38 45.84 Z" fill="#000000" fill-rule="nonzero" fill-opacity="1" /><path clip-path="url(#clip270)" d="M1626.06 9.54393 L1633.52 9.54393 L1633.52 72.576 L1626.06 72.576 L1626.06 9.54393 Z" fill="#000000" fill-rule="nonzero" fill-opacity="1" /><path clip-path="url(#clip270)" d="M1687.92 48.0275 L1687.92 51.6733 L1653.65 51.6733 Q1654.14 59.3701 1658.27 63.421 Q1662.44 67.4314 1669.86 67.4314 Q1674.15 67.4314 1678.16 66.3781 Q1682.21 65.3249 1686.18 63.2184 L1686.18 70.267 Q1682.17 71.9684 1677.96 72.8596 Q1673.74 73.7508 1669.41 73.7508 Q1658.55 73.7508 1652.19 67.4314 Q1645.87 61.1119 1645.87 50.3365 Q1645.87 39.1965 1651.87 32.6746 Q1657.91 26.1121 1668.11 26.1121 Q1677.27 26.1121 1682.58 32.0264 Q1687.92 37.9003 1687.92 48.0275 M1680.47 45.84 Q1680.39 39.7232 1677.03 36.0774 Q1673.7 32.4315 1668.19 32.4315 Q1661.96 32.4315 1658.19 35.9558 Q1654.46 39.4801 1653.89 45.8805 L1680.47 45.84 Z" fill="#000000" fill-rule="nonzero" fill-opacity="1" /><path clip-path="url(#clip270)" d="M1720.78 49.7694 Q1711.74 49.7694 1708.26 51.8354 Q1704.77 53.9013 1704.77 58.8839 Q1704.77 62.8538 1707.37 65.2034 Q1710 67.5124 1714.5 67.5124 Q1720.69 67.5124 1724.42 63.1374 Q1728.19 58.7219 1728.19 51.4303 L1728.19 49.7694 L1720.78 49.7694 M1735.64 46.6907 L1735.64 72.576 L1728.19 72.576 L1728.19 65.6895 Q1725.64 69.8214 1721.83 71.8063 Q1718.02 73.7508 1712.51 73.7508 Q1705.54 73.7508 1701.41 69.8619 Q1697.32 65.9325 1697.32 59.3701 Q1697.32 51.7138 1702.42 47.825 Q1707.57 43.9361 1717.74 43.9361 L1728.19 43.9361 L1728.19 43.2069 Q1728.19 38.0623 1724.79 35.2672 Q1721.42 32.4315 1715.31 32.4315 Q1711.42 32.4315 1707.73 33.3632 Q1704.04 34.295 1700.64 36.1584 L1700.64 29.2718 Q1704.73 27.692 1708.58 26.9223 Q1712.43 26.1121 1716.08 26.1121 Q1725.92 26.1121 1730.78 31.2163 Q1735.64 36.3204 1735.64 46.6907 Z" fill="#000000" fill-rule="nonzero" fill-opacity="1" /><path clip-path="url(#clip270)" d="M1779.92 28.5427 L1779.92 35.5912 Q1776.76 33.9709 1773.36 33.1607 Q1769.95 32.3505 1766.31 32.3505 Q1760.76 32.3505 1757.96 34.0519 Q1755.21 35.7533 1755.21 39.156 Q1755.21 41.7486 1757.19 43.2475 Q1759.18 44.7058 1765.17 46.0426 L1767.73 46.6097 Q1775.66 48.3111 1778.99 51.4303 Q1782.35 54.509 1782.35 60.0587 Q1782.35 66.3781 1777.33 70.0644 Q1772.34 73.7508 1763.59 73.7508 Q1759.95 73.7508 1755.98 73.0216 Q1752.05 72.3329 1747.67 70.9151 L1747.67 63.2184 Q1751.81 65.3654 1755.82 66.4591 Q1759.83 67.5124 1763.76 67.5124 Q1769.02 67.5124 1771.86 65.73 Q1774.69 63.9071 1774.69 60.6258 Q1774.69 57.5877 1772.63 55.9673 Q1770.6 54.3469 1763.67 52.8481 L1761.08 52.2405 Q1754.15 50.7821 1751.08 47.7845 Q1748 44.7463 1748 39.4801 Q1748 33.0797 1752.53 29.5959 Q1757.07 26.1121 1765.42 26.1121 Q1769.55 26.1121 1773.19 26.7198 Q1776.84 27.3274 1779.92 28.5427 Z" fill="#000000" fill-rule="nonzero" fill-opacity="1" /><path clip-path="url(#clip270)" d="M1833.03 48.0275 L1833.03 51.6733 L1798.75 51.6733 Q1799.24 59.3701 1803.37 63.421 Q1807.55 67.4314 1814.96 67.4314 Q1819.25 67.4314 1823.26 66.3781 Q1827.31 65.3249 1831.28 63.2184 L1831.28 70.267 Q1827.27 71.9684 1823.06 72.8596 Q1818.85 73.7508 1814.51 73.7508 Q1803.66 73.7508 1797.3 67.4314 Q1790.98 61.1119 1790.98 50.3365 Q1790.98 39.1965 1796.97 32.6746 Q1803.01 26.1121 1813.22 26.1121 Q1822.37 26.1121 1827.68 32.0264 Q1833.03 37.9003 1833.03 48.0275 M1825.57 45.84 Q1825.49 39.7232 1822.13 36.0774 Q1818.81 32.4315 1813.3 32.4315 Q1807.06 32.4315 1803.29 35.9558 Q1799.57 39.4801 1799 45.8805 L1825.57 45.84 Z" fill="#000000" fill-rule="nonzero" fill-opacity="1" /><polyline clip-path="url(#clip271)" style="stroke:#009af9; stroke-linecap:round; stroke-linejoin:round; stroke-width:4; stroke-opacity:1; fill:none" points="214.25,1646.11 237.809,1647.44 261.367,1648.72 284.925,1649.97 308.484,1651.18 332.042,1652.35 355.6,1653.49 379.159,1654.59 402.717,1655.67 426.275,1656.71 449.834,1657.72 473.392,1658.7 496.95,1659.65 520.508,1660.57 544.067,1661.47 567.625,1662.34 591.183,1663.18 614.742,1664 638.3,1664.79 661.858,1665.57 685.417,1666.31 708.975,1667.04 732.533,1667.74 756.091,1668.43 779.65,1669.09 803.208,1669.74 826.766,1670.36 850.325,1670.97 873.883,1671.56 897.441,1672.13 921,1672.68 944.558,1673.22 968.116,1673.74 991.675,1674.25 1015.23,1674.74 1038.79,1675.22 1062.35,1675.68 1085.91,1676.13 1109.47,1676.57 1133.02,1676.99 1156.58,1677.4 1180.14,1677.8 1203.7,1678.18 1227.26,1678.56 1250.82,1678.92 1274.37,1679.28 1297.93,1679.62 1321.49,1679.95 1345.05,1680.28 1368.61,1680.59 1392.17,1680.89 1415.72,1681.19 1439.28,1681.48 1462.84,1681.75 1486.4,1682.02 1509.96,1682.29 1533.52,1682.54 1557.07,1682.79 1580.63,1683.03 1604.19,1683.26 1627.75,1683.48 1651.31,1683.7 1674.87,1683.91 1698.42,1684.12 1721.98,1684.32 1745.54,1684.51 1769.1,1684.7 1792.66,1684.89 1816.22,1685.06 1839.77,1685.23 1863.33,1685.4 1886.89,1685.56 1910.45,1685.72 1934.01,1685.87 1957.57,1686.02 1981.12,1686.17 2004.68,1686.3 2028.24,1686.44 2051.8,1686.57 2075.36,1686.7 2098.91,1686.82 2122.47,1686.94 2146.03,1687.06 2169.59,1687.17 2193.15,1687.28 2216.71,1687.39 2240.26,1687.49 2263.82,1687.59 2287.38,1687.69 2310.94,1687.78 2334.5,1687.88 2358.06,1687.96 2381.61,1688.05 2405.17,1688.13 2428.73,1688.22 2452.29,1688.29 2475.85,1688.37 2499.41,1688.45 2522.96,1688.52 2546.52,1688.59 2570.08,1688.65 "/>
<polyline clip-path="url(#clip271)" style="stroke:#e26f46; stroke-linecap:round; stroke-linejoin:round; stroke-width:4; stroke-opacity:1; fill:none" points="214.25,1646.11 237.809,1645.68 261.367,1645.28 284.925,1644.91 308.484,1644.56 332.042,1644.25 355.6,1643.95 379.159,1643.69 402.717,1643.45 426.275,1643.23 449.834,1643.03 449.834,1419.18 473.392,1421.24 496.95,1423.29 520.508,1425.34 544.067,1427.39 567.625,1429.43 591.183,1431.47 614.742,1433.51 638.3,1435.55 661.858,1437.58 685.417,1439.6 685.417,1215.75 708.975,1220 732.533,1224.21 756.091,1228.4 779.65,1232.57 803.208,1236.7 826.766,1240.8 850.325,1244.88 873.883,1248.93 897.441,1252.95 921,1256.94 921,1033.09 944.558,1039.28 968.116,1045.41 991.675,1051.5 1015.23,1057.54 1038.79,1063.52 1062.35,1069.46 1085.91,1075.34 1109.47,1081.18 1133.02,1086.96 1156.58,1092.7 1156.58,868.852 1180.14,876.767 1203.7,884.611 1227.26,892.384 1250.82,900.088 1274.37,907.722 1297.93,915.287 1321.49,922.784 1345.05,930.212 1368.61,937.573 1392.17,944.867 1392.17,721.018 1415.72,730.473 1439.28,739.839 1462.84,749.118 1486.4,758.309 1509.96,767.415 1533.52,776.435 1557.07,785.371 1580.63,794.222 1604.19,802.99 1627.75,811.675 1627.75,587.827 1651.31,598.657 1674.87,609.384 1698.42,620.009 1721.98,630.531 1745.54,640.953 1769.1,651.276 1792.66,661.499 1816.22,671.624 1839.77,681.651 1863.33,691.583 1863.33,467.734 1886.89,479.797 1910.45,491.744 1934.01,503.574 1957.57,515.29 1981.12,526.892 2004.68,538.381 2028.24,549.759 2051.8,561.026 2075.36,572.184 2098.91,583.233 2098.91,359.385 2122.47,372.554 2146.03,385.594 2169.59,398.507 2193.15,411.294 2216.71,423.955 2240.26,436.493 2263.82,448.908 2287.38,461.201 2310.94,473.374 2334.5,485.428 2334.5,261.58 2358.06,275.742 2381.61,289.766 2405.17,303.652 2428.73,317.401 2452.29,331.015 2475.85,344.495 2499.41,357.843 2522.96,371.059 2546.52,384.145 2570.08,397.102 2570.08,173.254 "/>
<path clip-path="url(#clip270)" d="M226.815 336.856 L660.861 336.856 L660.861 181.336 L226.815 181.336  Z" fill="#ffffff" fill-rule="evenodd" fill-opacity="1"/>
<polyline clip-path="url(#clip270)" style="stroke:#000000; stroke-linecap:round; stroke-linejoin:round; stroke-width:4; stroke-opacity:1; fill:none" points="226.815,336.856 660.861,336.856 660.861,181.336 226.815,181.336 226.815,336.856 "/>
<polyline clip-path="url(#clip270)" style="stroke:#009af9; stroke-linecap:round; stroke-linejoin:round; stroke-width:4; stroke-opacity:1; fill:none" points="254.561,233.176 421.04,233.176 "/>
<path clip-path="url(#clip270)" d="M454.111 224.531 L458.37 224.531 L458.37 250.919 Q458.37 255.873 456.472 258.095 Q454.597 260.317 450.407 260.317 L448.786 260.317 L448.786 256.706 L449.921 256.706 Q452.351 256.706 453.231 255.572 Q454.111 254.461 454.111 250.919 L454.111 224.531 M454.111 214.438 L458.37 214.438 L458.37 219.831 L454.111 219.831 L454.111 214.438 Z" fill="#000000" fill-rule="nonzero" fill-opacity="1" /><path clip-path="url(#clip270)" d="M466.842 240.225 L466.842 224.531 L471.101 224.531 L471.101 240.063 Q471.101 243.743 472.536 245.595 Q473.972 247.424 476.842 247.424 Q480.291 247.424 482.282 245.225 Q484.296 243.026 484.296 239.229 L484.296 224.531 L488.555 224.531 L488.555 250.456 L484.296 250.456 L484.296 246.475 Q482.745 248.836 480.684 249.993 Q478.647 251.128 475.939 251.128 Q471.472 251.128 469.157 248.35 Q466.842 245.572 466.842 240.225 M477.559 223.906 L477.559 223.906 Z" fill="#000000" fill-rule="nonzero" fill-opacity="1" /><path clip-path="url(#clip270)" d="M494.272 224.531 L498.786 224.531 L506.888 246.29 L514.99 224.531 L519.504 224.531 L509.782 250.456 L503.995 250.456 L494.272 224.531 Z" fill="#000000" fill-rule="nonzero" fill-opacity="1" /><path clip-path="url(#clip270)" d="M547.559 236.429 L547.559 238.512 L527.976 238.512 Q528.254 242.91 530.615 245.225 Q532.999 247.516 537.235 247.516 Q539.689 247.516 541.98 246.915 Q544.295 246.313 546.564 245.109 L546.564 249.137 Q544.272 250.109 541.865 250.618 Q539.457 251.128 536.98 251.128 Q530.777 251.128 527.143 247.516 Q523.531 243.905 523.531 237.748 Q523.531 231.382 526.957 227.655 Q530.406 223.906 536.24 223.906 Q541.471 223.906 544.504 227.285 Q547.559 230.642 547.559 236.429 M543.3 235.179 Q543.254 231.683 541.332 229.6 Q539.434 227.517 536.286 227.517 Q532.721 227.517 530.568 229.53 Q528.439 231.544 528.115 235.202 L543.3 235.179 Z" fill="#000000" fill-rule="nonzero" fill-opacity="1" /><path clip-path="url(#clip270)" d="M576.101 234.808 L576.101 250.456 L571.841 250.456 L571.841 234.947 Q571.841 231.267 570.406 229.438 Q568.971 227.609 566.101 227.609 Q562.652 227.609 560.661 229.808 Q558.67 232.007 558.67 235.804 L558.67 250.456 L554.388 250.456 L554.388 224.531 L558.67 224.531 L558.67 228.558 Q560.198 226.22 562.258 225.063 Q564.341 223.906 567.05 223.906 Q571.517 223.906 573.809 226.683 Q576.101 229.438 576.101 234.808 Z" fill="#000000" fill-rule="nonzero" fill-opacity="1" /><path clip-path="url(#clip270)" d="M584.596 224.531 L588.855 224.531 L588.855 250.456 L584.596 250.456 L584.596 224.531 M584.596 214.438 L588.855 214.438 L588.855 219.831 L584.596 219.831 L584.596 214.438 Z" fill="#000000" fill-rule="nonzero" fill-opacity="1" /><path clip-path="url(#clip270)" d="M597.767 214.438 L602.026 214.438 L602.026 250.456 L597.767 250.456 L597.767 214.438 Z" fill="#000000" fill-rule="nonzero" fill-opacity="1" /><path clip-path="url(#clip270)" d="M633.114 236.429 L633.114 238.512 L613.531 238.512 Q613.809 242.91 616.17 245.225 Q618.554 247.516 622.79 247.516 Q625.244 247.516 627.536 246.915 Q629.85 246.313 632.119 245.109 L632.119 249.137 Q629.827 250.109 627.42 250.618 Q625.012 251.128 622.536 251.128 Q616.332 251.128 612.698 247.516 Q609.087 243.905 609.087 237.748 Q609.087 231.382 612.512 227.655 Q615.962 223.906 621.795 223.906 Q627.026 223.906 630.059 227.285 Q633.114 230.642 633.114 236.429 M628.855 235.179 Q628.809 231.683 626.887 229.6 Q624.989 227.517 621.841 227.517 Q618.276 227.517 616.124 229.53 Q613.994 231.544 613.67 235.202 L628.855 235.179 Z" fill="#000000" fill-rule="nonzero" fill-opacity="1" /><polyline clip-path="url(#clip270)" style="stroke:#e26f46; stroke-linecap:round; stroke-linejoin:round; stroke-width:4; stroke-opacity:1; fill:none" points="254.561,285.016 421.04,285.016 "/>
<path clip-path="url(#clip270)" d="M462.189 289.264 Q457.027 289.264 455.036 290.444 Q453.046 291.625 453.046 294.472 Q453.046 296.741 454.527 298.083 Q456.032 299.403 458.601 299.403 Q462.143 299.403 464.273 296.903 Q466.425 294.38 466.425 290.213 L466.425 289.264 L462.189 289.264 M470.685 287.505 L470.685 302.296 L466.425 302.296 L466.425 298.361 Q464.967 300.722 462.791 301.856 Q460.615 302.968 457.467 302.968 Q453.486 302.968 451.124 300.745 Q448.786 298.5 448.786 294.75 Q448.786 290.375 451.703 288.153 Q454.643 285.931 460.453 285.931 L466.425 285.931 L466.425 285.514 Q466.425 282.574 464.481 280.977 Q462.56 279.357 459.064 279.357 Q456.842 279.357 454.736 279.889 Q452.629 280.421 450.685 281.486 L450.685 277.551 Q453.023 276.648 455.222 276.208 Q457.421 275.746 459.504 275.746 Q465.129 275.746 467.907 278.662 Q470.685 281.579 470.685 287.505 Z" fill="#000000" fill-rule="nonzero" fill-opacity="1" /><path clip-path="url(#clip270)" d="M496.518 280.306 L496.518 266.278 L500.777 266.278 L500.777 302.296 L496.518 302.296 L496.518 298.407 Q495.175 300.722 493.115 301.856 Q491.078 302.968 488.208 302.968 Q483.509 302.968 480.546 299.218 Q477.606 295.468 477.606 289.357 Q477.606 283.245 480.546 279.495 Q483.509 275.746 488.208 275.746 Q491.078 275.746 493.115 276.88 Q495.175 277.991 496.518 280.306 M482.004 289.357 Q482.004 294.056 483.925 296.741 Q485.87 299.403 489.249 299.403 Q492.629 299.403 494.573 296.741 Q496.518 294.056 496.518 289.357 Q496.518 284.657 494.573 281.995 Q492.629 279.31 489.249 279.31 Q485.87 279.31 483.925 281.995 Q482.004 284.657 482.004 289.357 Z" fill="#000000" fill-rule="nonzero" fill-opacity="1" /><path clip-path="url(#clip270)" d="M509.11 292.065 L509.11 276.371 L513.369 276.371 L513.369 291.903 Q513.369 295.583 514.805 297.435 Q516.24 299.264 519.11 299.264 Q522.559 299.264 524.55 297.065 Q526.564 294.866 526.564 291.069 L526.564 276.371 L530.823 276.371 L530.823 302.296 L526.564 302.296 L526.564 298.315 Q525.013 300.676 522.953 301.833 Q520.916 302.968 518.207 302.968 Q513.74 302.968 511.425 300.19 Q509.11 297.412 509.11 292.065 M519.828 275.746 L519.828 275.746 Z" fill="#000000" fill-rule="nonzero" fill-opacity="1" /><path clip-path="url(#clip270)" d="M539.596 266.278 L543.855 266.278 L543.855 302.296 L539.596 302.296 L539.596 266.278 Z" fill="#000000" fill-rule="nonzero" fill-opacity="1" /><path clip-path="url(#clip270)" d="M556.98 269.009 L556.98 276.371 L565.753 276.371 L565.753 279.681 L556.98 279.681 L556.98 293.755 Q556.98 296.926 557.837 297.829 Q558.716 298.731 561.378 298.731 L565.753 298.731 L565.753 302.296 L561.378 302.296 Q556.448 302.296 554.573 300.468 Q552.698 298.616 552.698 293.755 L552.698 279.681 L549.573 279.681 L549.573 276.371 L552.698 276.371 L552.698 269.009 L556.98 269.009 Z" fill="#000000" fill-rule="nonzero" fill-opacity="1" /></svg>
