<?xml version="1.0" encoding="utf-8"?>
<svg xmlns="http://www.w3.org/2000/svg" xmlns:xlink="http://www.w3.org/1999/xlink" width="672" height="480" viewBox="0 0 2688 1920">
<defs>
  <clipPath id="clip300">
    <rect x="0" y="0" width="2688" height="1920"/>
  </clipPath>
</defs>
<path clip-path="url(#clip300)" d="M0 1920 L2688 1920 L2688 -4.26326e-14 L0 -4.26326e-14  Z" fill="#ffffff" fill-rule="evenodd" fill-opacity="1"/>
<defs>
  <clipPath id="clip301">
    <rect x="143" y="127" width="2498" height="1607"/>
  </clipPath>
</defs>
<path clip-path="url(#clip300)" d="M143.576 1734.12 L2640.76 1734.12 L2640.76 127.792 L143.576 127.792  Z" fill="#ffffff" fill-rule="evenodd" fill-opacity="1"/>
<polyline clip-path="url(#clip301)" style="stroke:#000000; stroke-linecap:round; stroke-linejoin:round; stroke-width:2; stroke-opacity:0.1; fill:none" points="214.25,1734.12 214.25,127.792 "/>
<polyline clip-path="url(#clip301)" style="stroke:#000000; stroke-linecap:round; stroke-linejoin:round; stroke-width:2; stroke-opacity:0.1; fill:none" points="803.208,1734.12 803.208,127.792 "/>
<polyline clip-path="url(#clip301)" style="stroke:#000000; stroke-linecap:round; stroke-linejoin:round; stroke-width:2; stroke-opacity:0.1; fill:none" points="1392.17,1734.12 1392.17,127.792 "/>
<polyline clip-path="url(#clip301)" style="stroke:#000000; stroke-linecap:round; stroke-linejoin:round; stroke-width:2; stroke-opacity:0.1; fill:none" points="1981.12,1734.12 1981.12,127.792 "/>
<polyline clip-path="url(#clip301)" style="stroke:#000000; stroke-linecap:round; stroke-linejoin:round; stroke-width:2; stroke-opacity:0.1; fill:none" points="2570.08,1734.12 2570.08,127.792 "/>
<polyline clip-path="url(#clip301)" style="stroke:#000000; stroke-linecap:round; stroke-linejoin:round; stroke-width:2; stroke-opacity:0.1; fill:none" points="143.576,1688.65 2640.76,1688.65 "/>
<polyline clip-path="url(#clip301)" style="stroke:#000000; stroke-linecap:round; stroke-linejoin:round; stroke-width:2; stroke-opacity:0.1; fill:none" points="143.576,1311.42 2640.76,1311.42 "/>
<polyline clip-path="url(#clip301)" style="stroke:#000000; stroke-linecap:round; stroke-linejoin:round; stroke-width:2; stroke-opacity:0.1; fill:none" points="143.576,934.176 2640.76,934.176 "/>
<polyline clip-path="url(#clip301)" style="stroke:#000000; stroke-linecap:round; stroke-linejoin:round; stroke-width:2; stroke-opacity:0.1; fill:none" points="143.576,556.937 2640.76,556.937 "/>
<polyline clip-path="url(#clip301)" style="stroke:#000000; stroke-linecap:round; stroke-linejoin:round; stroke-width:2; stroke-opacity:0.1; fill:none" points="143.576,179.698 2640.76,179.698 "/>
<polyline clip-path="url(#clip300)" style="stroke:#000000; stroke-linecap:round; stroke-linejoin:round; stroke-width:4; stroke-opacity:1; fill:none" points="143.576,1734.12 2640.76,1734.12 "/>
<polyline clip-path="url(#clip300)" style="stroke:#000000; stroke-linecap:round; stroke-linejoin:round; stroke-width:4; stroke-opacity:1; fill:none" points="214.25,1734.12 214.25,1715.22 "/>
<polyline clip-path="url(#clip300)" style="stroke:#000000; stroke-linecap:round; stroke-linejoin:round; stroke-width:4; stroke-opacity:1; fill:none" points="803.208,1734.12 803.208,1715.22 "/>
<polyline clip-path="url(#clip300)" style="stroke:#000000; stroke-linecap:round; stroke-linejoin:round; stroke-width:4; stroke-opacity:1; fill:none" points="1392.17,1734.12 1392.17,1715.22 "/>
<polyline clip-path="url(#clip300)" style="stroke:#000000; stroke-linecap:round; stroke-linejoin:round; stroke-width:4; stroke-opacity:1; fill:none" points="1981.12,1734.12 1981.12,1715.22 "/>
<polyline clip-path="url(#clip300)" style="stroke:#000000; stroke-linecap:round; stroke-linejoin:round; stroke-width:4; stroke-opacity:1; fill:none" points="2570.08,1734.12 2570.08,1715.22 "/>
<path clip-path="url(#clip300)" d="M191.635 1767.34 Q188.024 1767.34 186.195 1770.9 Q184.39 1774.45 184.39 1781.58 Q184.39 1788.68 186.195 1792.25 Q188.024 1795.79 191.635 1795.79 Q195.269 1795.79 197.075 1792.25 Q198.903 1788.68 198.903 1781.58 Q198.903 1774.45 197.075 1770.9 Q195.269 1767.34 191.635 1767.34 M191.635 1763.64 Q197.445 1763.64 200.501 1768.24 Q203.579 1772.83 203.579 1781.58 Q203.579 1790.3 200.501 1794.91 Q197.445 1799.49 191.635 1799.49 Q185.825 1799.49 182.746 1794.91 Q179.69 1790.3 179.69 1781.58 Q179.69 1772.83 182.746 1768.24 Q185.825 1763.64 191.635 1763.64 Z" fill="#000000" fill-rule="nonzero" fill-opacity="1" /><path clip-path="url(#clip300)" d="M211.797 1792.94 L216.681 1792.94 L216.681 1798.82 L211.797 1798.82 L211.797 1792.94 Z" fill="#000000" fill-rule="nonzero" fill-opacity="1" /><path clip-path="url(#clip300)" d="M236.866 1767.34 Q233.255 1767.34 231.426 1770.9 Q229.621 1774.45 229.621 1781.58 Q229.621 1788.68 231.426 1792.25 Q233.255 1795.79 236.866 1795.79 Q240.5 1795.79 242.306 1792.25 Q244.135 1788.68 244.135 1781.58 Q244.135 1774.45 242.306 1770.9 Q240.5 1767.34 236.866 1767.34 M236.866 1763.64 Q242.676 1763.64 245.732 1768.24 Q248.81 1772.83 248.81 1781.58 Q248.81 1790.3 245.732 1794.91 Q242.676 1799.49 236.866 1799.49 Q231.056 1799.49 227.977 1794.91 Q224.922 1790.3 224.922 1781.58 Q224.922 1772.83 227.977 1768.24 Q231.056 1763.64 236.866 1763.64 Z" fill="#000000" fill-rule="nonzero" fill-opacity="1" /><path clip-path="url(#clip300)" d="M774.944 1794.89 L791.264 1794.89 L791.264 1798.82 L769.319 1798.82 L769.319 1794.89 Q771.981 1792.13 776.565 1787.5 Q781.171 1782.85 782.352 1781.51 Q784.597 1778.98 785.477 1777.25 Q786.379 1775.49 786.379 1773.8 Q786.379 1771.04 784.435 1769.31 Q782.514 1767.57 779.412 1767.57 Q777.213 1767.57 774.759 1768.34 Q772.329 1769.1 769.551 1770.65 L769.551 1765.93 Q772.375 1764.79 774.829 1764.21 Q777.282 1763.64 779.319 1763.64 Q784.69 1763.64 787.884 1766.32 Q791.079 1769.01 791.079 1773.5 Q791.079 1775.63 790.268 1777.55 Q789.481 1779.45 787.375 1782.04 Q786.796 1782.71 783.694 1785.93 Q780.592 1789.12 774.944 1794.89 Z" fill="#000000" fill-rule="nonzero" fill-opacity="1" /><path clip-path="url(#clip300)" d="M801.078 1792.94 L805.963 1792.94 L805.963 1798.82 L801.078 1798.82 L801.078 1792.94 Z" fill="#000000" fill-rule="nonzero" fill-opacity="1" /><path clip-path="url(#clip300)" d="M816.194 1764.26 L834.551 1764.26 L834.551 1768.2 L820.477 1768.2 L820.477 1776.67 Q821.495 1776.32 822.514 1776.16 Q823.532 1775.97 824.551 1775.97 Q830.338 1775.97 833.717 1779.15 Q837.097 1782.32 837.097 1787.73 Q837.097 1793.31 833.625 1796.41 Q830.152 1799.49 823.833 1799.49 Q821.657 1799.49 819.389 1799.12 Q817.143 1798.75 814.736 1798.01 L814.736 1793.31 Q816.819 1794.45 819.041 1795 Q821.264 1795.56 823.74 1795.56 Q827.745 1795.56 830.083 1793.45 Q832.421 1791.34 832.421 1787.73 Q832.421 1784.12 830.083 1782.02 Q827.745 1779.91 823.74 1779.91 Q821.865 1779.91 819.99 1780.33 Q818.139 1780.74 816.194 1781.62 L816.194 1764.26 Z" fill="#000000" fill-rule="nonzero" fill-opacity="1" /><path clip-path="url(#clip300)" d="M1359.33 1764.26 L1377.69 1764.26 L1377.69 1768.2 L1363.61 1768.2 L1363.61 1776.67 Q1364.63 1776.32 1365.65 1776.16 Q1366.67 1775.97 1367.69 1775.97 Q1373.47 1775.97 1376.85 1779.15 Q1380.23 1782.32 1380.23 1787.73 Q1380.23 1793.31 1376.76 1796.41 Q1373.29 1799.49 1366.97 1799.49 Q1364.79 1799.49 1362.52 1799.12 Q1360.28 1798.75 1357.87 1798.01 L1357.87 1793.31 Q1359.96 1794.45 1362.18 1795 Q1364.4 1795.56 1366.88 1795.56 Q1370.88 1795.56 1373.22 1793.45 Q1375.56 1791.34 1375.56 1787.73 Q1375.56 1784.12 1373.22 1782.02 Q1370.88 1779.91 1366.88 1779.91 Q1365 1779.91 1363.13 1780.33 Q1361.27 1780.74 1359.33 1781.62 L1359.33 1764.26 Z" fill="#000000" fill-rule="nonzero" fill-opacity="1" /><path clip-path="url(#clip300)" d="M1389.45 1792.94 L1394.33 1792.94 L1394.33 1798.82 L1389.45 1798.82 L1389.45 1792.94 Z" fill="#000000" fill-rule="nonzero" fill-opacity="1" /><path clip-path="url(#clip300)" d="M1414.52 1767.34 Q1410.9 1767.34 1409.08 1770.9 Q1407.27 1774.45 1407.27 1781.58 Q1407.27 1788.68 1409.08 1792.25 Q1410.9 1795.79 1414.52 1795.79 Q1418.15 1795.79 1419.95 1792.25 Q1421.78 1788.68 1421.78 1781.58 Q1421.78 1774.45 1419.95 1770.9 Q1418.15 1767.34 1414.52 1767.34 M1414.52 1763.64 Q1420.33 1763.64 1423.38 1768.24 Q1426.46 1772.83 1426.46 1781.58 Q1426.46 1790.3 1423.38 1794.91 Q1420.33 1799.49 1414.52 1799.49 Q1408.7 1799.49 1405.63 1794.91 Q1402.57 1790.3 1402.57 1781.58 Q1402.57 1772.83 1405.63 1768.24 Q1408.7 1763.64 1414.52 1763.64 Z" fill="#000000" fill-rule="nonzero" fill-opacity="1" /><path clip-path="url(#clip300)" d="M1947.44 1764.26 L1969.67 1764.26 L1969.67 1766.25 L1957.12 1798.82 L1952.23 1798.82 L1964.04 1768.2 L1947.44 1768.2 L1947.44 1764.26 Z" fill="#000000" fill-rule="nonzero" fill-opacity="1" /><path clip-path="url(#clip300)" d="M1978.79 1792.94 L1983.67 1792.94 L1983.67 1798.82 L1978.79 1798.82 L1978.79 1792.94 Z" fill="#000000" fill-rule="nonzero" fill-opacity="1" /><path clip-path="url(#clip300)" d="M1993.9 1764.26 L2012.26 1764.26 L2012.26 1768.2 L1998.18 1768.2 L1998.18 1776.67 Q1999.2 1776.32 2000.22 1776.16 Q2001.24 1775.97 2002.26 1775.97 Q2008.04 1775.97 2011.42 1779.15 Q2014.8 1782.32 2014.8 1787.73 Q2014.8 1793.31 2011.33 1796.41 Q2007.86 1799.49 2001.54 1799.49 Q1999.36 1799.49 1997.1 1799.12 Q1994.85 1798.75 1992.44 1798.01 L1992.44 1793.31 Q1994.53 1794.45 1996.75 1795 Q1998.97 1795.56 2001.45 1795.56 Q2005.45 1795.56 2007.79 1793.45 Q2010.13 1791.34 2010.13 1787.73 Q2010.13 1784.12 2007.79 1782.02 Q2005.45 1779.91 2001.45 1779.91 Q1999.57 1779.91 1997.7 1780.33 Q1995.85 1780.74 1993.9 1781.62 L1993.9 1764.26 Z" fill="#000000" fill-rule="nonzero" fill-opacity="1" /><path clip-path="url(#clip300)" d="M2522.15 1794.89 L2529.79 1794.89 L2529.79 1768.52 L2521.48 1770.19 L2521.48 1765.93 L2529.75 1764.26 L2534.42 1764.26 L2534.42 1794.89 L2542.06 1794.89 L2542.06 1798.82 L2522.15 1798.82 L2522.15 1794.89 Z" fill="#000000" fill-rule="nonzero" fill-opacity="1" /><path clip-path="url(#clip300)" d="M2561.5 1767.34 Q2557.89 1767.34 2556.06 1770.9 Q2554.26 1774.45 2554.26 1781.58 Q2554.26 1788.68 2556.06 1792.25 Q2557.89 1795.79 2561.5 1795.79 Q2565.14 1795.79 2566.94 1792.25 Q2568.77 1788.68 2568.77 1781.58 Q2568.77 1774.45 2566.94 1770.9 Q2565.14 1767.34 2561.5 1767.34 M2561.5 1763.64 Q2567.31 1763.64 2570.37 1768.24 Q2573.45 1772.83 2573.45 1781.58 Q2573.45 1790.3 2570.37 1794.91 Q2567.31 1799.49 2561.5 1799.49 Q2555.69 1799.49 2552.62 1794.91 Q2549.56 1790.3 2549.56 1781.58 Q2549.56 1772.83 2552.62 1768.24 Q2555.69 1763.64 2561.5 1763.64 Z" fill="#000000" fill-rule="nonzero" fill-opacity="1" /><path clip-path="url(#clip300)" d="M2581.67 1792.94 L2586.55 1792.94 L2586.55 1798.82 L2581.67 1798.82 L2581.67 1792.94 Z" fill="#000000" fill-rule="nonzero" fill-opacity="1" /><path clip-path="url(#clip300)" d="M2606.74 1767.34 Q2603.12 1767.34 2601.3 1770.9 Q2599.49 1774.45 2599.49 1781.58 Q2599.49 1788.68 2601.3 1792.25 Q2603.12 1795.79 2606.74 1795.79 Q2610.37 1795.79 2612.18 1792.25 Q2614 1788.68 2614 1781.58 Q2614 1774.45 2612.18 1770.9 Q2610.37 1767.34 2606.74 1767.34 M2606.74 1763.64 Q2612.55 1763.64 2615.6 1768.24 Q2618.68 1772.83 2618.68 1781.58 Q2618.68 1790.3 2615.6 1794.91 Q2612.55 1799.49 2606.74 1799.49 Q2600.93 1799.49 2597.85 1794.91 Q2594.79 1790.3 2594.79 1781.58 Q2594.79 1772.83 2597.85 1768.24 Q2600.93 1763.64 2606.74 1763.64 Z" fill="#000000" fill-rule="nonzero" fill-opacity="1" /><path clip-path="url(#clip300)" d="M1331.33 1837.53 L1331.33 1847.65 L1343.39 1847.65 L1343.39 1852.2 L1331.33 1852.2 L1331.33 1871.56 Q1331.33 1875.92 1332.5 1877.16 Q1333.71 1878.4 1337.37 1878.4 L1343.39 1878.4 L1343.39 1883.3 L1337.37 1883.3 Q1330.59 1883.3 1328.02 1880.79 Q1325.44 1878.24 1325.44 1871.56 L1325.44 1852.2 L1321.14 1852.2 L1321.14 1847.65 L1325.44 1847.65 L1325.44 1837.53 L1331.33 1837.53 Z" fill="#000000" fill-rule="nonzero" fill-opacity="1" /><path clip-path="url(#clip300)" d="M1351.09 1847.65 L1356.95 1847.65 L1356.95 1883.3 L1351.09 1883.3 L1351.09 1847.65 M1351.09 1833.78 L1356.95 1833.78 L1356.95 1841.19 L1351.09 1841.19 L1351.09 1833.78 Z" fill="#000000" fill-rule="nonzero" fill-opacity="1" /><path clip-path="url(#clip300)" d="M1396.96 1854.5 Q1399.15 1850.55 1402.21 1848.67 Q1405.26 1846.79 1409.4 1846.79 Q1414.97 1846.79 1417.99 1850.71 Q1421.02 1854.59 1421.02 1861.78 L1421.02 1883.3 L1415.13 1883.3 L1415.13 1861.98 Q1415.13 1856.85 1413.32 1854.37 Q1411.5 1851.89 1407.78 1851.89 Q1403.23 1851.89 1400.58 1854.91 Q1397.94 1857.93 1397.94 1863.15 L1397.94 1883.3 L1392.05 1883.3 L1392.05 1861.98 Q1392.05 1856.82 1390.24 1854.37 Q1388.43 1851.89 1384.64 1851.89 Q1380.15 1851.89 1377.51 1854.94 Q1374.87 1857.97 1374.87 1863.15 L1374.87 1883.3 L1368.98 1883.3 L1368.98 1847.65 L1374.87 1847.65 L1374.87 1853.19 Q1376.87 1849.91 1379.67 1848.35 Q1382.47 1846.79 1386.33 1846.79 Q1390.21 1846.79 1392.91 1848.77 Q1395.65 1850.74 1396.96 1854.5 Z" fill="#000000" fill-rule="nonzero" fill-opacity="1" /><path clip-path="url(#clip300)" d="M1463.19 1864.01 L1463.19 1866.88 L1436.26 1866.88 Q1436.65 1872.92 1439.89 1876.11 Q1443.17 1879.26 1449 1879.26 Q1452.37 1879.26 1455.52 1878.43 Q1458.7 1877.6 1461.82 1875.95 L1461.82 1881.49 Q1458.67 1882.82 1455.36 1883.52 Q1452.05 1884.22 1448.65 1884.22 Q1440.12 1884.22 1435.12 1879.26 Q1430.15 1874.29 1430.15 1865.83 Q1430.15 1857.07 1434.86 1851.95 Q1439.61 1846.79 1447.63 1846.79 Q1454.82 1846.79 1458.99 1851.44 Q1463.19 1856.06 1463.19 1864.01 M1457.33 1862.29 Q1457.27 1857.49 1454.63 1854.62 Q1452.02 1851.76 1447.69 1851.76 Q1442.79 1851.76 1439.83 1854.53 Q1436.9 1857.3 1436.46 1862.33 L1457.33 1862.29 Z" fill="#000000" fill-rule="nonzero" fill-opacity="1" /><polyline clip-path="url(#clip300)" style="stroke:#000000; stroke-linecap:round; stroke-linejoin:round; stroke-width:4; stroke-opacity:1; fill:none" points="143.576,1734.12 143.576,127.792 "/>
<polyline clip-path="url(#clip300)" style="stroke:#000000; stroke-linecap:round; stroke-linejoin:round; stroke-width:4; stroke-opacity:1; fill:none" points="143.576,1688.65 162.473,1688.65 "/>
<polyline clip-path="url(#clip300)" style="stroke:#000000; stroke-linecap:round; stroke-linejoin:round; stroke-width:4; stroke-opacity:1; fill:none" points="143.576,1311.42 162.473,1311.42 "/>
<polyline clip-path="url(#clip300)" style="stroke:#000000; stroke-linecap:round; stroke-linejoin:round; stroke-width:4; stroke-opacity:1; fill:none" points="143.576,934.176 162.473,934.176 "/>
<polyline clip-path="url(#clip300)" style="stroke:#000000; stroke-linecap:round; stroke-linejoin:round; stroke-width:4; stroke-opacity:1; fill:none" points="143.576,556.937 162.473,556.937 "/>
<polyline clip-path="url(#clip300)" style="stroke:#000000; stroke-linecap:round; stroke-linejoin:round; stroke-width:4; stroke-opacity:1; fill:none" points="143.576,179.698 162.473,179.698 "/>
<path clip-path="url(#clip300)" d="M91.3112 1674.45 Q87.7001 1674.45 85.8714 1678.02 Q84.0658 1681.56 84.0658 1688.69 Q84.0658 1695.8 85.8714 1699.36 Q87.7001 1702.9 91.3112 1702.9 Q94.9454 1702.9 96.7509 1699.36 Q98.5796 1695.8 98.5796 1688.69 Q98.5796 1681.56 96.7509 1678.02 Q94.9454 1674.45 91.3112 1674.45 M91.3112 1670.75 Q97.1213 1670.75 100.177 1675.36 Q103.256 1679.94 103.256 1688.69 Q103.256 1697.42 100.177 1702.02 Q97.1213 1706.61 91.3112 1706.61 Q85.501 1706.61 82.4223 1702.02 Q79.3668 1697.42 79.3668 1688.69 Q79.3668 1679.94 82.4223 1675.36 Q85.501 1670.75 91.3112 1670.75 Z" fill="#000000" fill-rule="nonzero" fill-opacity="1" /><path clip-path="url(#clip300)" d="M82.3529 1294.14 L100.709 1294.14 L100.709 1298.07 L86.6353 1298.07 L86.6353 1306.54 Q87.6538 1306.2 88.6723 1306.03 Q89.6908 1305.85 90.7093 1305.85 Q96.4963 1305.85 99.8759 1309.02 Q103.256 1312.19 103.256 1317.61 Q103.256 1323.19 99.7833 1326.29 Q96.3111 1329.37 89.9917 1329.37 Q87.8158 1329.37 85.5473 1329 Q83.3019 1328.63 80.8946 1327.89 L80.8946 1323.19 Q82.9779 1324.32 85.2001 1324.88 Q87.4223 1325.43 89.8991 1325.43 Q93.9037 1325.43 96.2417 1323.33 Q98.5796 1321.22 98.5796 1317.61 Q98.5796 1314 96.2417 1311.89 Q93.9037 1309.78 89.8991 1309.78 Q88.0241 1309.78 86.1492 1310.2 Q84.2973 1310.62 82.3529 1311.5 L82.3529 1294.14 Z" fill="#000000" fill-rule="nonzero" fill-opacity="1" /><path clip-path="url(#clip300)" d="M51.9595 947.521 L59.5984 947.521 L59.5984 921.156 L51.2882 922.822 L51.2882 918.563 L59.5521 916.896 L64.228 916.896 L64.228 947.521 L71.8668 947.521 L71.8668 951.456 L51.9595 951.456 L51.9595 947.521 Z" fill="#000000" fill-rule="nonzero" fill-opacity="1" /><path clip-path="url(#clip300)" d="M91.3112 919.975 Q87.7001 919.975 85.8714 923.54 Q84.0658 927.082 84.0658 934.211 Q84.0658 941.318 85.8714 944.882 Q87.7001 948.424 91.3112 948.424 Q94.9454 948.424 96.7509 944.882 Q98.5796 941.318 98.5796 934.211 Q98.5796 927.082 96.7509 923.54 Q94.9454 919.975 91.3112 919.975 M91.3112 916.271 Q97.1213 916.271 100.177 920.878 Q103.256 925.461 103.256 934.211 Q103.256 942.938 100.177 947.544 Q97.1213 952.128 91.3112 952.128 Q85.501 952.128 82.4223 947.544 Q79.3668 942.938 79.3668 934.211 Q79.3668 925.461 82.4223 920.878 Q85.501 916.271 91.3112 916.271 Z" fill="#000000" fill-rule="nonzero" fill-opacity="1" /><path clip-path="url(#clip300)" d="M52.9549 570.282 L60.5937 570.282 L60.5937 543.916 L52.2836 545.583 L52.2836 541.324 L60.5474 539.657 L65.2233 539.657 L65.2233 570.282 L72.8622 570.282 L72.8622 574.217 L52.9549 574.217 L52.9549 570.282 Z" fill="#000000" fill-rule="nonzero" fill-opacity="1" /><path clip-path="url(#clip300)" d="M82.3529 539.657 L100.709 539.657 L100.709 543.592 L86.6353 543.592 L86.6353 552.065 Q87.6538 551.717 88.6723 551.555 Q89.6908 551.37 90.7093 551.37 Q96.4963 551.37 99.8759 554.541 Q103.256 557.713 103.256 563.129 Q103.256 568.708 99.7833 571.81 Q96.3111 574.888 89.9917 574.888 Q87.8158 574.888 85.5473 574.518 Q83.3019 574.148 80.8946 573.407 L80.8946 568.708 Q82.9779 569.842 85.2001 570.398 Q87.4223 570.953 89.8991 570.953 Q93.9037 570.953 96.2417 568.847 Q98.5796 566.74 98.5796 563.129 Q98.5796 559.518 96.2417 557.412 Q93.9037 555.305 89.8991 555.305 Q88.0241 555.305 86.1492 555.722 Q84.2973 556.139 82.3529 557.018 L82.3529 539.657 Z" fill="#000000" fill-rule="nonzero" fill-opacity="1" /><path clip-path="url(#clip300)" d="M55.1771 193.043 L71.4965 193.043 L71.4965 196.978 L49.5521 196.978 L49.5521 193.043 Q52.2141 190.288 56.7975 185.659 Q61.4039 181.006 62.5845 179.663 Q64.8298 177.14 65.7094 175.404 Q66.6122 173.645 66.6122 171.955 Q66.6122 169.2 64.6678 167.464 Q62.7465 165.728 59.6447 165.728 Q57.4456 165.728 54.9919 166.492 Q52.5614 167.256 49.7836 168.807 L49.7836 164.085 Q52.6077 162.95 55.0614 162.372 Q57.515 161.793 59.5521 161.793 Q64.9224 161.793 68.1168 164.478 Q71.3113 167.163 71.3113 171.654 Q71.3113 173.784 70.5011 175.705 Q69.7141 177.603 67.6076 180.196 Q67.0289 180.867 63.927 184.084 Q60.8252 187.279 55.1771 193.043 Z" fill="#000000" fill-rule="nonzero" fill-opacity="1" /><path clip-path="url(#clip300)" d="M91.3112 165.497 Q87.7001 165.497 85.8714 169.061 Q84.0658 172.603 84.0658 179.733 Q84.0658 186.839 85.8714 190.404 Q87.7001 193.946 91.3112 193.946 Q94.9454 193.946 96.7509 190.404 Q98.5796 186.839 98.5796 179.733 Q98.5796 172.603 96.7509 169.061 Q94.9454 165.497 91.3112 165.497 M91.3112 161.793 Q97.1213 161.793 100.177 166.399 Q103.256 170.983 103.256 179.733 Q103.256 188.459 100.177 193.066 Q97.1213 197.649 91.3112 197.649 Q85.501 197.649 82.4223 193.066 Q79.3668 188.459 79.3668 179.733 Q79.3668 170.983 82.4223 166.399 Q85.501 161.793 91.3112 161.793 Z" fill="#000000" fill-rule="nonzero" fill-opacity="1" /><path clip-path="url(#clip300)" d="M1133.58 20.1573 L1122.48 50.2555 L1144.72 50.2555 L1133.58 20.1573 M1128.96 12.096 L1138.23 12.096 L1161.28 72.576 L1152.78 72.576 L1147.27 57.061 L1120.01 57.061 L1114.5 72.576 L1105.87 72.576 L1128.96 12.096 Z" fill="#000000" fill-rule="nonzero" fill-opacity="1" /><path clip-path="url(#clip300)" d="M1198.19 34.0924 L1198.19 9.54393 L1205.64 9.54393 L1205.64 72.576 L1198.19 72.576 L1198.19 65.7705 Q1195.84 69.8214 1192.23 71.8063 Q1188.67 73.7508 1183.65 73.7508 Q1175.42 73.7508 1170.24 67.1883 Q1165.09 60.6258 1165.09 49.9314 Q1165.09 39.2371 1170.24 32.6746 Q1175.42 26.1121 1183.65 26.1121 Q1188.67 26.1121 1192.23 28.0971 Q1195.84 30.0415 1198.19 34.0924 M1172.79 49.9314 Q1172.79 58.1548 1176.15 62.8538 Q1179.55 67.5124 1185.47 67.5124 Q1191.38 67.5124 1194.79 62.8538 Q1198.19 58.1548 1198.19 49.9314 Q1198.19 41.7081 1194.79 37.0496 Q1191.38 32.3505 1185.47 32.3505 Q1179.55 32.3505 1176.15 37.0496 Q1172.79 41.7081 1172.79 49.9314 Z" fill="#000000" fill-rule="nonzero" fill-opacity="1" /><path clip-path="url(#clip300)" d="M1220.23 54.671 L1220.23 27.2059 L1227.68 27.2059 L1227.68 54.3874 Q1227.68 60.8284 1230.19 64.0691 Q1232.7 67.2693 1237.73 67.2693 Q1243.76 67.2693 1247.24 63.421 Q1250.77 59.5726 1250.77 52.9291 L1250.77 27.2059 L1258.22 27.2059 L1258.22 72.576 L1250.77 72.576 L1250.77 65.6084 Q1248.05 69.7404 1244.45 71.7658 Q1240.88 73.7508 1236.15 73.7508 Q1228.33 73.7508 1224.28 68.8897 Q1220.23 64.0286 1220.23 54.671 M1238.98 26.1121 L1238.98 26.1121 Z" fill="#000000" fill-rule="nonzero" fill-opacity="1" /><path clip-path="url(#clip300)" d="M1273.58 9.54393 L1281.03 9.54393 L1281.03 72.576 L1273.58 72.576 L1273.58 9.54393 Z" fill="#000000" fill-rule="nonzero" fill-opacity="1" /><path clip-path="url(#clip300)" d="M1304 14.324 L1304 27.2059 L1319.35 27.2059 L1319.35 32.9987 L1304 32.9987 L1304 57.6282 Q1304 63.1779 1305.5 64.7578 Q1307.04 66.3376 1311.69 66.3376 L1319.35 66.3376 L1319.35 72.576 L1311.69 72.576 Q1303.07 72.576 1299.78 69.3758 Q1296.5 66.1351 1296.5 57.6282 L1296.5 32.9987 L1291.03 32.9987 L1291.03 27.2059 L1296.5 27.2059 L1296.5 14.324 L1304 14.324 Z" fill="#000000" fill-rule="nonzero" fill-opacity="1" /><path clip-path="url(#clip300)" d="M1388.18 28.9478 L1388.18 35.9153 Q1385.02 34.1734 1381.82 33.3227 Q1378.66 32.4315 1375.42 32.4315 Q1368.16 32.4315 1364.15 37.0496 Q1360.14 41.6271 1360.14 49.9314 Q1360.14 58.2358 1364.15 62.8538 Q1368.16 67.4314 1375.42 67.4314 Q1378.66 67.4314 1381.82 66.5807 Q1385.02 65.6895 1388.18 63.9476 L1388.18 70.8341 Q1385.06 72.2924 1381.69 73.0216 Q1378.37 73.7508 1374.61 73.7508 Q1364.36 73.7508 1358.32 67.3098 Q1352.28 60.8689 1352.28 49.9314 Q1352.28 38.832 1358.36 32.472 Q1364.48 26.1121 1375.09 26.1121 Q1378.53 26.1121 1381.82 26.8413 Q1385.1 27.5299 1388.18 28.9478 Z" fill="#000000" fill-rule="nonzero" fill-opacity="1" /><path clip-path="url(#clip300)" d="M1421.76 49.7694 Q1412.72 49.7694 1409.24 51.8354 Q1405.76 53.9013 1405.76 58.8839 Q1405.76 62.8538 1408.35 65.2034 Q1410.98 67.5124 1415.48 67.5124 Q1421.68 67.5124 1425.4 63.1374 Q1429.17 58.7219 1429.17 51.4303 L1429.17 49.7694 L1421.76 49.7694 M1436.62 46.6907 L1436.62 72.576 L1429.17 72.576 L1429.17 65.6895 Q1426.62 69.8214 1422.81 71.8063 Q1419 73.7508 1413.49 73.7508 Q1406.53 73.7508 1402.39 69.8619 Q1398.3 65.9325 1398.3 59.3701 Q1398.3 51.7138 1403.41 47.825 Q1408.55 43.9361 1418.72 43.9361 L1429.17 43.9361 L1429.17 43.2069 Q1429.17 38.0623 1425.77 35.2672 Q1422.41 32.4315 1416.29 32.4315 Q1412.4 32.4315 1408.71 33.3632 Q1405.03 34.295 1401.62 36.1584 L1401.62 29.2718 Q1405.72 27.692 1409.56 26.9223 Q1413.41 26.1121 1417.06 26.1121 Q1426.9 26.1121 1431.76 31.2163 Q1436.62 36.3204 1436.62 46.6907 Z" fill="#000000" fill-rule="nonzero" fill-opacity="1" /><path clip-path="url(#clip300)" d="M1459.19 65.7705 L1459.19 89.8329 L1451.69 89.8329 L1451.69 27.2059 L1459.19 27.2059 L1459.19 34.0924 Q1461.54 30.0415 1465.1 28.0971 Q1468.71 26.1121 1473.69 26.1121 Q1481.95 26.1121 1487.1 32.6746 Q1492.28 39.2371 1492.28 49.9314 Q1492.28 60.6258 1487.1 67.1883 Q1481.95 73.7508 1473.69 73.7508 Q1468.71 73.7508 1465.1 71.8063 Q1461.54 69.8214 1459.19 65.7705 M1484.55 49.9314 Q1484.55 41.7081 1481.14 37.0496 Q1477.78 32.3505 1471.87 32.3505 Q1465.95 32.3505 1462.55 37.0496 Q1459.19 41.7081 1459.19 49.9314 Q1459.19 58.1548 1462.55 62.8538 Q1465.95 67.5124 1471.87 67.5124 Q1477.78 67.5124 1481.14 62.8538 Q1484.55 58.1548 1484.55 49.9314 Z" fill="#000000" fill-rule="nonzero" fill-opacity="1" /><path clip-path="url(#clip300)" d="M1551.63 49.7694 Q1542.6 49.7694 1539.11 51.8354 Q1535.63 53.9013 1535.63 58.8839 Q1535.63 62.8538 1538.22 65.2034 Q1540.85 67.5124 1545.35 67.5124 Q1551.55 67.5124 1555.28 63.1374 Q1559.04 58.7219 1559.04 51.4303 L1559.04 49.7694 L1551.63 49.7694 M1566.5 46.6907 L1566.5 72.576 L1559.04 72.576 L1559.04 65.6895 Q1556.49 69.8214 1552.68 71.8063 Q1548.87 73.7508 1543.37 73.7508 Q1536.4 73.7508 1532.27 69.8619 Q1528.17 65.9325 1528.17 59.3701 Q1528.17 51.7138 1533.28 47.825 Q1538.42 43.9361 1548.59 43.9361 L1559.04 43.9361 L1559.04 43.2069 Q1559.04 38.0623 1555.64 35.2672 Q1552.28 32.4315 1546.16 32.4315 Q1542.27 32.4315 1538.59 33.3632 Q1534.9 34.295 1531.5 36.1584 L1531.5 29.2718 Q1535.59 27.692 1539.44 26.9223 Q1543.28 26.1121 1546.93 26.1121 Q1556.77 26.1121 1561.64 31.2163 Q1566.5 36.3204 1566.5 46.6907 Z" fill="#000000" fill-rule="nonzero" fill-opacity="1" /><path clip-path="url(#clip300)" d="M1589.22 14.324 L1589.22 27.2059 L1604.57 27.2059 L1604.57 32.9987 L1589.22 32.9987 L1589.22 57.6282 Q1589.22 63.1779 1590.72 64.7578 Q1592.26 66.3376 1596.92 66.3376 L1604.57 66.3376 L1604.57 72.576 L1596.92 72.576 Q1588.29 72.576 1585.01 69.3758 Q1581.73 66.1351 1581.73 57.6282 L1581.73 32.9987 L1576.26 32.9987 L1576.26 27.2059 L1581.73 27.2059 L1581.73 14.324 L1589.22 14.324 Z" fill="#000000" fill-rule="nonzero" fill-opacity="1" /><path clip-path="url(#clip300)" d="M1641.88 12.096 L1674.01 12.096 L1674.01 18.9825 L1649.38 18.9825 L1649.38 33.8088 Q1651.16 33.2012 1652.94 32.9176 Q1654.73 32.5936 1656.51 32.5936 Q1666.63 32.5936 1672.55 38.1433 Q1678.46 43.6931 1678.46 53.1722 Q1678.46 62.9348 1672.39 68.3631 Q1666.31 73.7508 1655.25 73.7508 Q1651.44 73.7508 1647.47 73.1026 Q1643.54 72.4545 1639.33 71.1582 L1639.33 62.9348 Q1642.98 64.9198 1646.87 65.892 Q1650.76 66.8642 1655.09 66.8642 Q1662.1 66.8642 1666.19 63.1779 Q1670.28 59.4916 1670.28 53.1722 Q1670.28 46.8528 1666.19 43.1664 Q1662.1 39.4801 1655.09 39.4801 Q1651.81 39.4801 1648.53 40.2093 Q1645.29 40.9384 1641.88 42.4778 L1641.88 12.096 Z" fill="#000000" fill-rule="nonzero" fill-opacity="1" /><polyline clip-path="url(#clip301)" style="stroke:#009af9; stroke-linecap:round; stroke-linejoin:round; stroke-width:4; stroke-opacity:1; fill:none" points="214.25,1688.65 237.809,1688.65 261.367,1688.65 284.925,1688.65 308.484,1688.65 332.042,1688.65 355.6,1688.65 379.159,1688.65 402.717,1688.65 426.275,1688.65 449.834,1688.65 473.392,1688.65 496.95,1688.65 520.508,1688.65 544.067,1688.65 567.625,1688.65 591.183,1688.65 614.742,1688.65 638.3,1688.65 661.858,1688.65 685.417,1688.65 708.975,1688.65 732.533,1688.65 756.091,1688.65 779.65,1688.65 803.208,1688.65 826.766,1688.65 850.325,1688.65 873.883,1688.65 897.441,1688.65 921,1688.65 944.558,1688.65 968.116,1688.65 991.675,1688.65 1015.23,1688.65 1038.79,1688.65 1062.35,1688.65 1085.91,1688.65 1109.47,1688.65 1133.02,1688.65 1156.58,1688.65 1180.14,1688.65 1203.7,1688.65 1227.26,1688.65 1250.82,1688.65 1274.37,1688.65 1297.93,1688.65 1321.49,1688.65 1345.05,1688.65 1368.61,1688.65 1392.17,1688.65 1415.72,1688.65 1439.28,1688.65 1462.84,1688.65 1478.1,1688.65 1486.4,1688.65 1509.96,1688.65 1533.52,1688.65 1557.07,1688.65 1580.63,1688.65 1604.19,1688.65 1627.75,1688.65 1651.31,1688.65 1674.87,1688.65 1698.42,1688.65 1721.98,1688.65 1745.54,1688.65 1769.1,1688.65 1792.66,1688.65 1816.22,1688.65 1839.77,1688.65 1863.33,1688.65 1886.89,1688.65 1910.45,1688.65 1934.01,1688.65 1957.57,1688.65 1981.12,1688.65 2004.68,1688.65 2028.24,1688.65 2051.8,1688.65 2075.36,1688.65 2098.91,1688.65 2122.47,1688.65 2146.03,1688.65 2169.59,1688.65 2193.15,1688.65 2216.71,1688.65 2240.26,1688.65 2263.82,1688.65 2287.38,1688.65 2310.94,1688.65 2334.5,1688.65 2358.06,1688.65 2381.61,1688.65 2405.17,1688.65 2428.73,1688.65 2452.29,1688.65 2475.85,1688.65 2499.41,1688.65 2522.96,1688.65 2546.52,1688.65 2570.08,1688.65 "/>
<polyline clip-path="url(#clip301)" style="stroke:#e26f46; stroke-linecap:round; stroke-linejoin:round; stroke-width:4; stroke-opacity:1; fill:none" points="214.25,1613.21 237.809,1610.91 261.367,1608.54 284.925,1606.1 308.484,1603.59 332.042,1601 355.6,1598.33 379.159,1595.58 402.717,1592.74 426.275,1589.82 449.834,1586.81 473.392,1583.71 496.95,1580.51 520.508,1577.22 544.067,1573.83 567.625,1570.33 591.183,1566.73 614.742,1563.01 638.3,1559.19 661.858,1555.24 685.417,1551.18 708.975,1546.99 732.533,1542.68 756.091,1538.23 779.65,1533.65 803.208,1528.93 826.766,1524.07 850.325,1519.06 873.883,1513.89 897.441,1508.57 921,1503.08 944.558,1497.43 968.116,1491.61 991.675,1485.61 1015.23,1479.42 1038.79,1473.05 1062.35,1466.49 1085.91,1459.72 1109.47,1452.75 1133.02,1445.56 1156.58,1438.16 1180.14,1430.53 1203.7,1422.67 1227.26,1414.57 1250.82,1406.22 1274.37,1397.62 1297.93,1388.76 1321.49,1379.62 1345.05,1370.21 1368.61,1360.51 1392.17,1350.52 1415.72,1340.22 1439.28,1329.61 1462.84,1318.68 1478.1,1311.42 1486.4,1307.41 1509.96,1295.8 1533.52,1283.83 1557.07,1271.51 1580.63,1258.8 1604.19,1245.71 1627.75,1232.22 1651.31,1218.32 1674.87,1204 1698.42,1189.24 1721.98,1174.03 1745.54,1158.36 1769.1,1142.21 1792.66,1125.57 1816.22,1108.42 1839.77,1090.75 1863.33,1072.54 1886.89,1053.77 1910.45,1034.44 1934.01,1014.51 1957.57,993.982 1981.12,972.825 2004.68,951.024 2028.24,928.56 2051.8,905.413 2075.36,881.561 2098.91,856.984 2122.47,831.659 2146.03,805.563 2169.59,778.672 2193.15,750.962 2216.71,722.407 2240.26,692.982 2263.82,662.66 2287.38,631.413 2310.94,599.214 2334.5,566.032 2358.06,531.84 2381.61,496.605 2405.17,460.298 2428.73,422.887 2452.29,384.337 2475.85,344.615 2499.41,303.683 2522.96,261.504 2546.52,218.041 2570.08,173.254 "/>
<path clip-path="url(#clip300)" d="M226.815 336.856 L660.861 336.856 L660.861 181.336 L226.815 181.336  Z" fill="#ffffff" fill-rule="evenodd" fill-opacity="1"/>
<polyline clip-path="url(#clip300)" style="stroke:#000000; stroke-linecap:round; stroke-linejoin:round; stroke-width:4; stroke-opacity:1; fill:none" points="226.815,336.856 660.861,336.856 660.861,181.336 226.815,181.336 226.815,336.856 "/>
<polyline clip-path="url(#clip300)" style="stroke:#009af9; stroke-linecap:round; stroke-linejoin:round; stroke-width:4; stroke-opacity:1; fill:none" points="254.561,233.176 421.04,233.176 "/>
<path clip-path="url(#clip300)" d="M454.111 224.531 L458.37 224.531 L458.37 250.919 Q458.37 255.873 456.472 258.095 Q454.597 260.317 450.407 260.317 L448.786 260.317 L448.786 256.706 L449.921 256.706 Q452.351 256.706 453.231 255.572 Q454.111 254.461 454.111 250.919 L454.111 224.531 M454.111 214.438 L458.37 214.438 L458.37 219.831 L454.111 219.831 L454.111 214.438 Z" fill="#000000" fill-rule="nonzero" fill-opacity="1" /><path clip-path="url(#clip300)" d="M466.842 240.225 L466.842 224.531 L471.101 224.531 L471.101 240.063 Q471.101 243.743 472.536 245.595 Q473.972 247.424 476.842 247.424 Q480.291 247.424 482.282 245.225 Q484.296 243.026 484.296 239.229 L484.296 224.531 L488.555 224.531 L488.555 250.456 L484.296 250.456 L484.296 246.475 Q482.745 248.836 480.684 249.993 Q478.647 251.128 475.939 251.128 Q471.472 251.128 469.157 248.35 Q466.842 245.572 466.842 240.225 M477.559 223.906 L477.559 223.906 Z" fill="#000000" fill-rule="nonzero" fill-opacity="1" /><path clip-path="url(#clip300)" d="M494.272 224.531 L498.786 224.531 L506.888 246.29 L514.99 224.531 L519.504 224.531 L509.782 250.456 L503.995 250.456 L494.272 224.531 Z" fill="#000000" fill-rule="nonzero" fill-opacity="1" /><path clip-path="url(#clip300)" d="M547.559 236.429 L547.559 238.512 L527.976 238.512 Q528.254 242.91 530.615 245.225 Q532.999 247.516 537.235 247.516 Q539.689 247.516 541.98 246.915 Q544.295 246.313 546.564 245.109 L546.564 249.137 Q544.272 250.109 541.865 250.618 Q539.457 251.128 536.98 251.128 Q530.777 251.128 527.143 247.516 Q523.531 243.905 523.531 237.748 Q523.531 231.382 526.957 227.655 Q530.406 223.906 536.24 223.906 Q541.471 223.906 544.504 227.285 Q547.559 230.642 547.559 236.429 M543.3 235.179 Q543.254 231.683 541.332 229.6 Q539.434 227.517 536.286 227.517 Q532.721 227.517 530.568 229.53 Q528.439 231.544 528.115 235.202 L543.3 235.179 Z" fill="#000000" fill-rule="nonzero" fill-opacity="1" /><path clip-path="url(#clip300)" d="M576.101 234.808 L576.101 250.456 L571.841 250.456 L571.841 234.947 Q571.841 231.267 570.406 229.438 Q568.971 227.609 566.101 227.609 Q562.652 227.609 560.661 229.808 Q558.67 232.007 558.67 235.804 L558.67 250.456 L554.388 250.456 L554.388 224.531 L558.67 224.531 L558.67 228.558 Q560.198 226.22 562.258 225.063 Q564.341 223.906 567.05 223.906 Q571.517 223.906 573.809 226.683 Q576.101 229.438 576.101 234.808 Z" fill="#000000" fill-rule="nonzero" fill-opacity="1" /><path clip-path="url(#clip300)" d="M584.596 224.531 L588.855 224.531 L588.855 250.456 L584.596 250.456 L584.596 224.531 M584.596 214.438 L588.855 214.438 L588.855 219.831 L584.596 219.831 L584.596 214.438 Z" fill="#000000" fill-rule="nonzero" fill-opacity="1" /><path clip-path="url(#clip300)" d="M597.767 214.438 L602.026 214.438 L602.026 250.456 L597.767 250.456 L597.767 214.438 Z" fill="#000000" fill-rule="nonzero" fill-opacity="1" /><path clip-path="url(#clip300)" d="M633.114 236.429 L633.114 238.512 L613.531 238.512 Q613.809 242.91 616.17 245.225 Q618.554 247.516 622.79 247.516 Q625.244 247.516 627.536 246.915 Q629.85 246.313 632.119 245.109 L632.119 249.137 Q629.827 250.109 627.42 250.618 Q625.012 251.128 622.536 251.128 Q616.332 251.128 612.698 247.516 Q609.087 243.905 609.087 237.748 Q609.087 231.382 612.512 227.655 Q615.962 223.906 621.795 223.906 Q627.026 223.906 630.059 227.285 Q633.114 230.642 633.114 236.429 M628.855 235.179 Q628.809 231.683 626.887 229.6 Q624.989 227.517 621.841 227.517 Q618.276 227.517 616.124 229.53 Q613.994 231.544 613.67 235.202 L628.855 235.179 Z" fill="#000000" fill-rule="nonzero" fill-opacity="1" /><polyline clip-path="url(#clip300)" style="stroke:#e26f46; stroke-linecap:round; stroke-linejoin:round; stroke-width:4; stroke-opacity:1; fill:none" points="254.561,285.016 421.04,285.016 "/>
<path clip-path="url(#clip300)" d="M462.189 289.264 Q457.027 289.264 455.036 290.444 Q453.046 291.625 453.046 294.472 Q453.046 296.741 454.527 298.083 Q456.032 299.403 458.601 299.403 Q462.143 299.403 464.273 296.903 Q466.425 294.38 466.425 290.213 L466.425 289.264 L462.189 289.264 M470.685 287.505 L470.685 302.296 L466.425 302.296 L466.425 298.361 Q464.967 300.722 462.791 301.856 Q460.615 302.968 457.467 302.968 Q453.486 302.968 451.124 300.745 Q448.786 298.5 448.786 294.75 Q448.786 290.375 451.703 288.153 Q454.643 285.931 460.453 285.931 L466.425 285.931 L466.425 285.514 Q466.425 282.574 464.481 280.977 Q462.56 279.357 459.064 279.357 Q456.842 279.357 454.736 279.889 Q452.629 280.421 450.685 281.486 L450.685 277.551 Q453.023 276.648 455.222 276.208 Q457.421 275.746 459.504 275.746 Q465.129 275.746 467.907 278.662 Q470.685 281.579 470.685 287.505 Z" fill="#000000" fill-rule="nonzero" fill-opacity="1" /><path clip-path="url(#clip300)" d="M496.518 280.306 L496.518 266.278 L500.777 266.278 L500.777 302.296 L496.518 302.296 L496.518 298.407 Q495.175 300.722 493.115 301.856 Q491.078 302.968 488.208 302.968 Q483.509 302.968 480.546 299.218 Q477.606 295.468 477.606 289.357 Q477.606 283.245 480.546 279.495 Q483.509 275.746 488.208 275.746 Q491.078 275.746 493.115 276.88 Q495.175 277.991 496.518 280.306 M482.004 289.357 Q482.004 294.056 483.925 296.741 Q485.87 299.403 489.249 299.403 Q492.629 299.403 494.573 296.741 Q496.518 294.056 496.518 289.357 Q496.518 284.657 494.573 281.995 Q492.629 279.31 489.249 279.31 Q485.87 279.31 483.925 281.995 Q482.004 284.657 482.004 289.357 Z" fill="#000000" fill-rule="nonzero" fill-opacity="1" /><path clip-path="url(#clip300)" d="M509.11 292.065 L509.11 276.371 L513.369 276.371 L513.369 291.903 Q513.369 295.583 514.805 297.435 Q516.24 299.264 519.11 299.264 Q522.559 299.264 524.55 297.065 Q526.564 294.866 526.564 291.069 L526.564 276.371 L530.823 276.371 L530.823 302.296 L526.564 302.296 L526.564 298.315 Q525.013 300.676 522.953 301.833 Q520.916 302.968 518.207 302.968 Q513.74 302.968 511.425 300.19 Q509.11 297.412 509.11 292.065 M519.828 275.746 L519.828 275.746 Z" fill="#000000" fill-rule="nonzero" fill-opacity="1" /><path clip-path="url(#clip300)" d="M539.596 266.278 L543.855 266.278 L543.855 302.296 L539.596 302.296 L539.596 266.278 Z" fill="#000000" fill-rule="nonzero" fill-opacity="1" /><path clip-path="url(#clip300)" d="M556.98 269.009 L556.98 276.371 L565.753 276.371 L565.753 279.681 L556.98 279.681 L556.98 293.755 Q556.98 296.926 557.837 297.829 Q558.716 298.731 561.378 298.731 L565.753 298.731 L565.753 302.296 L561.378 302.296 Q556.448 302.296 554.573 300.468 Q552.698 298.616 552.698 293.755 L552.698 279.681 L549.573 279.681 L549.573 276.371 L552.698 276.371 L552.698 269.009 L556.98 269.009 Z" fill="#000000" fill-rule="nonzero" fill-opacity="1" /></svg>
