<?xml version="1.0" encoding="utf-8"?>
<svg xmlns="http://www.w3.org/2000/svg" xmlns:xlink="http://www.w3.org/1999/xlink" width="672" height="480" viewBox="0 0 2688 1920">
<defs>
  <clipPath id="clip240">
    <rect x="0" y="0" width="2688" height="1920"/>
  </clipPath>
</defs>
<path clip-path="url(#clip240)" d="M0 1920 L2688 1920 L2688 -4.26326e-14 L0 -4.26326e-14  Z" fill="#ffffff" fill-rule="evenodd" fill-opacity="1"/>
<defs>
  <clipPath id="clip241">
    <rect x="208" y="127" width="2433" height="1607"/>
  </clipPath>
</defs>
<path clip-path="url(#clip240)" d="M208.502 1734.12 L2640.76 1734.12 L2640.76 127.792 L208.502 127.792  Z" fill="#ffffff" fill-rule="evenodd" fill-opacity="1"/>
<polyline clip-path="url(#clip241)" style="stroke:#000000; stroke-linecap:round; stroke-linejoin:round; stroke-width:2; stroke-opacity:0.1; fill:none" points="277.339,1734.12 277.339,127.792 "/>
<polyline clip-path="url(#clip241)" style="stroke:#000000; stroke-linecap:round; stroke-linejoin:round; stroke-width:2; stroke-opacity:0.1; fill:none" points="850.984,1734.12 850.984,127.792 "/>
<polyline clip-path="url(#clip241)" style="stroke:#000000; stroke-linecap:round; stroke-linejoin:round; stroke-width:2; stroke-opacity:0.1; fill:none" points="1424.63,1734.12 1424.63,127.792 "/>
<polyline clip-path="url(#clip241)" style="stroke:#000000; stroke-linecap:round; stroke-linejoin:round; stroke-width:2; stroke-opacity:0.1; fill:none" points="1998.27,1734.12 1998.27,127.792 "/>
<polyline clip-path="url(#clip241)" style="stroke:#000000; stroke-linecap:round; stroke-linejoin:round; stroke-width:2; stroke-opacity:0.1; fill:none" points="2571.92,1734.12 2571.92,127.792 "/>
<polyline clip-path="url(#clip241)" style="stroke:#000000; stroke-linecap:round; stroke-linejoin:round; stroke-width:2; stroke-opacity:0.1; fill:none" points="208.502,1469.54 2640.76,1469.54 "/>
<polyline clip-path="url(#clip241)" style="stroke:#000000; stroke-linecap:round; stroke-linejoin:round; stroke-width:2; stroke-opacity:0.1; fill:none" points="208.502,1177.8 2640.76,1177.8 "/>
<polyline clip-path="url(#clip241)" style="stroke:#000000; stroke-linecap:round; stroke-linejoin:round; stroke-width:2; stroke-opacity:0.1; fill:none" points="208.502,886.054 2640.76,886.054 "/>
<polyline clip-path="url(#clip241)" style="stroke:#000000; stroke-linecap:round; stroke-linejoin:round; stroke-width:2; stroke-opacity:0.1; fill:none" points="208.502,594.312 2640.76,594.312 "/>
<polyline clip-path="url(#clip241)" style="stroke:#000000; stroke-linecap:round; stroke-linejoin:round; stroke-width:2; stroke-opacity:0.1; fill:none" points="208.502,302.569 2640.76,302.569 "/>
<polyline clip-path="url(#clip240)" style="stroke:#000000; stroke-linecap:round; stroke-linejoin:round; stroke-width:4; stroke-opacity:1; fill:none" points="208.502,1734.12 2640.76,1734.12 "/>
<polyline clip-path="url(#clip240)" style="stroke:#000000; stroke-linecap:round; stroke-linejoin:round; stroke-width:4; stroke-opacity:1; fill:none" points="277.339,1734.12 277.339,1715.22 "/>
<polyline clip-path="url(#clip240)" style="stroke:#000000; stroke-linecap:round; stroke-linejoin:round; stroke-width:4; stroke-opacity:1; fill:none" points="850.984,1734.12 850.984,1715.22 "/>
<polyline clip-path="url(#clip240)" style="stroke:#000000; stroke-linecap:round; stroke-linejoin:round; stroke-width:4; stroke-opacity:1; fill:none" points="1424.63,1734.12 1424.63,1715.22 "/>
<polyline clip-path="url(#clip240)" style="stroke:#000000; stroke-linecap:round; stroke-linejoin:round; stroke-width:4; stroke-opacity:1; fill:none" points="1998.27,1734.12 1998.27,1715.22 "/>
<polyline clip-path="url(#clip240)" style="stroke:#000000; stroke-linecap:round; stroke-linejoin:round; stroke-width:4; stroke-opacity:1; fill:none" points="2571.92,1734.12 2571.92,1715.22 "/>
<path clip-path="url(#clip240)" d="M254.724 1767.34 Q251.112 1767.34 249.284 1770.9 Q247.478 1774.45 247.478 1781.58 Q247.478 1788.68 249.284 1792.25 Q251.112 1795.79 254.724 1795.79 Q258.358 1795.79 260.163 1792.25 Q261.992 1788.68 261.992 1781.58 Q261.992 1774.45 260.163 1770.9 Q258.358 1767.34 254.724 1767.34 M254.724 1763.64 Q260.534 1763.64 263.589 1768.24 Q266.668 1772.83 266.668 1781.58 Q266.668 1790.3 263.589 1794.91 Q260.534 1799.49 254.724 1799.49 Q248.913 1799.49 245.835 1794.91 Q242.779 1790.3 242.779 1781.58 Q242.779 1772.83 245.835 1768.24 Q248.913 1763.64 254.724 1763.64 Z" fill="#000000" fill-rule="nonzero" fill-opacity="1" /><path clip-path="url(#clip240)" d="M274.885 1792.94 L279.77 1792.94 L279.77 1798.82 L274.885 1798.82 L274.885 1792.94 Z" fill="#000000" fill-rule="nonzero" fill-opacity="1" /><path clip-path="url(#clip240)" d="M299.955 1767.34 Q296.344 1767.34 294.515 1770.9 Q292.709 1774.45 292.709 1781.58 Q292.709 1788.68 294.515 1792.25 Q296.344 1795.79 299.955 1795.79 Q303.589 1795.79 305.395 1792.25 Q307.223 1788.68 307.223 1781.58 Q307.223 1774.45 305.395 1770.9 Q303.589 1767.34 299.955 1767.34 M299.955 1763.64 Q305.765 1763.64 308.82 1768.24 Q311.899 1772.83 311.899 1781.58 Q311.899 1790.3 308.82 1794.91 Q305.765 1799.49 299.955 1799.49 Q294.145 1799.49 291.066 1794.91 Q288.01 1790.3 288.01 1781.58 Q288.01 1772.83 291.066 1768.24 Q294.145 1763.64 299.955 1763.64 Z" fill="#000000" fill-rule="nonzero" fill-opacity="1" /><path clip-path="url(#clip240)" d="M822.72 1794.89 L839.04 1794.89 L839.04 1798.82 L817.095 1798.82 L817.095 1794.89 Q819.757 1792.13 824.341 1787.5 Q828.947 1782.85 830.128 1781.51 Q832.373 1778.98 833.253 1777.25 Q834.155 1775.49 834.155 1773.8 Q834.155 1771.04 832.211 1769.31 Q830.29 1767.57 827.188 1767.57 Q824.989 1767.57 822.535 1768.34 Q820.105 1769.1 817.327 1770.65 L817.327 1765.93 Q820.151 1764.79 822.605 1764.21 Q825.058 1763.64 827.095 1763.64 Q832.466 1763.64 835.66 1766.32 Q838.854 1769.01 838.854 1773.5 Q838.854 1775.63 838.044 1777.55 Q837.257 1779.45 835.151 1782.04 Q834.572 1782.71 831.47 1785.93 Q828.368 1789.12 822.72 1794.89 Z" fill="#000000" fill-rule="nonzero" fill-opacity="1" /><path clip-path="url(#clip240)" d="M848.854 1792.94 L853.739 1792.94 L853.739 1798.82 L848.854 1798.82 L848.854 1792.94 Z" fill="#000000" fill-rule="nonzero" fill-opacity="1" /><path clip-path="url(#clip240)" d="M863.97 1764.26 L882.326 1764.26 L882.326 1768.2 L868.252 1768.2 L868.252 1776.67 Q869.271 1776.32 870.289 1776.16 Q871.308 1775.97 872.326 1775.97 Q878.113 1775.97 881.493 1779.15 Q884.873 1782.32 884.873 1787.73 Q884.873 1793.31 881.4 1796.41 Q877.928 1799.49 871.609 1799.49 Q869.433 1799.49 867.164 1799.12 Q864.919 1798.75 862.512 1798.01 L862.512 1793.31 Q864.595 1794.45 866.817 1795 Q869.039 1795.56 871.516 1795.56 Q875.521 1795.56 877.859 1793.45 Q880.197 1791.34 880.197 1787.73 Q880.197 1784.12 877.859 1782.02 Q875.521 1779.91 871.516 1779.91 Q869.641 1779.91 867.766 1780.33 Q865.914 1780.74 863.97 1781.62 L863.97 1764.26 Z" fill="#000000" fill-rule="nonzero" fill-opacity="1" /><path clip-path="url(#clip240)" d="M1391.79 1764.26 L1410.15 1764.26 L1410.15 1768.2 L1396.08 1768.2 L1396.08 1776.67 Q1397.09 1776.32 1398.11 1776.16 Q1399.13 1775.97 1400.15 1775.97 Q1405.94 1775.97 1409.32 1779.15 Q1412.7 1782.32 1412.7 1787.73 Q1412.7 1793.31 1409.22 1796.41 Q1405.75 1799.49 1399.43 1799.49 Q1397.26 1799.49 1394.99 1799.12 Q1392.74 1798.75 1390.34 1798.01 L1390.34 1793.31 Q1392.42 1794.45 1394.64 1795 Q1396.86 1795.56 1399.34 1795.56 Q1403.34 1795.56 1405.68 1793.45 Q1408.02 1791.34 1408.02 1787.73 Q1408.02 1784.12 1405.68 1782.02 Q1403.34 1779.91 1399.34 1779.91 Q1397.46 1779.91 1395.59 1780.33 Q1393.74 1780.74 1391.79 1781.62 L1391.79 1764.26 Z" fill="#000000" fill-rule="nonzero" fill-opacity="1" /><path clip-path="url(#clip240)" d="M1421.91 1792.94 L1426.79 1792.94 L1426.79 1798.82 L1421.91 1798.82 L1421.91 1792.94 Z" fill="#000000" fill-rule="nonzero" fill-opacity="1" /><path clip-path="url(#clip240)" d="M1446.98 1767.34 Q1443.37 1767.34 1441.54 1770.9 Q1439.73 1774.45 1439.73 1781.58 Q1439.73 1788.68 1441.54 1792.25 Q1443.37 1795.79 1446.98 1795.79 Q1450.61 1795.79 1452.42 1792.25 Q1454.25 1788.68 1454.25 1781.58 Q1454.25 1774.45 1452.42 1770.9 Q1450.61 1767.34 1446.98 1767.34 M1446.98 1763.64 Q1452.79 1763.64 1455.84 1768.24 Q1458.92 1772.83 1458.92 1781.58 Q1458.92 1790.3 1455.84 1794.91 Q1452.79 1799.49 1446.98 1799.49 Q1441.17 1799.49 1438.09 1794.91 Q1435.03 1790.3 1435.03 1781.58 Q1435.03 1772.83 1438.09 1768.24 Q1441.17 1763.64 1446.98 1763.64 Z" fill="#000000" fill-rule="nonzero" fill-opacity="1" /><path clip-path="url(#clip240)" d="M1964.59 1764.26 L1986.82 1764.26 L1986.82 1766.25 L1974.27 1798.82 L1969.38 1798.82 L1981.19 1768.2 L1964.59 1768.2 L1964.59 1764.26 Z" fill="#000000" fill-rule="nonzero" fill-opacity="1" /><path clip-path="url(#clip240)" d="M1995.94 1792.94 L2000.82 1792.94 L2000.82 1798.82 L1995.94 1798.82 L1995.94 1792.94 Z" fill="#000000" fill-rule="nonzero" fill-opacity="1" /><path clip-path="url(#clip240)" d="M2011.05 1764.26 L2029.41 1764.26 L2029.41 1768.2 L2015.33 1768.2 L2015.33 1776.67 Q2016.35 1776.32 2017.37 1776.16 Q2018.39 1775.97 2019.41 1775.97 Q2025.19 1775.97 2028.57 1779.15 Q2031.95 1782.32 2031.95 1787.73 Q2031.95 1793.31 2028.48 1796.41 Q2025.01 1799.49 2018.69 1799.49 Q2016.51 1799.49 2014.25 1799.12 Q2012 1798.75 2009.59 1798.01 L2009.59 1793.31 Q2011.68 1794.45 2013.9 1795 Q2016.12 1795.56 2018.6 1795.56 Q2022.6 1795.56 2024.94 1793.45 Q2027.28 1791.34 2027.28 1787.73 Q2027.28 1784.12 2024.94 1782.02 Q2022.6 1779.91 2018.6 1779.91 Q2016.72 1779.91 2014.85 1780.33 Q2013 1780.74 2011.05 1781.62 L2011.05 1764.26 Z" fill="#000000" fill-rule="nonzero" fill-opacity="1" /><path clip-path="url(#clip240)" d="M2523.99 1794.89 L2531.63 1794.89 L2531.63 1768.52 L2523.32 1770.19 L2523.32 1765.93 L2531.58 1764.26 L2536.26 1764.26 L2536.26 1794.89 L2543.9 1794.89 L2543.9 1798.82 L2523.99 1798.82 L2523.99 1794.89 Z" fill="#000000" fill-rule="nonzero" fill-opacity="1" /><path clip-path="url(#clip240)" d="M2563.34 1767.34 Q2559.73 1767.34 2557.9 1770.9 Q2556.1 1774.45 2556.1 1781.58 Q2556.1 1788.68 2557.9 1792.25 Q2559.73 1795.79 2563.34 1795.79 Q2566.98 1795.79 2568.78 1792.25 Q2570.61 1788.68 2570.61 1781.58 Q2570.61 1774.45 2568.78 1770.9 Q2566.98 1767.34 2563.34 1767.34 M2563.34 1763.64 Q2569.15 1763.64 2572.21 1768.24 Q2575.29 1772.83 2575.29 1781.58 Q2575.29 1790.3 2572.21 1794.91 Q2569.15 1799.49 2563.34 1799.49 Q2557.53 1799.49 2554.45 1794.91 Q2551.4 1790.3 2551.4 1781.58 Q2551.4 1772.83 2554.45 1768.24 Q2557.53 1763.64 2563.34 1763.64 Z" fill="#000000" fill-rule="nonzero" fill-opacity="1" /><path clip-path="url(#clip240)" d="M2583.5 1792.94 L2588.39 1792.94 L2588.39 1798.82 L2583.5 1798.82 L2583.5 1792.94 Z" fill="#000000" fill-rule="nonzero" fill-opacity="1" /><path clip-path="url(#clip240)" d="M2608.57 1767.34 Q2604.96 1767.34 2603.13 1770.9 Q2601.33 1774.45 2601.33 1781.58 Q2601.33 1788.68 2603.13 1792.25 Q2604.96 1795.79 2608.57 1795.79 Q2612.21 1795.79 2614.01 1792.25 Q2615.84 1788.68 2615.84 1781.58 Q2615.84 1774.45 2614.01 1770.9 Q2612.21 1767.34 2608.57 1767.34 M2608.57 1763.64 Q2614.38 1763.64 2617.44 1768.24 Q2620.52 1772.83 2620.52 1781.58 Q2620.52 1790.3 2617.44 1794.91 Q2614.38 1799.49 2608.57 1799.49 Q2602.76 1799.49 2599.68 1794.91 Q2596.63 1790.3 2596.63 1781.58 Q2596.63 1772.83 2599.68 1768.24 Q2602.76 1763.64 2608.57 1763.64 Z" fill="#000000" fill-rule="nonzero" fill-opacity="1" /><path clip-path="url(#clip240)" d="M1363.79 1837.53 L1363.79 1847.65 L1375.85 1847.65 L1375.85 1852.2 L1363.79 1852.2 L1363.79 1871.56 Q1363.79 1875.92 1364.97 1877.16 Q1366.18 1878.4 1369.84 1878.4 L1375.85 1878.4 L1375.85 1883.3 L1369.84 1883.3 Q1363.06 1883.3 1360.48 1880.79 Q1357.9 1878.24 1357.9 1871.56 L1357.9 1852.2 L1353.6 1852.2 L1353.6 1847.65 L1357.9 1847.65 L1357.9 1837.53 L1363.79 1837.53 Z" fill="#000000" fill-rule="nonzero" fill-opacity="1" /><path clip-path="url(#clip240)" d="M1383.55 1847.65 L1389.41 1847.65 L1389.41 1883.3 L1383.55 1883.3 L1383.55 1847.65 M1383.55 1833.78 L1389.41 1833.78 L1389.41 1841.19 L1383.55 1841.19 L1383.55 1833.78 Z" fill="#000000" fill-rule="nonzero" fill-opacity="1" /><path clip-path="url(#clip240)" d="M1429.42 1854.5 Q1431.62 1850.55 1434.67 1848.67 Q1437.73 1846.79 1441.86 1846.79 Q1447.43 1846.79 1450.46 1850.71 Q1453.48 1854.59 1453.48 1861.78 L1453.48 1883.3 L1447.59 1883.3 L1447.59 1861.98 Q1447.59 1856.85 1445.78 1854.37 Q1443.96 1851.89 1440.24 1851.89 Q1435.69 1851.89 1433.05 1854.91 Q1430.41 1857.93 1430.41 1863.15 L1430.41 1883.3 L1424.52 1883.3 L1424.52 1861.98 Q1424.52 1856.82 1422.7 1854.37 Q1420.89 1851.89 1417.1 1851.89 Q1412.61 1851.89 1409.97 1854.94 Q1407.33 1857.97 1407.33 1863.15 L1407.33 1883.3 L1401.44 1883.3 L1401.44 1847.65 L1407.33 1847.65 L1407.33 1853.19 Q1409.34 1849.91 1412.14 1848.35 Q1414.94 1846.79 1418.79 1846.79 Q1422.67 1846.79 1425.38 1848.77 Q1428.11 1850.74 1429.42 1854.5 Z" fill="#000000" fill-rule="nonzero" fill-opacity="1" /><path clip-path="url(#clip240)" d="M1495.65 1864.01 L1495.65 1866.88 L1468.73 1866.88 Q1469.11 1872.92 1472.36 1876.11 Q1475.63 1879.26 1481.46 1879.26 Q1484.83 1879.26 1487.98 1878.43 Q1491.17 1877.6 1494.29 1875.95 L1494.29 1881.49 Q1491.13 1882.82 1487.82 1883.52 Q1484.51 1884.22 1481.11 1884.22 Q1472.58 1884.22 1467.58 1879.26 Q1462.62 1874.29 1462.62 1865.83 Q1462.62 1857.07 1467.33 1851.95 Q1472.07 1846.79 1480.09 1846.79 Q1487.28 1846.79 1491.45 1851.44 Q1495.65 1856.06 1495.65 1864.01 M1489.8 1862.29 Q1489.73 1857.49 1487.09 1854.62 Q1484.48 1851.76 1480.15 1851.76 Q1475.25 1851.76 1472.29 1854.53 Q1469.36 1857.3 1468.92 1862.33 L1489.8 1862.29 Z" fill="#000000" fill-rule="nonzero" fill-opacity="1" /><polyline clip-path="url(#clip240)" style="stroke:#000000; stroke-linecap:round; stroke-linejoin:round; stroke-width:4; stroke-opacity:1; fill:none" points="208.502,1734.12 208.502,127.792 "/>
<polyline clip-path="url(#clip240)" style="stroke:#000000; stroke-linecap:round; stroke-linejoin:round; stroke-width:4; stroke-opacity:1; fill:none" points="208.502,1469.54 227.399,1469.54 "/>
<polyline clip-path="url(#clip240)" style="stroke:#000000; stroke-linecap:round; stroke-linejoin:round; stroke-width:4; stroke-opacity:1; fill:none" points="208.502,1177.8 227.399,1177.8 "/>
<polyline clip-path="url(#clip240)" style="stroke:#000000; stroke-linecap:round; stroke-linejoin:round; stroke-width:4; stroke-opacity:1; fill:none" points="208.502,886.054 227.399,886.054 "/>
<polyline clip-path="url(#clip240)" style="stroke:#000000; stroke-linecap:round; stroke-linejoin:round; stroke-width:4; stroke-opacity:1; fill:none" points="208.502,594.312 227.399,594.312 "/>
<polyline clip-path="url(#clip240)" style="stroke:#000000; stroke-linecap:round; stroke-linejoin:round; stroke-width:4; stroke-opacity:1; fill:none" points="208.502,302.569 227.399,302.569 "/>
<path clip-path="url(#clip240)" d="M151.862 1482.88 L168.182 1482.88 L168.182 1486.82 L146.237 1486.82 L146.237 1482.88 Q148.899 1480.13 153.483 1475.5 Q158.089 1470.85 159.27 1469.5 Q161.515 1466.98 162.395 1465.24 Q163.298 1463.49 163.298 1461.8 Q163.298 1459.04 161.353 1457.3 Q159.432 1455.57 156.33 1455.57 Q154.131 1455.57 151.677 1456.33 Q149.247 1457.1 146.469 1458.65 L146.469 1453.92 Q149.293 1452.79 151.747 1452.21 Q154.2 1451.63 156.237 1451.63 Q161.608 1451.63 164.802 1454.32 Q167.997 1457 167.997 1461.49 Q167.997 1463.62 167.186 1465.55 Q166.399 1467.44 164.293 1470.04 Q163.714 1470.71 160.612 1473.92 Q157.511 1477.12 151.862 1482.88 Z" fill="#000000" fill-rule="nonzero" fill-opacity="1" /><path clip-path="url(#clip240)" d="M158.598 1164.59 L146.793 1183.04 L158.598 1183.04 L158.598 1164.59 M157.372 1160.52 L163.251 1160.52 L163.251 1183.04 L168.182 1183.04 L168.182 1186.93 L163.251 1186.93 L163.251 1195.08 L158.598 1195.08 L158.598 1186.93 L142.997 1186.93 L142.997 1182.41 L157.372 1160.52 Z" fill="#000000" fill-rule="nonzero" fill-opacity="1" /><path clip-path="url(#clip240)" d="M156.654 884.19 Q153.506 884.19 151.654 886.343 Q149.825 888.496 149.825 892.246 Q149.825 895.973 151.654 898.149 Q153.506 900.301 156.654 900.301 Q159.802 900.301 161.631 898.149 Q163.483 895.973 163.483 892.246 Q163.483 888.496 161.631 886.343 Q159.802 884.19 156.654 884.19 M165.936 869.538 L165.936 873.797 Q164.177 872.964 162.372 872.524 Q160.589 872.084 158.83 872.084 Q154.2 872.084 151.747 875.209 Q149.316 878.334 148.969 884.653 Q150.335 882.639 152.395 881.575 Q154.455 880.487 156.932 880.487 Q162.14 880.487 165.149 883.658 Q168.182 886.806 168.182 892.246 Q168.182 897.57 165.034 900.788 Q161.885 904.005 156.654 904.005 Q150.659 904.005 147.487 899.422 Q144.316 894.815 144.316 886.089 Q144.316 877.894 148.205 873.033 Q152.094 868.149 158.645 868.149 Q160.404 868.149 162.186 868.496 Q163.992 868.843 165.936 869.538 Z" fill="#000000" fill-rule="nonzero" fill-opacity="1" /><path clip-path="url(#clip240)" d="M156.33 595.18 Q152.997 595.18 151.075 596.962 Q149.177 598.744 149.177 601.869 Q149.177 604.994 151.075 606.777 Q152.997 608.559 156.33 608.559 Q159.663 608.559 161.585 606.777 Q163.506 604.971 163.506 601.869 Q163.506 598.744 161.585 596.962 Q159.686 595.18 156.33 595.18 M151.654 593.189 Q148.645 592.448 146.955 590.388 Q145.288 588.328 145.288 585.365 Q145.288 581.221 148.228 578.814 Q151.191 576.407 156.33 576.407 Q161.492 576.407 164.432 578.814 Q167.372 581.221 167.372 585.365 Q167.372 588.328 165.682 590.388 Q164.015 592.448 161.029 593.189 Q164.409 593.976 166.284 596.268 Q168.182 598.559 168.182 601.869 Q168.182 606.893 165.103 609.578 Q162.048 612.263 156.33 612.263 Q150.612 612.263 147.534 609.578 Q144.478 606.893 144.478 601.869 Q144.478 598.559 146.376 596.268 Q148.274 593.976 151.654 593.189 M149.941 585.805 Q149.941 588.49 151.608 589.994 Q153.298 591.499 156.33 591.499 Q159.339 591.499 161.029 589.994 Q162.742 588.49 162.742 585.805 Q162.742 583.12 161.029 581.615 Q159.339 580.11 156.33 580.11 Q153.298 580.11 151.608 581.615 Q149.941 583.12 149.941 585.805 Z" fill="#000000" fill-rule="nonzero" fill-opacity="1" /><path clip-path="url(#clip240)" d="M116.886 315.914 L124.525 315.914 L124.525 289.549 L116.214 291.215 L116.214 286.956 L124.478 285.289 L129.154 285.289 L129.154 315.914 L136.793 315.914 L136.793 319.849 L116.886 319.849 L116.886 315.914 Z" fill="#000000" fill-rule="nonzero" fill-opacity="1" /><path clip-path="url(#clip240)" d="M156.237 288.368 Q152.626 288.368 150.798 291.933 Q148.992 295.474 148.992 302.604 Q148.992 309.71 150.798 313.275 Q152.626 316.817 156.237 316.817 Q159.872 316.817 161.677 313.275 Q163.506 309.71 163.506 302.604 Q163.506 295.474 161.677 291.933 Q159.872 288.368 156.237 288.368 M156.237 284.664 Q162.048 284.664 165.103 289.271 Q168.182 293.854 168.182 302.604 Q168.182 311.331 165.103 315.937 Q162.048 320.521 156.237 320.521 Q150.427 320.521 147.349 315.937 Q144.293 311.331 144.293 302.604 Q144.293 293.854 147.349 289.271 Q150.427 284.664 156.237 284.664 Z" fill="#000000" fill-rule="nonzero" fill-opacity="1" /><path clip-path="url(#clip240)" d="M43.719 1090.1 Q43.719 1097.19 45.3422 1099.93 Q46.9655 1102.67 50.8804 1102.67 Q53.9996 1102.67 55.8457 1100.63 Q57.6599 1098.56 57.6599 1095.03 Q57.6599 1090.16 54.2224 1087.23 Q50.7531 1084.27 45.0239 1084.27 L43.719 1084.27 L43.719 1090.1 M41.3 1078.42 L61.6384 1078.42 L61.6384 1084.27 L56.2276 1084.27 Q59.4741 1086.28 61.0337 1089.27 Q62.5615 1092.26 62.5615 1096.59 Q62.5615 1102.06 59.5059 1105.31 Q56.4186 1108.53 51.2623 1108.53 Q45.2467 1108.53 42.1912 1104.52 Q39.1357 1100.47 39.1357 1092.48 L39.1357 1084.27 L38.5628 1084.27 Q34.5205 1084.27 32.3244 1086.95 Q30.0964 1089.59 30.0964 1094.39 Q30.0964 1097.45 30.8284 1100.35 Q31.5605 1103.24 33.0246 1105.92 L27.6137 1105.92 Q26.3724 1102.7 25.7677 1099.68 Q25.1311 1096.65 25.1311 1093.79 Q25.1311 1086.05 29.1415 1082.24 Q33.1519 1078.42 41.3 1078.42 Z" fill="#000000" fill-rule="nonzero" fill-opacity="1" /><path clip-path="url(#clip240)" d="M43.8463 1040.76 Q37.3851 1040.76 33.7248 1043.44 Q30.0327 1046.08 30.0327 1050.73 Q30.0327 1055.37 33.7248 1058.05 Q37.3851 1060.69 43.8463 1060.69 Q50.3075 1060.69 53.9996 1058.05 Q57.6599 1055.37 57.6599 1050.73 Q57.6599 1046.08 53.9996 1043.44 Q50.3075 1040.76 43.8463 1040.76 M31.4013 1060.69 Q28.2185 1058.84 26.6907 1056.04 Q25.1311 1053.21 25.1311 1049.29 Q25.1311 1042.8 30.2873 1038.76 Q35.4436 1034.68 43.8463 1034.68 Q52.249 1034.68 57.4052 1038.76 Q62.5615 1042.8 62.5615 1049.29 Q62.5615 1053.21 61.0337 1056.04 Q59.4741 1058.84 56.2912 1060.69 L61.6384 1060.69 L61.6384 1066.58 L12.1132 1066.58 L12.1132 1060.69 L31.4013 1060.69 Z" fill="#000000" fill-rule="nonzero" fill-opacity="1" /><path clip-path="url(#clip240)" d="M47.5702 1025.58 L25.9905 1025.58 L25.9905 1019.72 L47.3474 1019.72 Q52.4082 1019.72 54.9545 1017.75 Q57.4689 1015.78 57.4689 1011.83 Q57.4689 1007.09 54.4452 1004.35 Q51.4215 1001.58 46.2016 1001.58 L25.9905 1001.58 L25.9905 995.726 L61.6384 995.726 L61.6384 1001.58 L56.1639 1001.58 Q59.4104 1003.71 61.0019 1006.55 Q62.5615 1009.35 62.5615 1013.07 Q62.5615 1019.22 58.742 1022.4 Q54.9226 1025.58 47.5702 1025.58 M25.1311 1010.84 L25.1311 1010.84 Z" fill="#000000" fill-rule="nonzero" fill-opacity="1" /><path clip-path="url(#clip240)" d="M40.1224 954.03 L61.6384 954.03 L61.6384 959.887 L40.3133 959.887 Q35.2526 959.887 32.7381 961.86 Q30.2237 963.833 30.2237 967.78 Q30.2237 972.523 33.2474 975.26 Q36.2711 977.997 41.491 977.997 L61.6384 977.997 L61.6384 983.885 L25.9905 983.885 L25.9905 977.997 L31.5287 977.997 Q28.314 975.896 26.7225 973.064 Q25.1311 970.199 25.1311 966.475 Q25.1311 960.332 28.9505 957.181 Q32.7381 954.03 40.1224 954.03 Z" fill="#000000" fill-rule="nonzero" fill-opacity="1" /><path clip-path="url(#clip240)" d="M31.4013 918.892 L12.1132 918.892 L12.1132 913.035 L61.6384 913.035 L61.6384 918.892 L56.2912 918.892 Q59.4741 920.738 61.0337 923.57 Q62.5615 926.371 62.5615 930.318 Q62.5615 936.779 57.4052 940.853 Q52.249 944.895 43.8463 944.895 Q35.4436 944.895 30.2873 940.853 Q25.1311 936.779 25.1311 930.318 Q25.1311 926.371 26.6907 923.57 Q28.2185 920.738 31.4013 918.892 M43.8463 938.848 Q50.3075 938.848 53.9996 936.206 Q57.6599 933.533 57.6599 928.886 Q57.6599 924.239 53.9996 921.565 Q50.3075 918.892 43.8463 918.892 Q37.3851 918.892 33.7248 921.565 Q30.0327 924.239 30.0327 928.886 Q30.0327 933.533 33.7248 936.206 Q37.3851 938.848 43.8463 938.848 Z" fill="#000000" fill-rule="nonzero" fill-opacity="1" /><path clip-path="url(#clip240)" d="M43.719 884.771 Q43.719 891.869 45.3422 894.606 Q46.9655 897.344 50.8804 897.344 Q53.9996 897.344 55.8457 895.307 Q57.6599 893.238 57.6599 889.705 Q57.6599 884.835 54.2224 881.907 Q50.7531 878.947 45.0239 878.947 L43.719 878.947 L43.719 884.771 M41.3 873.09 L61.6384 873.09 L61.6384 878.947 L56.2276 878.947 Q59.4741 880.952 61.0337 883.944 Q62.5615 886.936 62.5615 891.264 Q62.5615 896.739 59.5059 899.985 Q56.4186 903.2 51.2623 903.2 Q45.2467 903.2 42.1912 899.19 Q39.1357 895.147 39.1357 887.158 L39.1357 878.947 L38.5628 878.947 Q34.5205 878.947 32.3244 881.62 Q30.0964 884.262 30.0964 889.068 Q30.0964 892.124 30.8284 895.02 Q31.5605 897.917 33.0246 900.59 L27.6137 900.59 Q26.3724 897.375 25.7677 894.352 Q25.1311 891.328 25.1311 888.463 Q25.1311 880.729 29.1415 876.91 Q33.1519 873.09 41.3 873.09 Z" fill="#000000" fill-rule="nonzero" fill-opacity="1" /><path clip-path="url(#clip240)" d="M40.1224 831.395 L61.6384 831.395 L61.6384 837.251 L40.3133 837.251 Q35.2526 837.251 32.7381 839.225 Q30.2237 841.198 30.2237 845.145 Q30.2237 849.887 33.2474 852.625 Q36.2711 855.362 41.491 855.362 L61.6384 855.362 L61.6384 861.25 L25.9905 861.25 L25.9905 855.362 L31.5287 855.362 Q28.314 853.261 26.7225 850.428 Q25.1311 847.564 25.1311 843.84 Q25.1311 837.697 28.9505 834.546 Q32.7381 831.395 40.1224 831.395 Z" fill="#000000" fill-rule="nonzero" fill-opacity="1" /><path clip-path="url(#clip240)" d="M27.3591 794.06 L32.8336 794.06 Q31.465 796.543 30.7966 799.057 Q30.0964 801.54 30.0964 804.086 Q30.0964 809.783 33.7248 812.934 Q37.3214 816.085 43.8463 816.085 Q50.3711 816.085 53.9996 812.934 Q57.5962 809.783 57.5962 804.086 Q57.5962 801.54 56.9278 799.057 Q56.2276 796.543 54.859 794.06 L60.2698 794.06 Q61.4156 796.511 61.9886 799.153 Q62.5615 801.763 62.5615 804.723 Q62.5615 812.775 57.5007 817.518 Q52.44 822.26 43.8463 822.26 Q35.1253 822.26 30.1282 817.486 Q25.1311 812.68 25.1311 804.341 Q25.1311 801.635 25.704 799.057 Q26.2451 796.479 27.3591 794.06 Z" fill="#000000" fill-rule="nonzero" fill-opacity="1" /><path clip-path="url(#clip240)" d="M42.3504 753.383 L45.2149 753.383 L45.2149 780.31 Q51.2623 779.928 54.4452 776.682 Q57.5962 773.403 57.5962 767.579 Q57.5962 764.205 56.7687 761.054 Q55.9411 757.871 54.2861 754.752 L59.8242 754.752 Q61.161 757.903 61.8612 761.213 Q62.5615 764.523 62.5615 767.929 Q62.5615 776.459 57.5962 781.456 Q52.631 786.421 44.1646 786.421 Q35.4117 786.421 30.2873 781.711 Q25.1311 776.968 25.1311 768.947 Q25.1311 761.754 29.7781 757.585 Q34.3932 753.383 42.3504 753.383 M40.6316 759.24 Q35.8255 759.303 32.9609 761.945 Q30.0964 764.555 30.0964 768.884 Q30.0964 773.785 32.8654 776.745 Q35.6345 779.674 40.6634 780.119 L40.6316 759.24 Z" fill="#000000" fill-rule="nonzero" fill-opacity="1" /><path clip-path="url(#clip240)" d="M974.411 12.096 L982.594 12.096 L982.594 36.8875 L1012.33 36.8875 L1012.33 12.096 L1020.51 12.096 L1020.51 72.576 L1012.33 72.576 L1012.33 43.7741 L982.594 43.7741 L982.594 72.576 L974.411 72.576 L974.411 12.096 Z" fill="#000000" fill-rule="nonzero" fill-opacity="1" /><path clip-path="url(#clip240)" d="M1057.09 49.7694 Q1048.06 49.7694 1044.57 51.8354 Q1041.09 53.9013 1041.09 58.8839 Q1041.09 62.8538 1043.68 65.2034 Q1046.31 67.5124 1050.81 67.5124 Q1057.01 67.5124 1060.74 63.1374 Q1064.5 58.7219 1064.5 51.4303 L1064.5 49.7694 L1057.09 49.7694 M1071.96 46.6907 L1071.96 72.576 L1064.5 72.576 L1064.5 65.6895 Q1061.95 69.8214 1058.14 71.8063 Q1054.34 73.7508 1048.83 73.7508 Q1041.86 73.7508 1037.73 69.8619 Q1033.64 65.9325 1033.64 59.3701 Q1033.64 51.7138 1038.74 47.825 Q1043.88 43.9361 1054.05 43.9361 L1064.5 43.9361 L1064.5 43.2069 Q1064.5 38.0623 1061.1 35.2672 Q1057.74 32.4315 1051.62 32.4315 Q1047.73 32.4315 1044.05 33.3632 Q1040.36 34.295 1036.96 36.1584 L1036.96 29.2718 Q1041.05 27.692 1044.9 26.9223 Q1048.75 26.1121 1052.39 26.1121 Q1062.23 26.1121 1067.1 31.2163 Q1071.96 36.3204 1071.96 46.6907 Z" fill="#000000" fill-rule="nonzero" fill-opacity="1" /><path clip-path="url(#clip240)" d="M1113.6 34.1734 Q1112.34 33.4443 1110.85 33.1202 Q1109.39 32.7556 1107.61 32.7556 Q1101.29 32.7556 1097.88 36.8875 Q1094.52 40.9789 1094.52 48.6757 L1094.52 72.576 L1087.03 72.576 L1087.03 27.2059 L1094.52 27.2059 L1094.52 34.2544 Q1096.87 30.1225 1100.64 28.1376 Q1104.4 26.1121 1109.79 26.1121 Q1110.56 26.1121 1111.49 26.2337 Q1112.43 26.3147 1113.56 26.5172 L1113.6 34.1734 Z" fill="#000000" fill-rule="nonzero" fill-opacity="1" /><path clip-path="url(#clip240)" d="M1116.07 27.2059 L1123.97 27.2059 L1138.15 65.2844 L1152.33 27.2059 L1160.23 27.2059 L1143.21 72.576 L1133.09 72.576 L1116.07 27.2059 Z" fill="#000000" fill-rule="nonzero" fill-opacity="1" /><path clip-path="url(#clip240)" d="M1209.32 48.0275 L1209.32 51.6733 L1175.05 51.6733 Q1175.54 59.3701 1179.67 63.421 Q1183.84 67.4314 1191.26 67.4314 Q1195.55 67.4314 1199.56 66.3781 Q1203.61 65.3249 1207.58 63.2184 L1207.58 70.267 Q1203.57 71.9684 1199.36 72.8596 Q1195.15 73.7508 1190.81 73.7508 Q1179.95 73.7508 1173.59 67.4314 Q1167.27 61.1119 1167.27 50.3365 Q1167.27 39.1965 1173.27 32.6746 Q1179.31 26.1121 1189.51 26.1121 Q1198.67 26.1121 1203.98 32.0264 Q1209.32 37.9003 1209.32 48.0275 M1201.87 45.84 Q1201.79 39.7232 1198.43 36.0774 Q1195.1 32.4315 1189.6 32.4315 Q1183.36 32.4315 1179.59 35.9558 Q1175.86 39.4801 1175.3 45.8805 L1201.87 45.84 Z" fill="#000000" fill-rule="nonzero" fill-opacity="1" /><path clip-path="url(#clip240)" d="M1250.48 28.5427 L1250.48 35.5912 Q1247.32 33.9709 1243.92 33.1607 Q1240.52 32.3505 1236.87 32.3505 Q1231.32 32.3505 1228.52 34.0519 Q1225.77 35.7533 1225.77 39.156 Q1225.77 41.7486 1227.75 43.2475 Q1229.74 44.7058 1235.74 46.0426 L1238.29 46.6097 Q1246.23 48.3111 1249.55 51.4303 Q1252.91 54.509 1252.91 60.0587 Q1252.91 66.3781 1247.89 70.0644 Q1242.91 73.7508 1234.16 73.7508 Q1230.51 73.7508 1226.54 73.0216 Q1222.61 72.3329 1218.24 70.9151 L1218.24 63.2184 Q1222.37 65.3654 1226.38 66.4591 Q1230.39 67.5124 1234.32 67.5124 Q1239.58 67.5124 1242.42 65.73 Q1245.25 63.9071 1245.25 60.6258 Q1245.25 57.5877 1243.19 55.9673 Q1241.16 54.3469 1234.24 52.8481 L1231.64 52.2405 Q1224.72 50.7821 1221.64 47.7845 Q1218.56 44.7463 1218.56 39.4801 Q1218.56 33.0797 1223.1 29.5959 Q1227.63 26.1121 1235.98 26.1121 Q1240.11 26.1121 1243.76 26.7198 Q1247.4 27.3274 1250.48 28.5427 Z" fill="#000000" fill-rule="nonzero" fill-opacity="1" /><path clip-path="url(#clip240)" d="M1272.15 14.324 L1272.15 27.2059 L1287.51 27.2059 L1287.51 32.9987 L1272.15 32.9987 L1272.15 57.6282 Q1272.15 63.1779 1273.65 64.7578 Q1275.19 66.3376 1279.85 66.3376 L1287.51 66.3376 L1287.51 72.576 L1279.85 72.576 Q1271.22 72.576 1267.94 69.3758 Q1264.66 66.1351 1264.66 57.6282 L1264.66 32.9987 L1259.19 32.9987 L1259.19 27.2059 L1264.66 27.2059 L1264.66 14.324 L1272.15 14.324 Z" fill="#000000" fill-rule="nonzero" fill-opacity="1" /><path clip-path="url(#clip240)" d="M1330.89 65.7705 L1330.89 89.8329 L1323.4 89.8329 L1323.4 27.2059 L1330.89 27.2059 L1330.89 34.0924 Q1333.24 30.0415 1336.81 28.0971 Q1340.41 26.1121 1345.39 26.1121 Q1353.66 26.1121 1358.8 32.6746 Q1363.99 39.2371 1363.99 49.9314 Q1363.99 60.6258 1358.8 67.1883 Q1353.66 73.7508 1345.39 73.7508 Q1340.41 73.7508 1336.81 71.8063 Q1333.24 69.8214 1330.89 65.7705 M1356.25 49.9314 Q1356.25 41.7081 1352.85 37.0496 Q1349.48 32.3505 1343.57 32.3505 Q1337.66 32.3505 1334.25 37.0496 Q1330.89 41.7081 1330.89 49.9314 Q1330.89 58.1548 1334.25 62.8538 Q1337.66 67.5124 1343.57 67.5124 Q1349.48 67.5124 1352.85 62.8538 Q1356.25 58.1548 1356.25 49.9314 Z" fill="#000000" fill-rule="nonzero" fill-opacity="1" /><path clip-path="url(#clip240)" d="M1375.57 54.671 L1375.57 27.2059 L1383.03 27.2059 L1383.03 54.3874 Q1383.03 60.8284 1385.54 64.0691 Q1388.05 67.2693 1393.07 67.2693 Q1399.11 67.2693 1402.59 63.421 Q1406.12 59.5726 1406.12 52.9291 L1406.12 27.2059 L1413.57 27.2059 L1413.57 72.576 L1406.12 72.576 L1406.12 65.6084 Q1403.4 69.7404 1399.8 71.7658 Q1396.23 73.7508 1391.49 73.7508 Q1383.67 73.7508 1379.62 68.8897 Q1375.57 64.0286 1375.57 54.671 M1394.33 26.1121 L1394.33 26.1121 Z" fill="#000000" fill-rule="nonzero" fill-opacity="1" /><path clip-path="url(#clip240)" d="M1428.92 9.54393 L1436.38 9.54393 L1436.38 72.576 L1428.92 72.576 L1428.92 9.54393 Z" fill="#000000" fill-rule="nonzero" fill-opacity="1" /><path clip-path="url(#clip240)" d="M1480.9 28.5427 L1480.9 35.5912 Q1477.74 33.9709 1474.33 33.1607 Q1470.93 32.3505 1467.28 32.3505 Q1461.74 32.3505 1458.94 34.0519 Q1456.19 35.7533 1456.19 39.156 Q1456.19 41.7486 1458.17 43.2475 Q1460.16 44.7058 1466.15 46.0426 L1468.7 46.6097 Q1476.64 48.3111 1479.96 51.4303 Q1483.33 54.509 1483.33 60.0587 Q1483.33 66.3781 1478.3 70.0644 Q1473.32 73.7508 1464.57 73.7508 Q1460.92 73.7508 1456.96 73.0216 Q1453.03 72.3329 1448.65 70.9151 L1448.65 63.2184 Q1452.78 65.3654 1456.79 66.4591 Q1460.8 67.5124 1464.73 67.5124 Q1470 67.5124 1472.83 65.73 Q1475.67 63.9071 1475.67 60.6258 Q1475.67 57.5877 1473.6 55.9673 Q1471.58 54.3469 1464.65 52.8481 L1462.06 52.2405 Q1455.13 50.7821 1452.05 47.7845 Q1448.97 44.7463 1448.97 39.4801 Q1448.97 33.0797 1453.51 29.5959 Q1458.05 26.1121 1466.39 26.1121 Q1470.53 26.1121 1474.17 26.7198 Q1477.82 27.3274 1480.9 28.5427 Z" fill="#000000" fill-rule="nonzero" fill-opacity="1" /><path clip-path="url(#clip240)" d="M1534 48.0275 L1534 51.6733 L1499.73 51.6733 Q1500.22 59.3701 1504.35 63.421 Q1508.52 67.4314 1515.94 67.4314 Q1520.23 67.4314 1524.24 66.3781 Q1528.29 65.3249 1532.26 63.2184 L1532.26 70.267 Q1528.25 71.9684 1524.04 72.8596 Q1519.83 73.7508 1515.49 73.7508 Q1504.63 73.7508 1498.27 67.4314 Q1491.95 61.1119 1491.95 50.3365 Q1491.95 39.1965 1497.95 32.6746 Q1503.99 26.1121 1514.19 26.1121 Q1523.35 26.1121 1528.66 32.0264 Q1534 37.9003 1534 48.0275 M1526.55 45.84 Q1526.47 39.7232 1523.11 36.0774 Q1519.78 32.4315 1514.28 32.4315 Q1508.04 32.4315 1504.27 35.9558 Q1500.54 39.4801 1499.98 45.8805 L1526.55 45.84 Z" fill="#000000" fill-rule="nonzero" fill-opacity="1" /><path clip-path="url(#clip240)" d="M1593.23 49.7694 Q1584.19 49.7694 1580.71 51.8354 Q1577.23 53.9013 1577.23 58.8839 Q1577.23 62.8538 1579.82 65.2034 Q1582.45 67.5124 1586.95 67.5124 Q1593.15 67.5124 1596.87 63.1374 Q1600.64 58.7219 1600.64 51.4303 L1600.64 49.7694 L1593.23 49.7694 M1608.09 46.6907 L1608.09 72.576 L1600.64 72.576 L1600.64 65.6895 Q1598.09 69.8214 1594.28 71.8063 Q1590.47 73.7508 1584.96 73.7508 Q1578 73.7508 1573.86 69.8619 Q1569.77 65.9325 1569.77 59.3701 Q1569.77 51.7138 1574.88 47.825 Q1580.02 43.9361 1590.19 43.9361 L1600.64 43.9361 L1600.64 43.2069 Q1600.64 38.0623 1597.24 35.2672 Q1593.88 32.4315 1587.76 32.4315 Q1583.87 32.4315 1580.18 33.3632 Q1576.5 34.295 1573.09 36.1584 L1573.09 29.2718 Q1577.19 27.692 1581.03 26.9223 Q1584.88 26.1121 1588.53 26.1121 Q1598.37 26.1121 1603.23 31.2163 Q1608.09 36.3204 1608.09 46.6907 Z" fill="#000000" fill-rule="nonzero" fill-opacity="1" /><path clip-path="url(#clip240)" d="M1630.82 14.324 L1630.82 27.2059 L1646.17 27.2059 L1646.17 32.9987 L1630.82 32.9987 L1630.82 57.6282 Q1630.82 63.1779 1632.32 64.7578 Q1633.86 66.3376 1638.52 66.3376 L1646.17 66.3376 L1646.17 72.576 L1638.52 72.576 Q1629.89 72.576 1626.61 69.3758 Q1623.33 66.1351 1623.33 57.6282 L1623.33 32.9987 L1617.86 32.9987 L1617.86 27.2059 L1623.33 27.2059 L1623.33 14.324 L1630.82 14.324 Z" fill="#000000" fill-rule="nonzero" fill-opacity="1" /><path clip-path="url(#clip240)" d="M1689.72 14.324 L1689.72 27.2059 L1705.07 27.2059 L1705.07 32.9987 L1689.72 32.9987 L1689.72 57.6282 Q1689.72 63.1779 1691.22 64.7578 Q1692.76 66.3376 1697.42 66.3376 L1705.07 66.3376 L1705.07 72.576 L1697.42 72.576 Q1688.79 72.576 1685.51 69.3758 Q1682.23 66.1351 1682.23 57.6282 L1682.23 32.9987 L1676.76 32.9987 L1676.76 27.2059 L1682.23 27.2059 L1682.23 14.324 L1689.72 14.324 Z" fill="#000000" fill-rule="nonzero" fill-opacity="1" /><path clip-path="url(#clip240)" d="M1742.22 34.9026 L1794.15 34.9026 L1794.15 41.7081 L1742.22 41.7081 L1742.22 34.9026 M1742.22 51.4303 L1794.15 51.4303 L1794.15 58.3168 L1742.22 58.3168 L1742.22 51.4303 Z" fill="#000000" fill-rule="nonzero" fill-opacity="1" /><path clip-path="url(#clip240)" d="M1838.27 12.096 L1870.39 12.096 L1870.39 18.9825 L1845.76 18.9825 L1845.76 33.8088 Q1847.54 33.2012 1849.33 32.9176 Q1851.11 32.5936 1852.89 32.5936 Q1863.02 32.5936 1868.93 38.1433 Q1874.85 43.6931 1874.85 53.1722 Q1874.85 62.9348 1868.77 68.3631 Q1862.69 73.7508 1851.63 73.7508 Q1847.83 73.7508 1843.86 73.1026 Q1839.93 72.4545 1835.71 71.1582 L1835.71 62.9348 Q1839.36 64.9198 1843.25 65.892 Q1847.14 66.8642 1851.47 66.8642 Q1858.48 66.8642 1862.57 63.1779 Q1866.66 59.4916 1866.66 53.1722 Q1866.66 46.8528 1862.57 43.1664 Q1858.48 39.4801 1851.47 39.4801 Q1848.19 39.4801 1844.91 40.2093 Q1841.67 40.9384 1838.27 42.4778 L1838.27 12.096 Z" fill="#000000" fill-rule="nonzero" fill-opacity="1" /><polyline clip-path="url(#clip241)" style="stroke:#009af9; stroke-linecap:round; stroke-linejoin:round; stroke-width:4; stroke-opacity:1; fill:none" points="277.339,302.569 300.285,345.681 323.231,387.518 346.177,428.119 369.122,467.52 392.068,505.756 415.014,542.863 437.96,578.872 460.905,613.818 483.851,647.731 506.797,680.641 529.743,712.579 552.689,743.573 575.634,773.65 598.58,802.839 621.526,831.165 644.472,858.654 667.418,885.331 690.363,911.219 713.309,936.343 736.255,960.723 759.201,984.384 782.147,1007.34 805.092,1029.63 828.038,1051.25 850.984,1072.23 873.93,1092.6 896.876,1112.36 919.821,1131.54 942.767,1150.15 965.713,1168.21 988.659,1185.74 1011.6,1202.75 1034.55,1219.26 1057.5,1235.28 1080.44,1250.82 1103.39,1265.91 1126.33,1280.55 1149.28,1294.76 1172.23,1308.55 1195.17,1321.93 1218.12,1334.91 1241.06,1347.51 1264.01,1359.74 1286.95,1371.61 1309.9,1383.12 1332.85,1394.3 1355.79,1405.15 1378.74,1415.67 1401.68,1425.89 1424.63,1435.8 1447.57,1445.42 1470.52,1454.75 1493.47,1463.81 1516.41,1472.6 1539.36,1481.14 1562.3,1489.42 1585.25,1497.45 1608.2,1505.25 1631.14,1512.81 1654.09,1520.16 1677.03,1527.28 1699.98,1534.2 1722.92,1540.91 1745.87,1547.42 1768.82,1553.74 1791.76,1559.88 1814.71,1565.83 1837.65,1571.61 1860.6,1577.21 1883.54,1582.65 1906.49,1587.93 1929.44,1593.05 1952.38,1598.03 1975.33,1602.85 1998.27,1607.53 2021.22,1612.08 2044.17,1616.49 2067.11,1620.77 2090.06,1624.92 2113,1628.95 2135.95,1632.86 2158.89,1636.66 2181.84,1640.34 2204.79,1643.91 2227.73,1647.38 2250.68,1650.75 2273.62,1654.02 2296.57,1657.19 2319.51,1660.26 2342.46,1663.25 2365.41,1666.14 2388.35,1668.96 2411.3,1671.68 2434.24,1674.33 2457.19,1676.9 2480.14,1679.4 2503.08,1681.82 2526.03,1684.16 2548.97,1686.44 2571.92,1688.65 "/>
<polyline clip-path="url(#clip241)" style="stroke:#e26f46; stroke-linecap:round; stroke-linejoin:round; stroke-width:4; stroke-opacity:1; fill:none" points="277.339,302.569 300.285,288.487 323.231,275.389 346.177,263.243 369.122,252.013 392.068,241.667 415.014,232.174 437.96,223.502 460.905,215.623 483.851,208.507 506.797,202.127 529.743,196.456 552.689,191.467 575.634,187.135 598.58,183.437 621.526,180.347 644.472,177.843 667.418,175.904 690.363,174.506 713.309,173.629 736.255,173.254 759.201,173.361 782.147,173.93 805.092,174.944 828.038,176.385 850.984,178.236 873.93,180.479 896.876,183.1 919.821,186.081 942.767,189.409 965.713,193.068 988.659,197.045 1011.6,201.326 1034.55,205.897 1057.5,210.748 1080.44,215.864 1103.39,221.234 1126.33,226.847 1149.28,232.691 1172.23,238.755 1195.17,245.029 1218.12,251.503 1241.06,258.167 1264.01,265.012 1286.95,272.028 1309.9,279.207 1332.85,286.54 1355.79,294.02 1378.74,301.638 1401.68,309.386 1424.63,317.257 1424.63,1039.27 1447.57,1040.07 1470.52,1041.06 1493.47,1042.21 1516.41,1043.54 1539.36,1045.02 1562.3,1046.65 1585.25,1048.43 1608.2,1050.35 1631.14,1052.41 1654.09,1054.59 1677.03,1056.9 1699.98,1059.32 1722.92,1061.85 1745.87,1064.49 1768.82,1067.23 1791.76,1070.07 1814.71,1073 1837.65,1076.01 1860.6,1079.11 1883.54,1082.29 1906.49,1085.55 1929.44,1088.87 1952.38,1092.27 1975.33,1095.72 1998.27,1099.24 2021.22,1102.81 2044.17,1106.44 2067.11,1110.12 2090.06,1113.84 2113,1117.61 2135.95,1121.42 2158.89,1125.27 2181.84,1129.15 2204.79,1133.07 2227.73,1137.02 2250.68,1141 2273.62,1145 2296.57,1149.03 2319.51,1153.09 2342.46,1157.16 2365.41,1161.25 2388.35,1165.35 2411.3,1169.47 2434.24,1173.6 2457.19,1177.75 2480.14,1181.9 2503.08,1186.06 2526.03,1190.22 2548.97,1194.4 2571.92,1198.57 "/>
<path clip-path="url(#clip240)" d="M2132.13 336.856 L2559.68 336.856 L2559.68 181.336 L2132.13 181.336  Z" fill="#ffffff" fill-rule="evenodd" fill-opacity="1"/>
<polyline clip-path="url(#clip240)" style="stroke:#000000; stroke-linecap:round; stroke-linejoin:round; stroke-width:4; stroke-opacity:1; fill:none" points="2132.13,336.856 2559.68,336.856 2559.68,181.336 2132.13,181.336 2132.13,336.856 "/>
<polyline clip-path="url(#clip240)" style="stroke:#009af9; stroke-linecap:round; stroke-linejoin:round; stroke-width:4; stroke-opacity:1; fill:none" points="2159.15,233.176 2321.3,233.176 "/>
<path clip-path="url(#clip240)" d="M2353.65 224.531 L2357.91 224.531 L2357.91 250.919 Q2357.91 255.873 2356.01 258.095 Q2354.14 260.317 2349.95 260.317 L2348.33 260.317 L2348.33 256.706 L2349.46 256.706 Q2351.89 256.706 2352.77 255.572 Q2353.65 254.461 2353.65 250.919 L2353.65 224.531 M2353.65 214.438 L2357.91 214.438 L2357.91 219.831 L2353.65 219.831 L2353.65 214.438 Z" fill="#000000" fill-rule="nonzero" fill-opacity="1" /><path clip-path="url(#clip240)" d="M2366.38 240.225 L2366.38 224.531 L2370.64 224.531 L2370.64 240.063 Q2370.64 243.743 2372.08 245.595 Q2373.51 247.424 2376.38 247.424 Q2379.83 247.424 2381.82 245.225 Q2383.84 243.026 2383.84 239.229 L2383.84 224.531 L2388.1 224.531 L2388.1 250.456 L2383.84 250.456 L2383.84 246.475 Q2382.29 248.836 2380.23 249.993 Q2378.19 251.128 2375.48 251.128 Q2371.01 251.128 2368.7 248.35 Q2366.38 245.572 2366.38 240.225 M2377.1 223.906 L2377.1 223.906 Z" fill="#000000" fill-rule="nonzero" fill-opacity="1" /><path clip-path="url(#clip240)" d="M2393.81 224.531 L2398.33 224.531 L2406.43 246.29 L2414.53 224.531 L2419.05 224.531 L2409.32 250.456 L2403.54 250.456 L2393.81 224.531 Z" fill="#000000" fill-rule="nonzero" fill-opacity="1" /><path clip-path="url(#clip240)" d="M2447.1 236.429 L2447.1 238.512 L2427.52 238.512 Q2427.8 242.91 2430.16 245.225 Q2432.54 247.516 2436.78 247.516 Q2439.23 247.516 2441.52 246.915 Q2443.84 246.313 2446.11 245.109 L2446.11 249.137 Q2443.81 250.109 2441.41 250.618 Q2439 251.128 2436.52 251.128 Q2430.32 251.128 2426.68 247.516 Q2423.07 243.905 2423.07 237.748 Q2423.07 231.382 2426.5 227.655 Q2429.95 223.906 2435.78 223.906 Q2441.01 223.906 2444.05 227.285 Q2447.1 230.642 2447.1 236.429 M2442.84 235.179 Q2442.8 231.683 2440.87 229.6 Q2438.98 227.517 2435.83 227.517 Q2432.26 227.517 2430.11 229.53 Q2427.98 231.544 2427.66 235.202 L2442.84 235.179 Z" fill="#000000" fill-rule="nonzero" fill-opacity="1" /><path clip-path="url(#clip240)" d="M2475.64 234.808 L2475.64 250.456 L2471.38 250.456 L2471.38 234.947 Q2471.38 231.267 2469.95 229.438 Q2468.51 227.609 2465.64 227.609 Q2462.19 227.609 2460.2 229.808 Q2458.21 232.007 2458.21 235.804 L2458.21 250.456 L2453.93 250.456 L2453.93 224.531 L2458.21 224.531 L2458.21 228.558 Q2459.74 226.22 2461.8 225.063 Q2463.88 223.906 2466.59 223.906 Q2471.06 223.906 2473.35 226.683 Q2475.64 229.438 2475.64 234.808 Z" fill="#000000" fill-rule="nonzero" fill-opacity="1" /><path clip-path="url(#clip240)" d="M2484.14 224.531 L2488.4 224.531 L2488.4 250.456 L2484.14 250.456 L2484.14 224.531 M2484.14 214.438 L2488.4 214.438 L2488.4 219.831 L2484.14 219.831 L2484.14 214.438 Z" fill="#000000" fill-rule="nonzero" fill-opacity="1" /><path clip-path="url(#clip240)" d="M2497.31 214.438 L2501.57 214.438 L2501.57 250.456 L2497.31 250.456 L2497.31 214.438 Z" fill="#000000" fill-rule="nonzero" fill-opacity="1" /><path clip-path="url(#clip240)" d="M2532.66 236.429 L2532.66 238.512 L2513.07 238.512 Q2513.35 242.91 2515.71 245.225 Q2518.1 247.516 2522.33 247.516 Q2524.79 247.516 2527.08 246.915 Q2529.39 246.313 2531.66 245.109 L2531.66 249.137 Q2529.37 250.109 2526.96 250.618 Q2524.55 251.128 2522.08 251.128 Q2515.87 251.128 2512.24 247.516 Q2508.63 243.905 2508.63 237.748 Q2508.63 231.382 2512.05 227.655 Q2515.5 223.906 2521.34 223.906 Q2526.57 223.906 2529.6 227.285 Q2532.66 230.642 2532.66 236.429 M2528.4 235.179 Q2528.35 231.683 2526.43 229.6 Q2524.53 227.517 2521.38 227.517 Q2517.82 227.517 2515.67 229.53 Q2513.54 231.544 2513.21 235.202 L2528.4 235.179 Z" fill="#000000" fill-rule="nonzero" fill-opacity="1" /><polyline clip-path="url(#clip240)" style="stroke:#e26f46; stroke-linecap:round; stroke-linejoin:round; stroke-width:4; stroke-opacity:1; fill:none" points="2159.15,285.016 2321.3,285.016 "/>
<path clip-path="url(#clip240)" d="M2361.73 289.264 Q2356.57 289.264 2354.58 290.444 Q2352.59 291.625 2352.59 294.472 Q2352.59 296.741 2354.07 298.083 Q2355.57 299.403 2358.14 299.403 Q2361.68 299.403 2363.81 296.903 Q2365.97 294.38 2365.97 290.213 L2365.97 289.264 L2361.73 289.264 M2370.23 287.505 L2370.23 302.296 L2365.97 302.296 L2365.97 298.361 Q2364.51 300.722 2362.33 301.856 Q2360.16 302.968 2357.01 302.968 Q2353.03 302.968 2350.67 300.745 Q2348.33 298.5 2348.33 294.75 Q2348.33 290.375 2351.24 288.153 Q2354.18 285.931 2359.99 285.931 L2365.97 285.931 L2365.97 285.514 Q2365.97 282.574 2364.02 280.977 Q2362.1 279.357 2358.61 279.357 Q2356.38 279.357 2354.28 279.889 Q2352.17 280.421 2350.23 281.486 L2350.23 277.551 Q2352.56 276.648 2354.76 276.208 Q2356.96 275.746 2359.05 275.746 Q2364.67 275.746 2367.45 278.662 Q2370.23 281.579 2370.23 287.505 Z" fill="#000000" fill-rule="nonzero" fill-opacity="1" /><path clip-path="url(#clip240)" d="M2396.06 280.306 L2396.06 266.278 L2400.32 266.278 L2400.32 302.296 L2396.06 302.296 L2396.06 298.407 Q2394.72 300.722 2392.66 301.856 Q2390.62 302.968 2387.75 302.968 Q2383.05 302.968 2380.09 299.218 Q2377.15 295.468 2377.15 289.357 Q2377.15 283.245 2380.09 279.495 Q2383.05 275.746 2387.75 275.746 Q2390.62 275.746 2392.66 276.88 Q2394.72 277.991 2396.06 280.306 M2381.55 289.357 Q2381.55 294.056 2383.47 296.741 Q2385.41 299.403 2388.79 299.403 Q2392.17 299.403 2394.11 296.741 Q2396.06 294.056 2396.06 289.357 Q2396.06 284.657 2394.11 281.995 Q2392.17 279.31 2388.79 279.31 Q2385.41 279.31 2383.47 281.995 Q2381.55 284.657 2381.55 289.357 Z" fill="#000000" fill-rule="nonzero" fill-opacity="1" /><path clip-path="url(#clip240)" d="M2408.65 292.065 L2408.65 276.371 L2412.91 276.371 L2412.91 291.903 Q2412.91 295.583 2414.35 297.435 Q2415.78 299.264 2418.65 299.264 Q2422.1 299.264 2424.09 297.065 Q2426.11 294.866 2426.11 291.069 L2426.11 276.371 L2430.36 276.371 L2430.36 302.296 L2426.11 302.296 L2426.11 298.315 Q2424.55 300.676 2422.49 301.833 Q2420.46 302.968 2417.75 302.968 Q2413.28 302.968 2410.97 300.19 Q2408.65 297.412 2408.65 292.065 M2419.37 275.746 L2419.37 275.746 Z" fill="#000000" fill-rule="nonzero" fill-opacity="1" /><path clip-path="url(#clip240)" d="M2439.14 266.278 L2443.4 266.278 L2443.4 302.296 L2439.14 302.296 L2439.14 266.278 Z" fill="#000000" fill-rule="nonzero" fill-opacity="1" /><path clip-path="url(#clip240)" d="M2456.52 269.009 L2456.52 276.371 L2465.29 276.371 L2465.29 279.681 L2456.52 279.681 L2456.52 293.755 Q2456.52 296.926 2457.38 297.829 Q2458.26 298.731 2460.92 298.731 L2465.29 298.731 L2465.29 302.296 L2460.92 302.296 Q2455.99 302.296 2454.11 300.468 Q2452.24 298.616 2452.24 293.755 L2452.24 279.681 L2449.11 279.681 L2449.11 276.371 L2452.24 276.371 L2452.24 269.009 L2456.52 269.009 Z" fill="#000000" fill-rule="nonzero" fill-opacity="1" /></svg>
