<?xml version="1.0" encoding="utf-8"?>
<svg xmlns="http://www.w3.org/2000/svg" xmlns:xlink="http://www.w3.org/1999/xlink" width="672" height="480" viewBox="0 0 2688 1920">
<defs>
  <clipPath id="clip330">
    <rect x="0" y="0" width="2688" height="1920"/>
  </clipPath>
</defs>
<path clip-path="url(#clip330)" d="M0 1920 L2688 1920 L2688 -4.26326e-14 L0 -4.26326e-14  Z" fill="#ffffff" fill-rule="evenodd" fill-opacity="1"/>
<defs>
  <clipPath id="clip331">
    <rect x="143" y="127" width="2498" height="1607"/>
  </clipPath>
</defs>
<path clip-path="url(#clip330)" d="M143.576 1734.12 L2640.76 1734.12 L2640.76 127.792 L143.576 127.792  Z" fill="#ffffff" fill-rule="evenodd" fill-opacity="1"/>
<polyline clip-path="url(#clip331)" style="stroke:#000000; stroke-linecap:round; stroke-linejoin:round; stroke-width:2; stroke-opacity:0.1; fill:none" points="214.25,1734.12 214.25,127.792 "/>
<polyline clip-path="url(#clip331)" style="stroke:#000000; stroke-linecap:round; stroke-linejoin:round; stroke-width:2; stroke-opacity:0.1; fill:none" points="803.208,1734.12 803.208,127.792 "/>
<polyline clip-path="url(#clip331)" style="stroke:#000000; stroke-linecap:round; stroke-linejoin:round; stroke-width:2; stroke-opacity:0.1; fill:none" points="1392.17,1734.12 1392.17,127.792 "/>
<polyline clip-path="url(#clip331)" style="stroke:#000000; stroke-linecap:round; stroke-linejoin:round; stroke-width:2; stroke-opacity:0.1; fill:none" points="1981.12,1734.12 1981.12,127.792 "/>
<polyline clip-path="url(#clip331)" style="stroke:#000000; stroke-linecap:round; stroke-linejoin:round; stroke-width:2; stroke-opacity:0.1; fill:none" points="2570.08,1734.12 2570.08,127.792 "/>
<polyline clip-path="url(#clip331)" style="stroke:#000000; stroke-linecap:round; stroke-linejoin:round; stroke-width:2; stroke-opacity:0.1; fill:none" points="143.576,1712.37 2640.76,1712.37 "/>
<polyline clip-path="url(#clip331)" style="stroke:#000000; stroke-linecap:round; stroke-linejoin:round; stroke-width:2; stroke-opacity:0.1; fill:none" points="143.576,1236.11 2640.76,1236.11 "/>
<polyline clip-path="url(#clip331)" style="stroke:#000000; stroke-linecap:round; stroke-linejoin:round; stroke-width:2; stroke-opacity:0.1; fill:none" points="143.576,759.858 2640.76,759.858 "/>
<polyline clip-path="url(#clip331)" style="stroke:#000000; stroke-linecap:round; stroke-linejoin:round; stroke-width:2; stroke-opacity:0.1; fill:none" points="143.576,283.603 2640.76,283.603 "/>
<polyline clip-path="url(#clip330)" style="stroke:#000000; stroke-linecap:round; stroke-linejoin:round; stroke-width:4; stroke-opacity:1; fill:none" points="143.576,1734.12 2640.76,1734.12 "/>
<polyline clip-path="url(#clip330)" style="stroke:#000000; stroke-linecap:round; stroke-linejoin:round; stroke-width:4; stroke-opacity:1; fill:none" points="214.25,1734.12 214.25,1715.22 "/>
<polyline clip-path="url(#clip330)" style="stroke:#000000; stroke-linecap:round; stroke-linejoin:round; stroke-width:4; stroke-opacity:1; fill:none" points="803.208,1734.12 803.208,1715.22 "/>
<polyline clip-path="url(#clip330)" style="stroke:#000000; stroke-linecap:round; stroke-linejoin:round; stroke-width:4; stroke-opacity:1; fill:none" points="1392.17,1734.12 1392.17,1715.22 "/>
<polyline clip-path="url(#clip330)" style="stroke:#000000; stroke-linecap:round; stroke-linejoin:round; stroke-width:4; stroke-opacity:1; fill:none" points="1981.12,1734.12 1981.12,1715.22 "/>
<polyline clip-path="url(#clip330)" style="stroke:#000000; stroke-linecap:round; stroke-linejoin:round; stroke-width:4; stroke-opacity:1; fill:none" points="2570.08,1734.12 2570.08,1715.22 "/>
<path clip-path="url(#clip330)" d="M191.635 1767.34 Q188.024 1767.34 186.195 1770.9 Q184.39 1774.45 184.39 1781.58 Q184.39 1788.68 186.195 1792.25 Q188.024 1795.79 191.635 1795.79 Q195.269 1795.79 197.075 1792.25 Q198.903 1788.68 198.903 1781.58 Q198.903 1774.45 197.075 1770.9 Q195.269 1767.34 191.635 1767.34 M191.635 1763.64 Q197.445 1763.64 200.501 1768.24 Q203.579 1772.83 203.579 1781.58 Q203.579 1790.3 200.501 1794.91 Q197.445 1799.49 191.635 1799.49 Q185.825 1799.49 182.746 1794.91 Q179.69 1790.3 179.69 1781.58 Q179.69 1772.83 182.746 1768.24 Q185.825 1763.64 191.635 1763.64 Z" fill="#000000" fill-rule="nonzero" fill-opacity="1" /><path clip-path="url(#clip330)" d="M211.797 1792.94 L216.681 1792.94 L216.681 1798.82 L211.797 1798.82 L211.797 1792.94 Z" fill="#000000" fill-rule="nonzero" fill-opacity="1" /><path clip-path="url(#clip330)" d="M236.866 1767.34 Q233.255 1767.34 231.426 1770.9 Q229.621 1774.45 229.621 1781.58 Q229.621 1788.68 231.426 1792.25 Q233.255 1795.79 236.866 1795.79 Q240.5 1795.79 242.306 1792.25 Q244.135 1788.68 244.135 1781.58 Q244.135 1774.45 242.306 1770.9 Q240.5 1767.34 236.866 1767.34 M236.866 1763.64 Q242.676 1763.64 245.732 1768.24 Q248.81 1772.83 248.81 1781.58 Q248.81 1790.3 245.732 1794.91 Q242.676 1799.49 236.866 1799.49 Q231.056 1799.49 227.977 1794.91 Q224.922 1790.3 224.922 1781.58 Q224.922 1772.83 227.977 1768.24 Q231.056 1763.64 236.866 1763.64 Z" fill="#000000" fill-rule="nonzero" fill-opacity="1" /><path clip-path="url(#clip330)" d="M774.944 1794.89 L791.264 1794.89 L791.264 1798.82 L769.319 1798.82 L769.319 1794.89 Q771.981 1792.13 776.565 1787.5 Q781.171 1782.85 782.352 1781.51 Q784.597 1778.98 785.477 1777.25 Q786.379 1775.49 786.379 1773.8 Q786.379 1771.04 784.435 1769.31 Q782.514 1767.57 779.412 1767.57 Q777.213 1767.57 774.759 1768.34 Q772.329 1769.1 769.551 1770.65 L769.551 1765.93 Q772.375 1764.79 774.829 1764.21 Q777.282 1763.64 779.319 1763.64 Q784.69 1763.64 787.884 1766.32 Q791.079 1769.01 791.079 1773.5 Q791.079 1775.63 790.268 1777.55 Q789.481 1779.45 787.375 1782.04 Q786.796 1782.71 783.694 1785.93 Q780.592 1789.12 774.944 1794.89 Z" fill="#000000" fill-rule="nonzero" fill-opacity="1" /><path clip-path="url(#clip330)" d="M801.078 1792.94 L805.963 1792.94 L805.963 1798.82 L801.078 1798.82 L801.078 1792.94 Z" fill="#000000" fill-rule="nonzero" fill-opacity="1" /><path clip-path="url(#clip330)" d="M816.194 1764.26 L834.551 1764.26 L834.551 1768.2 L820.477 1768.2 L820.477 1776.67 Q821.495 1776.32 822.514 1776.16 Q823.532 1775.97 824.551 1775.97 Q830.338 1775.97 833.717 1779.15 Q837.097 1782.32 837.097 1787.73 Q837.097 1793.31 833.625 1796.41 Q830.152 1799.49 823.833 1799.49 Q821.657 1799.49 819.389 1799.12 Q817.143 1798.75 814.736 1798.01 L814.736 1793.31 Q816.819 1794.45 819.041 1795 Q821.264 1795.56 823.74 1795.56 Q827.745 1795.56 830.083 1793.45 Q832.421 1791.34 832.421 1787.73 Q832.421 1784.12 830.083 1782.02 Q827.745 1779.91 823.74 1779.91 Q821.865 1779.91 819.99 1780.33 Q818.139 1780.74 816.194 1781.62 L816.194 1764.26 Z" fill="#000000" fill-rule="nonzero" fill-opacity="1" /><path clip-path="url(#clip330)" d="M1359.33 1764.26 L1377.69 1764.26 L1377.69 1768.2 L1363.61 1768.2 L1363.61 1776.67 Q1364.63 1776.32 1365.65 1776.16 Q1366.67 1775.97 1367.69 1775.97 Q1373.47 1775.97 1376.85 1779.15 Q1380.23 1782.32 1380.23 1787.73 Q1380.23 1793.31 1376.76 1796.41 Q1373.29 1799.49 1366.97 1799.49 Q1364.79 1799.49 1362.52 1799.12 Q1360.28 1798.75 1357.87 1798.01 L1357.87 1793.31 Q1359.96 1794.45 1362.18 1795 Q1364.4 1795.56 1366.88 1795.56 Q1370.88 1795.56 1373.22 1793.45 Q1375.56 1791.34 1375.56 1787.73 Q1375.56 1784.12 1373.22 1782.02 Q1370.88 1779.91 1366.88 1779.91 Q1365 1779.91 1363.13 1780.33 Q1361.27 1780.74 1359.33 1781.62 L1359.33 1764.26 Z" fill="#000000" fill-rule="nonzero" fill-opacity="1" /><path clip-path="url(#clip330)" d="M1389.45 1792.94 L1394.33 1792.94 L1394.33 1798.82 L1389.45 1798.82 L1389.45 1792.94 Z" fill="#000000" fill-rule="nonzero" fill-opacity="1" /><path clip-path="url(#clip330)" d="M1414.52 1767.34 Q1410.9 1767.34 1409.08 1770.9 Q1407.27 1774.45 1407.27 1781.58 Q1407.27 1788.68 1409.08 1792.25 Q1410.9 1795.79 1414.52 1795.79 Q1418.15 1795.79 1419.95 1792.25 Q1421.78 1788.68 1421.78 1781.58 Q1421.78 1774.45 1419.95 1770.9 Q1418.15 1767.34 1414.52 1767.34 M1414.52 1763.64 Q1420.33 1763.64 1423.38 1768.24 Q1426.46 1772.83 1426.46 1781.58 Q1426.46 1790.3 1423.38 1794.91 Q1420.33 1799.49 1414.52 1799.49 Q1408.7 1799.49 1405.63 1794.91 Q1402.57 1790.3 1402.57 1781.58 Q1402.57 1772.83 1405.63 1768.24 Q1408.7 1763.64 1414.52 1763.64 Z" fill="#000000" fill-rule="nonzero" fill-opacity="1" /><path clip-path="url(#clip330)" d="M1947.44 1764.26 L1969.67 1764.26 L1969.67 1766.25 L1957.12 1798.82 L1952.23 1798.82 L1964.04 1768.2 L1947.44 1768.2 L1947.44 1764.26 Z" fill="#000000" fill-rule="nonzero" fill-opacity="1" /><path clip-path="url(#clip330)" d="M1978.79 1792.94 L1983.67 1792.94 L1983.67 1798.82 L1978.79 1798.82 L1978.79 1792.94 Z" fill="#000000" fill-rule="nonzero" fill-opacity="1" /><path clip-path="url(#clip330)" d="M1993.9 1764.26 L2012.26 1764.26 L2012.26 1768.2 L1998.18 1768.2 L1998.18 1776.67 Q1999.2 1776.32 2000.22 1776.16 Q2001.24 1775.97 2002.26 1775.97 Q2008.04 1775.97 2011.42 1779.15 Q2014.8 1782.32 2014.8 1787.73 Q2014.8 1793.31 2011.33 1796.41 Q2007.86 1799.49 2001.54 1799.49 Q1999.36 1799.49 1997.1 1799.12 Q1994.85 1798.75 1992.44 1798.01 L1992.44 1793.31 Q1994.53 1794.45 1996.75 1795 Q1998.97 1795.56 2001.45 1795.56 Q2005.45 1795.56 2007.79 1793.45 Q2010.13 1791.34 2010.13 1787.73 Q2010.13 1784.12 2007.79 1782.02 Q2005.45 1779.91 2001.45 1779.91 Q1999.57 1779.91 1997.7 1780.33 Q1995.85 1780.74 1993.9 1781.62 L1993.9 1764.26 Z" fill="#000000" fill-rule="nonzero" fill-opacity="1" /><path clip-path="url(#clip330)" d="M2522.15 1794.89 L2529.79 1794.89 L2529.79 1768.52 L2521.48 1770.19 L2521.48 1765.93 L2529.75 1764.26 L2534.42 1764.26 L2534.42 1794.89 L2542.06 1794.89 L2542.06 1798.82 L2522.15 1798.82 L2522.15 1794.89 Z" fill="#000000" fill-rule="nonzero" fill-opacity="1" /><path clip-path="url(#clip330)" d="M2561.5 1767.34 Q2557.89 1767.34 2556.06 1770.9 Q2554.26 1774.45 2554.26 1781.58 Q2554.26 1788.68 2556.06 1792.25 Q2557.89 1795.79 2561.5 1795.79 Q2565.14 1795.79 2566.94 1792.25 Q2568.77 1788.68 2568.77 1781.58 Q2568.77 1774.45 2566.94 1770.9 Q2565.14 1767.34 2561.5 1767.34 M2561.5 1763.64 Q2567.31 1763.64 2570.37 1768.24 Q2573.45 1772.83 2573.45 1781.58 Q2573.45 1790.3 2570.37 1794.91 Q2567.31 1799.49 2561.5 1799.49 Q2555.69 1799.49 2552.62 1794.91 Q2549.56 1790.3 2549.56 1781.58 Q2549.56 1772.83 2552.62 1768.24 Q2555.69 1763.64 2561.5 1763.64 Z" fill="#000000" fill-rule="nonzero" fill-opacity="1" /><path clip-path="url(#clip330)" d="M2581.67 1792.94 L2586.55 1792.94 L2586.55 1798.82 L2581.67 1798.82 L2581.67 1792.94 Z" fill="#000000" fill-rule="nonzero" fill-opacity="1" /><path clip-path="url(#clip330)" d="M2606.74 1767.34 Q2603.12 1767.34 2601.3 1770.9 Q2599.49 1774.45 2599.49 1781.58 Q2599.49 1788.68 2601.3 1792.25 Q2603.12 1795.79 2606.74 1795.79 Q2610.37 1795.79 2612.18 1792.25 Q2614 1788.68 2614 1781.58 Q2614 1774.45 2612.18 1770.9 Q2610.37 1767.34 2606.74 1767.34 M2606.74 1763.64 Q2612.55 1763.64 2615.6 1768.24 Q2618.68 1772.83 2618.68 1781.58 Q2618.68 1790.3 2615.6 1794.91 Q2612.55 1799.49 2606.74 1799.49 Q2600.93 1799.49 2597.85 1794.91 Q2594.79 1790.3 2594.79 1781.58 Q2594.79 1772.83 2597.85 1768.24 Q2600.93 1763.64 2606.74 1763.64 Z" fill="#000000" fill-rule="nonzero" fill-opacity="1" /><path clip-path="url(#clip330)" d="M1331.33 1837.53 L1331.33 1847.65 L1343.39 1847.65 L1343.39 1852.2 L1331.33 1852.2 L1331.33 1871.56 Q1331.33 1875.92 1332.5 1877.16 Q1333.71 1878.4 1337.37 1878.4 L1343.39 1878.4 L1343.39 1883.3 L1337.37 1883.3 Q1330.59 1883.3 1328.02 1880.79 Q1325.44 1878.24 1325.44 1871.56 L1325.44 1852.2 L1321.14 1852.2 L1321.14 1847.65 L1325.44 1847.65 L1325.44 1837.53 L1331.33 1837.53 Z" fill="#000000" fill-rule="nonzero" fill-opacity="1" /><path clip-path="url(#clip330)" d="M1351.09 1847.65 L1356.95 1847.65 L1356.95 1883.3 L1351.09 1883.3 L1351.09 1847.65 M1351.09 1833.78 L1356.95 1833.78 L1356.95 1841.19 L1351.09 1841.19 L1351.09 1833.78 Z" fill="#000000" fill-rule="nonzero" fill-opacity="1" /><path clip-path="url(#clip330)" d="M1396.96 1854.5 Q1399.15 1850.55 1402.21 1848.67 Q1405.26 1846.79 1409.4 1846.79 Q1414.97 1846.79 1417.99 1850.71 Q1421.02 1854.59 1421.02 1861.78 L1421.02 1883.3 L1415.13 1883.3 L1415.13 1861.98 Q1415.13 1856.85 1413.32 1854.37 Q1411.5 1851.89 1407.78 1851.89 Q1403.23 1851.89 1400.58 1854.91 Q1397.94 1857.93 1397.94 1863.15 L1397.94 1883.3 L1392.05 1883.3 L1392.05 1861.98 Q1392.05 1856.82 1390.24 1854.37 Q1388.43 1851.89 1384.64 1851.89 Q1380.15 1851.89 1377.51 1854.94 Q1374.87 1857.97 1374.87 1863.15 L1374.87 1883.3 L1368.98 1883.3 L1368.98 1847.65 L1374.87 1847.65 L1374.87 1853.19 Q1376.87 1849.91 1379.67 1848.35 Q1382.47 1846.79 1386.33 1846.79 Q1390.21 1846.79 1392.91 1848.77 Q1395.65 1850.74 1396.96 1854.5 Z" fill="#000000" fill-rule="nonzero" fill-opacity="1" /><path clip-path="url(#clip330)" d="M1463.19 1864.01 L1463.19 1866.88 L1436.26 1866.88 Q1436.65 1872.92 1439.89 1876.11 Q1443.17 1879.26 1449 1879.26 Q1452.37 1879.26 1455.52 1878.43 Q1458.7 1877.6 1461.82 1875.95 L1461.82 1881.49 Q1458.67 1882.82 1455.36 1883.52 Q1452.05 1884.22 1448.65 1884.22 Q1440.12 1884.22 1435.12 1879.26 Q1430.15 1874.29 1430.15 1865.83 Q1430.15 1857.07 1434.86 1851.95 Q1439.61 1846.79 1447.63 1846.79 Q1454.82 1846.79 1458.99 1851.44 Q1463.19 1856.06 1463.19 1864.01 M1457.33 1862.29 Q1457.27 1857.49 1454.63 1854.62 Q1452.02 1851.76 1447.69 1851.76 Q1442.79 1851.76 1439.83 1854.53 Q1436.9 1857.3 1436.46 1862.33 L1457.33 1862.29 Z" fill="#000000" fill-rule="nonzero" fill-opacity="1" /><polyline clip-path="url(#clip330)" style="stroke:#000000; stroke-linecap:round; stroke-linejoin:round; stroke-width:4; stroke-opacity:1; fill:none" points="143.576,1734.12 143.576,127.792 "/>
<polyline clip-path="url(#clip330)" style="stroke:#000000; stroke-linecap:round; stroke-linejoin:round; stroke-width:4; stroke-opacity:1; fill:none" points="143.576,1712.37 162.473,1712.37 "/>
<polyline clip-path="url(#clip330)" style="stroke:#000000; stroke-linecap:round; stroke-linejoin:round; stroke-width:4; stroke-opacity:1; fill:none" points="143.576,1236.11 162.473,1236.11 "/>
<polyline clip-path="url(#clip330)" style="stroke:#000000; stroke-linecap:round; stroke-linejoin:round; stroke-width:4; stroke-opacity:1; fill:none" points="143.576,759.858 162.473,759.858 "/>
<polyline clip-path="url(#clip330)" style="stroke:#000000; stroke-linecap:round; stroke-linejoin:round; stroke-width:4; stroke-opacity:1; fill:none" points="143.576,283.603 162.473,283.603 "/>
<path clip-path="url(#clip330)" d="M91.3112 1698.16 Q87.7001 1698.16 85.8714 1701.73 Q84.0658 1705.27 84.0658 1712.4 Q84.0658 1719.51 85.8714 1723.07 Q87.7001 1726.61 91.3112 1726.61 Q94.9454 1726.61 96.7509 1723.07 Q98.5796 1719.51 98.5796 1712.4 Q98.5796 1705.27 96.7509 1701.73 Q94.9454 1698.16 91.3112 1698.16 M91.3112 1694.46 Q97.1213 1694.46 100.177 1699.07 Q103.256 1703.65 103.256 1712.4 Q103.256 1721.13 100.177 1725.73 Q97.1213 1730.32 91.3112 1730.32 Q85.501 1730.32 82.4223 1725.73 Q79.3668 1721.13 79.3668 1712.4 Q79.3668 1703.65 82.4223 1699.07 Q85.501 1694.46 91.3112 1694.46 Z" fill="#000000" fill-rule="nonzero" fill-opacity="1" /><path clip-path="url(#clip330)" d="M51.9595 1249.46 L59.5984 1249.46 L59.5984 1223.09 L51.2882 1224.76 L51.2882 1220.5 L59.5521 1218.83 L64.228 1218.83 L64.228 1249.46 L71.8668 1249.46 L71.8668 1253.39 L51.9595 1253.39 L51.9595 1249.46 Z" fill="#000000" fill-rule="nonzero" fill-opacity="1" /><path clip-path="url(#clip330)" d="M91.3112 1221.91 Q87.7001 1221.91 85.8714 1225.48 Q84.0658 1229.02 84.0658 1236.15 Q84.0658 1243.25 85.8714 1246.82 Q87.7001 1250.36 91.3112 1250.36 Q94.9454 1250.36 96.7509 1246.82 Q98.5796 1243.25 98.5796 1236.15 Q98.5796 1229.02 96.7509 1225.48 Q94.9454 1221.91 91.3112 1221.91 M91.3112 1218.21 Q97.1213 1218.21 100.177 1222.81 Q103.256 1227.4 103.256 1236.15 Q103.256 1244.87 100.177 1249.48 Q97.1213 1254.06 91.3112 1254.06 Q85.501 1254.06 82.4223 1249.48 Q79.3668 1244.87 79.3668 1236.15 Q79.3668 1227.4 82.4223 1222.81 Q85.501 1218.21 91.3112 1218.21 Z" fill="#000000" fill-rule="nonzero" fill-opacity="1" /><path clip-path="url(#clip330)" d="M55.1771 773.203 L71.4965 773.203 L71.4965 777.138 L49.5521 777.138 L49.5521 773.203 Q52.2141 770.448 56.7975 765.818 Q61.4039 761.166 62.5845 759.823 Q64.8298 757.3 65.7094 755.564 Q66.6122 753.805 66.6122 752.115 Q66.6122 749.36 64.6678 747.624 Q62.7465 745.888 59.6447 745.888 Q57.4456 745.888 54.9919 746.652 Q52.5614 747.416 49.7836 748.967 L49.7836 744.244 Q52.6077 743.11 55.0614 742.531 Q57.515 741.953 59.5521 741.953 Q64.9224 741.953 68.1168 744.638 Q71.3113 747.323 71.3113 751.814 Q71.3113 753.943 70.5011 755.865 Q69.7141 757.763 67.6076 760.355 Q67.0289 761.027 63.927 764.244 Q60.8252 767.439 55.1771 773.203 Z" fill="#000000" fill-rule="nonzero" fill-opacity="1" /><path clip-path="url(#clip330)" d="M91.3112 745.656 Q87.7001 745.656 85.8714 749.221 Q84.0658 752.763 84.0658 759.892 Q84.0658 766.999 85.8714 770.564 Q87.7001 774.105 91.3112 774.105 Q94.9454 774.105 96.7509 770.564 Q98.5796 766.999 98.5796 759.892 Q98.5796 752.763 96.7509 749.221 Q94.9454 745.656 91.3112 745.656 M91.3112 741.953 Q97.1213 741.953 100.177 746.559 Q103.256 751.142 103.256 759.892 Q103.256 768.619 100.177 773.226 Q97.1213 777.809 91.3112 777.809 Q85.501 777.809 82.4223 773.226 Q79.3668 768.619 79.3668 759.892 Q79.3668 751.142 82.4223 746.559 Q85.501 741.953 91.3112 741.953 Z" fill="#000000" fill-rule="nonzero" fill-opacity="1" /><path clip-path="url(#clip330)" d="M65.3159 282.249 Q68.6724 282.967 70.5474 285.235 Q72.4455 287.504 72.4455 290.837 Q72.4455 295.953 68.927 298.754 Q65.4085 301.555 58.9271 301.555 Q56.7512 301.555 54.4364 301.115 Q52.1447 300.698 49.691 299.842 L49.691 295.328 Q51.6354 296.462 53.9503 297.041 Q56.2651 297.62 58.7882 297.62 Q63.1863 297.62 65.478 295.883 Q67.7928 294.147 67.7928 290.837 Q67.7928 287.782 65.64 286.069 Q63.5104 284.333 59.691 284.333 L55.6632 284.333 L55.6632 280.49 L59.8761 280.49 Q63.3252 280.49 65.1539 279.124 Q66.9826 277.735 66.9826 275.143 Q66.9826 272.481 65.0845 271.069 Q63.2095 269.634 59.691 269.634 Q57.7697 269.634 55.5706 270.05 Q53.3715 270.467 50.7327 271.347 L50.7327 267.18 Q53.3947 266.439 55.7095 266.069 Q58.0475 265.698 60.1076 265.698 Q65.4317 265.698 68.5335 268.129 Q71.6353 270.536 71.6353 274.657 Q71.6353 277.527 69.9918 279.518 Q68.3483 281.485 65.3159 282.249 Z" fill="#000000" fill-rule="nonzero" fill-opacity="1" /><path clip-path="url(#clip330)" d="M91.3112 269.402 Q87.7001 269.402 85.8714 272.967 Q84.0658 276.509 84.0658 283.638 Q84.0658 290.745 85.8714 294.309 Q87.7001 297.851 91.3112 297.851 Q94.9454 297.851 96.7509 294.309 Q98.5796 290.745 98.5796 283.638 Q98.5796 276.509 96.7509 272.967 Q94.9454 269.402 91.3112 269.402 M91.3112 265.698 Q97.1213 265.698 100.177 270.305 Q103.256 274.888 103.256 283.638 Q103.256 292.365 100.177 296.971 Q97.1213 301.555 91.3112 301.555 Q85.501 301.555 82.4223 296.971 Q79.3668 292.365 79.3668 283.638 Q79.3668 274.888 82.4223 270.305 Q85.501 265.698 91.3112 265.698 Z" fill="#000000" fill-rule="nonzero" fill-opacity="1" /><path clip-path="url(#clip330)" d="M628.57 12.096 L636.753 12.096 L636.753 36.8875 L666.487 36.8875 L666.487 12.096 L674.67 12.096 L674.67 72.576 L666.487 72.576 L666.487 43.7741 L636.753 43.7741 L636.753 72.576 L628.57 72.576 L628.57 12.096 Z" fill="#000000" fill-rule="nonzero" fill-opacity="1" /><path clip-path="url(#clip330)" d="M711.249 49.7694 Q702.216 49.7694 698.732 51.8354 Q695.248 53.9013 695.248 58.8839 Q695.248 62.8538 697.841 65.2034 Q700.474 67.5124 704.97 67.5124 Q711.168 67.5124 714.895 63.1374 Q718.662 58.7219 718.662 51.4303 L718.662 49.7694 L711.249 49.7694 M726.116 46.6907 L726.116 72.576 L718.662 72.576 L718.662 65.6895 Q716.11 69.8214 712.302 71.8063 Q708.495 73.7508 702.985 73.7508 Q696.018 73.7508 691.886 69.8619 Q687.794 65.9325 687.794 59.3701 Q687.794 51.7138 692.899 47.825 Q698.043 43.9361 708.211 43.9361 L718.662 43.9361 L718.662 43.2069 Q718.662 38.0623 715.26 35.2672 Q711.897 32.4315 705.781 32.4315 Q701.892 32.4315 698.205 33.3632 Q694.519 34.295 691.116 36.1584 L691.116 29.2718 Q695.208 27.692 699.056 26.9223 Q702.904 26.1121 706.55 26.1121 Q716.394 26.1121 721.255 31.2163 Q726.116 36.3204 726.116 46.6907 Z" fill="#000000" fill-rule="nonzero" fill-opacity="1" /><path clip-path="url(#clip330)" d="M767.759 34.1734 Q766.504 33.4443 765.005 33.1202 Q763.546 32.7556 761.764 32.7556 Q755.445 32.7556 752.042 36.8875 Q748.68 40.9789 748.68 48.6757 L748.68 72.576 L741.185 72.576 L741.185 27.2059 L748.68 27.2059 L748.68 34.2544 Q751.029 30.1225 754.796 28.1376 Q758.564 26.1121 763.951 26.1121 Q764.721 26.1121 765.653 26.2337 Q766.585 26.3147 767.719 26.5172 L767.759 34.1734 Z" fill="#000000" fill-rule="nonzero" fill-opacity="1" /><path clip-path="url(#clip330)" d="M770.23 27.2059 L778.13 27.2059 L792.308 65.2844 L806.486 27.2059 L814.385 27.2059 L797.371 72.576 L787.244 72.576 L770.23 27.2059 Z" fill="#000000" fill-rule="nonzero" fill-opacity="1" /><path clip-path="url(#clip330)" d="M863.482 48.0275 L863.482 51.6733 L829.212 51.6733 Q829.698 59.3701 833.83 63.421 Q838.002 67.4314 845.415 67.4314 Q849.709 67.4314 853.72 66.3781 Q857.77 65.3249 861.74 63.2184 L861.74 70.267 Q857.73 71.9684 853.517 72.8596 Q849.304 73.7508 844.97 73.7508 Q834.113 73.7508 827.753 67.4314 Q821.434 61.1119 821.434 50.3365 Q821.434 39.1965 827.429 32.6746 Q833.465 26.1121 843.673 26.1121 Q852.828 26.1121 858.135 32.0264 Q863.482 37.9003 863.482 48.0275 M856.029 45.84 Q855.948 39.7232 852.585 36.0774 Q849.264 32.4315 843.754 32.4315 Q837.516 32.4315 833.749 35.9558 Q830.022 39.4801 829.455 45.8805 L856.029 45.84 Z" fill="#000000" fill-rule="nonzero" fill-opacity="1" /><path clip-path="url(#clip330)" d="M904.639 28.5427 L904.639 35.5912 Q901.48 33.9709 898.077 33.1607 Q894.674 32.3505 891.028 32.3505 Q885.479 32.3505 882.684 34.0519 Q879.929 35.7533 879.929 39.156 Q879.929 41.7486 881.914 43.2475 Q883.899 44.7058 889.894 46.0426 L892.446 46.6097 Q900.386 48.3111 903.708 51.4303 Q907.07 54.509 907.07 60.0587 Q907.07 66.3781 902.047 70.0644 Q897.064 73.7508 888.314 73.7508 Q884.668 73.7508 880.699 73.0216 Q876.769 72.3329 872.394 70.9151 L872.394 63.2184 Q876.526 65.3654 880.537 66.4591 Q884.547 67.5124 888.476 67.5124 Q893.742 67.5124 896.578 65.73 Q899.414 63.9071 899.414 60.6258 Q899.414 57.5877 897.348 55.9673 Q895.322 54.3469 888.395 52.8481 L885.803 52.2405 Q878.876 50.7821 875.797 47.7845 Q872.718 44.7463 872.718 39.4801 Q872.718 33.0797 877.255 29.5959 Q881.792 26.1121 890.137 26.1121 Q894.269 26.1121 897.915 26.7198 Q901.561 27.3274 904.639 28.5427 Z" fill="#000000" fill-rule="nonzero" fill-opacity="1" /><path clip-path="url(#clip330)" d="M926.312 14.324 L926.312 27.2059 L941.665 27.2059 L941.665 32.9987 L926.312 32.9987 L926.312 57.6282 Q926.312 63.1779 927.811 64.7578 Q929.35 66.3376 934.008 66.3376 L941.665 66.3376 L941.665 72.576 L934.008 72.576 Q925.38 72.576 922.099 69.3758 Q918.818 66.1351 918.818 57.6282 L918.818 32.9987 L913.349 32.9987 L913.349 27.2059 L918.818 27.2059 L918.818 14.324 L926.312 14.324 Z" fill="#000000" fill-rule="nonzero" fill-opacity="1" /><path clip-path="url(#clip330)" d="M1008.18 20.5624 L1008.18 43.1259 L1030.74 43.1259 L1030.74 50.0125 L1008.18 50.0125 L1008.18 72.576 L1001.37 72.576 L1001.37 50.0125 L978.811 50.0125 L978.811 43.1259 L1001.37 43.1259 L1001.37 20.5624 L1008.18 20.5624 Z" fill="#000000" fill-rule="nonzero" fill-opacity="1" /><path clip-path="url(#clip330)" d="M1080.93 65.7705 L1080.93 89.8329 L1073.44 89.8329 L1073.44 27.2059 L1080.93 27.2059 L1080.93 34.0924 Q1083.28 30.0415 1086.85 28.0971 Q1090.45 26.1121 1095.44 26.1121 Q1103.7 26.1121 1108.85 32.6746 Q1114.03 39.2371 1114.03 49.9314 Q1114.03 60.6258 1108.85 67.1883 Q1103.7 73.7508 1095.44 73.7508 Q1090.45 73.7508 1086.85 71.8063 Q1083.28 69.8214 1080.93 65.7705 M1106.29 49.9314 Q1106.29 41.7081 1102.89 37.0496 Q1099.53 32.3505 1093.61 32.3505 Q1087.7 32.3505 1084.3 37.0496 Q1080.93 41.7081 1080.93 49.9314 Q1080.93 58.1548 1084.3 62.8538 Q1087.7 67.5124 1093.61 67.5124 Q1099.53 67.5124 1102.89 62.8538 Q1106.29 58.1548 1106.29 49.9314 Z" fill="#000000" fill-rule="nonzero" fill-opacity="1" /><path clip-path="url(#clip330)" d="M1165.19 48.0275 L1165.19 51.6733 L1130.92 51.6733 Q1131.41 59.3701 1135.54 63.421 Q1139.71 67.4314 1147.13 67.4314 Q1151.42 67.4314 1155.43 66.3781 Q1159.48 65.3249 1163.45 63.2184 L1163.45 70.267 Q1159.44 71.9684 1155.23 72.8596 Q1151.02 73.7508 1146.68 73.7508 Q1135.82 73.7508 1129.46 67.4314 Q1123.15 61.1119 1123.15 50.3365 Q1123.15 39.1965 1129.14 32.6746 Q1135.18 26.1121 1145.38 26.1121 Q1154.54 26.1121 1159.85 32.0264 Q1165.19 37.9003 1165.19 48.0275 M1157.74 45.84 Q1157.66 39.7232 1154.3 36.0774 Q1150.97 32.4315 1145.47 32.4315 Q1139.23 32.4315 1135.46 35.9558 Q1131.73 39.4801 1131.17 45.8805 L1157.74 45.84 Z" fill="#000000" fill-rule="nonzero" fill-opacity="1" /><path clip-path="url(#clip330)" d="M1203.72 34.1734 Q1202.46 33.4443 1200.96 33.1202 Q1199.5 32.7556 1197.72 32.7556 Q1191.4 32.7556 1188 36.8875 Q1184.64 40.9789 1184.64 48.6757 L1184.64 72.576 L1177.14 72.576 L1177.14 27.2059 L1184.64 27.2059 L1184.64 34.2544 Q1186.99 30.1225 1190.75 28.1376 Q1194.52 26.1121 1199.91 26.1121 Q1200.68 26.1121 1201.61 26.2337 Q1202.54 26.3147 1203.68 26.5172 L1203.72 34.1734 Z" fill="#000000" fill-rule="nonzero" fill-opacity="1" /><path clip-path="url(#clip330)" d="M1211.54 27.2059 L1218.99 27.2059 L1218.99 72.576 L1211.54 72.576 L1211.54 27.2059 M1211.54 9.54393 L1218.99 9.54393 L1218.99 18.9825 L1211.54 18.9825 L1211.54 9.54393 Z" fill="#000000" fill-rule="nonzero" fill-opacity="1" /><path clip-path="url(#clip330)" d="M1252.17 32.4315 Q1246.17 32.4315 1242.69 37.1306 Q1239.2 41.7891 1239.2 49.9314 Q1239.2 58.0738 1242.65 62.7728 Q1246.13 67.4314 1252.17 67.4314 Q1258.12 67.4314 1261.61 62.7323 Q1265.09 58.0333 1265.09 49.9314 Q1265.09 41.8701 1261.61 37.1711 Q1258.12 32.4315 1252.17 32.4315 M1252.17 26.1121 Q1261.89 26.1121 1267.44 32.4315 Q1272.99 38.7509 1272.99 49.9314 Q1272.99 61.0714 1267.44 67.4314 Q1261.89 73.7508 1252.17 73.7508 Q1242.4 73.7508 1236.85 67.4314 Q1231.34 61.0714 1231.34 49.9314 Q1231.34 38.7509 1236.85 32.4315 Q1242.4 26.1121 1252.17 26.1121 Z" fill="#000000" fill-rule="nonzero" fill-opacity="1" /><path clip-path="url(#clip330)" d="M1315.2 34.0924 L1315.2 9.54393 L1322.65 9.54393 L1322.65 72.576 L1315.2 72.576 L1315.2 65.7705 Q1312.85 69.8214 1309.24 71.8063 Q1305.68 73.7508 1300.66 73.7508 Q1292.43 73.7508 1287.25 67.1883 Q1282.1 60.6258 1282.1 49.9314 Q1282.1 39.2371 1287.25 32.6746 Q1292.43 26.1121 1300.66 26.1121 Q1305.68 26.1121 1309.24 28.0971 Q1312.85 30.0415 1315.2 34.0924 M1289.8 49.9314 Q1289.8 58.1548 1293.16 62.8538 Q1296.56 67.5124 1302.48 67.5124 Q1308.39 67.5124 1311.8 62.8538 Q1315.2 58.1548 1315.2 49.9314 Q1315.2 41.7081 1311.8 37.0496 Q1308.39 32.3505 1302.48 32.3505 Q1296.56 32.3505 1293.16 37.0496 Q1289.8 41.7081 1289.8 49.9314 Z" fill="#000000" fill-rule="nonzero" fill-opacity="1" /><path clip-path="url(#clip330)" d="M1338.01 27.2059 L1345.46 27.2059 L1345.46 72.576 L1338.01 72.576 L1338.01 27.2059 M1338.01 9.54393 L1345.46 9.54393 L1345.46 18.9825 L1338.01 18.9825 L1338.01 9.54393 Z" fill="#000000" fill-rule="nonzero" fill-opacity="1" /><path clip-path="url(#clip330)" d="M1393.71 28.9478 L1393.71 35.9153 Q1390.55 34.1734 1387.35 33.3227 Q1384.19 32.4315 1380.94 32.4315 Q1373.69 32.4315 1369.68 37.0496 Q1365.67 41.6271 1365.67 49.9314 Q1365.67 58.2358 1369.68 62.8538 Q1373.69 67.4314 1380.94 67.4314 Q1384.19 67.4314 1387.35 66.5807 Q1390.55 65.6895 1393.71 63.9476 L1393.71 70.8341 Q1390.59 72.2924 1387.22 73.0216 Q1383.9 73.7508 1380.13 73.7508 Q1369.89 73.7508 1363.85 67.3098 Q1357.81 60.8689 1357.81 49.9314 Q1357.81 38.832 1363.89 32.472 Q1370.01 26.1121 1380.62 26.1121 Q1384.06 26.1121 1387.35 26.8413 Q1390.63 27.5299 1393.71 28.9478 Z" fill="#000000" fill-rule="nonzero" fill-opacity="1" /><path clip-path="url(#clip330)" d="M1459.33 34.1734 Q1458.07 33.4443 1456.58 33.1202 Q1455.12 32.7556 1453.33 32.7556 Q1447.01 32.7556 1443.61 36.8875 Q1440.25 40.9789 1440.25 48.6757 L1440.25 72.576 L1432.76 72.576 L1432.76 27.2059 L1440.25 27.2059 L1440.25 34.2544 Q1442.6 30.1225 1446.37 28.1376 Q1450.13 26.1121 1455.52 26.1121 Q1456.29 26.1121 1457.22 26.2337 Q1458.15 26.3147 1459.29 26.5172 L1459.33 34.1734 Z" fill="#000000" fill-rule="nonzero" fill-opacity="1" /><path clip-path="url(#clip330)" d="M1504.13 48.0275 L1504.13 51.6733 L1469.86 51.6733 Q1470.35 59.3701 1474.48 63.421 Q1478.65 67.4314 1486.07 67.4314 Q1490.36 67.4314 1494.37 66.3781 Q1498.42 65.3249 1502.39 63.2184 L1502.39 70.267 Q1498.38 71.9684 1494.17 72.8596 Q1489.95 73.7508 1485.62 73.7508 Q1474.76 73.7508 1468.4 67.4314 Q1462.08 61.1119 1462.08 50.3365 Q1462.08 39.1965 1468.08 32.6746 Q1474.12 26.1121 1484.32 26.1121 Q1493.48 26.1121 1498.79 32.0264 Q1504.13 37.9003 1504.13 48.0275 M1496.68 45.84 Q1496.6 39.7232 1493.24 36.0774 Q1489.91 32.4315 1484.4 32.4315 Q1478.17 32.4315 1474.4 35.9558 Q1470.67 39.4801 1470.11 45.8805 L1496.68 45.84 Z" fill="#000000" fill-rule="nonzero" fill-opacity="1" /><path clip-path="url(#clip330)" d="M1516.37 9.54393 L1523.82 9.54393 L1523.82 72.576 L1516.37 72.576 L1516.37 9.54393 Z" fill="#000000" fill-rule="nonzero" fill-opacity="1" /><path clip-path="url(#clip330)" d="M1578.22 48.0275 L1578.22 51.6733 L1543.95 51.6733 Q1544.44 59.3701 1548.57 63.421 Q1552.74 67.4314 1560.16 67.4314 Q1564.45 67.4314 1568.46 66.3781 Q1572.51 65.3249 1576.48 63.2184 L1576.48 70.267 Q1572.47 71.9684 1568.26 72.8596 Q1564.05 73.7508 1559.71 73.7508 Q1548.85 73.7508 1542.49 67.4314 Q1536.18 61.1119 1536.18 50.3365 Q1536.18 39.1965 1542.17 32.6746 Q1548.21 26.1121 1558.41 26.1121 Q1567.57 26.1121 1572.88 32.0264 Q1578.22 37.9003 1578.22 48.0275 M1570.77 45.84 Q1570.69 39.7232 1567.33 36.0774 Q1564.01 32.4315 1558.5 32.4315 Q1552.26 32.4315 1548.49 35.9558 Q1544.76 39.4801 1544.2 45.8805 L1570.77 45.84 Z" fill="#000000" fill-rule="nonzero" fill-opacity="1" /><path clip-path="url(#clip330)" d="M1611.08 49.7694 Q1602.04 49.7694 1598.56 51.8354 Q1595.08 53.9013 1595.08 58.8839 Q1595.08 62.8538 1597.67 65.2034 Q1600.3 67.5124 1604.8 67.5124 Q1611 67.5124 1614.72 63.1374 Q1618.49 58.7219 1618.49 51.4303 L1618.49 49.7694 L1611.08 49.7694 M1625.94 46.6907 L1625.94 72.576 L1618.49 72.576 L1618.49 65.6895 Q1615.94 69.8214 1612.13 71.8063 Q1608.32 73.7508 1602.81 73.7508 Q1595.85 73.7508 1591.71 69.8619 Q1587.62 65.9325 1587.62 59.3701 Q1587.62 51.7138 1592.73 47.825 Q1597.87 43.9361 1608.04 43.9361 L1618.49 43.9361 L1618.49 43.2069 Q1618.49 38.0623 1615.09 35.2672 Q1611.72 32.4315 1605.61 32.4315 Q1601.72 32.4315 1598.03 33.3632 Q1594.35 34.295 1590.94 36.1584 L1590.94 29.2718 Q1595.04 27.692 1598.88 26.9223 Q1602.73 26.1121 1606.38 26.1121 Q1616.22 26.1121 1621.08 31.2163 Q1625.94 36.3204 1625.94 46.6907 Z" fill="#000000" fill-rule="nonzero" fill-opacity="1" /><path clip-path="url(#clip330)" d="M1670.22 28.5427 L1670.22 35.5912 Q1667.06 33.9709 1663.66 33.1607 Q1660.25 32.3505 1656.61 32.3505 Q1651.06 32.3505 1648.26 34.0519 Q1645.51 35.7533 1645.51 39.156 Q1645.51 41.7486 1647.49 43.2475 Q1649.48 44.7058 1655.47 46.0426 L1658.03 46.6097 Q1665.97 48.3111 1669.29 51.4303 Q1672.65 54.509 1672.65 60.0587 Q1672.65 66.3781 1667.63 70.0644 Q1662.64 73.7508 1653.89 73.7508 Q1650.25 73.7508 1646.28 73.0216 Q1642.35 72.3329 1637.97 70.9151 L1637.97 63.2184 Q1642.11 65.3654 1646.12 66.4591 Q1650.13 67.5124 1654.06 67.5124 Q1659.32 67.5124 1662.16 65.73 Q1664.99 63.9071 1664.99 60.6258 Q1664.99 57.5877 1662.93 55.9673 Q1660.9 54.3469 1653.98 52.8481 L1651.38 52.2405 Q1644.46 50.7821 1641.38 47.7845 Q1638.3 44.7463 1638.3 39.4801 Q1638.3 33.0797 1642.84 29.5959 Q1647.37 26.1121 1655.72 26.1121 Q1659.85 26.1121 1663.5 26.7198 Q1667.14 27.3274 1670.22 28.5427 Z" fill="#000000" fill-rule="nonzero" fill-opacity="1" /><path clip-path="url(#clip330)" d="M1723.33 48.0275 L1723.33 51.6733 L1689.06 51.6733 Q1689.54 59.3701 1693.67 63.421 Q1697.85 67.4314 1705.26 67.4314 Q1709.55 67.4314 1713.56 66.3781 Q1717.62 65.3249 1721.59 63.2184 L1721.59 70.267 Q1717.57 71.9684 1713.36 72.8596 Q1709.15 73.7508 1704.81 73.7508 Q1693.96 73.7508 1687.6 67.4314 Q1681.28 61.1119 1681.28 50.3365 Q1681.28 39.1965 1687.27 32.6746 Q1693.31 26.1121 1703.52 26.1121 Q1712.67 26.1121 1717.98 32.0264 Q1723.33 37.9003 1723.33 48.0275 M1715.87 45.84 Q1715.79 39.7232 1712.43 36.0774 Q1709.11 32.4315 1703.6 32.4315 Q1697.36 32.4315 1693.59 35.9558 Q1689.87 39.4801 1689.3 45.8805 L1715.87 45.84 Z" fill="#000000" fill-rule="nonzero" fill-opacity="1" /><path clip-path="url(#clip330)" d="M1794.58 28.9478 L1794.58 35.9153 Q1791.42 34.1734 1788.22 33.3227 Q1785.06 32.4315 1781.82 32.4315 Q1774.57 32.4315 1770.56 37.0496 Q1766.55 41.6271 1766.55 49.9314 Q1766.55 58.2358 1770.56 62.8538 Q1774.57 67.4314 1781.82 67.4314 Q1785.06 67.4314 1788.22 66.5807 Q1791.42 65.6895 1794.58 63.9476 L1794.58 70.8341 Q1791.46 72.2924 1788.1 73.0216 Q1784.78 73.7508 1781.01 73.7508 Q1770.76 73.7508 1764.73 67.3098 Q1758.69 60.8689 1758.69 49.9314 Q1758.69 38.832 1764.77 32.472 Q1770.88 26.1121 1781.5 26.1121 Q1784.94 26.1121 1788.22 26.8413 Q1791.5 27.5299 1794.58 28.9478 Z" fill="#000000" fill-rule="nonzero" fill-opacity="1" /><path clip-path="url(#clip330)" d="M1825.13 32.4315 Q1819.13 32.4315 1815.65 37.1306 Q1812.16 41.7891 1812.16 49.9314 Q1812.16 58.0738 1815.61 62.7728 Q1819.09 67.4314 1825.13 67.4314 Q1831.08 67.4314 1834.56 62.7323 Q1838.05 58.0333 1838.05 49.9314 Q1838.05 41.8701 1834.56 37.1711 Q1831.08 32.4315 1825.13 32.4315 M1825.13 26.1121 Q1834.85 26.1121 1840.4 32.4315 Q1845.95 38.7509 1845.95 49.9314 Q1845.95 61.0714 1840.4 67.4314 Q1834.85 73.7508 1825.13 73.7508 Q1815.36 73.7508 1809.81 67.4314 Q1804.3 61.0714 1804.3 49.9314 Q1804.3 38.7509 1809.81 32.4315 Q1815.36 26.1121 1825.13 26.1121 Z" fill="#000000" fill-rule="nonzero" fill-opacity="1" /><path clip-path="url(#clip330)" d="M1893.63 35.9153 Q1896.42 30.8922 1900.31 28.5022 Q1904.2 26.1121 1909.47 26.1121 Q1916.56 26.1121 1920.4 31.0947 Q1924.25 36.0368 1924.25 45.1919 L1924.25 72.576 L1916.76 72.576 L1916.76 45.4349 Q1916.76 38.913 1914.45 35.7533 Q1912.14 32.5936 1907.4 32.5936 Q1901.61 32.5936 1898.25 36.4419 Q1894.88 40.2903 1894.88 46.9338 L1894.88 72.576 L1887.39 72.576 L1887.39 45.4349 Q1887.39 38.8725 1885.08 35.7533 Q1882.77 32.5936 1877.95 32.5936 Q1872.24 32.5936 1868.88 36.4824 Q1865.51 40.3308 1865.51 46.9338 L1865.51 72.576 L1858.02 72.576 L1858.02 27.2059 L1865.51 27.2059 L1865.51 34.2544 Q1868.07 30.082 1871.63 28.0971 Q1875.2 26.1121 1880.1 26.1121 Q1885.04 26.1121 1888.48 28.6237 Q1891.97 31.1352 1893.63 35.9153 Z" fill="#000000" fill-rule="nonzero" fill-opacity="1" /><path clip-path="url(#clip330)" d="M1971.69 49.9314 Q1971.69 41.7081 1968.29 37.0496 Q1964.92 32.3505 1959.01 32.3505 Q1953.09 32.3505 1949.69 37.0496 Q1946.33 41.7081 1946.33 49.9314 Q1946.33 58.1548 1949.69 62.8538 Q1953.09 67.5124 1959.01 67.5124 Q1964.92 67.5124 1968.29 62.8538 Q1971.69 58.1548 1971.69 49.9314 M1946.33 34.0924 Q1948.68 30.0415 1952.24 28.0971 Q1955.85 26.1121 1960.83 26.1121 Q1969.1 26.1121 1974.24 32.6746 Q1979.43 39.2371 1979.43 49.9314 Q1979.43 60.6258 1974.24 67.1883 Q1969.1 73.7508 1960.83 73.7508 Q1955.85 73.7508 1952.24 71.8063 Q1948.68 69.8214 1946.33 65.7705 L1946.33 72.576 L1938.84 72.576 L1938.84 9.54393 L1946.33 9.54393 L1946.33 34.0924 Z" fill="#000000" fill-rule="nonzero" fill-opacity="1" /><path clip-path="url(#clip330)" d="M1991.78 27.2059 L1999.23 27.2059 L1999.23 72.576 L1991.78 72.576 L1991.78 27.2059 M1991.78 9.54393 L1999.23 9.54393 L1999.23 18.9825 L1991.78 18.9825 L1991.78 9.54393 Z" fill="#000000" fill-rule="nonzero" fill-opacity="1" /><path clip-path="url(#clip330)" d="M2052.54 45.1919 L2052.54 72.576 L2045.09 72.576 L2045.09 45.4349 Q2045.09 38.994 2042.58 35.7938 Q2040.07 32.5936 2035.04 32.5936 Q2029.01 32.5936 2025.52 36.4419 Q2022.04 40.2903 2022.04 46.9338 L2022.04 72.576 L2014.55 72.576 L2014.55 27.2059 L2022.04 27.2059 L2022.04 34.2544 Q2024.71 30.163 2028.32 28.1376 Q2031.97 26.1121 2036.71 26.1121 Q2044.52 26.1121 2048.53 30.9732 Q2052.54 35.7938 2052.54 45.1919 Z" fill="#000000" fill-rule="nonzero" fill-opacity="1" /><path clip-path="url(#clip330)" d="M2106.22 48.0275 L2106.22 51.6733 L2071.95 51.6733 Q2072.43 59.3701 2076.57 63.421 Q2080.74 67.4314 2088.15 67.4314 Q2092.45 67.4314 2096.46 66.3781 Q2100.51 65.3249 2104.48 63.2184 L2104.48 70.267 Q2100.47 71.9684 2096.25 72.8596 Q2092.04 73.7508 2087.71 73.7508 Q2076.85 73.7508 2070.49 67.4314 Q2064.17 61.1119 2064.17 50.3365 Q2064.17 39.1965 2070.17 32.6746 Q2076.2 26.1121 2086.41 26.1121 Q2095.56 26.1121 2100.87 32.0264 Q2106.22 37.9003 2106.22 48.0275 M2098.76 45.84 Q2098.68 39.7232 2095.32 36.0774 Q2092 32.4315 2086.49 32.4315 Q2080.25 32.4315 2076.48 35.9558 Q2072.76 39.4801 2072.19 45.8805 L2098.76 45.84 Z" fill="#000000" fill-rule="nonzero" fill-opacity="1" /><path clip-path="url(#clip330)" d="M2148.31 34.0924 L2148.31 9.54393 L2155.76 9.54393 L2155.76 72.576 L2148.31 72.576 L2148.31 65.7705 Q2145.96 69.8214 2142.35 71.8063 Q2138.79 73.7508 2133.76 73.7508 Q2125.54 73.7508 2120.36 67.1883 Q2115.21 60.6258 2115.21 49.9314 Q2115.21 39.2371 2120.36 32.6746 Q2125.54 26.1121 2133.76 26.1121 Q2138.79 26.1121 2142.35 28.0971 Q2145.96 30.0415 2148.31 34.0924 M2122.91 49.9314 Q2122.91 58.1548 2126.27 62.8538 Q2129.67 67.5124 2135.59 67.5124 Q2141.5 67.5124 2144.9 62.8538 Q2148.31 58.1548 2148.31 49.9314 Q2148.31 41.7081 2144.9 37.0496 Q2141.5 32.3505 2135.59 32.3505 Q2129.67 32.3505 2126.27 37.0496 Q2122.91 41.7081 2122.91 49.9314 Z" fill="#000000" fill-rule="nonzero" fill-opacity="1" /><polyline clip-path="url(#clip331)" style="stroke:#009af9; stroke-linecap:round; stroke-linejoin:round; stroke-width:4; stroke-opacity:1; fill:none" points="214.25,1236.11 237.809,1250.19 261.367,1263.85 284.925,1277.1 308.484,1289.97 332.042,1302.45 355.6,1314.57 379.159,1326.32 402.717,1337.73 426.275,1348.8 449.834,1359.55 473.392,1369.98 496.95,1380.09 520.508,1389.92 544.067,1399.44 567.625,1408.69 591.183,1417.67 614.742,1426.38 638.3,1434.83 661.858,1443.03 685.417,1450.99 708.975,1458.72 732.533,1466.21 756.091,1473.49 779.65,1480.55 803.208,1487.4 826.766,1494.05 850.325,1500.5 873.883,1506.76 897.441,1512.84 921,1518.74 944.558,1524.46 968.116,1530.01 991.675,1535.4 1015.23,1540.63 1038.79,1545.71 1062.35,1550.63 1085.91,1555.41 1109.47,1560.05 1133.02,1564.55 1156.58,1568.92 1180.14,1573.16 1203.7,1577.27 1227.26,1581.27 1250.82,1585.14 1274.37,1588.9 1297.93,1592.55 1321.49,1596.09 1345.05,1599.53 1368.61,1602.86 1392.17,1606.1 1415.72,1609.24 1439.28,1612.29 1462.84,1615.25 1486.4,1618.12 1509.96,1620.9 1533.52,1623.6 1557.07,1626.23 1580.63,1628.77 1604.19,1631.24 1627.75,1633.64 1651.31,1635.97 1674.87,1638.23 1698.42,1640.42 1721.98,1642.54 1745.54,1644.61 1769.1,1646.61 1792.66,1648.55 1816.22,1650.44 1839.77,1652.27 1863.33,1654.05 1886.89,1655.77 1910.45,1657.44 1934.01,1659.07 1957.57,1660.64 1981.12,1662.17 2004.68,1663.65 2028.24,1665.09 2051.8,1666.49 2075.36,1667.85 2098.91,1669.16 2122.47,1670.44 2146.03,1671.68 2169.59,1672.88 2193.15,1674.05 2216.71,1675.18 2240.26,1676.28 2263.82,1677.35 2287.38,1678.38 2310.94,1679.38 2334.5,1680.36 2358.06,1681.31 2381.61,1682.22 2405.17,1683.11 2428.73,1683.98 2452.29,1684.82 2475.85,1685.63 2499.41,1686.42 2522.96,1687.19 2546.52,1687.93 2570.08,1688.65 "/>
<polyline clip-path="url(#clip331)" style="stroke:#e26f46; stroke-linecap:round; stroke-linejoin:round; stroke-width:4; stroke-opacity:1; fill:none" points="214.25,1236.11 237.809,1231.51 261.367,1227.24 284.925,1223.27 308.484,1219.61 332.042,1216.23 355.6,1213.13 379.159,1210.3 402.717,1207.72 426.275,1205.4 449.834,1203.32 449.834,965.192 473.392,965.709 496.95,966.426 520.508,967.335 544.067,968.426 567.625,969.694 591.183,971.131 614.742,972.729 638.3,974.482 661.858,976.383 685.417,978.426 685.417,740.299 708.975,744.847 732.533,749.501 756.091,754.256 779.65,759.106 803.208,764.047 826.766,769.073 850.325,774.179 873.883,779.36 897.441,784.613 921,789.933 921,551.806 944.558,559.557 968.116,567.344 991.675,575.162 1015.23,583.009 1038.79,590.879 1062.35,598.771 1085.91,606.681 1109.47,614.605 1133.02,622.542 1156.58,630.488 1156.58,392.361 1180.14,402.683 1203.7,412.986 1227.26,423.267 1250.82,433.523 1274.37,443.754 1297.93,453.956 1321.49,464.129 1345.05,474.27 1368.61,484.377 1392.17,494.449 1392.17,1103.41 1392.17,865.28 1415.72,871.626 1439.28,877.969 1462.84,884.31 1486.4,890.645 1509.96,896.974 1533.52,903.294 1557.07,909.604 1580.63,915.903 1604.19,922.189 1627.75,928.461 1627.75,690.334 1651.31,698.96 1674.87,707.546 1698.42,716.091 1721.98,724.593 1745.54,733.053 1769.1,741.469 1792.66,749.841 1816.22,758.167 1839.77,766.447 1863.33,774.681 1863.33,536.554 1886.89,547.11 1910.45,557.595 1934.01,568.009 1957.57,578.35 1981.12,588.62 2004.68,598.817 2028.24,608.942 2051.8,618.995 2075.36,628.975 2098.91,638.882 2098.91,400.755 2122.47,412.958 2146.03,425.066 2169.59,437.077 2193.15,448.992 2216.71,460.812 2240.26,472.536 2263.82,484.165 2287.38,495.699 2310.94,507.139 2334.5,518.485 2334.5,280.357 2358.06,293.979 2381.61,307.483 2405.17,320.871 2428.73,334.143 2452.29,347.3 2475.85,360.343 2499.41,373.271 2522.96,386.087 2546.52,398.79 2570.08,411.381 2570.08,173.254 "/>
<path clip-path="url(#clip330)" d="M226.815 336.856 L660.861 336.856 L660.861 181.336 L226.815 181.336  Z" fill="#ffffff" fill-rule="evenodd" fill-opacity="1"/>
<polyline clip-path="url(#clip330)" style="stroke:#000000; stroke-linecap:round; stroke-linejoin:round; stroke-width:4; stroke-opacity:1; fill:none" points="226.815,336.856 660.861,336.856 660.861,181.336 226.815,181.336 226.815,336.856 "/>
<polyline clip-path="url(#clip330)" style="stroke:#009af9; stroke-linecap:round; stroke-linejoin:round; stroke-width:4; stroke-opacity:1; fill:none" points="254.561,233.176 421.04,233.176 "/>
<path clip-path="url(#clip330)" d="M454.111 224.531 L458.37 224.531 L458.37 250.919 Q458.37 255.873 456.472 258.095 Q454.597 260.317 450.407 260.317 L448.786 260.317 L448.786 256.706 L449.921 256.706 Q452.351 256.706 453.231 255.572 Q454.111 254.461 454.111 250.919 L454.111 224.531 M454.111 214.438 L458.37 214.438 L458.37 219.831 L454.111 219.831 L454.111 214.438 Z" fill="#000000" fill-rule="nonzero" fill-opacity="1" /><path clip-path="url(#clip330)" d="M466.842 240.225 L466.842 224.531 L471.101 224.531 L471.101 240.063 Q471.101 243.743 472.536 245.595 Q473.972 247.424 476.842 247.424 Q480.291 247.424 482.282 245.225 Q484.296 243.026 484.296 239.229 L484.296 224.531 L488.555 224.531 L488.555 250.456 L484.296 250.456 L484.296 246.475 Q482.745 248.836 480.684 249.993 Q478.647 251.128 475.939 251.128 Q471.472 251.128 469.157 248.35 Q466.842 245.572 466.842 240.225 M477.559 223.906 L477.559 223.906 Z" fill="#000000" fill-rule="nonzero" fill-opacity="1" /><path clip-path="url(#clip330)" d="M494.272 224.531 L498.786 224.531 L506.888 246.29 L514.99 224.531 L519.504 224.531 L509.782 250.456 L503.995 250.456 L494.272 224.531 Z" fill="#000000" fill-rule="nonzero" fill-opacity="1" /><path clip-path="url(#clip330)" d="M547.559 236.429 L547.559 238.512 L527.976 238.512 Q528.254 242.91 530.615 245.225 Q532.999 247.516 537.235 247.516 Q539.689 247.516 541.98 246.915 Q544.295 246.313 546.564 245.109 L546.564 249.137 Q544.272 250.109 541.865 250.618 Q539.457 251.128 536.98 251.128 Q530.777 251.128 527.143 247.516 Q523.531 243.905 523.531 237.748 Q523.531 231.382 526.957 227.655 Q530.406 223.906 536.24 223.906 Q541.471 223.906 544.504 227.285 Q547.559 230.642 547.559 236.429 M543.3 235.179 Q543.254 231.683 541.332 229.6 Q539.434 227.517 536.286 227.517 Q532.721 227.517 530.568 229.53 Q528.439 231.544 528.115 235.202 L543.3 235.179 Z" fill="#000000" fill-rule="nonzero" fill-opacity="1" /><path clip-path="url(#clip330)" d="M576.101 234.808 L576.101 250.456 L571.841 250.456 L571.841 234.947 Q571.841 231.267 570.406 229.438 Q568.971 227.609 566.101 227.609 Q562.652 227.609 560.661 229.808 Q558.67 232.007 558.67 235.804 L558.67 250.456 L554.388 250.456 L554.388 224.531 L558.67 224.531 L558.67 228.558 Q560.198 226.22 562.258 225.063 Q564.341 223.906 567.05 223.906 Q571.517 223.906 573.809 226.683 Q576.101 229.438 576.101 234.808 Z" fill="#000000" fill-rule="nonzero" fill-opacity="1" /><path clip-path="url(#clip330)" d="M584.596 224.531 L588.855 224.531 L588.855 250.456 L584.596 250.456 L584.596 224.531 M584.596 214.438 L588.855 214.438 L588.855 219.831 L584.596 219.831 L584.596 214.438 Z" fill="#000000" fill-rule="nonzero" fill-opacity="1" /><path clip-path="url(#clip330)" d="M597.767 214.438 L602.026 214.438 L602.026 250.456 L597.767 250.456 L597.767 214.438 Z" fill="#000000" fill-rule="nonzero" fill-opacity="1" /><path clip-path="url(#clip330)" d="M633.114 236.429 L633.114 238.512 L613.531 238.512 Q613.809 242.91 616.17 245.225 Q618.554 247.516 622.79 247.516 Q625.244 247.516 627.536 246.915 Q629.85 246.313 632.119 245.109 L632.119 249.137 Q629.827 250.109 627.42 250.618 Q625.012 251.128 622.536 251.128 Q616.332 251.128 612.698 247.516 Q609.087 243.905 609.087 237.748 Q609.087 231.382 612.512 227.655 Q615.962 223.906 621.795 223.906 Q627.026 223.906 630.059 227.285 Q633.114 230.642 633.114 236.429 M628.855 235.179 Q628.809 231.683 626.887 229.6 Q624.989 227.517 621.841 227.517 Q618.276 227.517 616.124 229.53 Q613.994 231.544 613.67 235.202 L628.855 235.179 Z" fill="#000000" fill-rule="nonzero" fill-opacity="1" /><polyline clip-path="url(#clip330)" style="stroke:#e26f46; stroke-linecap:round; stroke-linejoin:round; stroke-width:4; stroke-opacity:1; fill:none" points="254.561,285.016 421.04,285.016 "/>
<path clip-path="url(#clip330)" d="M462.189 289.264 Q457.027 289.264 455.036 290.444 Q453.046 291.625 453.046 294.472 Q453.046 296.741 454.527 298.083 Q456.032 299.403 458.601 299.403 Q462.143 299.403 464.273 296.903 Q466.425 294.38 466.425 290.213 L466.425 289.264 L462.189 289.264 M470.685 287.505 L470.685 302.296 L466.425 302.296 L466.425 298.361 Q464.967 300.722 462.791 301.856 Q460.615 302.968 457.467 302.968 Q453.486 302.968 451.124 300.745 Q448.786 298.5 448.786 294.75 Q448.786 290.375 451.703 288.153 Q454.643 285.931 460.453 285.931 L466.425 285.931 L466.425 285.514 Q466.425 282.574 464.481 280.977 Q462.56 279.357 459.064 279.357 Q456.842 279.357 454.736 279.889 Q452.629 280.421 450.685 281.486 L450.685 277.551 Q453.023 276.648 455.222 276.208 Q457.421 275.746 459.504 275.746 Q465.129 275.746 467.907 278.662 Q470.685 281.579 470.685 287.505 Z" fill="#000000" fill-rule="nonzero" fill-opacity="1" /><path clip-path="url(#clip330)" d="M496.518 280.306 L496.518 266.278 L500.777 266.278 L500.777 302.296 L496.518 302.296 L496.518 298.407 Q495.175 300.722 493.115 301.856 Q491.078 302.968 488.208 302.968 Q483.509 302.968 480.546 299.218 Q477.606 295.468 477.606 289.357 Q477.606 283.245 480.546 279.495 Q483.509 275.746 488.208 275.746 Q491.078 275.746 493.115 276.88 Q495.175 277.991 496.518 280.306 M482.004 289.357 Q482.004 294.056 483.925 296.741 Q485.87 299.403 489.249 299.403 Q492.629 299.403 494.573 296.741 Q496.518 294.056 496.518 289.357 Q496.518 284.657 494.573 281.995 Q492.629 279.31 489.249 279.31 Q485.87 279.31 483.925 281.995 Q482.004 284.657 482.004 289.357 Z" fill="#000000" fill-rule="nonzero" fill-opacity="1" /><path clip-path="url(#clip330)" d="M509.11 292.065 L509.11 276.371 L513.369 276.371 L513.369 291.903 Q513.369 295.583 514.805 297.435 Q516.24 299.264 519.11 299.264 Q522.559 299.264 524.55 297.065 Q526.564 294.866 526.564 291.069 L526.564 276.371 L530.823 276.371 L530.823 302.296 L526.564 302.296 L526.564 298.315 Q525.013 300.676 522.953 301.833 Q520.916 302.968 518.207 302.968 Q513.74 302.968 511.425 300.19 Q509.11 297.412 509.11 292.065 M519.828 275.746 L519.828 275.746 Z" fill="#000000" fill-rule="nonzero" fill-opacity="1" /><path clip-path="url(#clip330)" d="M539.596 266.278 L543.855 266.278 L543.855 302.296 L539.596 302.296 L539.596 266.278 Z" fill="#000000" fill-rule="nonzero" fill-opacity="1" /><path clip-path="url(#clip330)" d="M556.98 269.009 L556.98 276.371 L565.753 276.371 L565.753 279.681 L556.98 279.681 L556.98 293.755 Q556.98 296.926 557.837 297.829 Q558.716 298.731 561.378 298.731 L565.753 298.731 L565.753 302.296 L561.378 302.296 Q556.448 302.296 554.573 300.468 Q552.698 298.616 552.698 293.755 L552.698 279.681 L549.573 279.681 L549.573 276.371 L552.698 276.371 L552.698 269.009 L556.98 269.009 Z" fill="#000000" fill-rule="nonzero" fill-opacity="1" /></svg>
